%TF.GenerationSoftware,KiCad,Pcbnew,8.0.3*%
%TF.CreationDate,2025-01-04T16:23:12+09:00*%
%TF.ProjectId,manjaro_mx,6d616e6a-6172-46f5-9f6d-782e6b696361,rev?*%
%TF.SameCoordinates,Original*%
%TF.FileFunction,Drillmap*%
%TF.FilePolarity,Positive*%
%FSLAX45Y45*%
G04 Gerber Fmt 4.5, Leading zero omitted, Abs format (unit mm)*
G04 Created by KiCad (PCBNEW 8.0.3) date 2025-01-04 16:23:12*
%MOMM*%
%LPD*%
G01*
G04 APERTURE LIST*
%ADD10C,0.050000*%
%ADD11C,0.200000*%
%ADD12C,0.100000*%
%ADD13C,0.109220*%
G04 APERTURE END LIST*
D10*
X14500000Y-3550000D02*
X14500000Y-4250000D01*
X21400000Y-4250000D02*
X32100000Y-4250000D01*
X32100000Y-3250000D02*
X32100000Y-3550000D01*
X5500000Y-6750000D02*
G75*
G02*
X5100000Y-6750000I-200000J0D01*
G01*
X5100000Y-6750000D02*
G75*
G02*
X5500000Y-6750000I200000J0D01*
G01*
X21400000Y-3550000D02*
X21400000Y-4250000D01*
X3450000Y-12450000D02*
X5350000Y-12450000D01*
X27300000Y-14734000D02*
X28250000Y-14734000D01*
X17500000Y-8850000D02*
X14900000Y-8850000D01*
X20300000Y-12600000D02*
G75*
G02*
X19900000Y-12600000I-200000J0D01*
G01*
X19900000Y-12600000D02*
G75*
G02*
X20300000Y-12600000I200000J0D01*
G01*
X22550000Y-13800000D02*
X18900000Y-15100000D01*
X18900000Y-15100000D02*
X18050000Y-13100000D01*
X32100000Y-3550000D02*
X21400000Y-3550000D01*
X28250000Y-14150000D02*
X30200000Y-14150000D01*
X30450000Y-6800000D02*
G75*
G02*
X30050000Y-6800000I-200000J0D01*
G01*
X30050000Y-6800000D02*
G75*
G02*
X30450000Y-6800000I200000J0D01*
G01*
X26600000Y-5100000D02*
G75*
G02*
X26200000Y-5100000I-200000J0D01*
G01*
X26200000Y-5100000D02*
G75*
G02*
X26600000Y-5100000I200000J0D01*
G01*
X21000000Y-4250000D02*
X21000000Y-3550000D01*
X14100000Y-4250000D02*
X3450000Y-4250000D01*
X30200000Y-12450000D02*
X30200000Y-14150000D01*
X22700000Y-6000000D02*
G75*
G02*
X22300000Y-6000000I-200000J0D01*
G01*
X22300000Y-6000000D02*
G75*
G02*
X22700000Y-6000000I200000J0D01*
G01*
X14500000Y-3550000D02*
X21000000Y-3550000D01*
X3450000Y-3250000D02*
X3450000Y-3550000D01*
X22700000Y-9800000D02*
G75*
G02*
X22300000Y-9800000I-200000J0D01*
G01*
X22300000Y-9800000D02*
G75*
G02*
X22700000Y-9800000I200000J0D01*
G01*
X14100000Y-3550000D02*
X14100000Y-4250000D01*
X12950000Y-12800000D02*
X12950000Y-13800000D01*
X28250000Y-14734000D02*
X28250000Y-14150000D01*
X9400000Y-10700000D02*
G75*
G02*
X9000000Y-10700000I-200000J0D01*
G01*
X9000000Y-10700000D02*
G75*
G02*
X9400000Y-10700000I200000J0D01*
G01*
X26500000Y-10600000D02*
G75*
G02*
X26100000Y-10600000I-200000J0D01*
G01*
X26100000Y-10600000D02*
G75*
G02*
X26500000Y-10600000I200000J0D01*
G01*
X7250000Y-12800000D02*
X12950000Y-12800000D01*
X14900000Y-8850000D02*
X14900000Y-4250000D01*
X13100000Y-9600000D02*
G75*
G02*
X12700000Y-9600000I-200000J0D01*
G01*
X12700000Y-9600000D02*
G75*
G02*
X13100000Y-9600000I200000J0D01*
G01*
X30300000Y-10400000D02*
G75*
G02*
X29900000Y-10400000I-200000J0D01*
G01*
X29900000Y-10400000D02*
G75*
G02*
X30300000Y-10400000I200000J0D01*
G01*
X3450000Y-3550000D02*
X14100000Y-3550000D01*
X7500000Y-12400000D02*
G75*
G02*
X7100000Y-12400000I-200000J0D01*
G01*
X7100000Y-12400000D02*
G75*
G02*
X7500000Y-12400000I200000J0D01*
G01*
X20650000Y-8850000D02*
X20650000Y-4250000D01*
X13150000Y-5900000D02*
G75*
G02*
X12750000Y-5900000I-200000J0D01*
G01*
X12750000Y-5900000D02*
G75*
G02*
X13150000Y-5900000I200000J0D01*
G01*
X18050000Y-8850000D02*
X18050000Y-13100000D01*
X28450000Y-12300000D02*
G75*
G02*
X28050000Y-12300000I-200000J0D01*
G01*
X28050000Y-12300000D02*
G75*
G02*
X28450000Y-12300000I200000J0D01*
G01*
X17500000Y-8850000D02*
X17500000Y-13100000D01*
X16650000Y-15050000D02*
X17500000Y-13100000D01*
X9200000Y-5000000D02*
G75*
G02*
X8800000Y-5000000I-200000J0D01*
G01*
X8800000Y-5000000D02*
G75*
G02*
X9200000Y-5000000I200000J0D01*
G01*
X5500000Y-10500000D02*
G75*
G02*
X5100000Y-10500000I-200000J0D01*
G01*
X5100000Y-10500000D02*
G75*
G02*
X5500000Y-10500000I200000J0D01*
G01*
X22550000Y-11450000D02*
X22550000Y-13800000D01*
X18050000Y-8850000D02*
X20650000Y-8850000D01*
X32100000Y-3250000D02*
X3450000Y-3250000D01*
X3450000Y-4250000D02*
X3450000Y-12450000D01*
X12950000Y-13800000D02*
X16650000Y-15050000D01*
X32100000Y-12450000D02*
X30200000Y-12450000D01*
X5350000Y-14150000D02*
X7250000Y-14150000D01*
X27300000Y-11450000D02*
X27300000Y-14734000D01*
X14500000Y-4250000D02*
X14900000Y-4250000D01*
X15600000Y-12600000D02*
G75*
G02*
X15200000Y-12600000I-200000J0D01*
G01*
X15200000Y-12600000D02*
G75*
G02*
X15600000Y-12600000I200000J0D01*
G01*
X27300000Y-11450000D02*
X22550000Y-11450000D01*
X7250000Y-14150000D02*
X7250000Y-12800000D01*
X21000000Y-4250000D02*
X20650000Y-4250000D01*
X5350000Y-12450000D02*
X5350000Y-14150000D01*
X32100000Y-4250000D02*
X32100000Y-12450000D01*
D11*
D12*
X5585000Y-6835000D02*
X5615000Y-6865000D01*
X5615000Y-6835000D02*
X5585000Y-6865000D01*
X5585000Y-7035000D02*
X5615000Y-7065000D01*
X5615000Y-7035000D02*
X5585000Y-7065000D01*
X5585000Y-8185000D02*
X5615000Y-8215000D01*
X5615000Y-8185000D02*
X5585000Y-8215000D01*
X5585000Y-8385000D02*
X5615000Y-8415000D01*
X5615000Y-8385000D02*
X5585000Y-8415000D01*
X5585000Y-10035000D02*
X5615000Y-10065000D01*
X5615000Y-10035000D02*
X5585000Y-10065000D01*
X5585000Y-10285000D02*
X5615000Y-10315000D01*
X5615000Y-10285000D02*
X5585000Y-10315000D01*
X5585000Y-11985000D02*
X5615000Y-12015000D01*
X5615000Y-11985000D02*
X5585000Y-12015000D01*
X5585000Y-12235000D02*
X5615000Y-12265000D01*
X5615000Y-12235000D02*
X5585000Y-12265000D01*
X5860073Y-5560074D02*
X5890073Y-5590074D01*
X5890073Y-5560074D02*
X5860073Y-5590074D01*
X6135000Y-5735000D02*
X6165000Y-5765000D01*
X6165000Y-5735000D02*
X6135000Y-5765000D01*
X6185000Y-5985000D02*
X6215000Y-6015000D01*
X6215000Y-5985000D02*
X6185000Y-6015000D01*
X6585000Y-5385000D02*
X6615000Y-5415000D01*
X6615000Y-5385000D02*
X6585000Y-5415000D01*
X6685000Y-5685000D02*
X6715000Y-5715000D01*
X6715000Y-5685000D02*
X6685000Y-5715000D01*
X6835000Y-5735000D02*
X6865000Y-5765000D01*
X6865000Y-5735000D02*
X6835000Y-5765000D01*
X7085000Y-8085000D02*
X7115000Y-8115000D01*
X7115000Y-8085000D02*
X7085000Y-8115000D01*
X7185000Y-9985000D02*
X7215000Y-10015000D01*
X7215000Y-9985000D02*
X7185000Y-10015000D01*
X7285000Y-11885000D02*
X7315000Y-11915000D01*
X7315000Y-11885000D02*
X7285000Y-11915000D01*
X7485000Y-7285000D02*
X7515000Y-7315000D01*
X7515000Y-7285000D02*
X7485000Y-7315000D01*
X7485000Y-7535000D02*
X7515000Y-7565000D01*
X7515000Y-7535000D02*
X7485000Y-7565000D01*
X7485000Y-9235000D02*
X7515000Y-9265000D01*
X7515000Y-9235000D02*
X7485000Y-9265000D01*
X7485000Y-9435000D02*
X7515000Y-9465000D01*
X7515000Y-9435000D02*
X7485000Y-9465000D01*
X7485000Y-11135000D02*
X7515000Y-11165000D01*
X7515000Y-11135000D02*
X7485000Y-11165000D01*
X7485000Y-11335000D02*
X7515000Y-11365000D01*
X7515000Y-11335000D02*
X7485000Y-11365000D01*
X8585000Y-12385000D02*
X8615000Y-12415000D01*
X8615000Y-12385000D02*
X8585000Y-12415000D01*
X9385000Y-6185000D02*
X9415000Y-6215000D01*
X9415000Y-6185000D02*
X9385000Y-6215000D01*
X9385000Y-6385000D02*
X9415000Y-6415000D01*
X9415000Y-6385000D02*
X9385000Y-6415000D01*
X9385000Y-8085000D02*
X9415000Y-8115000D01*
X9415000Y-8085000D02*
X9385000Y-8115000D01*
X9385000Y-8285000D02*
X9415000Y-8315000D01*
X9415000Y-8285000D02*
X9385000Y-8315000D01*
X9385000Y-9985000D02*
X9415000Y-10015000D01*
X9415000Y-9985000D02*
X9385000Y-10015000D01*
X9385000Y-10185000D02*
X9415000Y-10215000D01*
X9415000Y-10185000D02*
X9385000Y-10215000D01*
X11285000Y-6785000D02*
X11315000Y-6815000D01*
X11315000Y-6785000D02*
X11285000Y-6815000D01*
X11285000Y-7035000D02*
X11315000Y-7065000D01*
X11315000Y-7035000D02*
X11285000Y-7065000D01*
X11285000Y-8685000D02*
X11315000Y-8715000D01*
X11315000Y-8685000D02*
X11285000Y-8715000D01*
X11285000Y-8985000D02*
X11315000Y-9015000D01*
X11315000Y-8985000D02*
X11285000Y-9015000D01*
X11285000Y-10585000D02*
X11315000Y-10615000D01*
X11315000Y-10585000D02*
X11285000Y-10615000D01*
X11285000Y-10835000D02*
X11315000Y-10865000D01*
X11315000Y-10835000D02*
X11285000Y-10865000D01*
X12485000Y-4385000D02*
X12515000Y-4415000D01*
X12515000Y-4385000D02*
X12485000Y-4415000D01*
X12685000Y-4585000D02*
X12715000Y-4615000D01*
X12715000Y-4585000D02*
X12685000Y-4615000D01*
X13185000Y-7185000D02*
X13215000Y-7215000D01*
X13215000Y-7185000D02*
X13185000Y-7215000D01*
X13185000Y-7385000D02*
X13215000Y-7415000D01*
X13215000Y-7385000D02*
X13185000Y-7415000D01*
X13185000Y-9085000D02*
X13215000Y-9115000D01*
X13215000Y-9085000D02*
X13185000Y-9115000D01*
X13185000Y-9285000D02*
X13215000Y-9315000D01*
X13215000Y-9285000D02*
X13185000Y-9315000D01*
X13185000Y-10985000D02*
X13215000Y-11015000D01*
X13215000Y-10985000D02*
X13185000Y-11015000D01*
X13185000Y-11185000D02*
X13215000Y-11215000D01*
X13215000Y-11185000D02*
X13185000Y-11215000D01*
X14785000Y-5685000D02*
X14815000Y-5715000D01*
X14815000Y-5685000D02*
X14785000Y-5715000D01*
X14805000Y-5963579D02*
X14835000Y-5993579D01*
X14835000Y-5963579D02*
X14805000Y-5993579D01*
X14985000Y-9085000D02*
X15015000Y-9115000D01*
X15015000Y-9085000D02*
X14985000Y-9115000D01*
X19185000Y-10085000D02*
X19215000Y-10115000D01*
X19215000Y-10085000D02*
X19185000Y-10115000D01*
X19385000Y-10085000D02*
X19415000Y-10115000D01*
X19415000Y-10085000D02*
X19385000Y-10115000D01*
X20285000Y-9985000D02*
X20315000Y-10015000D01*
X20315000Y-9985000D02*
X20285000Y-10015000D01*
X21885000Y-10985000D02*
X21915000Y-11015000D01*
X21915000Y-10985000D02*
X21885000Y-11015000D01*
X21885000Y-11185000D02*
X21915000Y-11215000D01*
X21915000Y-11185000D02*
X21885000Y-11215000D01*
X22185000Y-7385000D02*
X22215000Y-7415000D01*
X22215000Y-7385000D02*
X22185000Y-7415000D01*
X22185000Y-7585000D02*
X22215000Y-7615000D01*
X22215000Y-7585000D02*
X22185000Y-7615000D01*
X22185000Y-9285000D02*
X22215000Y-9315000D01*
X22215000Y-9285000D02*
X22185000Y-9315000D01*
X22185000Y-9485000D02*
X22215000Y-9515000D01*
X22215000Y-9485000D02*
X22185000Y-9515000D01*
X22785000Y-5785000D02*
X22815000Y-5815000D01*
X22815000Y-5785000D02*
X22785000Y-5815000D01*
X23685000Y-10985000D02*
X23715000Y-11015000D01*
X23715000Y-10985000D02*
X23685000Y-11015000D01*
X23685000Y-11185000D02*
X23715000Y-11215000D01*
X23715000Y-11185000D02*
X23685000Y-11215000D01*
X24185000Y-6785000D02*
X24215000Y-6815000D01*
X24215000Y-6785000D02*
X24185000Y-6815000D01*
X24185000Y-7085000D02*
X24215000Y-7115000D01*
X24215000Y-7085000D02*
X24185000Y-7115000D01*
X24185000Y-8685000D02*
X24215000Y-8715000D01*
X24215000Y-8685000D02*
X24185000Y-8715000D01*
X24185000Y-8985000D02*
X24215000Y-9015000D01*
X24215000Y-8985000D02*
X24185000Y-9015000D01*
X26085000Y-6585000D02*
X26115000Y-6615000D01*
X26115000Y-6585000D02*
X26085000Y-6615000D01*
X26085000Y-6785000D02*
X26115000Y-6815000D01*
X26115000Y-6785000D02*
X26085000Y-6815000D01*
X26085000Y-8085000D02*
X26115000Y-8115000D01*
X26115000Y-8085000D02*
X26085000Y-8115000D01*
X26085000Y-8285000D02*
X26115000Y-8315000D01*
X26115000Y-8285000D02*
X26085000Y-8315000D01*
X26085000Y-9985000D02*
X26115000Y-10015000D01*
X26115000Y-9985000D02*
X26085000Y-10015000D01*
X26085000Y-10185000D02*
X26115000Y-10215000D01*
X26115000Y-10185000D02*
X26085000Y-10215000D01*
X27185000Y-10785000D02*
X27215000Y-10815000D01*
X27215000Y-10785000D02*
X27185000Y-10815000D01*
X27585000Y-11085000D02*
X27615000Y-11115000D01*
X27615000Y-11085000D02*
X27585000Y-11115000D01*
X27785000Y-9185000D02*
X27815000Y-9215000D01*
X27815000Y-9185000D02*
X27785000Y-9215000D01*
X27885000Y-7085000D02*
X27915000Y-7115000D01*
X27915000Y-7085000D02*
X27885000Y-7115000D01*
X27885000Y-7285000D02*
X27915000Y-7315000D01*
X27915000Y-7285000D02*
X27885000Y-7315000D01*
X27985000Y-8985000D02*
X28015000Y-9015000D01*
X28015000Y-8985000D02*
X27985000Y-9015000D01*
X27985000Y-11585000D02*
X28015000Y-11615000D01*
X28015000Y-11585000D02*
X27985000Y-11615000D01*
X28085000Y-11085000D02*
X28115000Y-11115000D01*
X28115000Y-11085000D02*
X28085000Y-11115000D01*
X28085000Y-12985000D02*
X28115000Y-13015000D01*
X28115000Y-12985000D02*
X28085000Y-13015000D01*
X28185000Y-13785000D02*
X28215000Y-13815000D01*
X28215000Y-13785000D02*
X28185000Y-13815000D01*
X28985000Y-9885000D02*
X29015000Y-9915000D01*
X29015000Y-9885000D02*
X28985000Y-9915000D01*
X29785000Y-6464755D02*
X29815000Y-6494755D01*
X29815000Y-6464755D02*
X29785000Y-6494755D01*
X29785000Y-6585000D02*
X29815000Y-6615000D01*
X29815000Y-6585000D02*
X29785000Y-6615000D01*
X29785000Y-8185000D02*
X29815000Y-8215000D01*
X29815000Y-8185000D02*
X29785000Y-8215000D01*
X29785000Y-8385000D02*
X29815000Y-8415000D01*
X29815000Y-8385000D02*
X29785000Y-8415000D01*
X29885000Y-9885000D02*
X29915000Y-9915000D01*
X29915000Y-9885000D02*
X29885000Y-9915000D01*
X29885000Y-10085000D02*
X29915000Y-10115000D01*
X29915000Y-10085000D02*
X29885000Y-10115000D01*
X30185000Y-8185000D02*
X30215000Y-8215000D01*
X30215000Y-8185000D02*
X30185000Y-8215000D01*
X13937500Y-4850000D02*
G75*
G02*
X13862500Y-4850000I-37500J0D01*
G01*
X13862500Y-4850000D02*
G75*
G02*
X13937500Y-4850000I37500J0D01*
G01*
X13937500Y-5050000D02*
G75*
G02*
X13862500Y-5050000I-37500J0D01*
G01*
X13862500Y-5050000D02*
G75*
G02*
X13937500Y-5050000I37500J0D01*
G01*
X21637500Y-4850000D02*
G75*
G02*
X21562500Y-4850000I-37500J0D01*
G01*
X21562500Y-4850000D02*
G75*
G02*
X21637500Y-4850000I37500J0D01*
G01*
X21637500Y-5050000D02*
G75*
G02*
X21562500Y-5050000I-37500J0D01*
G01*
X21562500Y-5050000D02*
G75*
G02*
X21637500Y-5050000I37500J0D01*
G01*
X12246000Y-4810000D02*
X12246000Y-4890000D01*
X12206000Y-4850000D02*
X12286000Y-4850000D01*
X12500000Y-4810000D02*
X12500000Y-4890000D01*
X12460000Y-4850000D02*
X12540000Y-4850000D01*
X12754000Y-4810000D02*
X12754000Y-4890000D01*
X12714000Y-4850000D02*
X12794000Y-4850000D01*
X22951000Y-4810000D02*
X22951000Y-4890000D01*
X22911000Y-4850000D02*
X22991000Y-4850000D01*
X23205000Y-4810000D02*
X23205000Y-4890000D01*
X23165000Y-4850000D02*
X23245000Y-4850000D01*
X23459000Y-4810000D02*
X23459000Y-4890000D01*
X23419000Y-4850000D02*
X23499000Y-4850000D01*
X15885356Y-9195356D02*
X15885356Y-9124644D01*
X15814644Y-9124644D01*
X15814644Y-9195356D01*
X15885356Y-9195356D01*
X15885356Y-10645356D02*
X15885356Y-10574644D01*
X15814644Y-10574644D01*
X15814644Y-10645356D01*
X15885356Y-10645356D01*
X16060356Y-11620356D02*
X16060356Y-11549644D01*
X15989644Y-11549644D01*
X15989644Y-11620356D01*
X16060356Y-11620356D01*
X16050000Y-11535000D02*
X16000000Y-11535000D01*
X16000000Y-11635000D02*
G75*
G02*
X16000000Y-11535000I0J50000D01*
G01*
X16000000Y-11635000D02*
X16050000Y-11635000D01*
X16050000Y-11635000D02*
G75*
G03*
X16050000Y-11535000I0J50000D01*
G01*
X16135356Y-10645356D02*
X16135356Y-10574644D01*
X16064644Y-10574644D01*
X16064644Y-10645356D01*
X16135356Y-10645356D01*
X16210356Y-12050356D02*
X16210356Y-11979644D01*
X16139644Y-11979644D01*
X16139644Y-12050356D01*
X16210356Y-12050356D01*
X16200000Y-11965000D02*
X16150000Y-11965000D01*
X16150000Y-12065000D02*
G75*
G02*
X16150000Y-11965000I0J50000D01*
G01*
X16150000Y-12065000D02*
X16200000Y-12065000D01*
X16200000Y-12065000D02*
G75*
G03*
X16200000Y-11965000I0J50000D01*
G01*
X16385356Y-9195356D02*
X16385356Y-9124644D01*
X16314644Y-9124644D01*
X16314644Y-9195356D01*
X16385356Y-9195356D01*
X16385356Y-10645356D02*
X16385356Y-10574644D01*
X16314644Y-10574644D01*
X16314644Y-10645356D01*
X16385356Y-10645356D01*
X16610356Y-12050356D02*
X16610356Y-11979644D01*
X16539644Y-11979644D01*
X16539644Y-12050356D01*
X16610356Y-12050356D01*
X16600000Y-11965000D02*
X16550000Y-11965000D01*
X16550000Y-12065000D02*
G75*
G02*
X16550000Y-11965000I0J50000D01*
G01*
X16550000Y-12065000D02*
X16600000Y-12065000D01*
X16600000Y-12065000D02*
G75*
G03*
X16600000Y-11965000I0J50000D01*
G01*
X16910356Y-12050356D02*
X16910356Y-11979644D01*
X16839644Y-11979644D01*
X16839644Y-12050356D01*
X16910356Y-12050356D01*
X16900000Y-11965000D02*
X16850000Y-11965000D01*
X16850000Y-12065000D02*
G75*
G02*
X16850000Y-11965000I0J50000D01*
G01*
X16850000Y-12065000D02*
X16900000Y-12065000D01*
X16900000Y-12065000D02*
G75*
G03*
X16900000Y-11965000I0J50000D01*
G01*
X18710356Y-11625356D02*
X18710356Y-11554644D01*
X18639644Y-11554644D01*
X18639644Y-11625356D01*
X18710356Y-11625356D01*
X18650000Y-11640000D02*
X18700000Y-11640000D01*
X18700000Y-11540000D02*
G75*
G02*
X18700000Y-11640000I0J-50000D01*
G01*
X18700000Y-11540000D02*
X18650000Y-11540000D01*
X18650000Y-11540000D02*
G75*
G03*
X18650000Y-11640000I0J-50000D01*
G01*
X19010356Y-11625356D02*
X19010356Y-11554644D01*
X18939644Y-11554644D01*
X18939644Y-11625356D01*
X19010356Y-11625356D01*
X18950000Y-11640000D02*
X19000000Y-11640000D01*
X19000000Y-11540000D02*
G75*
G02*
X19000000Y-11640000I0J-50000D01*
G01*
X19000000Y-11540000D02*
X18950000Y-11540000D01*
X18950000Y-11540000D02*
G75*
G03*
X18950000Y-11640000I0J-50000D01*
G01*
X19085356Y-9195356D02*
X19085356Y-9124644D01*
X19014644Y-9124644D01*
X19014644Y-9195356D01*
X19085356Y-9195356D01*
X19085356Y-10645356D02*
X19085356Y-10574644D01*
X19014644Y-10574644D01*
X19014644Y-10645356D01*
X19085356Y-10645356D01*
X19335356Y-10645356D02*
X19335356Y-10574644D01*
X19264644Y-10574644D01*
X19264644Y-10645356D01*
X19335356Y-10645356D01*
X19410356Y-11625356D02*
X19410356Y-11554644D01*
X19339644Y-11554644D01*
X19339644Y-11625356D01*
X19410356Y-11625356D01*
X19350000Y-11640000D02*
X19400000Y-11640000D01*
X19400000Y-11540000D02*
G75*
G02*
X19400000Y-11640000I0J-50000D01*
G01*
X19400000Y-11540000D02*
X19350000Y-11540000D01*
X19350000Y-11540000D02*
G75*
G03*
X19350000Y-11640000I0J-50000D01*
G01*
X19560356Y-12055356D02*
X19560356Y-11984644D01*
X19489644Y-11984644D01*
X19489644Y-12055356D01*
X19560356Y-12055356D01*
X19500000Y-12070000D02*
X19550000Y-12070000D01*
X19550000Y-11970000D02*
G75*
G02*
X19550000Y-12070000I0J-50000D01*
G01*
X19550000Y-11970000D02*
X19500000Y-11970000D01*
X19500000Y-11970000D02*
G75*
G03*
X19500000Y-12070000I0J-50000D01*
G01*
X19585356Y-9195356D02*
X19585356Y-9124644D01*
X19514644Y-9124644D01*
X19514644Y-9195356D01*
X19585356Y-9195356D01*
X19585356Y-10645356D02*
X19585356Y-10574644D01*
X19514644Y-10574644D01*
X19514644Y-10645356D01*
X19585356Y-10645356D01*
X27650356Y-12769356D02*
X27650356Y-12698644D01*
X27579644Y-12698644D01*
X27579644Y-12769356D01*
X27650356Y-12769356D01*
X27650356Y-13023356D02*
X27650356Y-12952644D01*
X27579644Y-12952644D01*
X27579644Y-13023356D01*
X27650356Y-13023356D01*
X27650356Y-13277356D02*
X27650356Y-13206644D01*
X27579644Y-13206644D01*
X27579644Y-13277356D01*
X27650356Y-13277356D01*
X27650356Y-13531356D02*
X27650356Y-13460644D01*
X27579644Y-13460644D01*
X27579644Y-13531356D01*
X27650356Y-13531356D01*
X27650356Y-13785356D02*
X27650356Y-13714644D01*
X27579644Y-13714644D01*
X27579644Y-13785356D01*
X27650356Y-13785356D01*
X27650356Y-14039356D02*
X27650356Y-13968644D01*
X27579644Y-13968644D01*
X27579644Y-14039356D01*
X27650356Y-14039356D01*
D13*
X4103000Y-4692610D02*
X4157610Y-4638000D01*
X4103000Y-4583390D01*
X4048390Y-4638000D01*
X4103000Y-4692610D01*
X4103000Y-6216610D02*
X4157610Y-6162000D01*
X4103000Y-6107390D01*
X4048390Y-6162000D01*
X4103000Y-6216610D01*
X4357000Y-4692610D02*
X4411610Y-4638000D01*
X4357000Y-4583390D01*
X4302390Y-4638000D01*
X4357000Y-4692610D01*
X4357000Y-6216610D02*
X4411610Y-6162000D01*
X4357000Y-6107390D01*
X4302390Y-6162000D01*
X4357000Y-6216610D01*
X4611000Y-4692610D02*
X4665610Y-4638000D01*
X4611000Y-4583390D01*
X4556390Y-4638000D01*
X4611000Y-4692610D01*
X4611000Y-6216610D02*
X4665610Y-6162000D01*
X4611000Y-6107390D01*
X4556390Y-6162000D01*
X4611000Y-6216610D01*
X4865000Y-4692610D02*
X4919610Y-4638000D01*
X4865000Y-4583390D01*
X4810390Y-4638000D01*
X4865000Y-4692610D01*
X4865000Y-6216610D02*
X4919610Y-6162000D01*
X4865000Y-6107390D01*
X4810390Y-6162000D01*
X4865000Y-6216610D01*
X5119000Y-4692610D02*
X5173610Y-4638000D01*
X5119000Y-4583390D01*
X5064390Y-4638000D01*
X5119000Y-4692610D01*
X5119000Y-6216610D02*
X5173610Y-6162000D01*
X5119000Y-6107390D01*
X5064390Y-6162000D01*
X5119000Y-6216610D01*
X5373000Y-4692610D02*
X5427610Y-4638000D01*
X5373000Y-4583390D01*
X5318390Y-4638000D01*
X5373000Y-4692610D01*
X5373000Y-6216610D02*
X5427610Y-6162000D01*
X5373000Y-6107390D01*
X5318390Y-6162000D01*
X5373000Y-6216610D01*
X5627000Y-4692610D02*
X5681610Y-4638000D01*
X5627000Y-4583390D01*
X5572390Y-4638000D01*
X5627000Y-4692610D01*
X5627000Y-6216610D02*
X5681610Y-6162000D01*
X5627000Y-6107390D01*
X5572390Y-6162000D01*
X5627000Y-6216610D01*
X5881000Y-4692610D02*
X5935610Y-4638000D01*
X5881000Y-4583390D01*
X5826390Y-4638000D01*
X5881000Y-4692610D01*
X5881000Y-6216610D02*
X5935610Y-6162000D01*
X5881000Y-6107390D01*
X5826390Y-6162000D01*
X5881000Y-6216610D01*
X6135000Y-4692610D02*
X6189610Y-4638000D01*
X6135000Y-4583390D01*
X6080390Y-4638000D01*
X6135000Y-4692610D01*
X6135000Y-6216610D02*
X6189610Y-6162000D01*
X6135000Y-6107390D01*
X6080390Y-6162000D01*
X6135000Y-6216610D01*
X6389000Y-4692610D02*
X6443610Y-4638000D01*
X6389000Y-4583390D01*
X6334390Y-4638000D01*
X6389000Y-4692610D01*
X6389000Y-5454610D02*
X6443610Y-5400000D01*
X6389000Y-5345390D01*
X6334390Y-5400000D01*
X6389000Y-5454610D01*
X6389000Y-5708610D02*
X6443610Y-5654000D01*
X6389000Y-5599390D01*
X6334390Y-5654000D01*
X6389000Y-5708610D01*
X6389000Y-5962610D02*
X6443610Y-5908000D01*
X6389000Y-5853390D01*
X6334390Y-5908000D01*
X6389000Y-5962610D01*
X6389000Y-6216610D02*
X6443610Y-6162000D01*
X6389000Y-6107390D01*
X6334390Y-6162000D01*
X6389000Y-6216610D01*
X6643000Y-4692610D02*
X6697610Y-4638000D01*
X6643000Y-4583390D01*
X6588390Y-4638000D01*
X6643000Y-4692610D01*
X6643000Y-6216610D02*
X6697610Y-6162000D01*
X6643000Y-6107390D01*
X6588390Y-6162000D01*
X6643000Y-6216610D01*
X6897000Y-4692610D02*
X6951610Y-4638000D01*
X6897000Y-4583390D01*
X6842390Y-4638000D01*
X6897000Y-4692610D01*
X6897000Y-6216610D02*
X6951610Y-6162000D01*
X6897000Y-6107390D01*
X6842390Y-6162000D01*
X6897000Y-6216610D01*
X28603000Y-4692610D02*
X28657610Y-4638000D01*
X28603000Y-4583390D01*
X28548390Y-4638000D01*
X28603000Y-4692610D01*
X28603000Y-6216610D02*
X28657610Y-6162000D01*
X28603000Y-6107390D01*
X28548390Y-6162000D01*
X28603000Y-6216610D01*
X28857000Y-4692610D02*
X28911610Y-4638000D01*
X28857000Y-4583390D01*
X28802390Y-4638000D01*
X28857000Y-4692610D01*
X28857000Y-6216610D02*
X28911610Y-6162000D01*
X28857000Y-6107390D01*
X28802390Y-6162000D01*
X28857000Y-6216610D01*
X29111000Y-4692610D02*
X29165610Y-4638000D01*
X29111000Y-4583390D01*
X29056390Y-4638000D01*
X29111000Y-4692610D01*
X29111000Y-4946610D02*
X29165610Y-4892000D01*
X29111000Y-4837390D01*
X29056390Y-4892000D01*
X29111000Y-4946610D01*
X29111000Y-5200610D02*
X29165610Y-5146000D01*
X29111000Y-5091390D01*
X29056390Y-5146000D01*
X29111000Y-5200610D01*
X29111000Y-5454610D02*
X29165610Y-5400000D01*
X29111000Y-5345390D01*
X29056390Y-5400000D01*
X29111000Y-5454610D01*
X29111000Y-6216610D02*
X29165610Y-6162000D01*
X29111000Y-6107390D01*
X29056390Y-6162000D01*
X29111000Y-6216610D01*
X29365000Y-4692610D02*
X29419610Y-4638000D01*
X29365000Y-4583390D01*
X29310390Y-4638000D01*
X29365000Y-4692610D01*
X29365000Y-6216610D02*
X29419610Y-6162000D01*
X29365000Y-6107390D01*
X29310390Y-6162000D01*
X29365000Y-6216610D01*
X29619000Y-4692610D02*
X29673610Y-4638000D01*
X29619000Y-4583390D01*
X29564390Y-4638000D01*
X29619000Y-4692610D01*
X29619000Y-6216610D02*
X29673610Y-6162000D01*
X29619000Y-6107390D01*
X29564390Y-6162000D01*
X29619000Y-6216610D01*
X29873000Y-4692610D02*
X29927610Y-4638000D01*
X29873000Y-4583390D01*
X29818390Y-4638000D01*
X29873000Y-4692610D01*
X29873000Y-6216610D02*
X29927610Y-6162000D01*
X29873000Y-6107390D01*
X29818390Y-6162000D01*
X29873000Y-6216610D01*
X30127000Y-4692610D02*
X30181610Y-4638000D01*
X30127000Y-4583390D01*
X30072390Y-4638000D01*
X30127000Y-4692610D01*
X30127000Y-6216610D02*
X30181610Y-6162000D01*
X30127000Y-6107390D01*
X30072390Y-6162000D01*
X30127000Y-6216610D01*
X30381000Y-4692610D02*
X30435610Y-4638000D01*
X30381000Y-4583390D01*
X30326390Y-4638000D01*
X30381000Y-4692610D01*
X30381000Y-6216610D02*
X30435610Y-6162000D01*
X30381000Y-6107390D01*
X30326390Y-6162000D01*
X30381000Y-6216610D01*
X30635000Y-4692610D02*
X30689610Y-4638000D01*
X30635000Y-4583390D01*
X30580390Y-4638000D01*
X30635000Y-4692610D01*
X30635000Y-6216610D02*
X30689610Y-6162000D01*
X30635000Y-6107390D01*
X30580390Y-6162000D01*
X30635000Y-6216610D01*
X30889000Y-4692610D02*
X30943610Y-4638000D01*
X30889000Y-4583390D01*
X30834390Y-4638000D01*
X30889000Y-4692610D01*
X30889000Y-6216610D02*
X30943610Y-6162000D01*
X30889000Y-6107390D01*
X30834390Y-6162000D01*
X30889000Y-6216610D01*
X31143000Y-4692610D02*
X31197610Y-4638000D01*
X31143000Y-4583390D01*
X31088390Y-4638000D01*
X31143000Y-4692610D01*
X31143000Y-6216610D02*
X31197610Y-6162000D01*
X31143000Y-6107390D01*
X31088390Y-6162000D01*
X31143000Y-6216610D01*
X31397000Y-4692610D02*
X31451610Y-4638000D01*
X31397000Y-4583390D01*
X31342390Y-4638000D01*
X31397000Y-4692610D01*
X31397000Y-6216610D02*
X31451610Y-6162000D01*
X31397000Y-6107390D01*
X31342390Y-6162000D01*
X31397000Y-6216610D01*
D11*
X3708277Y-15413984D02*
X3708277Y-15213984D01*
X3708277Y-15213984D02*
X3755896Y-15213984D01*
X3755896Y-15213984D02*
X3784467Y-15223508D01*
X3784467Y-15223508D02*
X3803515Y-15242555D01*
X3803515Y-15242555D02*
X3813039Y-15261603D01*
X3813039Y-15261603D02*
X3822562Y-15299698D01*
X3822562Y-15299698D02*
X3822562Y-15328269D01*
X3822562Y-15328269D02*
X3813039Y-15366365D01*
X3813039Y-15366365D02*
X3803515Y-15385412D01*
X3803515Y-15385412D02*
X3784467Y-15404460D01*
X3784467Y-15404460D02*
X3755896Y-15413984D01*
X3755896Y-15413984D02*
X3708277Y-15413984D01*
X3908277Y-15413984D02*
X3908277Y-15280650D01*
X3908277Y-15318746D02*
X3917801Y-15299698D01*
X3917801Y-15299698D02*
X3927324Y-15290174D01*
X3927324Y-15290174D02*
X3946372Y-15280650D01*
X3946372Y-15280650D02*
X3965420Y-15280650D01*
X4032086Y-15413984D02*
X4032086Y-15280650D01*
X4032086Y-15213984D02*
X4022562Y-15223508D01*
X4022562Y-15223508D02*
X4032086Y-15233031D01*
X4032086Y-15233031D02*
X4041610Y-15223508D01*
X4041610Y-15223508D02*
X4032086Y-15213984D01*
X4032086Y-15213984D02*
X4032086Y-15233031D01*
X4155896Y-15413984D02*
X4136848Y-15404460D01*
X4136848Y-15404460D02*
X4127324Y-15385412D01*
X4127324Y-15385412D02*
X4127324Y-15213984D01*
X4260658Y-15413984D02*
X4241610Y-15404460D01*
X4241610Y-15404460D02*
X4232086Y-15385412D01*
X4232086Y-15385412D02*
X4232086Y-15213984D01*
X4489229Y-15413984D02*
X4489229Y-15213984D01*
X4489229Y-15213984D02*
X4555896Y-15356841D01*
X4555896Y-15356841D02*
X4622563Y-15213984D01*
X4622563Y-15213984D02*
X4622563Y-15413984D01*
X4803515Y-15413984D02*
X4803515Y-15309222D01*
X4803515Y-15309222D02*
X4793991Y-15290174D01*
X4793991Y-15290174D02*
X4774944Y-15280650D01*
X4774944Y-15280650D02*
X4736848Y-15280650D01*
X4736848Y-15280650D02*
X4717801Y-15290174D01*
X4803515Y-15404460D02*
X4784467Y-15413984D01*
X4784467Y-15413984D02*
X4736848Y-15413984D01*
X4736848Y-15413984D02*
X4717801Y-15404460D01*
X4717801Y-15404460D02*
X4708277Y-15385412D01*
X4708277Y-15385412D02*
X4708277Y-15366365D01*
X4708277Y-15366365D02*
X4717801Y-15347317D01*
X4717801Y-15347317D02*
X4736848Y-15337793D01*
X4736848Y-15337793D02*
X4784467Y-15337793D01*
X4784467Y-15337793D02*
X4803515Y-15328269D01*
X4898753Y-15280650D02*
X4898753Y-15480650D01*
X4898753Y-15290174D02*
X4917801Y-15280650D01*
X4917801Y-15280650D02*
X4955896Y-15280650D01*
X4955896Y-15280650D02*
X4974944Y-15290174D01*
X4974944Y-15290174D02*
X4984467Y-15299698D01*
X4984467Y-15299698D02*
X4993991Y-15318746D01*
X4993991Y-15318746D02*
X4993991Y-15375888D01*
X4993991Y-15375888D02*
X4984467Y-15394936D01*
X4984467Y-15394936D02*
X4974944Y-15404460D01*
X4974944Y-15404460D02*
X4955896Y-15413984D01*
X4955896Y-15413984D02*
X4917801Y-15413984D01*
X4917801Y-15413984D02*
X4898753Y-15404460D01*
X5079705Y-15394936D02*
X5089229Y-15404460D01*
X5089229Y-15404460D02*
X5079705Y-15413984D01*
X5079705Y-15413984D02*
X5070182Y-15404460D01*
X5070182Y-15404460D02*
X5079705Y-15394936D01*
X5079705Y-15394936D02*
X5079705Y-15413984D01*
X5079705Y-15290174D02*
X5089229Y-15299698D01*
X5089229Y-15299698D02*
X5079705Y-15309222D01*
X5079705Y-15309222D02*
X5070182Y-15299698D01*
X5070182Y-15299698D02*
X5079705Y-15290174D01*
X5079705Y-15290174D02*
X5079705Y-15309222D01*
D12*
X3417500Y-15727500D02*
X3447500Y-15757500D01*
X3447500Y-15727500D02*
X3417500Y-15757500D01*
D11*
X3746372Y-15633984D02*
X3765420Y-15633984D01*
X3765420Y-15633984D02*
X3784467Y-15643508D01*
X3784467Y-15643508D02*
X3793991Y-15653031D01*
X3793991Y-15653031D02*
X3803515Y-15672079D01*
X3803515Y-15672079D02*
X3813039Y-15710174D01*
X3813039Y-15710174D02*
X3813039Y-15757793D01*
X3813039Y-15757793D02*
X3803515Y-15795888D01*
X3803515Y-15795888D02*
X3793991Y-15814936D01*
X3793991Y-15814936D02*
X3784467Y-15824460D01*
X3784467Y-15824460D02*
X3765420Y-15833984D01*
X3765420Y-15833984D02*
X3746372Y-15833984D01*
X3746372Y-15833984D02*
X3727324Y-15824460D01*
X3727324Y-15824460D02*
X3717801Y-15814936D01*
X3717801Y-15814936D02*
X3708277Y-15795888D01*
X3708277Y-15795888D02*
X3698753Y-15757793D01*
X3698753Y-15757793D02*
X3698753Y-15710174D01*
X3698753Y-15710174D02*
X3708277Y-15672079D01*
X3708277Y-15672079D02*
X3717801Y-15653031D01*
X3717801Y-15653031D02*
X3727324Y-15643508D01*
X3727324Y-15643508D02*
X3746372Y-15633984D01*
X3898753Y-15814936D02*
X3908277Y-15824460D01*
X3908277Y-15824460D02*
X3898753Y-15833984D01*
X3898753Y-15833984D02*
X3889229Y-15824460D01*
X3889229Y-15824460D02*
X3898753Y-15814936D01*
X3898753Y-15814936D02*
X3898753Y-15833984D01*
X3974943Y-15633984D02*
X4098753Y-15633984D01*
X4098753Y-15633984D02*
X4032086Y-15710174D01*
X4032086Y-15710174D02*
X4060658Y-15710174D01*
X4060658Y-15710174D02*
X4079705Y-15719698D01*
X4079705Y-15719698D02*
X4089229Y-15729222D01*
X4089229Y-15729222D02*
X4098753Y-15748269D01*
X4098753Y-15748269D02*
X4098753Y-15795888D01*
X4098753Y-15795888D02*
X4089229Y-15814936D01*
X4089229Y-15814936D02*
X4079705Y-15824460D01*
X4079705Y-15824460D02*
X4060658Y-15833984D01*
X4060658Y-15833984D02*
X4003515Y-15833984D01*
X4003515Y-15833984D02*
X3984467Y-15824460D01*
X3984467Y-15824460D02*
X3974943Y-15814936D01*
X4222563Y-15633984D02*
X4241610Y-15633984D01*
X4241610Y-15633984D02*
X4260658Y-15643508D01*
X4260658Y-15643508D02*
X4270182Y-15653031D01*
X4270182Y-15653031D02*
X4279705Y-15672079D01*
X4279705Y-15672079D02*
X4289229Y-15710174D01*
X4289229Y-15710174D02*
X4289229Y-15757793D01*
X4289229Y-15757793D02*
X4279705Y-15795888D01*
X4279705Y-15795888D02*
X4270182Y-15814936D01*
X4270182Y-15814936D02*
X4260658Y-15824460D01*
X4260658Y-15824460D02*
X4241610Y-15833984D01*
X4241610Y-15833984D02*
X4222563Y-15833984D01*
X4222563Y-15833984D02*
X4203515Y-15824460D01*
X4203515Y-15824460D02*
X4193991Y-15814936D01*
X4193991Y-15814936D02*
X4184467Y-15795888D01*
X4184467Y-15795888D02*
X4174943Y-15757793D01*
X4174943Y-15757793D02*
X4174943Y-15710174D01*
X4174943Y-15710174D02*
X4184467Y-15672079D01*
X4184467Y-15672079D02*
X4193991Y-15653031D01*
X4193991Y-15653031D02*
X4203515Y-15643508D01*
X4203515Y-15643508D02*
X4222563Y-15633984D01*
X4413039Y-15633984D02*
X4432086Y-15633984D01*
X4432086Y-15633984D02*
X4451134Y-15643508D01*
X4451134Y-15643508D02*
X4460658Y-15653031D01*
X4460658Y-15653031D02*
X4470182Y-15672079D01*
X4470182Y-15672079D02*
X4479705Y-15710174D01*
X4479705Y-15710174D02*
X4479705Y-15757793D01*
X4479705Y-15757793D02*
X4470182Y-15795888D01*
X4470182Y-15795888D02*
X4460658Y-15814936D01*
X4460658Y-15814936D02*
X4451134Y-15824460D01*
X4451134Y-15824460D02*
X4432086Y-15833984D01*
X4432086Y-15833984D02*
X4413039Y-15833984D01*
X4413039Y-15833984D02*
X4393991Y-15824460D01*
X4393991Y-15824460D02*
X4384467Y-15814936D01*
X4384467Y-15814936D02*
X4374944Y-15795888D01*
X4374944Y-15795888D02*
X4365420Y-15757793D01*
X4365420Y-15757793D02*
X4365420Y-15710174D01*
X4365420Y-15710174D02*
X4374944Y-15672079D01*
X4374944Y-15672079D02*
X4384467Y-15653031D01*
X4384467Y-15653031D02*
X4393991Y-15643508D01*
X4393991Y-15643508D02*
X4413039Y-15633984D01*
X4565420Y-15833984D02*
X4565420Y-15700650D01*
X4565420Y-15719698D02*
X4574944Y-15710174D01*
X4574944Y-15710174D02*
X4593991Y-15700650D01*
X4593991Y-15700650D02*
X4622563Y-15700650D01*
X4622563Y-15700650D02*
X4641610Y-15710174D01*
X4641610Y-15710174D02*
X4651134Y-15729222D01*
X4651134Y-15729222D02*
X4651134Y-15833984D01*
X4651134Y-15729222D02*
X4660658Y-15710174D01*
X4660658Y-15710174D02*
X4679705Y-15700650D01*
X4679705Y-15700650D02*
X4708277Y-15700650D01*
X4708277Y-15700650D02*
X4727325Y-15710174D01*
X4727325Y-15710174D02*
X4736848Y-15729222D01*
X4736848Y-15729222D02*
X4736848Y-15833984D01*
X4832086Y-15833984D02*
X4832086Y-15700650D01*
X4832086Y-15719698D02*
X4841610Y-15710174D01*
X4841610Y-15710174D02*
X4860658Y-15700650D01*
X4860658Y-15700650D02*
X4889229Y-15700650D01*
X4889229Y-15700650D02*
X4908277Y-15710174D01*
X4908277Y-15710174D02*
X4917801Y-15729222D01*
X4917801Y-15729222D02*
X4917801Y-15833984D01*
X4917801Y-15729222D02*
X4927325Y-15710174D01*
X4927325Y-15710174D02*
X4946372Y-15700650D01*
X4946372Y-15700650D02*
X4974944Y-15700650D01*
X4974944Y-15700650D02*
X4993991Y-15710174D01*
X4993991Y-15710174D02*
X5003515Y-15729222D01*
X5003515Y-15729222D02*
X5003515Y-15833984D01*
X5393991Y-15624460D02*
X5222563Y-15881603D01*
X5651134Y-15633984D02*
X5670182Y-15633984D01*
X5670182Y-15633984D02*
X5689229Y-15643508D01*
X5689229Y-15643508D02*
X5698753Y-15653031D01*
X5698753Y-15653031D02*
X5708277Y-15672079D01*
X5708277Y-15672079D02*
X5717801Y-15710174D01*
X5717801Y-15710174D02*
X5717801Y-15757793D01*
X5717801Y-15757793D02*
X5708277Y-15795888D01*
X5708277Y-15795888D02*
X5698753Y-15814936D01*
X5698753Y-15814936D02*
X5689229Y-15824460D01*
X5689229Y-15824460D02*
X5670182Y-15833984D01*
X5670182Y-15833984D02*
X5651134Y-15833984D01*
X5651134Y-15833984D02*
X5632086Y-15824460D01*
X5632086Y-15824460D02*
X5622563Y-15814936D01*
X5622563Y-15814936D02*
X5613039Y-15795888D01*
X5613039Y-15795888D02*
X5603515Y-15757793D01*
X5603515Y-15757793D02*
X5603515Y-15710174D01*
X5603515Y-15710174D02*
X5613039Y-15672079D01*
X5613039Y-15672079D02*
X5622563Y-15653031D01*
X5622563Y-15653031D02*
X5632086Y-15643508D01*
X5632086Y-15643508D02*
X5651134Y-15633984D01*
X5803515Y-15814936D02*
X5813039Y-15824460D01*
X5813039Y-15824460D02*
X5803515Y-15833984D01*
X5803515Y-15833984D02*
X5793991Y-15824460D01*
X5793991Y-15824460D02*
X5803515Y-15814936D01*
X5803515Y-15814936D02*
X5803515Y-15833984D01*
X5936848Y-15633984D02*
X5955896Y-15633984D01*
X5955896Y-15633984D02*
X5974944Y-15643508D01*
X5974944Y-15643508D02*
X5984467Y-15653031D01*
X5984467Y-15653031D02*
X5993991Y-15672079D01*
X5993991Y-15672079D02*
X6003515Y-15710174D01*
X6003515Y-15710174D02*
X6003515Y-15757793D01*
X6003515Y-15757793D02*
X5993991Y-15795888D01*
X5993991Y-15795888D02*
X5984467Y-15814936D01*
X5984467Y-15814936D02*
X5974944Y-15824460D01*
X5974944Y-15824460D02*
X5955896Y-15833984D01*
X5955896Y-15833984D02*
X5936848Y-15833984D01*
X5936848Y-15833984D02*
X5917801Y-15824460D01*
X5917801Y-15824460D02*
X5908277Y-15814936D01*
X5908277Y-15814936D02*
X5898753Y-15795888D01*
X5898753Y-15795888D02*
X5889229Y-15757793D01*
X5889229Y-15757793D02*
X5889229Y-15710174D01*
X5889229Y-15710174D02*
X5898753Y-15672079D01*
X5898753Y-15672079D02*
X5908277Y-15653031D01*
X5908277Y-15653031D02*
X5917801Y-15643508D01*
X5917801Y-15643508D02*
X5936848Y-15633984D01*
X6193991Y-15833984D02*
X6079706Y-15833984D01*
X6136848Y-15833984D02*
X6136848Y-15633984D01*
X6136848Y-15633984D02*
X6117801Y-15662555D01*
X6117801Y-15662555D02*
X6098753Y-15681603D01*
X6098753Y-15681603D02*
X6079706Y-15691127D01*
X6384467Y-15833984D02*
X6270182Y-15833984D01*
X6327325Y-15833984D02*
X6327325Y-15633984D01*
X6327325Y-15633984D02*
X6308277Y-15662555D01*
X6308277Y-15662555D02*
X6289229Y-15681603D01*
X6289229Y-15681603D02*
X6270182Y-15691127D01*
X6498753Y-15719698D02*
X6479706Y-15710174D01*
X6479706Y-15710174D02*
X6470182Y-15700650D01*
X6470182Y-15700650D02*
X6460658Y-15681603D01*
X6460658Y-15681603D02*
X6460658Y-15672079D01*
X6460658Y-15672079D02*
X6470182Y-15653031D01*
X6470182Y-15653031D02*
X6479706Y-15643508D01*
X6479706Y-15643508D02*
X6498753Y-15633984D01*
X6498753Y-15633984D02*
X6536848Y-15633984D01*
X6536848Y-15633984D02*
X6555896Y-15643508D01*
X6555896Y-15643508D02*
X6565420Y-15653031D01*
X6565420Y-15653031D02*
X6574944Y-15672079D01*
X6574944Y-15672079D02*
X6574944Y-15681603D01*
X6574944Y-15681603D02*
X6565420Y-15700650D01*
X6565420Y-15700650D02*
X6555896Y-15710174D01*
X6555896Y-15710174D02*
X6536848Y-15719698D01*
X6536848Y-15719698D02*
X6498753Y-15719698D01*
X6498753Y-15719698D02*
X6479706Y-15729222D01*
X6479706Y-15729222D02*
X6470182Y-15738746D01*
X6470182Y-15738746D02*
X6460658Y-15757793D01*
X6460658Y-15757793D02*
X6460658Y-15795888D01*
X6460658Y-15795888D02*
X6470182Y-15814936D01*
X6470182Y-15814936D02*
X6479706Y-15824460D01*
X6479706Y-15824460D02*
X6498753Y-15833984D01*
X6498753Y-15833984D02*
X6536848Y-15833984D01*
X6536848Y-15833984D02*
X6555896Y-15824460D01*
X6555896Y-15824460D02*
X6565420Y-15814936D01*
X6565420Y-15814936D02*
X6574944Y-15795888D01*
X6574944Y-15795888D02*
X6574944Y-15757793D01*
X6574944Y-15757793D02*
X6565420Y-15738746D01*
X6565420Y-15738746D02*
X6555896Y-15729222D01*
X6555896Y-15729222D02*
X6536848Y-15719698D01*
X6651134Y-15633984D02*
X6651134Y-15672079D01*
X6727325Y-15633984D02*
X6727325Y-15672079D01*
X7022563Y-15910174D02*
X7013039Y-15900650D01*
X7013039Y-15900650D02*
X6993991Y-15872079D01*
X6993991Y-15872079D02*
X6984468Y-15853031D01*
X6984468Y-15853031D02*
X6974944Y-15824460D01*
X6974944Y-15824460D02*
X6965420Y-15776841D01*
X6965420Y-15776841D02*
X6965420Y-15738746D01*
X6965420Y-15738746D02*
X6974944Y-15691127D01*
X6974944Y-15691127D02*
X6984468Y-15662555D01*
X6984468Y-15662555D02*
X6993991Y-15643508D01*
X6993991Y-15643508D02*
X7013039Y-15614936D01*
X7013039Y-15614936D02*
X7022563Y-15605412D01*
X7127325Y-15719698D02*
X7108277Y-15710174D01*
X7108277Y-15710174D02*
X7098753Y-15700650D01*
X7098753Y-15700650D02*
X7089229Y-15681603D01*
X7089229Y-15681603D02*
X7089229Y-15672079D01*
X7089229Y-15672079D02*
X7098753Y-15653031D01*
X7098753Y-15653031D02*
X7108277Y-15643508D01*
X7108277Y-15643508D02*
X7127325Y-15633984D01*
X7127325Y-15633984D02*
X7165420Y-15633984D01*
X7165420Y-15633984D02*
X7184468Y-15643508D01*
X7184468Y-15643508D02*
X7193991Y-15653031D01*
X7193991Y-15653031D02*
X7203515Y-15672079D01*
X7203515Y-15672079D02*
X7203515Y-15681603D01*
X7203515Y-15681603D02*
X7193991Y-15700650D01*
X7193991Y-15700650D02*
X7184468Y-15710174D01*
X7184468Y-15710174D02*
X7165420Y-15719698D01*
X7165420Y-15719698D02*
X7127325Y-15719698D01*
X7127325Y-15719698D02*
X7108277Y-15729222D01*
X7108277Y-15729222D02*
X7098753Y-15738746D01*
X7098753Y-15738746D02*
X7089229Y-15757793D01*
X7089229Y-15757793D02*
X7089229Y-15795888D01*
X7089229Y-15795888D02*
X7098753Y-15814936D01*
X7098753Y-15814936D02*
X7108277Y-15824460D01*
X7108277Y-15824460D02*
X7127325Y-15833984D01*
X7127325Y-15833984D02*
X7165420Y-15833984D01*
X7165420Y-15833984D02*
X7184468Y-15824460D01*
X7184468Y-15824460D02*
X7193991Y-15814936D01*
X7193991Y-15814936D02*
X7203515Y-15795888D01*
X7203515Y-15795888D02*
X7203515Y-15757793D01*
X7203515Y-15757793D02*
X7193991Y-15738746D01*
X7193991Y-15738746D02*
X7184468Y-15729222D01*
X7184468Y-15729222D02*
X7165420Y-15719698D01*
X7270182Y-15633984D02*
X7403515Y-15633984D01*
X7403515Y-15633984D02*
X7317801Y-15833984D01*
X7632087Y-15833984D02*
X7632087Y-15633984D01*
X7717801Y-15833984D02*
X7717801Y-15729222D01*
X7717801Y-15729222D02*
X7708277Y-15710174D01*
X7708277Y-15710174D02*
X7689230Y-15700650D01*
X7689230Y-15700650D02*
X7660658Y-15700650D01*
X7660658Y-15700650D02*
X7641610Y-15710174D01*
X7641610Y-15710174D02*
X7632087Y-15719698D01*
X7841610Y-15833984D02*
X7822563Y-15824460D01*
X7822563Y-15824460D02*
X7813039Y-15814936D01*
X7813039Y-15814936D02*
X7803515Y-15795888D01*
X7803515Y-15795888D02*
X7803515Y-15738746D01*
X7803515Y-15738746D02*
X7813039Y-15719698D01*
X7813039Y-15719698D02*
X7822563Y-15710174D01*
X7822563Y-15710174D02*
X7841610Y-15700650D01*
X7841610Y-15700650D02*
X7870182Y-15700650D01*
X7870182Y-15700650D02*
X7889230Y-15710174D01*
X7889230Y-15710174D02*
X7898753Y-15719698D01*
X7898753Y-15719698D02*
X7908277Y-15738746D01*
X7908277Y-15738746D02*
X7908277Y-15795888D01*
X7908277Y-15795888D02*
X7898753Y-15814936D01*
X7898753Y-15814936D02*
X7889230Y-15824460D01*
X7889230Y-15824460D02*
X7870182Y-15833984D01*
X7870182Y-15833984D02*
X7841610Y-15833984D01*
X8022563Y-15833984D02*
X8003515Y-15824460D01*
X8003515Y-15824460D02*
X7993991Y-15805412D01*
X7993991Y-15805412D02*
X7993991Y-15633984D01*
X8174944Y-15824460D02*
X8155896Y-15833984D01*
X8155896Y-15833984D02*
X8117801Y-15833984D01*
X8117801Y-15833984D02*
X8098753Y-15824460D01*
X8098753Y-15824460D02*
X8089230Y-15805412D01*
X8089230Y-15805412D02*
X8089230Y-15729222D01*
X8089230Y-15729222D02*
X8098753Y-15710174D01*
X8098753Y-15710174D02*
X8117801Y-15700650D01*
X8117801Y-15700650D02*
X8155896Y-15700650D01*
X8155896Y-15700650D02*
X8174944Y-15710174D01*
X8174944Y-15710174D02*
X8184468Y-15729222D01*
X8184468Y-15729222D02*
X8184468Y-15748269D01*
X8184468Y-15748269D02*
X8089230Y-15767317D01*
X8260658Y-15824460D02*
X8279706Y-15833984D01*
X8279706Y-15833984D02*
X8317801Y-15833984D01*
X8317801Y-15833984D02*
X8336849Y-15824460D01*
X8336849Y-15824460D02*
X8346372Y-15805412D01*
X8346372Y-15805412D02*
X8346372Y-15795888D01*
X8346372Y-15795888D02*
X8336849Y-15776841D01*
X8336849Y-15776841D02*
X8317801Y-15767317D01*
X8317801Y-15767317D02*
X8289230Y-15767317D01*
X8289230Y-15767317D02*
X8270182Y-15757793D01*
X8270182Y-15757793D02*
X8260658Y-15738746D01*
X8260658Y-15738746D02*
X8260658Y-15729222D01*
X8260658Y-15729222D02*
X8270182Y-15710174D01*
X8270182Y-15710174D02*
X8289230Y-15700650D01*
X8289230Y-15700650D02*
X8317801Y-15700650D01*
X8317801Y-15700650D02*
X8336849Y-15710174D01*
X8413039Y-15910174D02*
X8422563Y-15900650D01*
X8422563Y-15900650D02*
X8441611Y-15872079D01*
X8441611Y-15872079D02*
X8451134Y-15853031D01*
X8451134Y-15853031D02*
X8460658Y-15824460D01*
X8460658Y-15824460D02*
X8470182Y-15776841D01*
X8470182Y-15776841D02*
X8470182Y-15738746D01*
X8470182Y-15738746D02*
X8460658Y-15691127D01*
X8460658Y-15691127D02*
X8451134Y-15662555D01*
X8451134Y-15662555D02*
X8441611Y-15643508D01*
X8441611Y-15643508D02*
X8422563Y-15614936D01*
X8422563Y-15614936D02*
X8413039Y-15605412D01*
D12*
X3447500Y-16006500D02*
G75*
G02*
X3372500Y-16006500I-37500J0D01*
G01*
X3372500Y-16006500D02*
G75*
G02*
X3447500Y-16006500I37500J0D01*
G01*
D11*
X3746372Y-15897984D02*
X3765420Y-15897984D01*
X3765420Y-15897984D02*
X3784467Y-15907508D01*
X3784467Y-15907508D02*
X3793991Y-15917031D01*
X3793991Y-15917031D02*
X3803515Y-15936079D01*
X3803515Y-15936079D02*
X3813039Y-15974174D01*
X3813039Y-15974174D02*
X3813039Y-16021793D01*
X3813039Y-16021793D02*
X3803515Y-16059888D01*
X3803515Y-16059888D02*
X3793991Y-16078936D01*
X3793991Y-16078936D02*
X3784467Y-16088460D01*
X3784467Y-16088460D02*
X3765420Y-16097984D01*
X3765420Y-16097984D02*
X3746372Y-16097984D01*
X3746372Y-16097984D02*
X3727324Y-16088460D01*
X3727324Y-16088460D02*
X3717801Y-16078936D01*
X3717801Y-16078936D02*
X3708277Y-16059888D01*
X3708277Y-16059888D02*
X3698753Y-16021793D01*
X3698753Y-16021793D02*
X3698753Y-15974174D01*
X3698753Y-15974174D02*
X3708277Y-15936079D01*
X3708277Y-15936079D02*
X3717801Y-15917031D01*
X3717801Y-15917031D02*
X3727324Y-15907508D01*
X3727324Y-15907508D02*
X3746372Y-15897984D01*
X3898753Y-16078936D02*
X3908277Y-16088460D01*
X3908277Y-16088460D02*
X3898753Y-16097984D01*
X3898753Y-16097984D02*
X3889229Y-16088460D01*
X3889229Y-16088460D02*
X3898753Y-16078936D01*
X3898753Y-16078936D02*
X3898753Y-16097984D01*
X3974943Y-15897984D02*
X4108277Y-15897984D01*
X4108277Y-15897984D02*
X4022562Y-16097984D01*
X4279705Y-15897984D02*
X4184467Y-15897984D01*
X4184467Y-15897984D02*
X4174943Y-15993222D01*
X4174943Y-15993222D02*
X4184467Y-15983698D01*
X4184467Y-15983698D02*
X4203515Y-15974174D01*
X4203515Y-15974174D02*
X4251134Y-15974174D01*
X4251134Y-15974174D02*
X4270182Y-15983698D01*
X4270182Y-15983698D02*
X4279705Y-15993222D01*
X4279705Y-15993222D02*
X4289229Y-16012269D01*
X4289229Y-16012269D02*
X4289229Y-16059888D01*
X4289229Y-16059888D02*
X4279705Y-16078936D01*
X4279705Y-16078936D02*
X4270182Y-16088460D01*
X4270182Y-16088460D02*
X4251134Y-16097984D01*
X4251134Y-16097984D02*
X4203515Y-16097984D01*
X4203515Y-16097984D02*
X4184467Y-16088460D01*
X4184467Y-16088460D02*
X4174943Y-16078936D01*
X4413039Y-15897984D02*
X4432086Y-15897984D01*
X4432086Y-15897984D02*
X4451134Y-15907508D01*
X4451134Y-15907508D02*
X4460658Y-15917031D01*
X4460658Y-15917031D02*
X4470182Y-15936079D01*
X4470182Y-15936079D02*
X4479705Y-15974174D01*
X4479705Y-15974174D02*
X4479705Y-16021793D01*
X4479705Y-16021793D02*
X4470182Y-16059888D01*
X4470182Y-16059888D02*
X4460658Y-16078936D01*
X4460658Y-16078936D02*
X4451134Y-16088460D01*
X4451134Y-16088460D02*
X4432086Y-16097984D01*
X4432086Y-16097984D02*
X4413039Y-16097984D01*
X4413039Y-16097984D02*
X4393991Y-16088460D01*
X4393991Y-16088460D02*
X4384467Y-16078936D01*
X4384467Y-16078936D02*
X4374944Y-16059888D01*
X4374944Y-16059888D02*
X4365420Y-16021793D01*
X4365420Y-16021793D02*
X4365420Y-15974174D01*
X4365420Y-15974174D02*
X4374944Y-15936079D01*
X4374944Y-15936079D02*
X4384467Y-15917031D01*
X4384467Y-15917031D02*
X4393991Y-15907508D01*
X4393991Y-15907508D02*
X4413039Y-15897984D01*
X4565420Y-16097984D02*
X4565420Y-15964650D01*
X4565420Y-15983698D02*
X4574944Y-15974174D01*
X4574944Y-15974174D02*
X4593991Y-15964650D01*
X4593991Y-15964650D02*
X4622563Y-15964650D01*
X4622563Y-15964650D02*
X4641610Y-15974174D01*
X4641610Y-15974174D02*
X4651134Y-15993222D01*
X4651134Y-15993222D02*
X4651134Y-16097984D01*
X4651134Y-15993222D02*
X4660658Y-15974174D01*
X4660658Y-15974174D02*
X4679705Y-15964650D01*
X4679705Y-15964650D02*
X4708277Y-15964650D01*
X4708277Y-15964650D02*
X4727325Y-15974174D01*
X4727325Y-15974174D02*
X4736848Y-15993222D01*
X4736848Y-15993222D02*
X4736848Y-16097984D01*
X4832086Y-16097984D02*
X4832086Y-15964650D01*
X4832086Y-15983698D02*
X4841610Y-15974174D01*
X4841610Y-15974174D02*
X4860658Y-15964650D01*
X4860658Y-15964650D02*
X4889229Y-15964650D01*
X4889229Y-15964650D02*
X4908277Y-15974174D01*
X4908277Y-15974174D02*
X4917801Y-15993222D01*
X4917801Y-15993222D02*
X4917801Y-16097984D01*
X4917801Y-15993222D02*
X4927325Y-15974174D01*
X4927325Y-15974174D02*
X4946372Y-15964650D01*
X4946372Y-15964650D02*
X4974944Y-15964650D01*
X4974944Y-15964650D02*
X4993991Y-15974174D01*
X4993991Y-15974174D02*
X5003515Y-15993222D01*
X5003515Y-15993222D02*
X5003515Y-16097984D01*
X5393991Y-15888460D02*
X5222563Y-16145603D01*
X5651134Y-15897984D02*
X5670182Y-15897984D01*
X5670182Y-15897984D02*
X5689229Y-15907508D01*
X5689229Y-15907508D02*
X5698753Y-15917031D01*
X5698753Y-15917031D02*
X5708277Y-15936079D01*
X5708277Y-15936079D02*
X5717801Y-15974174D01*
X5717801Y-15974174D02*
X5717801Y-16021793D01*
X5717801Y-16021793D02*
X5708277Y-16059888D01*
X5708277Y-16059888D02*
X5698753Y-16078936D01*
X5698753Y-16078936D02*
X5689229Y-16088460D01*
X5689229Y-16088460D02*
X5670182Y-16097984D01*
X5670182Y-16097984D02*
X5651134Y-16097984D01*
X5651134Y-16097984D02*
X5632086Y-16088460D01*
X5632086Y-16088460D02*
X5622563Y-16078936D01*
X5622563Y-16078936D02*
X5613039Y-16059888D01*
X5613039Y-16059888D02*
X5603515Y-16021793D01*
X5603515Y-16021793D02*
X5603515Y-15974174D01*
X5603515Y-15974174D02*
X5613039Y-15936079D01*
X5613039Y-15936079D02*
X5622563Y-15917031D01*
X5622563Y-15917031D02*
X5632086Y-15907508D01*
X5632086Y-15907508D02*
X5651134Y-15897984D01*
X5803515Y-16078936D02*
X5813039Y-16088460D01*
X5813039Y-16088460D02*
X5803515Y-16097984D01*
X5803515Y-16097984D02*
X5793991Y-16088460D01*
X5793991Y-16088460D02*
X5803515Y-16078936D01*
X5803515Y-16078936D02*
X5803515Y-16097984D01*
X5936848Y-15897984D02*
X5955896Y-15897984D01*
X5955896Y-15897984D02*
X5974944Y-15907508D01*
X5974944Y-15907508D02*
X5984467Y-15917031D01*
X5984467Y-15917031D02*
X5993991Y-15936079D01*
X5993991Y-15936079D02*
X6003515Y-15974174D01*
X6003515Y-15974174D02*
X6003515Y-16021793D01*
X6003515Y-16021793D02*
X5993991Y-16059888D01*
X5993991Y-16059888D02*
X5984467Y-16078936D01*
X5984467Y-16078936D02*
X5974944Y-16088460D01*
X5974944Y-16088460D02*
X5955896Y-16097984D01*
X5955896Y-16097984D02*
X5936848Y-16097984D01*
X5936848Y-16097984D02*
X5917801Y-16088460D01*
X5917801Y-16088460D02*
X5908277Y-16078936D01*
X5908277Y-16078936D02*
X5898753Y-16059888D01*
X5898753Y-16059888D02*
X5889229Y-16021793D01*
X5889229Y-16021793D02*
X5889229Y-15974174D01*
X5889229Y-15974174D02*
X5898753Y-15936079D01*
X5898753Y-15936079D02*
X5908277Y-15917031D01*
X5908277Y-15917031D02*
X5917801Y-15907508D01*
X5917801Y-15907508D02*
X5936848Y-15897984D01*
X6079706Y-15917031D02*
X6089229Y-15907508D01*
X6089229Y-15907508D02*
X6108277Y-15897984D01*
X6108277Y-15897984D02*
X6155896Y-15897984D01*
X6155896Y-15897984D02*
X6174944Y-15907508D01*
X6174944Y-15907508D02*
X6184467Y-15917031D01*
X6184467Y-15917031D02*
X6193991Y-15936079D01*
X6193991Y-15936079D02*
X6193991Y-15955127D01*
X6193991Y-15955127D02*
X6184467Y-15983698D01*
X6184467Y-15983698D02*
X6070182Y-16097984D01*
X6070182Y-16097984D02*
X6193991Y-16097984D01*
X6289229Y-16097984D02*
X6327325Y-16097984D01*
X6327325Y-16097984D02*
X6346372Y-16088460D01*
X6346372Y-16088460D02*
X6355896Y-16078936D01*
X6355896Y-16078936D02*
X6374944Y-16050365D01*
X6374944Y-16050365D02*
X6384467Y-16012269D01*
X6384467Y-16012269D02*
X6384467Y-15936079D01*
X6384467Y-15936079D02*
X6374944Y-15917031D01*
X6374944Y-15917031D02*
X6365420Y-15907508D01*
X6365420Y-15907508D02*
X6346372Y-15897984D01*
X6346372Y-15897984D02*
X6308277Y-15897984D01*
X6308277Y-15897984D02*
X6289229Y-15907508D01*
X6289229Y-15907508D02*
X6279706Y-15917031D01*
X6279706Y-15917031D02*
X6270182Y-15936079D01*
X6270182Y-15936079D02*
X6270182Y-15983698D01*
X6270182Y-15983698D02*
X6279706Y-16002746D01*
X6279706Y-16002746D02*
X6289229Y-16012269D01*
X6289229Y-16012269D02*
X6308277Y-16021793D01*
X6308277Y-16021793D02*
X6346372Y-16021793D01*
X6346372Y-16021793D02*
X6365420Y-16012269D01*
X6365420Y-16012269D02*
X6374944Y-16002746D01*
X6374944Y-16002746D02*
X6384467Y-15983698D01*
X6565420Y-15897984D02*
X6470182Y-15897984D01*
X6470182Y-15897984D02*
X6460658Y-15993222D01*
X6460658Y-15993222D02*
X6470182Y-15983698D01*
X6470182Y-15983698D02*
X6489229Y-15974174D01*
X6489229Y-15974174D02*
X6536848Y-15974174D01*
X6536848Y-15974174D02*
X6555896Y-15983698D01*
X6555896Y-15983698D02*
X6565420Y-15993222D01*
X6565420Y-15993222D02*
X6574944Y-16012269D01*
X6574944Y-16012269D02*
X6574944Y-16059888D01*
X6574944Y-16059888D02*
X6565420Y-16078936D01*
X6565420Y-16078936D02*
X6555896Y-16088460D01*
X6555896Y-16088460D02*
X6536848Y-16097984D01*
X6536848Y-16097984D02*
X6489229Y-16097984D01*
X6489229Y-16097984D02*
X6470182Y-16088460D01*
X6470182Y-16088460D02*
X6460658Y-16078936D01*
X6651134Y-15897984D02*
X6651134Y-15936079D01*
X6727325Y-15897984D02*
X6727325Y-15936079D01*
X7022563Y-16174174D02*
X7013039Y-16164650D01*
X7013039Y-16164650D02*
X6993991Y-16136079D01*
X6993991Y-16136079D02*
X6984468Y-16117031D01*
X6984468Y-16117031D02*
X6974944Y-16088460D01*
X6974944Y-16088460D02*
X6965420Y-16040841D01*
X6965420Y-16040841D02*
X6965420Y-16002746D01*
X6965420Y-16002746D02*
X6974944Y-15955127D01*
X6974944Y-15955127D02*
X6984468Y-15926555D01*
X6984468Y-15926555D02*
X6993991Y-15907508D01*
X6993991Y-15907508D02*
X7013039Y-15878936D01*
X7013039Y-15878936D02*
X7022563Y-15869412D01*
X7184468Y-15964650D02*
X7184468Y-16097984D01*
X7136848Y-15888460D02*
X7089229Y-16031317D01*
X7089229Y-16031317D02*
X7213039Y-16031317D01*
X7441610Y-16097984D02*
X7441610Y-15897984D01*
X7527325Y-16097984D02*
X7527325Y-15993222D01*
X7527325Y-15993222D02*
X7517801Y-15974174D01*
X7517801Y-15974174D02*
X7498753Y-15964650D01*
X7498753Y-15964650D02*
X7470182Y-15964650D01*
X7470182Y-15964650D02*
X7451134Y-15974174D01*
X7451134Y-15974174D02*
X7441610Y-15983698D01*
X7651134Y-16097984D02*
X7632087Y-16088460D01*
X7632087Y-16088460D02*
X7622563Y-16078936D01*
X7622563Y-16078936D02*
X7613039Y-16059888D01*
X7613039Y-16059888D02*
X7613039Y-16002746D01*
X7613039Y-16002746D02*
X7622563Y-15983698D01*
X7622563Y-15983698D02*
X7632087Y-15974174D01*
X7632087Y-15974174D02*
X7651134Y-15964650D01*
X7651134Y-15964650D02*
X7679706Y-15964650D01*
X7679706Y-15964650D02*
X7698753Y-15974174D01*
X7698753Y-15974174D02*
X7708277Y-15983698D01*
X7708277Y-15983698D02*
X7717801Y-16002746D01*
X7717801Y-16002746D02*
X7717801Y-16059888D01*
X7717801Y-16059888D02*
X7708277Y-16078936D01*
X7708277Y-16078936D02*
X7698753Y-16088460D01*
X7698753Y-16088460D02*
X7679706Y-16097984D01*
X7679706Y-16097984D02*
X7651134Y-16097984D01*
X7832087Y-16097984D02*
X7813039Y-16088460D01*
X7813039Y-16088460D02*
X7803515Y-16069412D01*
X7803515Y-16069412D02*
X7803515Y-15897984D01*
X7984468Y-16088460D02*
X7965420Y-16097984D01*
X7965420Y-16097984D02*
X7927325Y-16097984D01*
X7927325Y-16097984D02*
X7908277Y-16088460D01*
X7908277Y-16088460D02*
X7898753Y-16069412D01*
X7898753Y-16069412D02*
X7898753Y-15993222D01*
X7898753Y-15993222D02*
X7908277Y-15974174D01*
X7908277Y-15974174D02*
X7927325Y-15964650D01*
X7927325Y-15964650D02*
X7965420Y-15964650D01*
X7965420Y-15964650D02*
X7984468Y-15974174D01*
X7984468Y-15974174D02*
X7993991Y-15993222D01*
X7993991Y-15993222D02*
X7993991Y-16012269D01*
X7993991Y-16012269D02*
X7898753Y-16031317D01*
X8070182Y-16088460D02*
X8089230Y-16097984D01*
X8089230Y-16097984D02*
X8127325Y-16097984D01*
X8127325Y-16097984D02*
X8146372Y-16088460D01*
X8146372Y-16088460D02*
X8155896Y-16069412D01*
X8155896Y-16069412D02*
X8155896Y-16059888D01*
X8155896Y-16059888D02*
X8146372Y-16040841D01*
X8146372Y-16040841D02*
X8127325Y-16031317D01*
X8127325Y-16031317D02*
X8098753Y-16031317D01*
X8098753Y-16031317D02*
X8079706Y-16021793D01*
X8079706Y-16021793D02*
X8070182Y-16002746D01*
X8070182Y-16002746D02*
X8070182Y-15993222D01*
X8070182Y-15993222D02*
X8079706Y-15974174D01*
X8079706Y-15974174D02*
X8098753Y-15964650D01*
X8098753Y-15964650D02*
X8127325Y-15964650D01*
X8127325Y-15964650D02*
X8146372Y-15974174D01*
X8222563Y-16174174D02*
X8232087Y-16164650D01*
X8232087Y-16164650D02*
X8251134Y-16136079D01*
X8251134Y-16136079D02*
X8260658Y-16117031D01*
X8260658Y-16117031D02*
X8270182Y-16088460D01*
X8270182Y-16088460D02*
X8279706Y-16040841D01*
X8279706Y-16040841D02*
X8279706Y-16002746D01*
X8279706Y-16002746D02*
X8270182Y-15955127D01*
X8270182Y-15955127D02*
X8260658Y-15926555D01*
X8260658Y-15926555D02*
X8251134Y-15907508D01*
X8251134Y-15907508D02*
X8232087Y-15878936D01*
X8232087Y-15878936D02*
X8222563Y-15869412D01*
D12*
X3407500Y-16230500D02*
X3407500Y-16310500D01*
X3367500Y-16270500D02*
X3447500Y-16270500D01*
D11*
X3746372Y-16161984D02*
X3765420Y-16161984D01*
X3765420Y-16161984D02*
X3784467Y-16171508D01*
X3784467Y-16171508D02*
X3793991Y-16181031D01*
X3793991Y-16181031D02*
X3803515Y-16200079D01*
X3803515Y-16200079D02*
X3813039Y-16238174D01*
X3813039Y-16238174D02*
X3813039Y-16285793D01*
X3813039Y-16285793D02*
X3803515Y-16323888D01*
X3803515Y-16323888D02*
X3793991Y-16342936D01*
X3793991Y-16342936D02*
X3784467Y-16352460D01*
X3784467Y-16352460D02*
X3765420Y-16361984D01*
X3765420Y-16361984D02*
X3746372Y-16361984D01*
X3746372Y-16361984D02*
X3727324Y-16352460D01*
X3727324Y-16352460D02*
X3717801Y-16342936D01*
X3717801Y-16342936D02*
X3708277Y-16323888D01*
X3708277Y-16323888D02*
X3698753Y-16285793D01*
X3698753Y-16285793D02*
X3698753Y-16238174D01*
X3698753Y-16238174D02*
X3708277Y-16200079D01*
X3708277Y-16200079D02*
X3717801Y-16181031D01*
X3717801Y-16181031D02*
X3727324Y-16171508D01*
X3727324Y-16171508D02*
X3746372Y-16161984D01*
X3898753Y-16342936D02*
X3908277Y-16352460D01*
X3908277Y-16352460D02*
X3898753Y-16361984D01*
X3898753Y-16361984D02*
X3889229Y-16352460D01*
X3889229Y-16352460D02*
X3898753Y-16342936D01*
X3898753Y-16342936D02*
X3898753Y-16361984D01*
X4022562Y-16247698D02*
X4003515Y-16238174D01*
X4003515Y-16238174D02*
X3993991Y-16228650D01*
X3993991Y-16228650D02*
X3984467Y-16209603D01*
X3984467Y-16209603D02*
X3984467Y-16200079D01*
X3984467Y-16200079D02*
X3993991Y-16181031D01*
X3993991Y-16181031D02*
X4003515Y-16171508D01*
X4003515Y-16171508D02*
X4022562Y-16161984D01*
X4022562Y-16161984D02*
X4060658Y-16161984D01*
X4060658Y-16161984D02*
X4079705Y-16171508D01*
X4079705Y-16171508D02*
X4089229Y-16181031D01*
X4089229Y-16181031D02*
X4098753Y-16200079D01*
X4098753Y-16200079D02*
X4098753Y-16209603D01*
X4098753Y-16209603D02*
X4089229Y-16228650D01*
X4089229Y-16228650D02*
X4079705Y-16238174D01*
X4079705Y-16238174D02*
X4060658Y-16247698D01*
X4060658Y-16247698D02*
X4022562Y-16247698D01*
X4022562Y-16247698D02*
X4003515Y-16257222D01*
X4003515Y-16257222D02*
X3993991Y-16266746D01*
X3993991Y-16266746D02*
X3984467Y-16285793D01*
X3984467Y-16285793D02*
X3984467Y-16323888D01*
X3984467Y-16323888D02*
X3993991Y-16342936D01*
X3993991Y-16342936D02*
X4003515Y-16352460D01*
X4003515Y-16352460D02*
X4022562Y-16361984D01*
X4022562Y-16361984D02*
X4060658Y-16361984D01*
X4060658Y-16361984D02*
X4079705Y-16352460D01*
X4079705Y-16352460D02*
X4089229Y-16342936D01*
X4089229Y-16342936D02*
X4098753Y-16323888D01*
X4098753Y-16323888D02*
X4098753Y-16285793D01*
X4098753Y-16285793D02*
X4089229Y-16266746D01*
X4089229Y-16266746D02*
X4079705Y-16257222D01*
X4079705Y-16257222D02*
X4060658Y-16247698D01*
X4222563Y-16161984D02*
X4241610Y-16161984D01*
X4241610Y-16161984D02*
X4260658Y-16171508D01*
X4260658Y-16171508D02*
X4270182Y-16181031D01*
X4270182Y-16181031D02*
X4279705Y-16200079D01*
X4279705Y-16200079D02*
X4289229Y-16238174D01*
X4289229Y-16238174D02*
X4289229Y-16285793D01*
X4289229Y-16285793D02*
X4279705Y-16323888D01*
X4279705Y-16323888D02*
X4270182Y-16342936D01*
X4270182Y-16342936D02*
X4260658Y-16352460D01*
X4260658Y-16352460D02*
X4241610Y-16361984D01*
X4241610Y-16361984D02*
X4222563Y-16361984D01*
X4222563Y-16361984D02*
X4203515Y-16352460D01*
X4203515Y-16352460D02*
X4193991Y-16342936D01*
X4193991Y-16342936D02*
X4184467Y-16323888D01*
X4184467Y-16323888D02*
X4174943Y-16285793D01*
X4174943Y-16285793D02*
X4174943Y-16238174D01*
X4174943Y-16238174D02*
X4184467Y-16200079D01*
X4184467Y-16200079D02*
X4193991Y-16181031D01*
X4193991Y-16181031D02*
X4203515Y-16171508D01*
X4203515Y-16171508D02*
X4222563Y-16161984D01*
X4413039Y-16161984D02*
X4432086Y-16161984D01*
X4432086Y-16161984D02*
X4451134Y-16171508D01*
X4451134Y-16171508D02*
X4460658Y-16181031D01*
X4460658Y-16181031D02*
X4470182Y-16200079D01*
X4470182Y-16200079D02*
X4479705Y-16238174D01*
X4479705Y-16238174D02*
X4479705Y-16285793D01*
X4479705Y-16285793D02*
X4470182Y-16323888D01*
X4470182Y-16323888D02*
X4460658Y-16342936D01*
X4460658Y-16342936D02*
X4451134Y-16352460D01*
X4451134Y-16352460D02*
X4432086Y-16361984D01*
X4432086Y-16361984D02*
X4413039Y-16361984D01*
X4413039Y-16361984D02*
X4393991Y-16352460D01*
X4393991Y-16352460D02*
X4384467Y-16342936D01*
X4384467Y-16342936D02*
X4374944Y-16323888D01*
X4374944Y-16323888D02*
X4365420Y-16285793D01*
X4365420Y-16285793D02*
X4365420Y-16238174D01*
X4365420Y-16238174D02*
X4374944Y-16200079D01*
X4374944Y-16200079D02*
X4384467Y-16181031D01*
X4384467Y-16181031D02*
X4393991Y-16171508D01*
X4393991Y-16171508D02*
X4413039Y-16161984D01*
X4565420Y-16361984D02*
X4565420Y-16228650D01*
X4565420Y-16247698D02*
X4574944Y-16238174D01*
X4574944Y-16238174D02*
X4593991Y-16228650D01*
X4593991Y-16228650D02*
X4622563Y-16228650D01*
X4622563Y-16228650D02*
X4641610Y-16238174D01*
X4641610Y-16238174D02*
X4651134Y-16257222D01*
X4651134Y-16257222D02*
X4651134Y-16361984D01*
X4651134Y-16257222D02*
X4660658Y-16238174D01*
X4660658Y-16238174D02*
X4679705Y-16228650D01*
X4679705Y-16228650D02*
X4708277Y-16228650D01*
X4708277Y-16228650D02*
X4727325Y-16238174D01*
X4727325Y-16238174D02*
X4736848Y-16257222D01*
X4736848Y-16257222D02*
X4736848Y-16361984D01*
X4832086Y-16361984D02*
X4832086Y-16228650D01*
X4832086Y-16247698D02*
X4841610Y-16238174D01*
X4841610Y-16238174D02*
X4860658Y-16228650D01*
X4860658Y-16228650D02*
X4889229Y-16228650D01*
X4889229Y-16228650D02*
X4908277Y-16238174D01*
X4908277Y-16238174D02*
X4917801Y-16257222D01*
X4917801Y-16257222D02*
X4917801Y-16361984D01*
X4917801Y-16257222D02*
X4927325Y-16238174D01*
X4927325Y-16238174D02*
X4946372Y-16228650D01*
X4946372Y-16228650D02*
X4974944Y-16228650D01*
X4974944Y-16228650D02*
X4993991Y-16238174D01*
X4993991Y-16238174D02*
X5003515Y-16257222D01*
X5003515Y-16257222D02*
X5003515Y-16361984D01*
X5393991Y-16152460D02*
X5222563Y-16409603D01*
X5651134Y-16161984D02*
X5670182Y-16161984D01*
X5670182Y-16161984D02*
X5689229Y-16171508D01*
X5689229Y-16171508D02*
X5698753Y-16181031D01*
X5698753Y-16181031D02*
X5708277Y-16200079D01*
X5708277Y-16200079D02*
X5717801Y-16238174D01*
X5717801Y-16238174D02*
X5717801Y-16285793D01*
X5717801Y-16285793D02*
X5708277Y-16323888D01*
X5708277Y-16323888D02*
X5698753Y-16342936D01*
X5698753Y-16342936D02*
X5689229Y-16352460D01*
X5689229Y-16352460D02*
X5670182Y-16361984D01*
X5670182Y-16361984D02*
X5651134Y-16361984D01*
X5651134Y-16361984D02*
X5632086Y-16352460D01*
X5632086Y-16352460D02*
X5622563Y-16342936D01*
X5622563Y-16342936D02*
X5613039Y-16323888D01*
X5613039Y-16323888D02*
X5603515Y-16285793D01*
X5603515Y-16285793D02*
X5603515Y-16238174D01*
X5603515Y-16238174D02*
X5613039Y-16200079D01*
X5613039Y-16200079D02*
X5622563Y-16181031D01*
X5622563Y-16181031D02*
X5632086Y-16171508D01*
X5632086Y-16171508D02*
X5651134Y-16161984D01*
X5803515Y-16342936D02*
X5813039Y-16352460D01*
X5813039Y-16352460D02*
X5803515Y-16361984D01*
X5803515Y-16361984D02*
X5793991Y-16352460D01*
X5793991Y-16352460D02*
X5803515Y-16342936D01*
X5803515Y-16342936D02*
X5803515Y-16361984D01*
X5936848Y-16161984D02*
X5955896Y-16161984D01*
X5955896Y-16161984D02*
X5974944Y-16171508D01*
X5974944Y-16171508D02*
X5984467Y-16181031D01*
X5984467Y-16181031D02*
X5993991Y-16200079D01*
X5993991Y-16200079D02*
X6003515Y-16238174D01*
X6003515Y-16238174D02*
X6003515Y-16285793D01*
X6003515Y-16285793D02*
X5993991Y-16323888D01*
X5993991Y-16323888D02*
X5984467Y-16342936D01*
X5984467Y-16342936D02*
X5974944Y-16352460D01*
X5974944Y-16352460D02*
X5955896Y-16361984D01*
X5955896Y-16361984D02*
X5936848Y-16361984D01*
X5936848Y-16361984D02*
X5917801Y-16352460D01*
X5917801Y-16352460D02*
X5908277Y-16342936D01*
X5908277Y-16342936D02*
X5898753Y-16323888D01*
X5898753Y-16323888D02*
X5889229Y-16285793D01*
X5889229Y-16285793D02*
X5889229Y-16238174D01*
X5889229Y-16238174D02*
X5898753Y-16200079D01*
X5898753Y-16200079D02*
X5908277Y-16181031D01*
X5908277Y-16181031D02*
X5917801Y-16171508D01*
X5917801Y-16171508D02*
X5936848Y-16161984D01*
X6070182Y-16161984D02*
X6193991Y-16161984D01*
X6193991Y-16161984D02*
X6127325Y-16238174D01*
X6127325Y-16238174D02*
X6155896Y-16238174D01*
X6155896Y-16238174D02*
X6174944Y-16247698D01*
X6174944Y-16247698D02*
X6184467Y-16257222D01*
X6184467Y-16257222D02*
X6193991Y-16276269D01*
X6193991Y-16276269D02*
X6193991Y-16323888D01*
X6193991Y-16323888D02*
X6184467Y-16342936D01*
X6184467Y-16342936D02*
X6174944Y-16352460D01*
X6174944Y-16352460D02*
X6155896Y-16361984D01*
X6155896Y-16361984D02*
X6098753Y-16361984D01*
X6098753Y-16361984D02*
X6079706Y-16352460D01*
X6079706Y-16352460D02*
X6070182Y-16342936D01*
X6384467Y-16361984D02*
X6270182Y-16361984D01*
X6327325Y-16361984D02*
X6327325Y-16161984D01*
X6327325Y-16161984D02*
X6308277Y-16190555D01*
X6308277Y-16190555D02*
X6289229Y-16209603D01*
X6289229Y-16209603D02*
X6270182Y-16219127D01*
X6565420Y-16161984D02*
X6470182Y-16161984D01*
X6470182Y-16161984D02*
X6460658Y-16257222D01*
X6460658Y-16257222D02*
X6470182Y-16247698D01*
X6470182Y-16247698D02*
X6489229Y-16238174D01*
X6489229Y-16238174D02*
X6536848Y-16238174D01*
X6536848Y-16238174D02*
X6555896Y-16247698D01*
X6555896Y-16247698D02*
X6565420Y-16257222D01*
X6565420Y-16257222D02*
X6574944Y-16276269D01*
X6574944Y-16276269D02*
X6574944Y-16323888D01*
X6574944Y-16323888D02*
X6565420Y-16342936D01*
X6565420Y-16342936D02*
X6555896Y-16352460D01*
X6555896Y-16352460D02*
X6536848Y-16361984D01*
X6536848Y-16361984D02*
X6489229Y-16361984D01*
X6489229Y-16361984D02*
X6470182Y-16352460D01*
X6470182Y-16352460D02*
X6460658Y-16342936D01*
X6651134Y-16161984D02*
X6651134Y-16200079D01*
X6727325Y-16161984D02*
X6727325Y-16200079D01*
X7022563Y-16438174D02*
X7013039Y-16428650D01*
X7013039Y-16428650D02*
X6993991Y-16400079D01*
X6993991Y-16400079D02*
X6984468Y-16381031D01*
X6984468Y-16381031D02*
X6974944Y-16352460D01*
X6974944Y-16352460D02*
X6965420Y-16304841D01*
X6965420Y-16304841D02*
X6965420Y-16266746D01*
X6965420Y-16266746D02*
X6974944Y-16219127D01*
X6974944Y-16219127D02*
X6984468Y-16190555D01*
X6984468Y-16190555D02*
X6993991Y-16171508D01*
X6993991Y-16171508D02*
X7013039Y-16142936D01*
X7013039Y-16142936D02*
X7022563Y-16133412D01*
X7184468Y-16161984D02*
X7146372Y-16161984D01*
X7146372Y-16161984D02*
X7127325Y-16171508D01*
X7127325Y-16171508D02*
X7117801Y-16181031D01*
X7117801Y-16181031D02*
X7098753Y-16209603D01*
X7098753Y-16209603D02*
X7089229Y-16247698D01*
X7089229Y-16247698D02*
X7089229Y-16323888D01*
X7089229Y-16323888D02*
X7098753Y-16342936D01*
X7098753Y-16342936D02*
X7108277Y-16352460D01*
X7108277Y-16352460D02*
X7127325Y-16361984D01*
X7127325Y-16361984D02*
X7165420Y-16361984D01*
X7165420Y-16361984D02*
X7184468Y-16352460D01*
X7184468Y-16352460D02*
X7193991Y-16342936D01*
X7193991Y-16342936D02*
X7203515Y-16323888D01*
X7203515Y-16323888D02*
X7203515Y-16276269D01*
X7203515Y-16276269D02*
X7193991Y-16257222D01*
X7193991Y-16257222D02*
X7184468Y-16247698D01*
X7184468Y-16247698D02*
X7165420Y-16238174D01*
X7165420Y-16238174D02*
X7127325Y-16238174D01*
X7127325Y-16238174D02*
X7108277Y-16247698D01*
X7108277Y-16247698D02*
X7098753Y-16257222D01*
X7098753Y-16257222D02*
X7089229Y-16276269D01*
X7441610Y-16361984D02*
X7441610Y-16161984D01*
X7527325Y-16361984D02*
X7527325Y-16257222D01*
X7527325Y-16257222D02*
X7517801Y-16238174D01*
X7517801Y-16238174D02*
X7498753Y-16228650D01*
X7498753Y-16228650D02*
X7470182Y-16228650D01*
X7470182Y-16228650D02*
X7451134Y-16238174D01*
X7451134Y-16238174D02*
X7441610Y-16247698D01*
X7651134Y-16361984D02*
X7632087Y-16352460D01*
X7632087Y-16352460D02*
X7622563Y-16342936D01*
X7622563Y-16342936D02*
X7613039Y-16323888D01*
X7613039Y-16323888D02*
X7613039Y-16266746D01*
X7613039Y-16266746D02*
X7622563Y-16247698D01*
X7622563Y-16247698D02*
X7632087Y-16238174D01*
X7632087Y-16238174D02*
X7651134Y-16228650D01*
X7651134Y-16228650D02*
X7679706Y-16228650D01*
X7679706Y-16228650D02*
X7698753Y-16238174D01*
X7698753Y-16238174D02*
X7708277Y-16247698D01*
X7708277Y-16247698D02*
X7717801Y-16266746D01*
X7717801Y-16266746D02*
X7717801Y-16323888D01*
X7717801Y-16323888D02*
X7708277Y-16342936D01*
X7708277Y-16342936D02*
X7698753Y-16352460D01*
X7698753Y-16352460D02*
X7679706Y-16361984D01*
X7679706Y-16361984D02*
X7651134Y-16361984D01*
X7832087Y-16361984D02*
X7813039Y-16352460D01*
X7813039Y-16352460D02*
X7803515Y-16333412D01*
X7803515Y-16333412D02*
X7803515Y-16161984D01*
X7984468Y-16352460D02*
X7965420Y-16361984D01*
X7965420Y-16361984D02*
X7927325Y-16361984D01*
X7927325Y-16361984D02*
X7908277Y-16352460D01*
X7908277Y-16352460D02*
X7898753Y-16333412D01*
X7898753Y-16333412D02*
X7898753Y-16257222D01*
X7898753Y-16257222D02*
X7908277Y-16238174D01*
X7908277Y-16238174D02*
X7927325Y-16228650D01*
X7927325Y-16228650D02*
X7965420Y-16228650D01*
X7965420Y-16228650D02*
X7984468Y-16238174D01*
X7984468Y-16238174D02*
X7993991Y-16257222D01*
X7993991Y-16257222D02*
X7993991Y-16276269D01*
X7993991Y-16276269D02*
X7898753Y-16295317D01*
X8070182Y-16352460D02*
X8089230Y-16361984D01*
X8089230Y-16361984D02*
X8127325Y-16361984D01*
X8127325Y-16361984D02*
X8146372Y-16352460D01*
X8146372Y-16352460D02*
X8155896Y-16333412D01*
X8155896Y-16333412D02*
X8155896Y-16323888D01*
X8155896Y-16323888D02*
X8146372Y-16304841D01*
X8146372Y-16304841D02*
X8127325Y-16295317D01*
X8127325Y-16295317D02*
X8098753Y-16295317D01*
X8098753Y-16295317D02*
X8079706Y-16285793D01*
X8079706Y-16285793D02*
X8070182Y-16266746D01*
X8070182Y-16266746D02*
X8070182Y-16257222D01*
X8070182Y-16257222D02*
X8079706Y-16238174D01*
X8079706Y-16238174D02*
X8098753Y-16228650D01*
X8098753Y-16228650D02*
X8127325Y-16228650D01*
X8127325Y-16228650D02*
X8146372Y-16238174D01*
X8222563Y-16438174D02*
X8232087Y-16428650D01*
X8232087Y-16428650D02*
X8251134Y-16400079D01*
X8251134Y-16400079D02*
X8260658Y-16381031D01*
X8260658Y-16381031D02*
X8270182Y-16352460D01*
X8270182Y-16352460D02*
X8279706Y-16304841D01*
X8279706Y-16304841D02*
X8279706Y-16266746D01*
X8279706Y-16266746D02*
X8270182Y-16219127D01*
X8270182Y-16219127D02*
X8260658Y-16190555D01*
X8260658Y-16190555D02*
X8251134Y-16171508D01*
X8251134Y-16171508D02*
X8232087Y-16142936D01*
X8232087Y-16142936D02*
X8222563Y-16133412D01*
D12*
X3432856Y-16569856D02*
X3432856Y-16499144D01*
X3362144Y-16499144D01*
X3362144Y-16569856D01*
X3432856Y-16569856D01*
D11*
X3813039Y-16625984D02*
X3698753Y-16625984D01*
X3755896Y-16625984D02*
X3755896Y-16425984D01*
X3755896Y-16425984D02*
X3736848Y-16454555D01*
X3736848Y-16454555D02*
X3717801Y-16473603D01*
X3717801Y-16473603D02*
X3698753Y-16483127D01*
X3898753Y-16606936D02*
X3908277Y-16616460D01*
X3908277Y-16616460D02*
X3898753Y-16625984D01*
X3898753Y-16625984D02*
X3889229Y-16616460D01*
X3889229Y-16616460D02*
X3898753Y-16606936D01*
X3898753Y-16606936D02*
X3898753Y-16625984D01*
X4032086Y-16425984D02*
X4051134Y-16425984D01*
X4051134Y-16425984D02*
X4070182Y-16435508D01*
X4070182Y-16435508D02*
X4079705Y-16445031D01*
X4079705Y-16445031D02*
X4089229Y-16464079D01*
X4089229Y-16464079D02*
X4098753Y-16502174D01*
X4098753Y-16502174D02*
X4098753Y-16549793D01*
X4098753Y-16549793D02*
X4089229Y-16587888D01*
X4089229Y-16587888D02*
X4079705Y-16606936D01*
X4079705Y-16606936D02*
X4070182Y-16616460D01*
X4070182Y-16616460D02*
X4051134Y-16625984D01*
X4051134Y-16625984D02*
X4032086Y-16625984D01*
X4032086Y-16625984D02*
X4013039Y-16616460D01*
X4013039Y-16616460D02*
X4003515Y-16606936D01*
X4003515Y-16606936D02*
X3993991Y-16587888D01*
X3993991Y-16587888D02*
X3984467Y-16549793D01*
X3984467Y-16549793D02*
X3984467Y-16502174D01*
X3984467Y-16502174D02*
X3993991Y-16464079D01*
X3993991Y-16464079D02*
X4003515Y-16445031D01*
X4003515Y-16445031D02*
X4013039Y-16435508D01*
X4013039Y-16435508D02*
X4032086Y-16425984D01*
X4222563Y-16425984D02*
X4241610Y-16425984D01*
X4241610Y-16425984D02*
X4260658Y-16435508D01*
X4260658Y-16435508D02*
X4270182Y-16445031D01*
X4270182Y-16445031D02*
X4279705Y-16464079D01*
X4279705Y-16464079D02*
X4289229Y-16502174D01*
X4289229Y-16502174D02*
X4289229Y-16549793D01*
X4289229Y-16549793D02*
X4279705Y-16587888D01*
X4279705Y-16587888D02*
X4270182Y-16606936D01*
X4270182Y-16606936D02*
X4260658Y-16616460D01*
X4260658Y-16616460D02*
X4241610Y-16625984D01*
X4241610Y-16625984D02*
X4222563Y-16625984D01*
X4222563Y-16625984D02*
X4203515Y-16616460D01*
X4203515Y-16616460D02*
X4193991Y-16606936D01*
X4193991Y-16606936D02*
X4184467Y-16587888D01*
X4184467Y-16587888D02*
X4174943Y-16549793D01*
X4174943Y-16549793D02*
X4174943Y-16502174D01*
X4174943Y-16502174D02*
X4184467Y-16464079D01*
X4184467Y-16464079D02*
X4193991Y-16445031D01*
X4193991Y-16445031D02*
X4203515Y-16435508D01*
X4203515Y-16435508D02*
X4222563Y-16425984D01*
X4413039Y-16425984D02*
X4432086Y-16425984D01*
X4432086Y-16425984D02*
X4451134Y-16435508D01*
X4451134Y-16435508D02*
X4460658Y-16445031D01*
X4460658Y-16445031D02*
X4470182Y-16464079D01*
X4470182Y-16464079D02*
X4479705Y-16502174D01*
X4479705Y-16502174D02*
X4479705Y-16549793D01*
X4479705Y-16549793D02*
X4470182Y-16587888D01*
X4470182Y-16587888D02*
X4460658Y-16606936D01*
X4460658Y-16606936D02*
X4451134Y-16616460D01*
X4451134Y-16616460D02*
X4432086Y-16625984D01*
X4432086Y-16625984D02*
X4413039Y-16625984D01*
X4413039Y-16625984D02*
X4393991Y-16616460D01*
X4393991Y-16616460D02*
X4384467Y-16606936D01*
X4384467Y-16606936D02*
X4374944Y-16587888D01*
X4374944Y-16587888D02*
X4365420Y-16549793D01*
X4365420Y-16549793D02*
X4365420Y-16502174D01*
X4365420Y-16502174D02*
X4374944Y-16464079D01*
X4374944Y-16464079D02*
X4384467Y-16445031D01*
X4384467Y-16445031D02*
X4393991Y-16435508D01*
X4393991Y-16435508D02*
X4413039Y-16425984D01*
X4565420Y-16625984D02*
X4565420Y-16492650D01*
X4565420Y-16511698D02*
X4574944Y-16502174D01*
X4574944Y-16502174D02*
X4593991Y-16492650D01*
X4593991Y-16492650D02*
X4622563Y-16492650D01*
X4622563Y-16492650D02*
X4641610Y-16502174D01*
X4641610Y-16502174D02*
X4651134Y-16521222D01*
X4651134Y-16521222D02*
X4651134Y-16625984D01*
X4651134Y-16521222D02*
X4660658Y-16502174D01*
X4660658Y-16502174D02*
X4679705Y-16492650D01*
X4679705Y-16492650D02*
X4708277Y-16492650D01*
X4708277Y-16492650D02*
X4727325Y-16502174D01*
X4727325Y-16502174D02*
X4736848Y-16521222D01*
X4736848Y-16521222D02*
X4736848Y-16625984D01*
X4832086Y-16625984D02*
X4832086Y-16492650D01*
X4832086Y-16511698D02*
X4841610Y-16502174D01*
X4841610Y-16502174D02*
X4860658Y-16492650D01*
X4860658Y-16492650D02*
X4889229Y-16492650D01*
X4889229Y-16492650D02*
X4908277Y-16502174D01*
X4908277Y-16502174D02*
X4917801Y-16521222D01*
X4917801Y-16521222D02*
X4917801Y-16625984D01*
X4917801Y-16521222D02*
X4927325Y-16502174D01*
X4927325Y-16502174D02*
X4946372Y-16492650D01*
X4946372Y-16492650D02*
X4974944Y-16492650D01*
X4974944Y-16492650D02*
X4993991Y-16502174D01*
X4993991Y-16502174D02*
X5003515Y-16521222D01*
X5003515Y-16521222D02*
X5003515Y-16625984D01*
X5393991Y-16416460D02*
X5222563Y-16673603D01*
X5651134Y-16425984D02*
X5670182Y-16425984D01*
X5670182Y-16425984D02*
X5689229Y-16435508D01*
X5689229Y-16435508D02*
X5698753Y-16445031D01*
X5698753Y-16445031D02*
X5708277Y-16464079D01*
X5708277Y-16464079D02*
X5717801Y-16502174D01*
X5717801Y-16502174D02*
X5717801Y-16549793D01*
X5717801Y-16549793D02*
X5708277Y-16587888D01*
X5708277Y-16587888D02*
X5698753Y-16606936D01*
X5698753Y-16606936D02*
X5689229Y-16616460D01*
X5689229Y-16616460D02*
X5670182Y-16625984D01*
X5670182Y-16625984D02*
X5651134Y-16625984D01*
X5651134Y-16625984D02*
X5632086Y-16616460D01*
X5632086Y-16616460D02*
X5622563Y-16606936D01*
X5622563Y-16606936D02*
X5613039Y-16587888D01*
X5613039Y-16587888D02*
X5603515Y-16549793D01*
X5603515Y-16549793D02*
X5603515Y-16502174D01*
X5603515Y-16502174D02*
X5613039Y-16464079D01*
X5613039Y-16464079D02*
X5622563Y-16445031D01*
X5622563Y-16445031D02*
X5632086Y-16435508D01*
X5632086Y-16435508D02*
X5651134Y-16425984D01*
X5803515Y-16606936D02*
X5813039Y-16616460D01*
X5813039Y-16616460D02*
X5803515Y-16625984D01*
X5803515Y-16625984D02*
X5793991Y-16616460D01*
X5793991Y-16616460D02*
X5803515Y-16606936D01*
X5803515Y-16606936D02*
X5803515Y-16625984D01*
X5936848Y-16425984D02*
X5955896Y-16425984D01*
X5955896Y-16425984D02*
X5974944Y-16435508D01*
X5974944Y-16435508D02*
X5984467Y-16445031D01*
X5984467Y-16445031D02*
X5993991Y-16464079D01*
X5993991Y-16464079D02*
X6003515Y-16502174D01*
X6003515Y-16502174D02*
X6003515Y-16549793D01*
X6003515Y-16549793D02*
X5993991Y-16587888D01*
X5993991Y-16587888D02*
X5984467Y-16606936D01*
X5984467Y-16606936D02*
X5974944Y-16616460D01*
X5974944Y-16616460D02*
X5955896Y-16625984D01*
X5955896Y-16625984D02*
X5936848Y-16625984D01*
X5936848Y-16625984D02*
X5917801Y-16616460D01*
X5917801Y-16616460D02*
X5908277Y-16606936D01*
X5908277Y-16606936D02*
X5898753Y-16587888D01*
X5898753Y-16587888D02*
X5889229Y-16549793D01*
X5889229Y-16549793D02*
X5889229Y-16502174D01*
X5889229Y-16502174D02*
X5898753Y-16464079D01*
X5898753Y-16464079D02*
X5908277Y-16445031D01*
X5908277Y-16445031D02*
X5917801Y-16435508D01*
X5917801Y-16435508D02*
X5936848Y-16425984D01*
X6070182Y-16425984D02*
X6193991Y-16425984D01*
X6193991Y-16425984D02*
X6127325Y-16502174D01*
X6127325Y-16502174D02*
X6155896Y-16502174D01*
X6155896Y-16502174D02*
X6174944Y-16511698D01*
X6174944Y-16511698D02*
X6184467Y-16521222D01*
X6184467Y-16521222D02*
X6193991Y-16540269D01*
X6193991Y-16540269D02*
X6193991Y-16587888D01*
X6193991Y-16587888D02*
X6184467Y-16606936D01*
X6184467Y-16606936D02*
X6174944Y-16616460D01*
X6174944Y-16616460D02*
X6155896Y-16625984D01*
X6155896Y-16625984D02*
X6098753Y-16625984D01*
X6098753Y-16625984D02*
X6079706Y-16616460D01*
X6079706Y-16616460D02*
X6070182Y-16606936D01*
X6289229Y-16625984D02*
X6327325Y-16625984D01*
X6327325Y-16625984D02*
X6346372Y-16616460D01*
X6346372Y-16616460D02*
X6355896Y-16606936D01*
X6355896Y-16606936D02*
X6374944Y-16578365D01*
X6374944Y-16578365D02*
X6384467Y-16540269D01*
X6384467Y-16540269D02*
X6384467Y-16464079D01*
X6384467Y-16464079D02*
X6374944Y-16445031D01*
X6374944Y-16445031D02*
X6365420Y-16435508D01*
X6365420Y-16435508D02*
X6346372Y-16425984D01*
X6346372Y-16425984D02*
X6308277Y-16425984D01*
X6308277Y-16425984D02*
X6289229Y-16435508D01*
X6289229Y-16435508D02*
X6279706Y-16445031D01*
X6279706Y-16445031D02*
X6270182Y-16464079D01*
X6270182Y-16464079D02*
X6270182Y-16511698D01*
X6270182Y-16511698D02*
X6279706Y-16530746D01*
X6279706Y-16530746D02*
X6289229Y-16540269D01*
X6289229Y-16540269D02*
X6308277Y-16549793D01*
X6308277Y-16549793D02*
X6346372Y-16549793D01*
X6346372Y-16549793D02*
X6365420Y-16540269D01*
X6365420Y-16540269D02*
X6374944Y-16530746D01*
X6374944Y-16530746D02*
X6384467Y-16511698D01*
X6555896Y-16492650D02*
X6555896Y-16625984D01*
X6508277Y-16416460D02*
X6460658Y-16559317D01*
X6460658Y-16559317D02*
X6584467Y-16559317D01*
X6651134Y-16425984D02*
X6651134Y-16464079D01*
X6727325Y-16425984D02*
X6727325Y-16464079D01*
X7022563Y-16702174D02*
X7013039Y-16692650D01*
X7013039Y-16692650D02*
X6993991Y-16664079D01*
X6993991Y-16664079D02*
X6984468Y-16645031D01*
X6984468Y-16645031D02*
X6974944Y-16616460D01*
X6974944Y-16616460D02*
X6965420Y-16568841D01*
X6965420Y-16568841D02*
X6965420Y-16530746D01*
X6965420Y-16530746D02*
X6974944Y-16483127D01*
X6974944Y-16483127D02*
X6984468Y-16454555D01*
X6984468Y-16454555D02*
X6993991Y-16435508D01*
X6993991Y-16435508D02*
X7013039Y-16406936D01*
X7013039Y-16406936D02*
X7022563Y-16397412D01*
X7203515Y-16625984D02*
X7089229Y-16625984D01*
X7146372Y-16625984D02*
X7146372Y-16425984D01*
X7146372Y-16425984D02*
X7127325Y-16454555D01*
X7127325Y-16454555D02*
X7108277Y-16473603D01*
X7108277Y-16473603D02*
X7089229Y-16483127D01*
X7374944Y-16425984D02*
X7336848Y-16425984D01*
X7336848Y-16425984D02*
X7317801Y-16435508D01*
X7317801Y-16435508D02*
X7308277Y-16445031D01*
X7308277Y-16445031D02*
X7289229Y-16473603D01*
X7289229Y-16473603D02*
X7279706Y-16511698D01*
X7279706Y-16511698D02*
X7279706Y-16587888D01*
X7279706Y-16587888D02*
X7289229Y-16606936D01*
X7289229Y-16606936D02*
X7298753Y-16616460D01*
X7298753Y-16616460D02*
X7317801Y-16625984D01*
X7317801Y-16625984D02*
X7355896Y-16625984D01*
X7355896Y-16625984D02*
X7374944Y-16616460D01*
X7374944Y-16616460D02*
X7384468Y-16606936D01*
X7384468Y-16606936D02*
X7393991Y-16587888D01*
X7393991Y-16587888D02*
X7393991Y-16540269D01*
X7393991Y-16540269D02*
X7384468Y-16521222D01*
X7384468Y-16521222D02*
X7374944Y-16511698D01*
X7374944Y-16511698D02*
X7355896Y-16502174D01*
X7355896Y-16502174D02*
X7317801Y-16502174D01*
X7317801Y-16502174D02*
X7298753Y-16511698D01*
X7298753Y-16511698D02*
X7289229Y-16521222D01*
X7289229Y-16521222D02*
X7279706Y-16540269D01*
X7632087Y-16625984D02*
X7632087Y-16425984D01*
X7717801Y-16625984D02*
X7717801Y-16521222D01*
X7717801Y-16521222D02*
X7708277Y-16502174D01*
X7708277Y-16502174D02*
X7689230Y-16492650D01*
X7689230Y-16492650D02*
X7660658Y-16492650D01*
X7660658Y-16492650D02*
X7641610Y-16502174D01*
X7641610Y-16502174D02*
X7632087Y-16511698D01*
X7841610Y-16625984D02*
X7822563Y-16616460D01*
X7822563Y-16616460D02*
X7813039Y-16606936D01*
X7813039Y-16606936D02*
X7803515Y-16587888D01*
X7803515Y-16587888D02*
X7803515Y-16530746D01*
X7803515Y-16530746D02*
X7813039Y-16511698D01*
X7813039Y-16511698D02*
X7822563Y-16502174D01*
X7822563Y-16502174D02*
X7841610Y-16492650D01*
X7841610Y-16492650D02*
X7870182Y-16492650D01*
X7870182Y-16492650D02*
X7889230Y-16502174D01*
X7889230Y-16502174D02*
X7898753Y-16511698D01*
X7898753Y-16511698D02*
X7908277Y-16530746D01*
X7908277Y-16530746D02*
X7908277Y-16587888D01*
X7908277Y-16587888D02*
X7898753Y-16606936D01*
X7898753Y-16606936D02*
X7889230Y-16616460D01*
X7889230Y-16616460D02*
X7870182Y-16625984D01*
X7870182Y-16625984D02*
X7841610Y-16625984D01*
X8022563Y-16625984D02*
X8003515Y-16616460D01*
X8003515Y-16616460D02*
X7993991Y-16597412D01*
X7993991Y-16597412D02*
X7993991Y-16425984D01*
X8174944Y-16616460D02*
X8155896Y-16625984D01*
X8155896Y-16625984D02*
X8117801Y-16625984D01*
X8117801Y-16625984D02*
X8098753Y-16616460D01*
X8098753Y-16616460D02*
X8089230Y-16597412D01*
X8089230Y-16597412D02*
X8089230Y-16521222D01*
X8089230Y-16521222D02*
X8098753Y-16502174D01*
X8098753Y-16502174D02*
X8117801Y-16492650D01*
X8117801Y-16492650D02*
X8155896Y-16492650D01*
X8155896Y-16492650D02*
X8174944Y-16502174D01*
X8174944Y-16502174D02*
X8184468Y-16521222D01*
X8184468Y-16521222D02*
X8184468Y-16540269D01*
X8184468Y-16540269D02*
X8089230Y-16559317D01*
X8260658Y-16616460D02*
X8279706Y-16625984D01*
X8279706Y-16625984D02*
X8317801Y-16625984D01*
X8317801Y-16625984D02*
X8336849Y-16616460D01*
X8336849Y-16616460D02*
X8346372Y-16597412D01*
X8346372Y-16597412D02*
X8346372Y-16587888D01*
X8346372Y-16587888D02*
X8336849Y-16568841D01*
X8336849Y-16568841D02*
X8317801Y-16559317D01*
X8317801Y-16559317D02*
X8289230Y-16559317D01*
X8289230Y-16559317D02*
X8270182Y-16549793D01*
X8270182Y-16549793D02*
X8260658Y-16530746D01*
X8260658Y-16530746D02*
X8260658Y-16521222D01*
X8260658Y-16521222D02*
X8270182Y-16502174D01*
X8270182Y-16502174D02*
X8289230Y-16492650D01*
X8289230Y-16492650D02*
X8317801Y-16492650D01*
X8317801Y-16492650D02*
X8336849Y-16502174D01*
X8584468Y-16549793D02*
X8736849Y-16549793D01*
X8660658Y-16625984D02*
X8660658Y-16473603D01*
X9013039Y-16511698D02*
X8993992Y-16502174D01*
X8993992Y-16502174D02*
X8984468Y-16492650D01*
X8984468Y-16492650D02*
X8974944Y-16473603D01*
X8974944Y-16473603D02*
X8974944Y-16464079D01*
X8974944Y-16464079D02*
X8984468Y-16445031D01*
X8984468Y-16445031D02*
X8993992Y-16435508D01*
X8993992Y-16435508D02*
X9013039Y-16425984D01*
X9013039Y-16425984D02*
X9051135Y-16425984D01*
X9051135Y-16425984D02*
X9070182Y-16435508D01*
X9070182Y-16435508D02*
X9079706Y-16445031D01*
X9079706Y-16445031D02*
X9089230Y-16464079D01*
X9089230Y-16464079D02*
X9089230Y-16473603D01*
X9089230Y-16473603D02*
X9079706Y-16492650D01*
X9079706Y-16492650D02*
X9070182Y-16502174D01*
X9070182Y-16502174D02*
X9051135Y-16511698D01*
X9051135Y-16511698D02*
X9013039Y-16511698D01*
X9013039Y-16511698D02*
X8993992Y-16521222D01*
X8993992Y-16521222D02*
X8984468Y-16530746D01*
X8984468Y-16530746D02*
X8974944Y-16549793D01*
X8974944Y-16549793D02*
X8974944Y-16587888D01*
X8974944Y-16587888D02*
X8984468Y-16606936D01*
X8984468Y-16606936D02*
X8993992Y-16616460D01*
X8993992Y-16616460D02*
X9013039Y-16625984D01*
X9013039Y-16625984D02*
X9051135Y-16625984D01*
X9051135Y-16625984D02*
X9070182Y-16616460D01*
X9070182Y-16616460D02*
X9079706Y-16606936D01*
X9079706Y-16606936D02*
X9089230Y-16587888D01*
X9089230Y-16587888D02*
X9089230Y-16549793D01*
X9089230Y-16549793D02*
X9079706Y-16530746D01*
X9079706Y-16530746D02*
X9070182Y-16521222D01*
X9070182Y-16521222D02*
X9051135Y-16511698D01*
X9317801Y-16616460D02*
X9336849Y-16625984D01*
X9336849Y-16625984D02*
X9374944Y-16625984D01*
X9374944Y-16625984D02*
X9393992Y-16616460D01*
X9393992Y-16616460D02*
X9403516Y-16597412D01*
X9403516Y-16597412D02*
X9403516Y-16587888D01*
X9403516Y-16587888D02*
X9393992Y-16568841D01*
X9393992Y-16568841D02*
X9374944Y-16559317D01*
X9374944Y-16559317D02*
X9346373Y-16559317D01*
X9346373Y-16559317D02*
X9327325Y-16549793D01*
X9327325Y-16549793D02*
X9317801Y-16530746D01*
X9317801Y-16530746D02*
X9317801Y-16521222D01*
X9317801Y-16521222D02*
X9327325Y-16502174D01*
X9327325Y-16502174D02*
X9346373Y-16492650D01*
X9346373Y-16492650D02*
X9374944Y-16492650D01*
X9374944Y-16492650D02*
X9393992Y-16502174D01*
X9517801Y-16625984D02*
X9498754Y-16616460D01*
X9498754Y-16616460D02*
X9489230Y-16597412D01*
X9489230Y-16597412D02*
X9489230Y-16425984D01*
X9622563Y-16625984D02*
X9603516Y-16616460D01*
X9603516Y-16616460D02*
X9593992Y-16606936D01*
X9593992Y-16606936D02*
X9584468Y-16587888D01*
X9584468Y-16587888D02*
X9584468Y-16530746D01*
X9584468Y-16530746D02*
X9593992Y-16511698D01*
X9593992Y-16511698D02*
X9603516Y-16502174D01*
X9603516Y-16502174D02*
X9622563Y-16492650D01*
X9622563Y-16492650D02*
X9651135Y-16492650D01*
X9651135Y-16492650D02*
X9670182Y-16502174D01*
X9670182Y-16502174D02*
X9679706Y-16511698D01*
X9679706Y-16511698D02*
X9689230Y-16530746D01*
X9689230Y-16530746D02*
X9689230Y-16587888D01*
X9689230Y-16587888D02*
X9679706Y-16606936D01*
X9679706Y-16606936D02*
X9670182Y-16616460D01*
X9670182Y-16616460D02*
X9651135Y-16625984D01*
X9651135Y-16625984D02*
X9622563Y-16625984D01*
X9746373Y-16492650D02*
X9822563Y-16492650D01*
X9774944Y-16425984D02*
X9774944Y-16597412D01*
X9774944Y-16597412D02*
X9784468Y-16616460D01*
X9784468Y-16616460D02*
X9803516Y-16625984D01*
X9803516Y-16625984D02*
X9822563Y-16625984D01*
X9879706Y-16616460D02*
X9898754Y-16625984D01*
X9898754Y-16625984D02*
X9936849Y-16625984D01*
X9936849Y-16625984D02*
X9955897Y-16616460D01*
X9955897Y-16616460D02*
X9965420Y-16597412D01*
X9965420Y-16597412D02*
X9965420Y-16587888D01*
X9965420Y-16587888D02*
X9955897Y-16568841D01*
X9955897Y-16568841D02*
X9936849Y-16559317D01*
X9936849Y-16559317D02*
X9908277Y-16559317D01*
X9908277Y-16559317D02*
X9889230Y-16549793D01*
X9889230Y-16549793D02*
X9879706Y-16530746D01*
X9879706Y-16530746D02*
X9879706Y-16521222D01*
X9879706Y-16521222D02*
X9889230Y-16502174D01*
X9889230Y-16502174D02*
X9908277Y-16492650D01*
X9908277Y-16492650D02*
X9936849Y-16492650D01*
X9936849Y-16492650D02*
X9955897Y-16502174D01*
X10032087Y-16702174D02*
X10041611Y-16692650D01*
X10041611Y-16692650D02*
X10060658Y-16664079D01*
X10060658Y-16664079D02*
X10070182Y-16645031D01*
X10070182Y-16645031D02*
X10079706Y-16616460D01*
X10079706Y-16616460D02*
X10089230Y-16568841D01*
X10089230Y-16568841D02*
X10089230Y-16530746D01*
X10089230Y-16530746D02*
X10079706Y-16483127D01*
X10079706Y-16483127D02*
X10070182Y-16454555D01*
X10070182Y-16454555D02*
X10060658Y-16435508D01*
X10060658Y-16435508D02*
X10041611Y-16406936D01*
X10041611Y-16406936D02*
X10032087Y-16397412D01*
D13*
X3392890Y-16853110D02*
X3447500Y-16798500D01*
X3392890Y-16743890D01*
X3338280Y-16798500D01*
X3392890Y-16853110D01*
D11*
X3813039Y-16889984D02*
X3698753Y-16889984D01*
X3755896Y-16889984D02*
X3755896Y-16689984D01*
X3755896Y-16689984D02*
X3736848Y-16718555D01*
X3736848Y-16718555D02*
X3717801Y-16737603D01*
X3717801Y-16737603D02*
X3698753Y-16747127D01*
X3898753Y-16870936D02*
X3908277Y-16880460D01*
X3908277Y-16880460D02*
X3898753Y-16889984D01*
X3898753Y-16889984D02*
X3889229Y-16880460D01*
X3889229Y-16880460D02*
X3898753Y-16870936D01*
X3898753Y-16870936D02*
X3898753Y-16889984D01*
X4032086Y-16689984D02*
X4051134Y-16689984D01*
X4051134Y-16689984D02*
X4070182Y-16699508D01*
X4070182Y-16699508D02*
X4079705Y-16709031D01*
X4079705Y-16709031D02*
X4089229Y-16728079D01*
X4089229Y-16728079D02*
X4098753Y-16766174D01*
X4098753Y-16766174D02*
X4098753Y-16813793D01*
X4098753Y-16813793D02*
X4089229Y-16851889D01*
X4089229Y-16851889D02*
X4079705Y-16870936D01*
X4079705Y-16870936D02*
X4070182Y-16880460D01*
X4070182Y-16880460D02*
X4051134Y-16889984D01*
X4051134Y-16889984D02*
X4032086Y-16889984D01*
X4032086Y-16889984D02*
X4013039Y-16880460D01*
X4013039Y-16880460D02*
X4003515Y-16870936D01*
X4003515Y-16870936D02*
X3993991Y-16851889D01*
X3993991Y-16851889D02*
X3984467Y-16813793D01*
X3984467Y-16813793D02*
X3984467Y-16766174D01*
X3984467Y-16766174D02*
X3993991Y-16728079D01*
X3993991Y-16728079D02*
X4003515Y-16709031D01*
X4003515Y-16709031D02*
X4013039Y-16699508D01*
X4013039Y-16699508D02*
X4032086Y-16689984D01*
X4193991Y-16889984D02*
X4232086Y-16889984D01*
X4232086Y-16889984D02*
X4251134Y-16880460D01*
X4251134Y-16880460D02*
X4260658Y-16870936D01*
X4260658Y-16870936D02*
X4279705Y-16842365D01*
X4279705Y-16842365D02*
X4289229Y-16804270D01*
X4289229Y-16804270D02*
X4289229Y-16728079D01*
X4289229Y-16728079D02*
X4279705Y-16709031D01*
X4279705Y-16709031D02*
X4270182Y-16699508D01*
X4270182Y-16699508D02*
X4251134Y-16689984D01*
X4251134Y-16689984D02*
X4213039Y-16689984D01*
X4213039Y-16689984D02*
X4193991Y-16699508D01*
X4193991Y-16699508D02*
X4184467Y-16709031D01*
X4184467Y-16709031D02*
X4174943Y-16728079D01*
X4174943Y-16728079D02*
X4174943Y-16775698D01*
X4174943Y-16775698D02*
X4184467Y-16794746D01*
X4184467Y-16794746D02*
X4193991Y-16804270D01*
X4193991Y-16804270D02*
X4213039Y-16813793D01*
X4213039Y-16813793D02*
X4251134Y-16813793D01*
X4251134Y-16813793D02*
X4270182Y-16804270D01*
X4270182Y-16804270D02*
X4279705Y-16794746D01*
X4279705Y-16794746D02*
X4289229Y-16775698D01*
X4365420Y-16709031D02*
X4374944Y-16699508D01*
X4374944Y-16699508D02*
X4393991Y-16689984D01*
X4393991Y-16689984D02*
X4441610Y-16689984D01*
X4441610Y-16689984D02*
X4460658Y-16699508D01*
X4460658Y-16699508D02*
X4470182Y-16709031D01*
X4470182Y-16709031D02*
X4479705Y-16728079D01*
X4479705Y-16728079D02*
X4479705Y-16747127D01*
X4479705Y-16747127D02*
X4470182Y-16775698D01*
X4470182Y-16775698D02*
X4355896Y-16889984D01*
X4355896Y-16889984D02*
X4479705Y-16889984D01*
X4565420Y-16889984D02*
X4565420Y-16756650D01*
X4565420Y-16775698D02*
X4574944Y-16766174D01*
X4574944Y-16766174D02*
X4593991Y-16756650D01*
X4593991Y-16756650D02*
X4622563Y-16756650D01*
X4622563Y-16756650D02*
X4641610Y-16766174D01*
X4641610Y-16766174D02*
X4651134Y-16785222D01*
X4651134Y-16785222D02*
X4651134Y-16889984D01*
X4651134Y-16785222D02*
X4660658Y-16766174D01*
X4660658Y-16766174D02*
X4679705Y-16756650D01*
X4679705Y-16756650D02*
X4708277Y-16756650D01*
X4708277Y-16756650D02*
X4727325Y-16766174D01*
X4727325Y-16766174D02*
X4736848Y-16785222D01*
X4736848Y-16785222D02*
X4736848Y-16889984D01*
X4832086Y-16889984D02*
X4832086Y-16756650D01*
X4832086Y-16775698D02*
X4841610Y-16766174D01*
X4841610Y-16766174D02*
X4860658Y-16756650D01*
X4860658Y-16756650D02*
X4889229Y-16756650D01*
X4889229Y-16756650D02*
X4908277Y-16766174D01*
X4908277Y-16766174D02*
X4917801Y-16785222D01*
X4917801Y-16785222D02*
X4917801Y-16889984D01*
X4917801Y-16785222D02*
X4927325Y-16766174D01*
X4927325Y-16766174D02*
X4946372Y-16756650D01*
X4946372Y-16756650D02*
X4974944Y-16756650D01*
X4974944Y-16756650D02*
X4993991Y-16766174D01*
X4993991Y-16766174D02*
X5003515Y-16785222D01*
X5003515Y-16785222D02*
X5003515Y-16889984D01*
X5393991Y-16680460D02*
X5222563Y-16937603D01*
X5651134Y-16689984D02*
X5670182Y-16689984D01*
X5670182Y-16689984D02*
X5689229Y-16699508D01*
X5689229Y-16699508D02*
X5698753Y-16709031D01*
X5698753Y-16709031D02*
X5708277Y-16728079D01*
X5708277Y-16728079D02*
X5717801Y-16766174D01*
X5717801Y-16766174D02*
X5717801Y-16813793D01*
X5717801Y-16813793D02*
X5708277Y-16851889D01*
X5708277Y-16851889D02*
X5698753Y-16870936D01*
X5698753Y-16870936D02*
X5689229Y-16880460D01*
X5689229Y-16880460D02*
X5670182Y-16889984D01*
X5670182Y-16889984D02*
X5651134Y-16889984D01*
X5651134Y-16889984D02*
X5632086Y-16880460D01*
X5632086Y-16880460D02*
X5622563Y-16870936D01*
X5622563Y-16870936D02*
X5613039Y-16851889D01*
X5613039Y-16851889D02*
X5603515Y-16813793D01*
X5603515Y-16813793D02*
X5603515Y-16766174D01*
X5603515Y-16766174D02*
X5613039Y-16728079D01*
X5613039Y-16728079D02*
X5622563Y-16709031D01*
X5622563Y-16709031D02*
X5632086Y-16699508D01*
X5632086Y-16699508D02*
X5651134Y-16689984D01*
X5803515Y-16870936D02*
X5813039Y-16880460D01*
X5813039Y-16880460D02*
X5803515Y-16889984D01*
X5803515Y-16889984D02*
X5793991Y-16880460D01*
X5793991Y-16880460D02*
X5803515Y-16870936D01*
X5803515Y-16870936D02*
X5803515Y-16889984D01*
X5936848Y-16689984D02*
X5955896Y-16689984D01*
X5955896Y-16689984D02*
X5974944Y-16699508D01*
X5974944Y-16699508D02*
X5984467Y-16709031D01*
X5984467Y-16709031D02*
X5993991Y-16728079D01*
X5993991Y-16728079D02*
X6003515Y-16766174D01*
X6003515Y-16766174D02*
X6003515Y-16813793D01*
X6003515Y-16813793D02*
X5993991Y-16851889D01*
X5993991Y-16851889D02*
X5984467Y-16870936D01*
X5984467Y-16870936D02*
X5974944Y-16880460D01*
X5974944Y-16880460D02*
X5955896Y-16889984D01*
X5955896Y-16889984D02*
X5936848Y-16889984D01*
X5936848Y-16889984D02*
X5917801Y-16880460D01*
X5917801Y-16880460D02*
X5908277Y-16870936D01*
X5908277Y-16870936D02*
X5898753Y-16851889D01*
X5898753Y-16851889D02*
X5889229Y-16813793D01*
X5889229Y-16813793D02*
X5889229Y-16766174D01*
X5889229Y-16766174D02*
X5898753Y-16728079D01*
X5898753Y-16728079D02*
X5908277Y-16709031D01*
X5908277Y-16709031D02*
X5917801Y-16699508D01*
X5917801Y-16699508D02*
X5936848Y-16689984D01*
X6174944Y-16756650D02*
X6174944Y-16889984D01*
X6127325Y-16680460D02*
X6079706Y-16823317D01*
X6079706Y-16823317D02*
X6203515Y-16823317D01*
X6260658Y-16689984D02*
X6384467Y-16689984D01*
X6384467Y-16689984D02*
X6317801Y-16766174D01*
X6317801Y-16766174D02*
X6346372Y-16766174D01*
X6346372Y-16766174D02*
X6365420Y-16775698D01*
X6365420Y-16775698D02*
X6374944Y-16785222D01*
X6374944Y-16785222D02*
X6384467Y-16804270D01*
X6384467Y-16804270D02*
X6384467Y-16851889D01*
X6384467Y-16851889D02*
X6374944Y-16870936D01*
X6374944Y-16870936D02*
X6365420Y-16880460D01*
X6365420Y-16880460D02*
X6346372Y-16889984D01*
X6346372Y-16889984D02*
X6289229Y-16889984D01*
X6289229Y-16889984D02*
X6270182Y-16880460D01*
X6270182Y-16880460D02*
X6260658Y-16870936D01*
X6508277Y-16689984D02*
X6527325Y-16689984D01*
X6527325Y-16689984D02*
X6546372Y-16699508D01*
X6546372Y-16699508D02*
X6555896Y-16709031D01*
X6555896Y-16709031D02*
X6565420Y-16728079D01*
X6565420Y-16728079D02*
X6574944Y-16766174D01*
X6574944Y-16766174D02*
X6574944Y-16813793D01*
X6574944Y-16813793D02*
X6565420Y-16851889D01*
X6565420Y-16851889D02*
X6555896Y-16870936D01*
X6555896Y-16870936D02*
X6546372Y-16880460D01*
X6546372Y-16880460D02*
X6527325Y-16889984D01*
X6527325Y-16889984D02*
X6508277Y-16889984D01*
X6508277Y-16889984D02*
X6489229Y-16880460D01*
X6489229Y-16880460D02*
X6479706Y-16870936D01*
X6479706Y-16870936D02*
X6470182Y-16851889D01*
X6470182Y-16851889D02*
X6460658Y-16813793D01*
X6460658Y-16813793D02*
X6460658Y-16766174D01*
X6460658Y-16766174D02*
X6470182Y-16728079D01*
X6470182Y-16728079D02*
X6479706Y-16709031D01*
X6479706Y-16709031D02*
X6489229Y-16699508D01*
X6489229Y-16699508D02*
X6508277Y-16689984D01*
X6651134Y-16689984D02*
X6651134Y-16728079D01*
X6727325Y-16689984D02*
X6727325Y-16728079D01*
X7022563Y-16966174D02*
X7013039Y-16956650D01*
X7013039Y-16956650D02*
X6993991Y-16928079D01*
X6993991Y-16928079D02*
X6984468Y-16909031D01*
X6984468Y-16909031D02*
X6974944Y-16880460D01*
X6974944Y-16880460D02*
X6965420Y-16832841D01*
X6965420Y-16832841D02*
X6965420Y-16794746D01*
X6965420Y-16794746D02*
X6974944Y-16747127D01*
X6974944Y-16747127D02*
X6984468Y-16718555D01*
X6984468Y-16718555D02*
X6993991Y-16699508D01*
X6993991Y-16699508D02*
X7013039Y-16670936D01*
X7013039Y-16670936D02*
X7022563Y-16661412D01*
X7193991Y-16689984D02*
X7098753Y-16689984D01*
X7098753Y-16689984D02*
X7089229Y-16785222D01*
X7089229Y-16785222D02*
X7098753Y-16775698D01*
X7098753Y-16775698D02*
X7117801Y-16766174D01*
X7117801Y-16766174D02*
X7165420Y-16766174D01*
X7165420Y-16766174D02*
X7184468Y-16775698D01*
X7184468Y-16775698D02*
X7193991Y-16785222D01*
X7193991Y-16785222D02*
X7203515Y-16804270D01*
X7203515Y-16804270D02*
X7203515Y-16851889D01*
X7203515Y-16851889D02*
X7193991Y-16870936D01*
X7193991Y-16870936D02*
X7184468Y-16880460D01*
X7184468Y-16880460D02*
X7165420Y-16889984D01*
X7165420Y-16889984D02*
X7117801Y-16889984D01*
X7117801Y-16889984D02*
X7098753Y-16880460D01*
X7098753Y-16880460D02*
X7089229Y-16870936D01*
X7374944Y-16756650D02*
X7374944Y-16889984D01*
X7327325Y-16680460D02*
X7279706Y-16823317D01*
X7279706Y-16823317D02*
X7403515Y-16823317D01*
X7632087Y-16889984D02*
X7632087Y-16689984D01*
X7717801Y-16889984D02*
X7717801Y-16785222D01*
X7717801Y-16785222D02*
X7708277Y-16766174D01*
X7708277Y-16766174D02*
X7689230Y-16756650D01*
X7689230Y-16756650D02*
X7660658Y-16756650D01*
X7660658Y-16756650D02*
X7641610Y-16766174D01*
X7641610Y-16766174D02*
X7632087Y-16775698D01*
X7841610Y-16889984D02*
X7822563Y-16880460D01*
X7822563Y-16880460D02*
X7813039Y-16870936D01*
X7813039Y-16870936D02*
X7803515Y-16851889D01*
X7803515Y-16851889D02*
X7803515Y-16794746D01*
X7803515Y-16794746D02*
X7813039Y-16775698D01*
X7813039Y-16775698D02*
X7822563Y-16766174D01*
X7822563Y-16766174D02*
X7841610Y-16756650D01*
X7841610Y-16756650D02*
X7870182Y-16756650D01*
X7870182Y-16756650D02*
X7889230Y-16766174D01*
X7889230Y-16766174D02*
X7898753Y-16775698D01*
X7898753Y-16775698D02*
X7908277Y-16794746D01*
X7908277Y-16794746D02*
X7908277Y-16851889D01*
X7908277Y-16851889D02*
X7898753Y-16870936D01*
X7898753Y-16870936D02*
X7889230Y-16880460D01*
X7889230Y-16880460D02*
X7870182Y-16889984D01*
X7870182Y-16889984D02*
X7841610Y-16889984D01*
X8022563Y-16889984D02*
X8003515Y-16880460D01*
X8003515Y-16880460D02*
X7993991Y-16861412D01*
X7993991Y-16861412D02*
X7993991Y-16689984D01*
X8174944Y-16880460D02*
X8155896Y-16889984D01*
X8155896Y-16889984D02*
X8117801Y-16889984D01*
X8117801Y-16889984D02*
X8098753Y-16880460D01*
X8098753Y-16880460D02*
X8089230Y-16861412D01*
X8089230Y-16861412D02*
X8089230Y-16785222D01*
X8089230Y-16785222D02*
X8098753Y-16766174D01*
X8098753Y-16766174D02*
X8117801Y-16756650D01*
X8117801Y-16756650D02*
X8155896Y-16756650D01*
X8155896Y-16756650D02*
X8174944Y-16766174D01*
X8174944Y-16766174D02*
X8184468Y-16785222D01*
X8184468Y-16785222D02*
X8184468Y-16804270D01*
X8184468Y-16804270D02*
X8089230Y-16823317D01*
X8260658Y-16880460D02*
X8279706Y-16889984D01*
X8279706Y-16889984D02*
X8317801Y-16889984D01*
X8317801Y-16889984D02*
X8336849Y-16880460D01*
X8336849Y-16880460D02*
X8346372Y-16861412D01*
X8346372Y-16861412D02*
X8346372Y-16851889D01*
X8346372Y-16851889D02*
X8336849Y-16832841D01*
X8336849Y-16832841D02*
X8317801Y-16823317D01*
X8317801Y-16823317D02*
X8289230Y-16823317D01*
X8289230Y-16823317D02*
X8270182Y-16813793D01*
X8270182Y-16813793D02*
X8260658Y-16794746D01*
X8260658Y-16794746D02*
X8260658Y-16785222D01*
X8260658Y-16785222D02*
X8270182Y-16766174D01*
X8270182Y-16766174D02*
X8289230Y-16756650D01*
X8289230Y-16756650D02*
X8317801Y-16756650D01*
X8317801Y-16756650D02*
X8336849Y-16766174D01*
X8413039Y-16966174D02*
X8422563Y-16956650D01*
X8422563Y-16956650D02*
X8441611Y-16928079D01*
X8441611Y-16928079D02*
X8451134Y-16909031D01*
X8451134Y-16909031D02*
X8460658Y-16880460D01*
X8460658Y-16880460D02*
X8470182Y-16832841D01*
X8470182Y-16832841D02*
X8470182Y-16794746D01*
X8470182Y-16794746D02*
X8460658Y-16747127D01*
X8460658Y-16747127D02*
X8451134Y-16718555D01*
X8451134Y-16718555D02*
X8441611Y-16699508D01*
X8441611Y-16699508D02*
X8422563Y-16670936D01*
X8422563Y-16670936D02*
X8413039Y-16661412D01*
M02*
