%TF.GenerationSoftware,KiCad,Pcbnew,8.0.3*%
%TF.CreationDate,2025-01-04T16:23:02+09:00*%
%TF.ProjectId,manjaro_mx,6d616e6a-6172-46f5-9f6d-782e6b696361,rev?*%
%TF.SameCoordinates,Original*%
%TF.FileFunction,Soldermask,Top*%
%TF.FilePolarity,Negative*%
%FSLAX46Y46*%
G04 Gerber Fmt 4.6, Leading zero omitted, Abs format (unit mm)*
G04 Created by KiCad (PCBNEW 8.0.3) date 2025-01-04 16:23:02*
%MOMM*%
%LPD*%
G01*
G04 APERTURE LIST*
G04 Aperture macros list*
%AMRoundRect*
0 Rectangle with rounded corners*
0 $1 Rounding radius*
0 $2 $3 $4 $5 $6 $7 $8 $9 X,Y pos of 4 corners*
0 Add a 4 corners polygon primitive as box body*
4,1,4,$2,$3,$4,$5,$6,$7,$8,$9,$2,$3,0*
0 Add four circle primitives for the rounded corners*
1,1,$1+$1,$2,$3*
1,1,$1+$1,$4,$5*
1,1,$1+$1,$6,$7*
1,1,$1+$1,$8,$9*
0 Add four rect primitives between the rounded corners*
20,1,$1+$1,$2,$3,$4,$5,0*
20,1,$1+$1,$4,$5,$6,$7,0*
20,1,$1+$1,$6,$7,$8,$9,0*
20,1,$1+$1,$8,$9,$2,$3,0*%
G04 Aperture macros list end*
%ADD10R,1.500000X1.500000*%
%ADD11C,1.600000*%
%ADD12C,1.200000*%
%ADD13O,2.300000X1.500000*%
%ADD14C,0.500000*%
%ADD15RoundRect,0.250000X0.625000X-0.350000X0.625000X0.350000X-0.625000X0.350000X-0.625000X-0.350000X0*%
%ADD16O,1.750000X1.200000*%
%ADD17R,1.700000X1.700000*%
%ADD18O,1.700000X1.700000*%
%ADD19C,1.752600*%
%ADD20O,2.000000X3.200000*%
%ADD21R,2.000000X2.000000*%
%ADD22C,2.000000*%
%ADD23RoundRect,0.250000X-0.625000X0.350000X-0.625000X-0.350000X0.625000X-0.350000X0.625000X0.350000X0*%
%ADD24C,1.900000*%
%ADD25C,3.000000*%
%ADD26C,4.100000*%
G04 APERTURE END LIST*
D10*
%TO.C,PowerSW1*%
X125000000Y-48500000D03*
D11*
X127540000Y-48500000D03*
X122460000Y-48500000D03*
%TD*%
D12*
%TO.C,J2*%
X170550000Y-118000000D03*
X163550000Y-118000000D03*
D13*
X160250000Y-115850000D03*
X168750000Y-120150000D03*
X165750000Y-120150000D03*
X161750000Y-120150000D03*
%TD*%
D14*
%TO.C,*%
X145000000Y-42500000D03*
%TD*%
%TO.C,*%
X144000000Y-42500000D03*
%TD*%
%TO.C,*%
X142000000Y-42500000D03*
%TD*%
%TO.C,*%
X141000000Y-42500000D03*
%TD*%
D15*
%TO.C,BT1*%
X139000000Y-50500000D03*
D16*
X139000000Y-48500000D03*
%TD*%
D17*
%TO.C,rJ3*%
X276150000Y-127340000D03*
D18*
X276150000Y-129880000D03*
X276150000Y-132420000D03*
X276150000Y-134960000D03*
X276150000Y-137500000D03*
X276150000Y-140040000D03*
%TD*%
D10*
%TO.C,rPowerSW1*%
X232050000Y-48500000D03*
D11*
X229510000Y-48500000D03*
X234590000Y-48500000D03*
%TD*%
D14*
%TO.C,*%
X210000000Y-42500000D03*
%TD*%
%TO.C,*%
X211000000Y-42500000D03*
%TD*%
%TO.C,*%
X212000000Y-42500000D03*
%TD*%
D19*
%TO.C,rU1*%
X313970000Y-46380000D03*
X311430000Y-46380000D03*
X308890000Y-46380000D03*
X306350000Y-46380000D03*
X303810000Y-46380000D03*
X301270000Y-46380000D03*
X298730000Y-46380000D03*
X296190000Y-46380000D03*
X293650000Y-46380000D03*
X291110000Y-46380000D03*
X288570000Y-46380000D03*
X286030000Y-46380000D03*
X286030000Y-61620000D03*
X288570000Y-61620000D03*
X291110000Y-61620000D03*
X293650000Y-61620000D03*
X296190000Y-61620000D03*
X298730000Y-61620000D03*
X301270000Y-61620000D03*
X303810000Y-61620000D03*
X306350000Y-61620000D03*
X308890000Y-61620000D03*
X311430000Y-61620000D03*
X313970000Y-61620000D03*
X291110000Y-48920000D03*
X291110000Y-51460000D03*
X291110000Y-54000000D03*
%TD*%
D20*
%TO.C,rEXSW1*%
X187400000Y-98600000D03*
X198600000Y-98600000D03*
D21*
X190500000Y-106100000D03*
D22*
X195500000Y-106100000D03*
X193000000Y-106100000D03*
X195500000Y-91600000D03*
X190500000Y-91600000D03*
%TD*%
D19*
%TO.C,U1*%
X41030000Y-61620000D03*
X43570000Y-61620000D03*
X46110000Y-61620000D03*
X48650000Y-61620000D03*
X51190000Y-61620000D03*
X53730000Y-61620000D03*
X56270000Y-61620000D03*
X58810000Y-61620000D03*
X61350000Y-61620000D03*
X63890000Y-61620000D03*
X66430000Y-61620000D03*
X68970000Y-61620000D03*
X68970000Y-46380000D03*
X66430000Y-46380000D03*
X63890000Y-46380000D03*
X61350000Y-46380000D03*
X58810000Y-46380000D03*
X56270000Y-46380000D03*
X53730000Y-46380000D03*
X51190000Y-46380000D03*
X48650000Y-46380000D03*
X46110000Y-46380000D03*
X43570000Y-46380000D03*
X41030000Y-46380000D03*
X63890000Y-59080000D03*
X63890000Y-56540000D03*
X63890000Y-54000000D03*
%TD*%
D20*
%TO.C,EXSW1*%
X155400000Y-98600000D03*
X166600000Y-98600000D03*
D21*
X158500000Y-106100000D03*
D22*
X163500000Y-106100000D03*
X161000000Y-106100000D03*
X163500000Y-91600000D03*
X158500000Y-91600000D03*
%TD*%
D23*
%TO.C,rBT1*%
X216000000Y-48500000D03*
D16*
X216000000Y-50500000D03*
%TD*%
D14*
%TO.C,*%
X213000000Y-42500000D03*
%TD*%
%TO.C,*%
X143000000Y-42500000D03*
%TD*%
D12*
%TO.C,rJ2*%
X184950000Y-118050000D03*
X191950000Y-118050000D03*
D13*
X195250000Y-120200000D03*
X186750000Y-115900000D03*
X189750000Y-115900000D03*
X193750000Y-115900000D03*
%TD*%
D14*
%TO.C,*%
X214000000Y-42500000D03*
%TD*%
D24*
%TO.C,rSW13*%
X221080000Y-107100000D03*
D25*
X218540000Y-102020000D03*
D26*
X216000000Y-107100000D03*
D25*
X212190000Y-104560000D03*
D24*
X210920000Y-107100000D03*
%TD*%
%TO.C,rSW2*%
X240130000Y-67000000D03*
D25*
X237590000Y-61920000D03*
D26*
X235050000Y-67000000D03*
D25*
X231240000Y-64460000D03*
D24*
X229970000Y-67000000D03*
%TD*%
%TO.C,rSW5*%
X297280000Y-75000000D03*
D25*
X294740000Y-69920000D03*
D26*
X292200000Y-75000000D03*
D25*
X288390000Y-72460000D03*
D24*
X287120000Y-75000000D03*
%TD*%
%TO.C,rSW14*%
X240130000Y-105100000D03*
D25*
X237590000Y-100020000D03*
D26*
X235050000Y-105100000D03*
D25*
X231240000Y-102560000D03*
D24*
X229970000Y-105100000D03*
%TD*%
%TO.C,rSW15*%
X259180000Y-95100000D03*
D25*
X256640000Y-90020000D03*
D26*
X254100000Y-95100000D03*
D25*
X250290000Y-92560000D03*
D24*
X249020000Y-95100000D03*
%TD*%
%TO.C,rSW21*%
X297280000Y-132150000D03*
D25*
X294740000Y-127070000D03*
D26*
X292200000Y-132150000D03*
D25*
X288390000Y-129610000D03*
D24*
X287120000Y-132150000D03*
%TD*%
%TO.C,rSW8*%
X240130000Y-86050000D03*
D25*
X237590000Y-80970000D03*
D26*
X235050000Y-86050000D03*
D25*
X231240000Y-83510000D03*
D24*
X229970000Y-86050000D03*
%TD*%
%TO.C,SW15*%
X106230000Y-95100000D03*
D25*
X103690000Y-90020000D03*
D26*
X101150000Y-95100000D03*
D25*
X97340000Y-92560000D03*
D24*
X96070000Y-95100000D03*
%TD*%
%TO.C,SW10*%
X87180000Y-80050000D03*
D25*
X84640000Y-74970000D03*
D26*
X82100000Y-80050000D03*
D25*
X78290000Y-77510000D03*
D24*
X77020000Y-80050000D03*
%TD*%
%TO.C,SW21*%
X106230000Y-114150000D03*
D25*
X103690000Y-109070000D03*
D26*
X101150000Y-114150000D03*
D25*
X97340000Y-111610000D03*
D24*
X96070000Y-114150000D03*
%TD*%
%TO.C,SW16*%
X87180000Y-99100000D03*
D25*
X84640000Y-94020000D03*
D26*
X82100000Y-99100000D03*
D25*
X78290000Y-96560000D03*
D24*
X77020000Y-99100000D03*
%TD*%
%TO.C,rSW4*%
X278230000Y-61000000D03*
D25*
X275690000Y-55920000D03*
D26*
X273150000Y-61000000D03*
D25*
X269340000Y-58460000D03*
D24*
X268070000Y-61000000D03*
%TD*%
%TO.C,SW22*%
X87180000Y-118150000D03*
D25*
X84640000Y-113070000D03*
D26*
X82100000Y-118150000D03*
D25*
X78290000Y-115610000D03*
D24*
X77020000Y-118150000D03*
%TD*%
%TO.C,rSW18*%
X316330000Y-115100000D03*
D25*
X313790000Y-110020000D03*
D26*
X311250000Y-115100000D03*
D25*
X307440000Y-112560000D03*
D24*
X306170000Y-115100000D03*
%TD*%
%TO.C,rSW1*%
X221080000Y-69000000D03*
D25*
X218540000Y-63920000D03*
D26*
X216000000Y-69000000D03*
D25*
X212190000Y-66460000D03*
D24*
X210920000Y-69000000D03*
%TD*%
%TO.C,rSW10*%
X278230000Y-80050000D03*
D25*
X275690000Y-74970000D03*
D26*
X273150000Y-80050000D03*
D25*
X269340000Y-77510000D03*
D24*
X268070000Y-80050000D03*
%TD*%
%TO.C,SW3*%
X106230000Y-57000000D03*
D25*
X103690000Y-51920000D03*
D26*
X101150000Y-57000000D03*
D25*
X97340000Y-54460000D03*
D24*
X96070000Y-57000000D03*
%TD*%
%TO.C,SW9*%
X106230000Y-76050000D03*
D25*
X103690000Y-70970000D03*
D26*
X101150000Y-76050000D03*
D25*
X97340000Y-73510000D03*
D24*
X96070000Y-76050000D03*
%TD*%
%TO.C,rSW19*%
X198640811Y-136033778D03*
D25*
X194254183Y-132426078D03*
D26*
X194000000Y-138100000D03*
D25*
X189486281Y-137329261D03*
D24*
X189359189Y-140166222D03*
%TD*%
%TO.C,SW6*%
X49080000Y-77000000D03*
D25*
X46540000Y-71920000D03*
D26*
X44000000Y-77000000D03*
D25*
X40190000Y-74460000D03*
D24*
X38920000Y-77000000D03*
%TD*%
%TO.C,rSW20*%
X218906903Y-129785200D03*
D25*
X215138650Y-125535696D03*
D26*
X214000000Y-131100000D03*
D25*
X209662422Y-129632649D03*
D24*
X209093097Y-132414800D03*
%TD*%
%TO.C,SW5*%
X68130000Y-75000000D03*
D25*
X65590000Y-69920000D03*
D26*
X63050000Y-75000000D03*
D25*
X59240000Y-72460000D03*
D24*
X57970000Y-75000000D03*
%TD*%
%TO.C,SW23*%
X68130000Y-132150000D03*
D25*
X65590000Y-127070000D03*
D26*
X63050000Y-132150000D03*
D25*
X59240000Y-129610000D03*
D24*
X57970000Y-132150000D03*
%TD*%
%TO.C,SW18*%
X49080000Y-115100000D03*
D25*
X46540000Y-110020000D03*
D26*
X44000000Y-115100000D03*
D25*
X40190000Y-112560000D03*
D24*
X38920000Y-115100000D03*
%TD*%
%TO.C,rSW12*%
X316330000Y-96050000D03*
D25*
X313790000Y-90970000D03*
D26*
X311250000Y-96050000D03*
D25*
X307440000Y-93510000D03*
D24*
X306170000Y-96050000D03*
%TD*%
%TO.C,SW12*%
X49080000Y-96050000D03*
D25*
X46540000Y-90970000D03*
D26*
X44000000Y-96050000D03*
D25*
X40190000Y-93510000D03*
D24*
X38920000Y-96050000D03*
%TD*%
%TO.C,rSW6*%
X316330000Y-77000000D03*
D25*
X313790000Y-71920000D03*
D26*
X311250000Y-77000000D03*
D25*
X307440000Y-74460000D03*
D24*
X306170000Y-77000000D03*
%TD*%
%TO.C,SW8*%
X125280000Y-86050000D03*
D25*
X122740000Y-80970000D03*
D26*
X120200000Y-86050000D03*
D25*
X116390000Y-83510000D03*
D24*
X115120000Y-86050000D03*
%TD*%
%TO.C,rSW16*%
X278230000Y-99100000D03*
D25*
X275690000Y-94020000D03*
D26*
X273150000Y-99100000D03*
D25*
X269340000Y-96560000D03*
D24*
X268070000Y-99100000D03*
%TD*%
%TO.C,SW7*%
X144330000Y-88050000D03*
D25*
X141790000Y-82970000D03*
D26*
X139250000Y-88050000D03*
D25*
X135440000Y-85510000D03*
D24*
X134170000Y-88050000D03*
%TD*%
%TO.C,SW11*%
X68130000Y-94050000D03*
D25*
X65590000Y-88970000D03*
D26*
X63050000Y-94050000D03*
D25*
X59240000Y-91510000D03*
D24*
X57970000Y-94050000D03*
%TD*%
%TO.C,SW14*%
X125280000Y-105100000D03*
D25*
X122740000Y-100020000D03*
D26*
X120200000Y-105100000D03*
D25*
X116390000Y-102560000D03*
D24*
X115120000Y-105100000D03*
%TD*%
%TO.C,SW13*%
X144330000Y-107100000D03*
D25*
X141790000Y-102020000D03*
D26*
X139250000Y-107100000D03*
D25*
X135440000Y-104560000D03*
D24*
X134170000Y-107100000D03*
%TD*%
%TO.C,rSW7*%
X221080000Y-88050000D03*
D25*
X218540000Y-82970000D03*
D26*
X216000000Y-88050000D03*
D25*
X212190000Y-85510000D03*
D24*
X210920000Y-88050000D03*
%TD*%
%TO.C,SW17*%
X68130000Y-113100000D03*
D25*
X65590000Y-108020000D03*
D26*
X63050000Y-113100000D03*
D25*
X59240000Y-110560000D03*
D24*
X57970000Y-113100000D03*
%TD*%
%TO.C,SW4*%
X87180000Y-61000000D03*
D25*
X84640000Y-55920000D03*
D26*
X82100000Y-61000000D03*
D25*
X78290000Y-58460000D03*
D24*
X77020000Y-61000000D03*
%TD*%
%TO.C,SW2*%
X125280000Y-67000000D03*
D25*
X122740000Y-61920000D03*
D26*
X120200000Y-67000000D03*
D25*
X116390000Y-64460000D03*
D24*
X115120000Y-67000000D03*
%TD*%
%TO.C,rSW3*%
X259180000Y-57000000D03*
D25*
X256640000Y-51920000D03*
D26*
X254100000Y-57000000D03*
D25*
X250290000Y-54460000D03*
D24*
X249020000Y-57000000D03*
%TD*%
%TO.C,SW20*%
X146156903Y-132414801D03*
D25*
X145018252Y-126850497D03*
D26*
X141250000Y-131100000D03*
D25*
X138227223Y-127660448D03*
D24*
X136343097Y-129785199D03*
%TD*%
%TO.C,rSW9*%
X259180000Y-76050000D03*
D25*
X256640000Y-70970000D03*
D26*
X254100000Y-76050000D03*
D25*
X250290000Y-73510000D03*
D24*
X249020000Y-76050000D03*
%TD*%
%TO.C,rSW17*%
X297280000Y-113100000D03*
D25*
X294740000Y-108020000D03*
D26*
X292200000Y-113100000D03*
D25*
X288390000Y-110560000D03*
D24*
X287120000Y-113100000D03*
%TD*%
%TO.C,SW19*%
X165890811Y-140166222D03*
D25*
X165636628Y-134492300D03*
D26*
X161250000Y-138100000D03*
D25*
X158802503Y-134229928D03*
D24*
X156609189Y-136033778D03*
%TD*%
%TO.C,SW1*%
X144330000Y-69000000D03*
D25*
X141790000Y-63920000D03*
D26*
X139250000Y-69000000D03*
D25*
X135440000Y-66460000D03*
D24*
X134170000Y-69000000D03*
%TD*%
%TO.C,rSW11*%
X297280000Y-94050000D03*
D25*
X294740000Y-88970000D03*
D26*
X292200000Y-94050000D03*
D25*
X288390000Y-91510000D03*
D24*
X287120000Y-94050000D03*
%TD*%
M02*
