%TF.GenerationSoftware,KiCad,Pcbnew,8.0.3*%
%TF.CreationDate,2025-01-04T16:23:02+09:00*%
%TF.ProjectId,manjaro_mx,6d616e6a-6172-46f5-9f6d-782e6b696361,rev?*%
%TF.SameCoordinates,Original*%
%TF.FileFunction,Copper,L1,Top*%
%TF.FilePolarity,Positive*%
%FSLAX46Y46*%
G04 Gerber Fmt 4.6, Leading zero omitted, Abs format (unit mm)*
G04 Created by KiCad (PCBNEW 8.0.3) date 2025-01-04 16:23:02*
%MOMM*%
%LPD*%
G01*
G04 APERTURE LIST*
G04 Aperture macros list*
%AMRoundRect*
0 Rectangle with rounded corners*
0 $1 Rounding radius*
0 $2 $3 $4 $5 $6 $7 $8 $9 X,Y pos of 4 corners*
0 Add a 4 corners polygon primitive as box body*
4,1,4,$2,$3,$4,$5,$6,$7,$8,$9,$2,$3,0*
0 Add four circle primitives for the rounded corners*
1,1,$1+$1,$2,$3*
1,1,$1+$1,$4,$5*
1,1,$1+$1,$6,$7*
1,1,$1+$1,$8,$9*
0 Add four rect primitives between the rounded corners*
20,1,$1+$1,$2,$3,$4,$5,0*
20,1,$1+$1,$4,$5,$6,$7,0*
20,1,$1+$1,$6,$7,$8,$9,0*
20,1,$1+$1,$8,$9,$2,$3,0*%
G04 Aperture macros list end*
%TA.AperFunction,ComponentPad*%
%ADD10R,1.500000X1.500000*%
%TD*%
%TA.AperFunction,ComponentPad*%
%ADD11C,1.600000*%
%TD*%
%TA.AperFunction,ComponentPad*%
%ADD12O,2.300000X1.500000*%
%TD*%
%TA.AperFunction,ComponentPad*%
%ADD13RoundRect,0.250000X0.625000X-0.350000X0.625000X0.350000X-0.625000X0.350000X-0.625000X-0.350000X0*%
%TD*%
%TA.AperFunction,ComponentPad*%
%ADD14O,1.750000X1.200000*%
%TD*%
%TA.AperFunction,ComponentPad*%
%ADD15R,1.700000X1.700000*%
%TD*%
%TA.AperFunction,ComponentPad*%
%ADD16O,1.700000X1.700000*%
%TD*%
%TA.AperFunction,ComponentPad*%
%ADD17C,1.752600*%
%TD*%
%TA.AperFunction,WasherPad*%
%ADD18O,2.000000X3.200000*%
%TD*%
%TA.AperFunction,ComponentPad*%
%ADD19R,2.000000X2.000000*%
%TD*%
%TA.AperFunction,ComponentPad*%
%ADD20C,2.000000*%
%TD*%
%TA.AperFunction,ComponentPad*%
%ADD21RoundRect,0.250000X-0.625000X0.350000X-0.625000X-0.350000X0.625000X-0.350000X0.625000X0.350000X0*%
%TD*%
%TA.AperFunction,ViaPad*%
%ADD22C,0.600000*%
%TD*%
%TA.AperFunction,Conductor*%
%ADD23C,0.200000*%
%TD*%
G04 APERTURE END LIST*
D10*
%TO.P,PowerSW1,1,B*%
%TO.N,Net-(PowerSW1-B)*%
X125000000Y-48500000D03*
D11*
%TO.P,PowerSW1,2,C*%
%TO.N,BAT-*%
X127540000Y-48500000D03*
%TO.P,PowerSW1,3,A*%
%TO.N,BAT+*%
X122460000Y-48500000D03*
%TD*%
D12*
%TO.P,J2,1,A*%
%TO.N,unconnected-(J2-A-Pad1)*%
X160250000Y-115850000D03*
%TO.P,J2,2,B*%
%TO.N,DATA*%
X168750000Y-120150000D03*
%TO.P,J2,3,C*%
%TO.N,BAT-*%
X165750000Y-120150000D03*
%TO.P,J2,4,D*%
%TO.N,VCC*%
X161750000Y-120150000D03*
%TD*%
D13*
%TO.P,BT1,1,+*%
%TO.N,BAT+*%
X139000000Y-50500000D03*
D14*
%TO.P,BT1,2,-*%
%TO.N,BAT-*%
X139000000Y-48500000D03*
%TD*%
D15*
%TO.P,rJ3,1,Pin_1*%
%TO.N,rVCC*%
X276150000Y-127340000D03*
D16*
%TO.P,rJ3,2,Pin_2*%
%TO.N,rBAT-*%
X276150000Y-129880000D03*
%TO.P,rJ3,3,Pin_3*%
%TO.N,SCLK*%
X276150000Y-132420000D03*
%TO.P,rJ3,4,Pin_4*%
%TO.N,SDIO*%
X276150000Y-134960000D03*
%TO.P,rJ3,5,Pin_5*%
%TO.N,NCS*%
X276150000Y-137500000D03*
%TO.P,rJ3,6,Pin_6*%
%TO.N,unconnected-(rJ3-Pin_6-Pad6)*%
X276150000Y-140040000D03*
%TD*%
D10*
%TO.P,rPowerSW1,1,B*%
%TO.N,Net-(rPowerSW1-B)*%
X232050000Y-48500000D03*
D11*
%TO.P,rPowerSW1,2,C*%
%TO.N,rBAT-*%
X229510000Y-48500000D03*
%TO.P,rPowerSW1,3,A*%
%TO.N,rBAT+*%
X234590000Y-48500000D03*
%TD*%
D17*
%TO.P,rU1,1,TX0/P0.06*%
%TO.N,rKEYEX1*%
X313970000Y-46380000D03*
%TO.P,rU1,2,RX1/P0.08*%
%TO.N,rDATA*%
X311430000Y-46380000D03*
%TO.P,rU1,3,GND*%
%TO.N,rBAT-*%
X308890000Y-46380000D03*
%TO.P,rU1,4,GND*%
X306350000Y-46380000D03*
%TO.P,rU1,5,P0.17*%
%TO.N,rREB*%
X303810000Y-46380000D03*
%TO.P,rU1,6,P0.20*%
%TO.N,rRE0A*%
X301270000Y-46380000D03*
%TO.P,rU1,7,P0.22*%
%TO.N,rCOL0*%
X298730000Y-46380000D03*
%TO.P,rU1,8,P0.24*%
%TO.N,rCOL1*%
X296190000Y-46380000D03*
%TO.P,rU1,9,P1.00*%
%TO.N,rCOL2*%
X293650000Y-46380000D03*
%TO.P,rU1,10,P0.11*%
%TO.N,rCOL3*%
X291110000Y-46380000D03*
%TO.P,rU1,11,P1.04*%
%TO.N,rCOL4*%
X288570000Y-46380000D03*
%TO.P,rU1,12,P1.06*%
%TO.N,rCOL5*%
X286030000Y-46380000D03*
%TO.P,rU1,13,NFC1/P0.09*%
%TO.N,NCS*%
X286030000Y-61620000D03*
%TO.P,rU1,14,NFC2/P0.10*%
%TO.N,unconnected-(rU1-NFC2{slash}P0.10-Pad14)*%
X288570000Y-61620000D03*
%TO.P,rU1,15,P1.11*%
%TO.N,SDIO*%
X291110000Y-61620000D03*
%TO.P,rU1,16,P1.13*%
%TO.N,SCLK*%
X293650000Y-61620000D03*
%TO.P,rU1,17,P1.15*%
%TO.N,rROW3*%
X296190000Y-61620000D03*
%TO.P,rU1,18,AIN0/P0.02*%
%TO.N,rROW2*%
X298730000Y-61620000D03*
%TO.P,rU1,19,AIN5/P0.29*%
%TO.N,rROW1*%
X301270000Y-61620000D03*
%TO.P,rU1,20,AIN7/P0.31*%
%TO.N,rROW0*%
X303810000Y-61620000D03*
%TO.P,rU1,21,VCC*%
%TO.N,rVCC*%
X306350000Y-61620000D03*
%TO.P,rU1,22,RST*%
%TO.N,unconnected-(rU1-RST-Pad22)*%
X308890000Y-61620000D03*
%TO.P,rU1,23,GND*%
%TO.N,rBAT-*%
X311430000Y-61620000D03*
%TO.P,rU1,24,BATIN/P0.04*%
%TO.N,Net-(rPowerSW1-B)*%
X313970000Y-61620000D03*
%TO.P,rU1,31,P1.01*%
%TO.N,unconnected-(rU1-P1.01-Pad31)*%
X291110000Y-48920000D03*
%TO.P,rU1,32,P1.02*%
%TO.N,unconnected-(rU1-P1.02-Pad32)*%
X291110000Y-51460000D03*
%TO.P,rU1,33,P1.07*%
%TO.N,unconnected-(rU1-P1.07-Pad33)*%
X291110000Y-54000000D03*
%TD*%
D18*
%TO.P,rEXSW1,*%
%TO.N,*%
X187400000Y-98600000D03*
X198600000Y-98600000D03*
D19*
%TO.P,rEXSW1,A,A*%
%TO.N,rRE0A*%
X190500000Y-106100000D03*
D20*
%TO.P,rEXSW1,B,B*%
%TO.N,rREB*%
X195500000Y-106100000D03*
%TO.P,rEXSW1,C,C*%
%TO.N,rBAT-*%
X193000000Y-106100000D03*
%TO.P,rEXSW1,S1,S1*%
X195500000Y-91600000D03*
%TO.P,rEXSW1,S2,S2*%
%TO.N,rKEYEX1*%
X190500000Y-91600000D03*
%TD*%
D17*
%TO.P,U1,1,TX0/P0.06*%
%TO.N,KEYEX1*%
X41030000Y-61620000D03*
%TO.P,U1,2,RX1/P0.08*%
%TO.N,DATA*%
X43570000Y-61620000D03*
%TO.P,U1,3,GND*%
%TO.N,BAT-*%
X46110000Y-61620000D03*
%TO.P,U1,4,GND*%
X48650000Y-61620000D03*
%TO.P,U1,5,P0.17*%
%TO.N,REB*%
X51190000Y-61620000D03*
%TO.P,U1,6,P0.20*%
%TO.N,RE0A*%
X53730000Y-61620000D03*
%TO.P,U1,7,P0.22*%
%TO.N,COL0*%
X56270000Y-61620000D03*
%TO.P,U1,8,P0.24*%
%TO.N,COL1*%
X58810000Y-61620000D03*
%TO.P,U1,9,P1.00*%
%TO.N,COL2*%
X61350000Y-61620000D03*
%TO.P,U1,10,P0.11*%
%TO.N,COL3*%
X63890000Y-61620000D03*
%TO.P,U1,11,P1.04*%
%TO.N,COL4*%
X66430000Y-61620000D03*
%TO.P,U1,12,P1.06*%
%TO.N,COL5*%
X68970000Y-61620000D03*
%TO.P,U1,13,NFC1/P0.09*%
%TO.N,unconnected-(U1-NFC1{slash}P0.09-Pad13)*%
X68970000Y-46380000D03*
%TO.P,U1,14,NFC2/P0.10*%
%TO.N,unconnected-(U1-NFC2{slash}P0.10-Pad14)*%
X66430000Y-46380000D03*
%TO.P,U1,15,P1.11*%
%TO.N,unconnected-(U1-P1.11-Pad15)*%
X63890000Y-46380000D03*
%TO.P,U1,16,P1.13*%
%TO.N,unconnected-(U1-P1.13-Pad16)*%
X61350000Y-46380000D03*
%TO.P,U1,17,P1.15*%
%TO.N,ROW3*%
X58810000Y-46380000D03*
%TO.P,U1,18,AIN0/P0.02*%
%TO.N,ROW2*%
X56270000Y-46380000D03*
%TO.P,U1,19,AIN5/P0.29*%
%TO.N,ROW1*%
X53730000Y-46380000D03*
%TO.P,U1,20,AIN7/P0.31*%
%TO.N,ROW0*%
X51190000Y-46380000D03*
%TO.P,U1,21,VCC*%
%TO.N,VCC*%
X48650000Y-46380000D03*
%TO.P,U1,22,RST*%
%TO.N,unconnected-(U1-RST-Pad22)*%
X46110000Y-46380000D03*
%TO.P,U1,23,GND*%
%TO.N,BAT-*%
X43570000Y-46380000D03*
%TO.P,U1,24,BATIN/P0.04*%
%TO.N,Net-(PowerSW1-B)*%
X41030000Y-46380000D03*
%TO.P,U1,31,P1.01*%
%TO.N,unconnected-(U1-P1.01-Pad31)*%
X63890000Y-59080000D03*
%TO.P,U1,32,P1.02*%
%TO.N,unconnected-(U1-P1.02-Pad32)*%
X63890000Y-56540000D03*
%TO.P,U1,33,P1.07*%
%TO.N,unconnected-(U1-P1.07-Pad33)*%
X63890000Y-54000000D03*
%TD*%
D18*
%TO.P,EXSW1,*%
%TO.N,*%
X155400000Y-98600000D03*
X166600000Y-98600000D03*
D19*
%TO.P,EXSW1,A,A*%
%TO.N,RE0A*%
X158500000Y-106100000D03*
D20*
%TO.P,EXSW1,B,B*%
%TO.N,REB*%
X163500000Y-106100000D03*
%TO.P,EXSW1,C,C*%
%TO.N,BAT-*%
X161000000Y-106100000D03*
%TO.P,EXSW1,S1,S1*%
X163500000Y-91600000D03*
%TO.P,EXSW1,S2,S2*%
%TO.N,KEYEX1*%
X158500000Y-91600000D03*
%TD*%
D21*
%TO.P,rBT1,1,+*%
%TO.N,rBAT+*%
X216000000Y-48500000D03*
D14*
%TO.P,rBT1,2,-*%
%TO.N,rBAT-*%
X216000000Y-50500000D03*
%TD*%
D12*
%TO.P,rJ2,1,A*%
%TO.N,unconnected-(rJ2-A-Pad1)*%
X195250000Y-120200000D03*
%TO.P,rJ2,2,B*%
%TO.N,rDATA*%
X186750000Y-115900000D03*
%TO.P,rJ2,3,C*%
%TO.N,rBAT-*%
X189750000Y-115900000D03*
%TO.P,rJ2,4,D*%
%TO.N,rVCC*%
X193750000Y-115900000D03*
%TD*%
D22*
%TO.N,rROW0*%
X302000000Y-82000000D03*
%TO.N,rROW1*%
X290000000Y-99000000D03*
%TO.N,rROW2*%
X280000000Y-116000000D03*
%TO.N,rROW3*%
X282000000Y-138000000D03*
%TO.N,rBAT-*%
X281000000Y-130000000D03*
%TO.N,rCOL0*%
X219000000Y-110000000D03*
X222000000Y-93000000D03*
X222000000Y-76000000D03*
X222000000Y-95000000D03*
X219000000Y-112000000D03*
X222000000Y-74000000D03*
%TO.N,rCOL1*%
X237000000Y-110000000D03*
X242000000Y-71000000D03*
X242000000Y-68000000D03*
X237000000Y-112000000D03*
X242000000Y-87000000D03*
X242000000Y-90000000D03*
%TO.N,rCOL2*%
X261000000Y-68000000D03*
X261000000Y-66000000D03*
X261000000Y-83000000D03*
X261000000Y-100000000D03*
X261000000Y-102000000D03*
X261000000Y-81000000D03*
%TO.N,rCOL3*%
X279000000Y-73000000D03*
X278000000Y-92000000D03*
X279000000Y-71000000D03*
X280000000Y-90000000D03*
%TO.N,rCOL4*%
X299000000Y-99000000D03*
X298000000Y-84000000D03*
X298000000Y-64797548D03*
X298000000Y-82000000D03*
X299000000Y-101000000D03*
X298000000Y-66000000D03*
%TO.N,BAT-*%
X125000000Y-44000000D03*
X127000000Y-46000000D03*
X148000000Y-57000000D03*
%TO.N,ROW0*%
X71000000Y-81000000D03*
%TO.N,ROW1*%
X72000000Y-100000000D03*
%TO.N,ROW2*%
X73000000Y-119000000D03*
%TO.N,ROW3*%
X86000000Y-124000000D03*
%TO.N,COL4*%
X56000000Y-103000000D03*
X56000000Y-120000000D03*
X56000000Y-122500000D03*
X56000000Y-82000000D03*
X56000000Y-70500000D03*
X56000000Y-68500000D03*
X56000000Y-84000000D03*
X56000000Y-100500000D03*
%TO.N,COL3*%
X75000000Y-73000000D03*
X75000000Y-94500000D03*
X75000000Y-111500000D03*
X75000000Y-92500000D03*
X75000000Y-113500000D03*
X75000000Y-75500000D03*
%TO.N,COL2*%
X94000000Y-81000000D03*
X68500000Y-57500000D03*
X94000000Y-100000000D03*
X94000000Y-102000000D03*
X94000000Y-62000000D03*
X94000000Y-83000000D03*
X62000000Y-60000000D03*
X94000000Y-64000000D03*
%TO.N,COL1*%
X113000000Y-90000000D03*
X113000000Y-68000000D03*
X113000000Y-106000000D03*
X113000000Y-87000000D03*
X113000000Y-108500000D03*
X113000000Y-70500000D03*
%TO.N,COL0*%
X132000000Y-93000000D03*
X132000000Y-112000000D03*
X67000000Y-57000000D03*
X132000000Y-72000000D03*
X132000000Y-74000000D03*
X61500000Y-57500000D03*
X132000000Y-91000000D03*
X132000000Y-110000000D03*
%TO.N,REB*%
X66000000Y-54000000D03*
X58750735Y-55750735D03*
%TO.N,KEYEX1*%
X148200000Y-59785786D03*
X150000000Y-91000000D03*
%TO.N,rRE0A*%
X192000000Y-101000000D03*
X194000000Y-101000000D03*
%TO.N,rVCC*%
X276000000Y-111000000D03*
X272000000Y-108000000D03*
X281000000Y-111000000D03*
%TO.N,rDATA*%
X203000000Y-100000000D03*
X228000000Y-58000000D03*
%TD*%
D23*
%TO.N,SCLK*%
X278000000Y-130570000D02*
X276150000Y-132420000D01*
X282400000Y-65600000D02*
X282400000Y-101600000D01*
X293650000Y-61620000D02*
X291270000Y-64000000D01*
X284000000Y-64000000D02*
X282400000Y-65600000D01*
X278000000Y-106000000D02*
X278000000Y-130570000D01*
X282400000Y-101600000D02*
X278000000Y-106000000D01*
X291270000Y-64000000D02*
X284000000Y-64000000D01*
%TO.N,SDIO*%
X284000000Y-63000000D02*
X282000000Y-65000000D01*
X282000000Y-65000000D02*
X282000000Y-99000000D01*
X275000000Y-106000000D02*
X275000000Y-135000000D01*
X289730000Y-63000000D02*
X284000000Y-63000000D01*
X291110000Y-61620000D02*
X289730000Y-63000000D01*
X275000000Y-135000000D02*
X276110000Y-135000000D01*
X282000000Y-99000000D02*
X275000000Y-106000000D01*
X276110000Y-135000000D02*
X276150000Y-134960000D01*
%TO.N,rROW0*%
X305102452Y-69087372D02*
X300000000Y-74189824D01*
X303810000Y-61620000D02*
X305102452Y-62912452D01*
X300000000Y-80000000D02*
X302000000Y-82000000D01*
X305102452Y-62912452D02*
X305102452Y-69087372D01*
X300000000Y-74189824D02*
X300000000Y-80000000D01*
%TO.N,rROW1*%
X294168478Y-99000000D02*
X290000000Y-99000000D01*
X299600000Y-63290000D02*
X299600000Y-93568478D01*
X301270000Y-61620000D02*
X299600000Y-63290000D01*
X299600000Y-93568478D02*
X294168478Y-99000000D01*
%TO.N,rROW2*%
X284000000Y-66000000D02*
X284000000Y-102000000D01*
X298730000Y-61620000D02*
X294350000Y-66000000D01*
X280000000Y-106000000D02*
X280000000Y-116000000D01*
X284000000Y-102000000D02*
X280000000Y-106000000D01*
X294350000Y-66000000D02*
X284000000Y-66000000D01*
%TO.N,rROW3*%
X296190000Y-61620000D02*
X292810000Y-65000000D01*
X279000000Y-135000000D02*
X282000000Y-138000000D01*
X292810000Y-65000000D02*
X284000000Y-65000000D01*
X283000000Y-102000000D02*
X279000000Y-106000000D01*
X284000000Y-65000000D02*
X283000000Y-66000000D01*
X279000000Y-106000000D02*
X279000000Y-135000000D01*
X283000000Y-66000000D02*
X283000000Y-102000000D01*
%TO.N,rBAT-*%
X311430000Y-61620000D02*
X315810000Y-66000000D01*
X231500000Y-51000000D02*
X233645635Y-51000000D01*
X208000000Y-54000000D02*
X211500000Y-50500000D01*
X237057843Y-47587792D02*
X237057843Y-44057843D01*
X237057843Y-44057843D02*
X304027843Y-44057843D01*
X319000000Y-66000000D02*
X319000000Y-117000000D01*
X288000000Y-123000000D02*
X281000000Y-130000000D01*
X306350000Y-46380000D02*
X308890000Y-46380000D01*
X319000000Y-117000000D02*
X313000000Y-123000000D01*
X315810000Y-66000000D02*
X319000000Y-66000000D01*
X308890000Y-46380000D02*
X311430000Y-48920000D01*
X195500000Y-91600000D02*
X206400000Y-91600000D01*
X231500000Y-50490000D02*
X231500000Y-51000000D01*
X206400000Y-91600000D02*
X208000000Y-90000000D01*
X211500000Y-50500000D02*
X216000000Y-50500000D01*
X313000000Y-123000000D02*
X288000000Y-123000000D01*
X193000000Y-112650000D02*
X189750000Y-115900000D01*
X193000000Y-106100000D02*
X193000000Y-112650000D01*
X195500000Y-91600000D02*
X193000000Y-94100000D01*
X304027843Y-44057843D02*
X306350000Y-46380000D01*
X227510000Y-50500000D02*
X229510000Y-48500000D01*
X216000000Y-50500000D02*
X227510000Y-50500000D01*
X193000000Y-94100000D02*
X193000000Y-106100000D01*
X233645635Y-51000000D02*
X237057843Y-47587792D01*
X311430000Y-48920000D02*
X311430000Y-61620000D01*
X208000000Y-90000000D02*
X208000000Y-54000000D01*
X229510000Y-48500000D02*
X231500000Y-50490000D01*
%TO.N,rCOL0*%
X222000000Y-93000000D02*
X222000000Y-95000000D01*
X219000000Y-110000000D02*
X219000000Y-112000000D01*
X222000000Y-74000000D02*
X222000000Y-76000000D01*
%TO.N,rCOL1*%
X242000000Y-87000000D02*
X242000000Y-90000000D01*
X242000000Y-68000000D02*
X242000000Y-71000000D01*
X237000000Y-110000000D02*
X237000000Y-112000000D01*
%TO.N,rCOL2*%
X261000000Y-66000000D02*
X261000000Y-68000000D01*
X261000000Y-81000000D02*
X261000000Y-83000000D01*
X261000000Y-100000000D02*
X261000000Y-102000000D01*
%TO.N,rCOL3*%
X279000000Y-71000000D02*
X279000000Y-73000000D01*
X280000000Y-90000000D02*
X278000000Y-92000000D01*
%TO.N,rCOL4*%
X299000000Y-99000000D02*
X299000000Y-101000000D01*
X298000000Y-64797548D02*
X298000000Y-66000000D01*
X298000000Y-82000000D02*
X298000000Y-84000000D01*
%TO.N,Net-(rPowerSW1-B)*%
X317000000Y-58590000D02*
X317000000Y-43100000D01*
X237450000Y-43100000D02*
X232050000Y-48500000D01*
X317000000Y-43100000D02*
X237450000Y-43100000D01*
X313970000Y-61620000D02*
X317000000Y-58590000D01*
%TO.N,BAT-*%
X163500000Y-91600000D02*
X161000000Y-94100000D01*
X147600000Y-89448529D02*
X151201471Y-93050000D01*
X147600000Y-57400000D02*
X147600000Y-89448529D01*
X162050000Y-93050000D02*
X163500000Y-91600000D01*
X151201471Y-93050000D02*
X162050000Y-93050000D01*
X127540000Y-48500000D02*
X127540000Y-46540000D01*
X148000000Y-57000000D02*
X147600000Y-57400000D01*
X43570000Y-59080000D02*
X46110000Y-61620000D01*
X161000000Y-106100000D02*
X161000000Y-107000000D01*
X43570000Y-46380000D02*
X43570000Y-59080000D01*
X45950000Y-44000000D02*
X43570000Y-46380000D01*
X161000000Y-94100000D02*
X161000000Y-106100000D01*
X127540000Y-46540000D02*
X127000000Y-46000000D01*
X161000000Y-107000000D02*
X165750000Y-111750000D01*
X46110000Y-61620000D02*
X48650000Y-61620000D01*
X165750000Y-111750000D02*
X165750000Y-120150000D01*
X125000000Y-44000000D02*
X45950000Y-44000000D01*
%TO.N,ROW0*%
X51190000Y-46380000D02*
X57210000Y-52400000D01*
X71000000Y-53000000D02*
X71000000Y-81000000D01*
X57210000Y-52400000D02*
X70400000Y-52400000D01*
X70400000Y-52400000D02*
X71000000Y-53000000D01*
%TO.N,ROW1*%
X53730000Y-46380000D02*
X59350000Y-52000000D01*
X72000000Y-52000000D02*
X72000000Y-100000000D01*
X59350000Y-52000000D02*
X72000000Y-52000000D01*
%TO.N,ROW2*%
X72600000Y-118600000D02*
X73000000Y-119000000D01*
X60890000Y-51000000D02*
X72600000Y-51000000D01*
X56270000Y-46380000D02*
X60890000Y-51000000D01*
X72600000Y-51000000D02*
X72600000Y-118600000D01*
%TO.N,ROW3*%
X81031522Y-124000000D02*
X86000000Y-124000000D01*
X58810000Y-46380000D02*
X62430000Y-50000000D01*
X73000000Y-50000000D02*
X73000000Y-115968478D01*
X62430000Y-50000000D02*
X73000000Y-50000000D01*
X73000000Y-115968478D02*
X81031522Y-124000000D01*
%TO.N,COL4*%
X56000000Y-100500000D02*
X56000000Y-103000000D01*
X56000000Y-82000000D02*
X56000000Y-84000000D01*
X56000000Y-120000000D02*
X56000000Y-122500000D01*
X56000000Y-68500000D02*
X56000000Y-70500000D01*
%TO.N,COL3*%
X75000000Y-111500000D02*
X75000000Y-113500000D01*
X75000000Y-73000000D02*
X75000000Y-75500000D01*
X75000000Y-92500000D02*
X75000000Y-94500000D01*
%TO.N,COL2*%
X62000000Y-60000000D02*
X63000000Y-60000000D01*
X94000000Y-62000000D02*
X94000000Y-64000000D01*
X94000000Y-100000000D02*
X94000000Y-102000000D01*
X65743700Y-60256300D02*
X68500000Y-57500000D01*
X63000000Y-60000000D02*
X63256300Y-60256300D01*
X94000000Y-81000000D02*
X94000000Y-83000000D01*
X63256300Y-60256300D02*
X65743700Y-60256300D01*
%TO.N,COL1*%
X113000000Y-68000000D02*
X113000000Y-70500000D01*
X113000000Y-87000000D02*
X113000000Y-90000000D01*
X113000000Y-106000000D02*
X113000000Y-108500000D01*
%TO.N,COL0*%
X132000000Y-72000000D02*
X132000000Y-74000000D01*
X61500000Y-57500000D02*
X61716300Y-57716300D01*
X66283700Y-57716300D02*
X67000000Y-57000000D01*
X132000000Y-110000000D02*
X132000000Y-112000000D01*
X61716300Y-57716300D02*
X66283700Y-57716300D01*
X132000000Y-91000000D02*
X132000000Y-93000000D01*
%TO.N,NCS*%
X286030000Y-61620000D02*
X283380000Y-61620000D01*
X281000000Y-64000000D02*
X281000000Y-99000000D01*
X283380000Y-61620000D02*
X281000000Y-64000000D01*
X274000000Y-106000000D02*
X274000000Y-135350000D01*
X274000000Y-135350000D02*
X276150000Y-137500000D01*
X281000000Y-99000000D02*
X274000000Y-106000000D01*
%TO.N,REB*%
X58750735Y-55750735D02*
X59137770Y-55363700D01*
X64636300Y-55363700D02*
X66000000Y-54000000D01*
X59137770Y-55363700D02*
X64636300Y-55363700D01*
%TO.N,KEYEX1*%
X148200000Y-89200000D02*
X150000000Y-91000000D01*
X148200000Y-59785786D02*
X148200000Y-89200000D01*
%TO.N,VCC*%
X147000000Y-105400000D02*
X161750000Y-120150000D01*
X49826300Y-45203700D02*
X138203700Y-45203700D01*
X138203700Y-45203700D02*
X147000000Y-54000000D01*
X147000000Y-54000000D02*
X147000000Y-105400000D01*
X48650000Y-46380000D02*
X49826300Y-45203700D01*
%TO.N,rREB*%
X284000000Y-60000000D02*
X261600000Y-82400000D01*
X290190000Y-60000000D02*
X284000000Y-60000000D01*
X256848529Y-88000000D02*
X250000000Y-88000000D01*
X243000000Y-95000000D02*
X222848529Y-95000000D01*
X303810000Y-46380000D02*
X290190000Y-60000000D01*
X261600000Y-82400000D02*
X261600000Y-83248529D01*
X199600000Y-102000000D02*
X195500000Y-106100000D01*
X261600000Y-83248529D02*
X256848529Y-88000000D01*
X215848529Y-102000000D02*
X199600000Y-102000000D01*
X222848529Y-95000000D02*
X215848529Y-102000000D01*
X250000000Y-88000000D02*
X243000000Y-95000000D01*
%TO.N,rRE0A*%
X221600000Y-92400000D02*
X221000000Y-93000000D01*
X192000000Y-101000000D02*
X190500000Y-102500000D01*
X240600000Y-92400000D02*
X221600000Y-92400000D01*
X284000000Y-59000000D02*
X282151471Y-59000000D01*
X282151471Y-59000000D02*
X253551471Y-87600000D01*
X213000000Y-101000000D02*
X206000000Y-101000000D01*
X301270000Y-47730000D02*
X290000000Y-59000000D01*
X245400000Y-87600000D02*
X240600000Y-92400000D01*
X206000000Y-101000000D02*
X194000000Y-101000000D01*
X190500000Y-102500000D02*
X190500000Y-106100000D01*
X290000000Y-59000000D02*
X284000000Y-59000000D01*
X253551471Y-87600000D02*
X245400000Y-87600000D01*
X221000000Y-93000000D02*
X213000000Y-101000000D01*
X301270000Y-46380000D02*
X301270000Y-47730000D01*
%TO.N,rVCC*%
X220000000Y-113000000D02*
X217100000Y-115900000D01*
X276000000Y-111000000D02*
X276150000Y-111150000D01*
X291000000Y-103000000D02*
X284000000Y-103000000D01*
X306350000Y-61620000D02*
X306350000Y-68650000D01*
X302600000Y-81600000D02*
X302600000Y-83400000D01*
X217100000Y-115900000D02*
X193750000Y-115900000D01*
X270000000Y-113000000D02*
X220000000Y-113000000D01*
X301000000Y-93000000D02*
X291000000Y-103000000D01*
X301000000Y-85000000D02*
X301000000Y-93000000D01*
X306350000Y-68650000D02*
X301000000Y-74000000D01*
X302600000Y-83400000D02*
X301000000Y-85000000D01*
X301000000Y-80000000D02*
X302600000Y-81600000D01*
X281000000Y-106000000D02*
X281000000Y-111000000D01*
X272000000Y-111000000D02*
X270000000Y-113000000D01*
X276150000Y-111150000D02*
X276150000Y-127340000D01*
X272000000Y-108000000D02*
X272000000Y-111000000D01*
X301000000Y-74000000D02*
X301000000Y-80000000D01*
X284000000Y-103000000D02*
X281000000Y-106000000D01*
%TO.N,rDATA*%
X210968478Y-100000000D02*
X203000000Y-100000000D01*
X228000000Y-82968478D02*
X210968478Y-100000000D01*
X228000000Y-58000000D02*
X228000000Y-82968478D01*
%TD*%
M02*
