M48
; DRILL file {KiCad 8.0.3} date 2025-01-04T16:23:11+0900
; FORMAT={-:-/ absolute / metric / decimal}
; #@! TF.CreationDate,2025-01-04T16:23:11+09:00
; #@! TF.GenerationSoftware,Kicad,Pcbnew,8.0.3
; #@! TF.FileFunction,Plated,1,2,PTH
FMAT,2
METRIC
; #@! TA.AperFunction,Plated,PTH,ViaDrill
T1C0.300
; #@! TA.AperFunction,Plated,PTH,ComponentDrill
T2C0.750
; #@! TA.AperFunction,Plated,PTH,ComponentDrill
T3C0.800
; #@! TA.AperFunction,Plated,PTH,ComponentDrill
T4C1.000
; #@! TA.AperFunction,Plated,PTH,ComponentDrill
T5C1.092
%
G90
G05
T1
X56.0Y-68.5
X56.0Y-70.5
X56.0Y-82.0
X56.0Y-84.0
X56.0Y-100.5
X56.0Y-103.0
X56.0Y-120.0
X56.0Y-122.5
X58.751Y-55.751
X61.5Y-57.5
X62.0Y-60.0
X66.0Y-54.0
X67.0Y-57.0
X68.5Y-57.5
X71.0Y-81.0
X72.0Y-100.0
X73.0Y-119.0
X75.0Y-73.0
X75.0Y-75.5
X75.0Y-92.5
X75.0Y-94.5
X75.0Y-111.5
X75.0Y-113.5
X86.0Y-124.0
X94.0Y-62.0
X94.0Y-64.0
X94.0Y-81.0
X94.0Y-83.0
X94.0Y-100.0
X94.0Y-102.0
X113.0Y-68.0
X113.0Y-70.5
X113.0Y-87.0
X113.0Y-90.0
X113.0Y-106.0
X113.0Y-108.5
X125.0Y-44.0
X127.0Y-46.0
X132.0Y-72.0
X132.0Y-74.0
X132.0Y-91.0
X132.0Y-93.0
X132.0Y-110.0
X132.0Y-112.0
X148.0Y-57.0
X148.2Y-59.786
X150.0Y-91.0
X192.0Y-101.0
X194.0Y-101.0
X203.0Y-100.0
X219.0Y-110.0
X219.0Y-112.0
X222.0Y-74.0
X222.0Y-76.0
X222.0Y-93.0
X222.0Y-95.0
X228.0Y-58.0
X237.0Y-110.0
X237.0Y-112.0
X242.0Y-68.0
X242.0Y-71.0
X242.0Y-87.0
X242.0Y-90.0
X261.0Y-66.0
X261.0Y-68.0
X261.0Y-81.0
X261.0Y-83.0
X261.0Y-100.0
X261.0Y-102.0
X272.0Y-108.0
X276.0Y-111.0
X278.0Y-92.0
X279.0Y-71.0
X279.0Y-73.0
X280.0Y-90.0
X280.0Y-116.0
X281.0Y-111.0
X281.0Y-130.0
X282.0Y-138.0
X290.0Y-99.0
X298.0Y-64.798
X298.0Y-66.0
X298.0Y-82.0
X298.0Y-84.0
X299.0Y-99.0
X299.0Y-101.0
X302.0Y-82.0
T2
X139.0Y-48.5
X139.0Y-50.5
X216.0Y-48.5
X216.0Y-50.5
T3
X122.46Y-48.5
X125.0Y-48.5
X127.54Y-48.5
X229.51Y-48.5
X232.05Y-48.5
X234.59Y-48.5
T4
X158.5Y-91.6
X158.5Y-106.1
X161.0Y-106.1
X163.5Y-91.6
X163.5Y-106.1
X190.5Y-91.6
X190.5Y-106.1
X193.0Y-106.1
X195.5Y-91.6
X195.5Y-106.1
X276.15Y-127.34
X276.15Y-129.88
X276.15Y-132.42
X276.15Y-134.96
X276.15Y-137.5
X276.15Y-140.04
T5
X41.03Y-46.38
X41.03Y-61.62
X43.57Y-46.38
X43.57Y-61.62
X46.11Y-46.38
X46.11Y-61.62
X48.65Y-46.38
X48.65Y-61.62
X51.19Y-46.38
X51.19Y-61.62
X53.73Y-46.38
X53.73Y-61.62
X56.27Y-46.38
X56.27Y-61.62
X58.81Y-46.38
X58.81Y-61.62
X61.35Y-46.38
X61.35Y-61.62
X63.89Y-46.38
X63.89Y-54.0
X63.89Y-56.54
X63.89Y-59.08
X63.89Y-61.62
X66.43Y-46.38
X66.43Y-61.62
X68.97Y-46.38
X68.97Y-61.62
X286.03Y-46.38
X286.03Y-61.62
X288.57Y-46.38
X288.57Y-61.62
X291.11Y-46.38
X291.11Y-48.92
X291.11Y-51.46
X291.11Y-54.0
X291.11Y-61.62
X293.65Y-46.38
X293.65Y-61.62
X296.19Y-46.38
X296.19Y-61.62
X298.73Y-46.38
X298.73Y-61.62
X301.27Y-46.38
X301.27Y-61.62
X303.81Y-46.38
X303.81Y-61.62
X306.35Y-46.38
X306.35Y-61.62
X308.89Y-46.38
X308.89Y-61.62
X311.43Y-46.38
X311.43Y-61.62
X313.97Y-46.38
X313.97Y-61.62
T4
G00X160.5Y-115.85
M15
G01X160.0Y-115.85
M16
G05
G00X162.0Y-120.15
M15
G01X161.5Y-120.15
M16
G05
G00X166.0Y-120.15
M15
G01X165.5Y-120.15
M16
G05
G00X169.0Y-120.15
M15
G01X168.5Y-120.15
M16
G05
G00X186.5Y-115.9
M15
G01X187.0Y-115.9
M16
G05
G00X189.5Y-115.9
M15
G01X190.0Y-115.9
M16
G05
G00X193.5Y-115.9
M15
G01X194.0Y-115.9
M16
G05
G00X195.0Y-120.2
M15
G01X195.5Y-120.2
M16
G05
M30
