%TF.GenerationSoftware,KiCad,Pcbnew,8.0.3*%
%TF.CreationDate,2025-01-04T16:23:02+09:00*%
%TF.ProjectId,manjaro_mx,6d616e6a-6172-46f5-9f6d-782e6b696361,rev?*%
%TF.SameCoordinates,Original*%
%TF.FileFunction,Profile,NP*%
%FSLAX46Y46*%
G04 Gerber Fmt 4.6, Leading zero omitted, Abs format (unit mm)*
G04 Created by KiCad (PCBNEW 8.0.3) date 2025-01-04 16:23:02*
%MOMM*%
%LPD*%
G01*
G04 APERTURE LIST*
%TA.AperFunction,Profile*%
%ADD10C,0.050000*%
%TD*%
G04 APERTURE END LIST*
D10*
X145000000Y-35500000D02*
X145000000Y-42500000D01*
X214000000Y-42500000D02*
X321000000Y-42500000D01*
X321000000Y-32500000D02*
X321000000Y-35500000D01*
X55000000Y-67500000D02*
G75*
G02*
X51000000Y-67500000I-2000000J0D01*
G01*
X51000000Y-67500000D02*
G75*
G02*
X55000000Y-67500000I2000000J0D01*
G01*
X214000000Y-35500000D02*
X214000000Y-42500000D01*
X34500000Y-124500000D02*
X53500000Y-124500000D01*
X273000000Y-147340000D02*
X282500000Y-147340000D01*
X175000000Y-88500000D02*
X149000000Y-88500000D01*
X203000000Y-126000000D02*
G75*
G02*
X199000000Y-126000000I-2000000J0D01*
G01*
X199000000Y-126000000D02*
G75*
G02*
X203000000Y-126000000I2000000J0D01*
G01*
X225500000Y-138000000D02*
X189000000Y-151000000D01*
X189000000Y-151000000D02*
X180500000Y-131000000D01*
X321000000Y-35500000D02*
X214000000Y-35500000D01*
X282500000Y-141500000D02*
X302000000Y-141500000D01*
X304500000Y-68000000D02*
G75*
G02*
X300500000Y-68000000I-2000000J0D01*
G01*
X300500000Y-68000000D02*
G75*
G02*
X304500000Y-68000000I2000000J0D01*
G01*
X266000000Y-51000000D02*
G75*
G02*
X262000000Y-51000000I-2000000J0D01*
G01*
X262000000Y-51000000D02*
G75*
G02*
X266000000Y-51000000I2000000J0D01*
G01*
X210000000Y-42500000D02*
X210000000Y-35500000D01*
X141000000Y-42500000D02*
X34500000Y-42500000D01*
X302000000Y-124500000D02*
X302000000Y-141500000D01*
X227000000Y-60000000D02*
G75*
G02*
X223000000Y-60000000I-2000000J0D01*
G01*
X223000000Y-60000000D02*
G75*
G02*
X227000000Y-60000000I2000000J0D01*
G01*
X145000000Y-35500000D02*
X210000000Y-35500000D01*
X34500000Y-32500000D02*
X34500000Y-35500000D01*
X227000000Y-98000000D02*
G75*
G02*
X223000000Y-98000000I-2000000J0D01*
G01*
X223000000Y-98000000D02*
G75*
G02*
X227000000Y-98000000I2000000J0D01*
G01*
X141000000Y-35500000D02*
X141000000Y-42500000D01*
X129500000Y-128000000D02*
X129500000Y-138000000D01*
X282500000Y-147340000D02*
X282500000Y-141500000D01*
X94000000Y-107000000D02*
G75*
G02*
X90000000Y-107000000I-2000000J0D01*
G01*
X90000000Y-107000000D02*
G75*
G02*
X94000000Y-107000000I2000000J0D01*
G01*
X265000000Y-106000000D02*
G75*
G02*
X261000000Y-106000000I-2000000J0D01*
G01*
X261000000Y-106000000D02*
G75*
G02*
X265000000Y-106000000I2000000J0D01*
G01*
X72500000Y-128000000D02*
X129500000Y-128000000D01*
X149000000Y-88500000D02*
X149000000Y-42500000D01*
X131000000Y-96000000D02*
G75*
G02*
X127000000Y-96000000I-2000000J0D01*
G01*
X127000000Y-96000000D02*
G75*
G02*
X131000000Y-96000000I2000000J0D01*
G01*
X303000000Y-104000000D02*
G75*
G02*
X299000000Y-104000000I-2000000J0D01*
G01*
X299000000Y-104000000D02*
G75*
G02*
X303000000Y-104000000I2000000J0D01*
G01*
X34500000Y-35500000D02*
X141000000Y-35500000D01*
X75000000Y-124000000D02*
G75*
G02*
X71000000Y-124000000I-2000000J0D01*
G01*
X71000000Y-124000000D02*
G75*
G02*
X75000000Y-124000000I2000000J0D01*
G01*
X206500000Y-88500000D02*
X206500000Y-42500000D01*
X131500000Y-59000000D02*
G75*
G02*
X127500000Y-59000000I-2000000J0D01*
G01*
X127500000Y-59000000D02*
G75*
G02*
X131500000Y-59000000I2000000J0D01*
G01*
X180500000Y-88500000D02*
X180500000Y-131000000D01*
X284500000Y-123000000D02*
G75*
G02*
X280500000Y-123000000I-2000000J0D01*
G01*
X280500000Y-123000000D02*
G75*
G02*
X284500000Y-123000000I2000000J0D01*
G01*
X175000000Y-88500000D02*
X175000000Y-131000000D01*
X166500000Y-150500000D02*
X175000000Y-131000000D01*
X92000000Y-50000000D02*
G75*
G02*
X88000000Y-50000000I-2000000J0D01*
G01*
X88000000Y-50000000D02*
G75*
G02*
X92000000Y-50000000I2000000J0D01*
G01*
X55000000Y-105000000D02*
G75*
G02*
X51000000Y-105000000I-2000000J0D01*
G01*
X51000000Y-105000000D02*
G75*
G02*
X55000000Y-105000000I2000000J0D01*
G01*
X225500000Y-114500000D02*
X225500000Y-138000000D01*
X180500000Y-88500000D02*
X206500000Y-88500000D01*
X321000000Y-32500000D02*
X34500000Y-32500000D01*
X34500000Y-42500000D02*
X34500000Y-124500000D01*
X129500000Y-138000000D02*
X166500000Y-150500000D01*
X321000000Y-124500000D02*
X302000000Y-124500000D01*
X53500000Y-141500000D02*
X72500000Y-141500000D01*
X273000000Y-114500000D02*
X273000000Y-147340000D01*
X145000000Y-42500000D02*
X149000000Y-42500000D01*
X156000000Y-126000000D02*
G75*
G02*
X152000000Y-126000000I-2000000J0D01*
G01*
X152000000Y-126000000D02*
G75*
G02*
X156000000Y-126000000I2000000J0D01*
G01*
X273000000Y-114500000D02*
X225500000Y-114500000D01*
X72500000Y-141500000D02*
X72500000Y-128000000D01*
X210000000Y-42500000D02*
X206500000Y-42500000D01*
X53500000Y-124500000D02*
X53500000Y-141500000D01*
X321000000Y-42500000D02*
X321000000Y-124500000D01*
M02*
