%TF.GenerationSoftware,KiCad,Pcbnew,8.0.3*%
%TF.CreationDate,2025-01-04T16:23:02+09:00*%
%TF.ProjectId,manjaro_mx,6d616e6a-6172-46f5-9f6d-782e6b696361,rev?*%
%TF.SameCoordinates,Original*%
%TF.FileFunction,Paste,Bot*%
%TF.FilePolarity,Positive*%
%FSLAX46Y46*%
G04 Gerber Fmt 4.6, Leading zero omitted, Abs format (unit mm)*
G04 Created by KiCad (PCBNEW 8.0.3) date 2025-01-04 16:23:02*
%MOMM*%
%LPD*%
G01*
G04 APERTURE LIST*
G04 Aperture macros list*
%AMRotRect*
0 Rectangle, with rotation*
0 The origin of the aperture is its center*
0 $1 length*
0 $2 width*
0 $3 Rotation angle, in degrees counterclockwise*
0 Add horizontal line*
21,1,$1,$2,0,0,$3*%
G04 Aperture macros list end*
%ADD10R,0.450000X0.600000*%
%ADD11R,2.550000X2.500000*%
%ADD12RotRect,0.600000X0.450000X75.000000*%
%ADD13RotRect,2.550000X2.500000X24.000000*%
%ADD14RotRect,2.550000X2.500000X15.000000*%
%ADD15RotRect,0.600000X0.450000X66.000000*%
%ADD16RotRect,0.600000X0.450000X105.000000*%
%ADD17RotRect,0.600000X0.450000X114.000000*%
%ADD18RotRect,2.550000X2.500000X345.000000*%
%ADD19RotRect,2.550000X2.500000X336.000000*%
G04 APERTURE END LIST*
D10*
%TO.C,D7*%
X144750000Y-94100000D03*
X144750000Y-92000000D03*
%TD*%
D11*
%TO.C,rSW13*%
X208915000Y-104560000D03*
X221842000Y-102020000D03*
%TD*%
D10*
%TO.C,D9*%
X106650000Y-82100000D03*
X106650000Y-80000000D03*
%TD*%
D11*
%TO.C,rSW2*%
X227965000Y-64460000D03*
X240892000Y-61920000D03*
%TD*%
%TO.C,rSW5*%
X285115000Y-72460000D03*
X298042000Y-69920000D03*
%TD*%
D10*
%TO.C,D16*%
X87600000Y-105150000D03*
X87600000Y-103050000D03*
%TD*%
D11*
%TO.C,rSW14*%
X227965000Y-102560000D03*
X240892000Y-100020000D03*
%TD*%
D10*
%TO.C,rD1*%
X210500000Y-75050000D03*
X210500000Y-72950000D03*
%TD*%
D11*
%TO.C,rSW15*%
X247015000Y-92560000D03*
X259942000Y-90020000D03*
%TD*%
%TO.C,rSW21*%
X285115000Y-129610000D03*
X298042000Y-127070000D03*
%TD*%
D10*
%TO.C,rD3*%
X248600000Y-63050000D03*
X248600000Y-60950000D03*
%TD*%
%TO.C,D23*%
X68550000Y-138000000D03*
X68550000Y-135900000D03*
%TD*%
%TO.C,rD15*%
X248600000Y-101150000D03*
X248600000Y-99050000D03*
%TD*%
%TO.C,rD13*%
X210500000Y-113150000D03*
X210500000Y-111050000D03*
%TD*%
D11*
%TO.C,rSW8*%
X227965000Y-83510000D03*
X240892000Y-80970000D03*
%TD*%
D10*
%TO.C,D15*%
X106650000Y-101150000D03*
X106650000Y-99050000D03*
%TD*%
D11*
%TO.C,SW15*%
X94065000Y-92560000D03*
X106992000Y-90020000D03*
%TD*%
%TO.C,SW10*%
X75015000Y-77510000D03*
X87942000Y-74970000D03*
%TD*%
%TO.C,SW21*%
X94065000Y-111610000D03*
X106992000Y-109070000D03*
%TD*%
D10*
%TO.C,rD16*%
X267650000Y-105150000D03*
X267650000Y-103050000D03*
%TD*%
D11*
%TO.C,SW16*%
X75015000Y-96560000D03*
X87942000Y-94020000D03*
%TD*%
%TO.C,rSW4*%
X266065000Y-58460000D03*
X278992000Y-55920000D03*
%TD*%
D10*
%TO.C,D18*%
X49500000Y-121150000D03*
X49500000Y-119050000D03*
%TD*%
D12*
%TO.C,D20*%
X145228240Y-138514222D03*
X145771760Y-136485778D03*
%TD*%
D11*
%TO.C,SW22*%
X75015000Y-115610000D03*
X87942000Y-113070000D03*
%TD*%
D10*
%TO.C,D1*%
X144750000Y-75050000D03*
X144750000Y-72950000D03*
%TD*%
D11*
%TO.C,rSW18*%
X304165000Y-112560000D03*
X317092000Y-110020000D03*
%TD*%
D10*
%TO.C,rD11*%
X286700000Y-100100000D03*
X286700000Y-98000000D03*
%TD*%
D11*
%TO.C,rSW1*%
X208915000Y-66460000D03*
X221842000Y-63920000D03*
%TD*%
D10*
%TO.C,rD7*%
X210500000Y-94100000D03*
X210500000Y-92000000D03*
%TD*%
D11*
%TO.C,rSW10*%
X266065000Y-77510000D03*
X278992000Y-74970000D03*
%TD*%
D10*
%TO.C,rD8*%
X229550000Y-92100000D03*
X229550000Y-90000000D03*
%TD*%
%TO.C,D21*%
X107050000Y-120050000D03*
X107050000Y-117950000D03*
%TD*%
D11*
%TO.C,SW3*%
X94065000Y-54460000D03*
X106992000Y-51920000D03*
%TD*%
D10*
%TO.C,D22*%
X88050000Y-124050000D03*
X88050000Y-121950000D03*
%TD*%
%TO.C,D14*%
X125700000Y-111150000D03*
X125700000Y-109050000D03*
%TD*%
D11*
%TO.C,SW9*%
X94065000Y-73510000D03*
X106992000Y-70970000D03*
%TD*%
D10*
%TO.C,D13*%
X144750000Y-113150000D03*
X144750000Y-111050000D03*
%TD*%
D13*
%TO.C,rSW19*%
X186494419Y-138661324D03*
X197270710Y-131083034D03*
%TD*%
D11*
%TO.C,SW6*%
X36915000Y-74460000D03*
X49842000Y-71920000D03*
%TD*%
D14*
%TO.C,rSW20*%
X206499015Y-130480281D03*
X218328138Y-124681076D03*
%TD*%
D15*
%TO.C,D19*%
X164072927Y-145459223D03*
X164927073Y-143540777D03*
%TD*%
D10*
%TO.C,rD21*%
X286700000Y-138000000D03*
X286700000Y-135900000D03*
%TD*%
D11*
%TO.C,SW5*%
X55965000Y-72460000D03*
X68892000Y-69920000D03*
%TD*%
D10*
%TO.C,rD4*%
X267650000Y-67050000D03*
X267650000Y-64950000D03*
%TD*%
D11*
%TO.C,SW23*%
X55965000Y-129610000D03*
X68892000Y-127070000D03*
%TD*%
%TO.C,SW18*%
X36915000Y-112560000D03*
X49842000Y-110020000D03*
%TD*%
%TO.C,rSW12*%
X304165000Y-93510000D03*
X317092000Y-90970000D03*
%TD*%
%TO.C,SW12*%
X36915000Y-93510000D03*
X49842000Y-90970000D03*
%TD*%
D10*
%TO.C,D3*%
X106650000Y-63050000D03*
X106650000Y-60950000D03*
%TD*%
%TO.C,rD9*%
X248600000Y-82100000D03*
X248600000Y-80000000D03*
%TD*%
D11*
%TO.C,rSW6*%
X304165000Y-74460000D03*
X317092000Y-71920000D03*
%TD*%
%TO.C,SW8*%
X113115000Y-83510000D03*
X126042000Y-80970000D03*
%TD*%
%TO.C,rSW16*%
X266065000Y-96560000D03*
X278992000Y-94020000D03*
%TD*%
%TO.C,SW7*%
X132165000Y-85510000D03*
X145092000Y-82970000D03*
%TD*%
D10*
%TO.C,D10*%
X87600000Y-86100000D03*
X87600000Y-84000000D03*
%TD*%
D11*
%TO.C,SW11*%
X55965000Y-91510000D03*
X68892000Y-88970000D03*
%TD*%
D10*
%TO.C,rD14*%
X229550000Y-111150000D03*
X229550000Y-109050000D03*
%TD*%
%TO.C,rD5*%
X286700000Y-81050000D03*
X286700000Y-78950000D03*
%TD*%
D16*
%TO.C,rD20*%
X210285982Y-138285982D03*
X209742462Y-136257538D03*
%TD*%
D10*
%TO.C,rD6*%
X305750000Y-83050000D03*
X305750000Y-80950000D03*
%TD*%
D11*
%TO.C,SW14*%
X113115000Y-102560000D03*
X126042000Y-100020000D03*
%TD*%
D10*
%TO.C,D2*%
X125700000Y-73050000D03*
X125700000Y-70950000D03*
%TD*%
D11*
%TO.C,SW13*%
X132165000Y-104560000D03*
X145092000Y-102020000D03*
%TD*%
D10*
%TO.C,D17*%
X68550000Y-119150000D03*
X68550000Y-117050000D03*
%TD*%
%TO.C,D11*%
X68550000Y-100100000D03*
X68550000Y-98000000D03*
%TD*%
%TO.C,rD10*%
X267650000Y-86100000D03*
X267650000Y-84000000D03*
%TD*%
%TO.C,D4*%
X87600000Y-67050000D03*
X87600000Y-64950000D03*
%TD*%
D11*
%TO.C,rSW7*%
X208915000Y-85510000D03*
X221842000Y-82970000D03*
%TD*%
D10*
%TO.C,rD17*%
X286700000Y-119150000D03*
X286700000Y-117050000D03*
%TD*%
D11*
%TO.C,SW17*%
X55965000Y-110560000D03*
X68892000Y-108020000D03*
%TD*%
%TO.C,SW4*%
X75015000Y-58460000D03*
X87942000Y-55920000D03*
%TD*%
D10*
%TO.C,D5*%
X68550000Y-81050000D03*
X68550000Y-78950000D03*
%TD*%
D17*
%TO.C,rD19*%
X191467850Y-145687463D03*
X190613704Y-143769017D03*
%TD*%
D10*
%TO.C,D6*%
X49500000Y-83050000D03*
X49500000Y-80950000D03*
%TD*%
D11*
%TO.C,SW2*%
X113115000Y-64460000D03*
X126042000Y-61920000D03*
%TD*%
%TO.C,rSW3*%
X247015000Y-54460000D03*
X259942000Y-51920000D03*
%TD*%
D18*
%TO.C,SW20*%
X135063816Y-126812815D03*
X148207739Y-127705118D03*
%TD*%
D10*
%TO.C,rD2*%
X229550000Y-73050000D03*
X229550000Y-70950000D03*
%TD*%
D11*
%TO.C,rSW9*%
X247015000Y-73510000D03*
X259942000Y-70970000D03*
%TD*%
%TO.C,rSW17*%
X285115000Y-110560000D03*
X298042000Y-108020000D03*
%TD*%
D10*
%TO.C,rD18*%
X305750000Y-121150000D03*
X305750000Y-119050000D03*
%TD*%
%TO.C,D8*%
X125700000Y-92100000D03*
X125700000Y-90000000D03*
%TD*%
%TO.C,D12*%
X49500000Y-102100000D03*
X49500000Y-100000000D03*
%TD*%
%TO.C,rD12*%
X305750000Y-102100000D03*
X305750000Y-100000000D03*
%TD*%
D19*
%TO.C,SW19*%
X155810642Y-132897865D03*
X168653155Y-135835345D03*
%TD*%
D11*
%TO.C,SW1*%
X132165000Y-66460000D03*
X145092000Y-63920000D03*
%TD*%
%TO.C,rSW11*%
X285115000Y-91510000D03*
X298042000Y-88970000D03*
%TD*%
M02*
