%TF.GenerationSoftware,KiCad,Pcbnew,8.0.3*%
%TF.CreationDate,2025-01-04T16:23:02+09:00*%
%TF.ProjectId,manjaro_mx,6d616e6a-6172-46f5-9f6d-782e6b696361,rev?*%
%TF.SameCoordinates,Original*%
%TF.FileFunction,Copper,L2,Bot*%
%TF.FilePolarity,Positive*%
%FSLAX46Y46*%
G04 Gerber Fmt 4.6, Leading zero omitted, Abs format (unit mm)*
G04 Created by KiCad (PCBNEW 8.0.3) date 2025-01-04 16:23:02*
%MOMM*%
%LPD*%
G01*
G04 APERTURE LIST*
G04 Aperture macros list*
%AMRoundRect*
0 Rectangle with rounded corners*
0 $1 Rounding radius*
0 $2 $3 $4 $5 $6 $7 $8 $9 X,Y pos of 4 corners*
0 Add a 4 corners polygon primitive as box body*
4,1,4,$2,$3,$4,$5,$6,$7,$8,$9,$2,$3,0*
0 Add four circle primitives for the rounded corners*
1,1,$1+$1,$2,$3*
1,1,$1+$1,$4,$5*
1,1,$1+$1,$6,$7*
1,1,$1+$1,$8,$9*
0 Add four rect primitives between the rounded corners*
20,1,$1+$1,$2,$3,$4,$5,0*
20,1,$1+$1,$4,$5,$6,$7,0*
20,1,$1+$1,$6,$7,$8,$9,0*
20,1,$1+$1,$8,$9,$2,$3,0*%
%AMRotRect*
0 Rectangle, with rotation*
0 The origin of the aperture is its center*
0 $1 length*
0 $2 width*
0 $3 Rotation angle, in degrees counterclockwise*
0 Add horizontal line*
21,1,$1,$2,0,0,$3*%
G04 Aperture macros list end*
%TA.AperFunction,ComponentPad*%
%ADD10R,1.500000X1.500000*%
%TD*%
%TA.AperFunction,ComponentPad*%
%ADD11C,1.600000*%
%TD*%
%TA.AperFunction,ComponentPad*%
%ADD12O,2.300000X1.500000*%
%TD*%
%TA.AperFunction,ComponentPad*%
%ADD13RoundRect,0.250000X0.625000X-0.350000X0.625000X0.350000X-0.625000X0.350000X-0.625000X-0.350000X0*%
%TD*%
%TA.AperFunction,ComponentPad*%
%ADD14O,1.750000X1.200000*%
%TD*%
%TA.AperFunction,ComponentPad*%
%ADD15R,1.700000X1.700000*%
%TD*%
%TA.AperFunction,ComponentPad*%
%ADD16O,1.700000X1.700000*%
%TD*%
%TA.AperFunction,ComponentPad*%
%ADD17C,1.752600*%
%TD*%
%TA.AperFunction,WasherPad*%
%ADD18O,2.000000X3.200000*%
%TD*%
%TA.AperFunction,ComponentPad*%
%ADD19R,2.000000X2.000000*%
%TD*%
%TA.AperFunction,ComponentPad*%
%ADD20C,2.000000*%
%TD*%
%TA.AperFunction,ComponentPad*%
%ADD21RoundRect,0.250000X-0.625000X0.350000X-0.625000X-0.350000X0.625000X-0.350000X0.625000X0.350000X0*%
%TD*%
%TA.AperFunction,SMDPad,CuDef*%
%ADD22R,0.450000X0.600000*%
%TD*%
%TA.AperFunction,SMDPad,CuDef*%
%ADD23R,2.550000X2.500000*%
%TD*%
%TA.AperFunction,SMDPad,CuDef*%
%ADD24RotRect,0.600000X0.450000X75.000000*%
%TD*%
%TA.AperFunction,SMDPad,CuDef*%
%ADD25RotRect,2.550000X2.500000X24.000000*%
%TD*%
%TA.AperFunction,SMDPad,CuDef*%
%ADD26RotRect,2.550000X2.500000X15.000000*%
%TD*%
%TA.AperFunction,SMDPad,CuDef*%
%ADD27RotRect,0.600000X0.450000X66.000000*%
%TD*%
%TA.AperFunction,SMDPad,CuDef*%
%ADD28RotRect,0.600000X0.450000X105.000000*%
%TD*%
%TA.AperFunction,SMDPad,CuDef*%
%ADD29RotRect,0.600000X0.450000X114.000000*%
%TD*%
%TA.AperFunction,SMDPad,CuDef*%
%ADD30RotRect,2.550000X2.500000X345.000000*%
%TD*%
%TA.AperFunction,SMDPad,CuDef*%
%ADD31RotRect,2.550000X2.500000X336.000000*%
%TD*%
%TA.AperFunction,ViaPad*%
%ADD32C,0.600000*%
%TD*%
%TA.AperFunction,Conductor*%
%ADD33C,0.200000*%
%TD*%
G04 APERTURE END LIST*
D10*
%TO.P,PowerSW1,1,B*%
%TO.N,Net-(PowerSW1-B)*%
X125000000Y-48500000D03*
D11*
%TO.P,PowerSW1,2,C*%
%TO.N,BAT-*%
X127540000Y-48500000D03*
%TO.P,PowerSW1,3,A*%
%TO.N,BAT+*%
X122460000Y-48500000D03*
%TD*%
D12*
%TO.P,J2,1,A*%
%TO.N,unconnected-(J2-A-Pad1)*%
X160250000Y-115850000D03*
%TO.P,J2,2,B*%
%TO.N,DATA*%
X168750000Y-120150000D03*
%TO.P,J2,3,C*%
%TO.N,BAT-*%
X165750000Y-120150000D03*
%TO.P,J2,4,D*%
%TO.N,VCC*%
X161750000Y-120150000D03*
%TD*%
D13*
%TO.P,BT1,1,+*%
%TO.N,BAT+*%
X139000000Y-50500000D03*
D14*
%TO.P,BT1,2,-*%
%TO.N,BAT-*%
X139000000Y-48500000D03*
%TD*%
D15*
%TO.P,rJ3,1,Pin_1*%
%TO.N,rVCC*%
X276150000Y-127340000D03*
D16*
%TO.P,rJ3,2,Pin_2*%
%TO.N,rBAT-*%
X276150000Y-129880000D03*
%TO.P,rJ3,3,Pin_3*%
%TO.N,SCLK*%
X276150000Y-132420000D03*
%TO.P,rJ3,4,Pin_4*%
%TO.N,SDIO*%
X276150000Y-134960000D03*
%TO.P,rJ3,5,Pin_5*%
%TO.N,NCS*%
X276150000Y-137500000D03*
%TO.P,rJ3,6,Pin_6*%
%TO.N,unconnected-(rJ3-Pin_6-Pad6)*%
X276150000Y-140040000D03*
%TD*%
D10*
%TO.P,rPowerSW1,1,B*%
%TO.N,Net-(rPowerSW1-B)*%
X232050000Y-48500000D03*
D11*
%TO.P,rPowerSW1,2,C*%
%TO.N,rBAT-*%
X229510000Y-48500000D03*
%TO.P,rPowerSW1,3,A*%
%TO.N,rBAT+*%
X234590000Y-48500000D03*
%TD*%
D17*
%TO.P,rU1,1,TX0/P0.06*%
%TO.N,rKEYEX1*%
X313970000Y-46380000D03*
%TO.P,rU1,2,RX1/P0.08*%
%TO.N,rDATA*%
X311430000Y-46380000D03*
%TO.P,rU1,3,GND*%
%TO.N,rBAT-*%
X308890000Y-46380000D03*
%TO.P,rU1,4,GND*%
X306350000Y-46380000D03*
%TO.P,rU1,5,P0.17*%
%TO.N,rREB*%
X303810000Y-46380000D03*
%TO.P,rU1,6,P0.20*%
%TO.N,rRE0A*%
X301270000Y-46380000D03*
%TO.P,rU1,7,P0.22*%
%TO.N,rCOL0*%
X298730000Y-46380000D03*
%TO.P,rU1,8,P0.24*%
%TO.N,rCOL1*%
X296190000Y-46380000D03*
%TO.P,rU1,9,P1.00*%
%TO.N,rCOL2*%
X293650000Y-46380000D03*
%TO.P,rU1,10,P0.11*%
%TO.N,rCOL3*%
X291110000Y-46380000D03*
%TO.P,rU1,11,P1.04*%
%TO.N,rCOL4*%
X288570000Y-46380000D03*
%TO.P,rU1,12,P1.06*%
%TO.N,rCOL5*%
X286030000Y-46380000D03*
%TO.P,rU1,13,NFC1/P0.09*%
%TO.N,NCS*%
X286030000Y-61620000D03*
%TO.P,rU1,14,NFC2/P0.10*%
%TO.N,unconnected-(rU1-NFC2{slash}P0.10-Pad14)*%
X288570000Y-61620000D03*
%TO.P,rU1,15,P1.11*%
%TO.N,SDIO*%
X291110000Y-61620000D03*
%TO.P,rU1,16,P1.13*%
%TO.N,SCLK*%
X293650000Y-61620000D03*
%TO.P,rU1,17,P1.15*%
%TO.N,rROW3*%
X296190000Y-61620000D03*
%TO.P,rU1,18,AIN0/P0.02*%
%TO.N,rROW2*%
X298730000Y-61620000D03*
%TO.P,rU1,19,AIN5/P0.29*%
%TO.N,rROW1*%
X301270000Y-61620000D03*
%TO.P,rU1,20,AIN7/P0.31*%
%TO.N,rROW0*%
X303810000Y-61620000D03*
%TO.P,rU1,21,VCC*%
%TO.N,rVCC*%
X306350000Y-61620000D03*
%TO.P,rU1,22,RST*%
%TO.N,unconnected-(rU1-RST-Pad22)*%
X308890000Y-61620000D03*
%TO.P,rU1,23,GND*%
%TO.N,rBAT-*%
X311430000Y-61620000D03*
%TO.P,rU1,24,BATIN/P0.04*%
%TO.N,Net-(rPowerSW1-B)*%
X313970000Y-61620000D03*
%TO.P,rU1,31,P1.01*%
%TO.N,unconnected-(rU1-P1.01-Pad31)*%
X291110000Y-48920000D03*
%TO.P,rU1,32,P1.02*%
%TO.N,unconnected-(rU1-P1.02-Pad32)*%
X291110000Y-51460000D03*
%TO.P,rU1,33,P1.07*%
%TO.N,unconnected-(rU1-P1.07-Pad33)*%
X291110000Y-54000000D03*
%TD*%
D18*
%TO.P,rEXSW1,*%
%TO.N,*%
X187400000Y-98600000D03*
X198600000Y-98600000D03*
D19*
%TO.P,rEXSW1,A,A*%
%TO.N,rRE0A*%
X190500000Y-106100000D03*
D20*
%TO.P,rEXSW1,B,B*%
%TO.N,rREB*%
X195500000Y-106100000D03*
%TO.P,rEXSW1,C,C*%
%TO.N,rBAT-*%
X193000000Y-106100000D03*
%TO.P,rEXSW1,S1,S1*%
X195500000Y-91600000D03*
%TO.P,rEXSW1,S2,S2*%
%TO.N,rKEYEX1*%
X190500000Y-91600000D03*
%TD*%
D17*
%TO.P,U1,1,TX0/P0.06*%
%TO.N,KEYEX1*%
X41030000Y-61620000D03*
%TO.P,U1,2,RX1/P0.08*%
%TO.N,DATA*%
X43570000Y-61620000D03*
%TO.P,U1,3,GND*%
%TO.N,BAT-*%
X46110000Y-61620000D03*
%TO.P,U1,4,GND*%
X48650000Y-61620000D03*
%TO.P,U1,5,P0.17*%
%TO.N,REB*%
X51190000Y-61620000D03*
%TO.P,U1,6,P0.20*%
%TO.N,RE0A*%
X53730000Y-61620000D03*
%TO.P,U1,7,P0.22*%
%TO.N,COL0*%
X56270000Y-61620000D03*
%TO.P,U1,8,P0.24*%
%TO.N,COL1*%
X58810000Y-61620000D03*
%TO.P,U1,9,P1.00*%
%TO.N,COL2*%
X61350000Y-61620000D03*
%TO.P,U1,10,P0.11*%
%TO.N,COL3*%
X63890000Y-61620000D03*
%TO.P,U1,11,P1.04*%
%TO.N,COL4*%
X66430000Y-61620000D03*
%TO.P,U1,12,P1.06*%
%TO.N,COL5*%
X68970000Y-61620000D03*
%TO.P,U1,13,NFC1/P0.09*%
%TO.N,unconnected-(U1-NFC1{slash}P0.09-Pad13)*%
X68970000Y-46380000D03*
%TO.P,U1,14,NFC2/P0.10*%
%TO.N,unconnected-(U1-NFC2{slash}P0.10-Pad14)*%
X66430000Y-46380000D03*
%TO.P,U1,15,P1.11*%
%TO.N,unconnected-(U1-P1.11-Pad15)*%
X63890000Y-46380000D03*
%TO.P,U1,16,P1.13*%
%TO.N,unconnected-(U1-P1.13-Pad16)*%
X61350000Y-46380000D03*
%TO.P,U1,17,P1.15*%
%TO.N,ROW3*%
X58810000Y-46380000D03*
%TO.P,U1,18,AIN0/P0.02*%
%TO.N,ROW2*%
X56270000Y-46380000D03*
%TO.P,U1,19,AIN5/P0.29*%
%TO.N,ROW1*%
X53730000Y-46380000D03*
%TO.P,U1,20,AIN7/P0.31*%
%TO.N,ROW0*%
X51190000Y-46380000D03*
%TO.P,U1,21,VCC*%
%TO.N,VCC*%
X48650000Y-46380000D03*
%TO.P,U1,22,RST*%
%TO.N,unconnected-(U1-RST-Pad22)*%
X46110000Y-46380000D03*
%TO.P,U1,23,GND*%
%TO.N,BAT-*%
X43570000Y-46380000D03*
%TO.P,U1,24,BATIN/P0.04*%
%TO.N,Net-(PowerSW1-B)*%
X41030000Y-46380000D03*
%TO.P,U1,31,P1.01*%
%TO.N,unconnected-(U1-P1.01-Pad31)*%
X63890000Y-59080000D03*
%TO.P,U1,32,P1.02*%
%TO.N,unconnected-(U1-P1.02-Pad32)*%
X63890000Y-56540000D03*
%TO.P,U1,33,P1.07*%
%TO.N,unconnected-(U1-P1.07-Pad33)*%
X63890000Y-54000000D03*
%TD*%
D18*
%TO.P,EXSW1,*%
%TO.N,*%
X155400000Y-98600000D03*
X166600000Y-98600000D03*
D19*
%TO.P,EXSW1,A,A*%
%TO.N,RE0A*%
X158500000Y-106100000D03*
D20*
%TO.P,EXSW1,B,B*%
%TO.N,REB*%
X163500000Y-106100000D03*
%TO.P,EXSW1,C,C*%
%TO.N,BAT-*%
X161000000Y-106100000D03*
%TO.P,EXSW1,S1,S1*%
X163500000Y-91600000D03*
%TO.P,EXSW1,S2,S2*%
%TO.N,KEYEX1*%
X158500000Y-91600000D03*
%TD*%
D21*
%TO.P,rBT1,1,+*%
%TO.N,rBAT+*%
X216000000Y-48500000D03*
D14*
%TO.P,rBT1,2,-*%
%TO.N,rBAT-*%
X216000000Y-50500000D03*
%TD*%
D12*
%TO.P,rJ2,1,A*%
%TO.N,unconnected-(rJ2-A-Pad1)*%
X195250000Y-120200000D03*
%TO.P,rJ2,2,B*%
%TO.N,rDATA*%
X186750000Y-115900000D03*
%TO.P,rJ2,3,C*%
%TO.N,rBAT-*%
X189750000Y-115900000D03*
%TO.P,rJ2,4,D*%
%TO.N,rVCC*%
X193750000Y-115900000D03*
%TD*%
D22*
%TO.P,D7,1,K*%
%TO.N,ROW1*%
X144750000Y-94100000D03*
%TO.P,D7,2,A*%
%TO.N,Net-(D7-A)*%
X144750000Y-92000000D03*
%TD*%
D23*
%TO.P,rSW13,1,1*%
%TO.N,Net-(rD13-A)*%
X208915000Y-104560000D03*
%TO.P,rSW13,2,2*%
%TO.N,rCOL0*%
X221842000Y-102020000D03*
%TD*%
D22*
%TO.P,D9,1,K*%
%TO.N,ROW1*%
X106650000Y-82100000D03*
%TO.P,D9,2,A*%
%TO.N,Net-(D9-A)*%
X106650000Y-80000000D03*
%TD*%
D23*
%TO.P,rSW2,1,1*%
%TO.N,Net-(rD2-A)*%
X227965000Y-64460000D03*
%TO.P,rSW2,2,2*%
%TO.N,rCOL1*%
X240892000Y-61920000D03*
%TD*%
%TO.P,rSW5,1,1*%
%TO.N,Net-(rD5-A)*%
X285115000Y-72460000D03*
%TO.P,rSW5,2,2*%
%TO.N,rCOL4*%
X298042000Y-69920000D03*
%TD*%
D22*
%TO.P,D16,1,K*%
%TO.N,ROW2*%
X87600000Y-105150000D03*
%TO.P,D16,2,A*%
%TO.N,Net-(D16-A)*%
X87600000Y-103050000D03*
%TD*%
D23*
%TO.P,rSW14,1,1*%
%TO.N,Net-(rD14-A)*%
X227965000Y-102560000D03*
%TO.P,rSW14,2,2*%
%TO.N,rCOL1*%
X240892000Y-100020000D03*
%TD*%
D22*
%TO.P,rD1,1,K*%
%TO.N,rROW0*%
X210500000Y-75050000D03*
%TO.P,rD1,2,A*%
%TO.N,Net-(rD1-A)*%
X210500000Y-72950000D03*
%TD*%
D23*
%TO.P,rSW15,1,1*%
%TO.N,Net-(rD15-A)*%
X247015000Y-92560000D03*
%TO.P,rSW15,2,2*%
%TO.N,rCOL2*%
X259942000Y-90020000D03*
%TD*%
%TO.P,rSW21,1,1*%
%TO.N,Net-(rD21-A)*%
X285115000Y-129610000D03*
%TO.P,rSW21,2,2*%
%TO.N,rCOL2*%
X298042000Y-127070000D03*
%TD*%
D22*
%TO.P,rD3,1,K*%
%TO.N,rROW0*%
X248600000Y-63050000D03*
%TO.P,rD3,2,A*%
%TO.N,Net-(rD3-A)*%
X248600000Y-60950000D03*
%TD*%
%TO.P,D23,1,K*%
%TO.N,ROW3*%
X68550000Y-138000000D03*
%TO.P,D23,2,A*%
%TO.N,Net-(D23-A)*%
X68550000Y-135900000D03*
%TD*%
%TO.P,rD15,1,K*%
%TO.N,rROW2*%
X248600000Y-101150000D03*
%TO.P,rD15,2,A*%
%TO.N,Net-(rD15-A)*%
X248600000Y-99050000D03*
%TD*%
%TO.P,rD13,1,K*%
%TO.N,rROW2*%
X210500000Y-113150000D03*
%TO.P,rD13,2,A*%
%TO.N,Net-(rD13-A)*%
X210500000Y-111050000D03*
%TD*%
D23*
%TO.P,rSW8,1,1*%
%TO.N,Net-(rD8-A)*%
X227965000Y-83510000D03*
%TO.P,rSW8,2,2*%
%TO.N,rCOL1*%
X240892000Y-80970000D03*
%TD*%
D22*
%TO.P,D15,1,K*%
%TO.N,ROW2*%
X106650000Y-101150000D03*
%TO.P,D15,2,A*%
%TO.N,Net-(D15-A)*%
X106650000Y-99050000D03*
%TD*%
D23*
%TO.P,SW15,1,1*%
%TO.N,COL2*%
X94065000Y-92560000D03*
%TO.P,SW15,2,2*%
%TO.N,Net-(D15-A)*%
X106992000Y-90020000D03*
%TD*%
%TO.P,SW10,1,1*%
%TO.N,COL3*%
X75015000Y-77510000D03*
%TO.P,SW10,2,2*%
%TO.N,Net-(D10-A)*%
X87942000Y-74970000D03*
%TD*%
%TO.P,SW21,1,1*%
%TO.N,COL2*%
X94065000Y-111610000D03*
%TO.P,SW21,2,2*%
%TO.N,Net-(D21-A)*%
X106992000Y-109070000D03*
%TD*%
D22*
%TO.P,rD16,1,K*%
%TO.N,rROW2*%
X267650000Y-105150000D03*
%TO.P,rD16,2,A*%
%TO.N,Net-(rD16-A)*%
X267650000Y-103050000D03*
%TD*%
D23*
%TO.P,SW16,1,1*%
%TO.N,COL3*%
X75015000Y-96560000D03*
%TO.P,SW16,2,2*%
%TO.N,Net-(D16-A)*%
X87942000Y-94020000D03*
%TD*%
%TO.P,rSW4,1,1*%
%TO.N,Net-(rD4-A)*%
X266065000Y-58460000D03*
%TO.P,rSW4,2,2*%
%TO.N,rCOL3*%
X278992000Y-55920000D03*
%TD*%
D22*
%TO.P,D18,1,K*%
%TO.N,ROW2*%
X49500000Y-121150000D03*
%TO.P,D18,2,A*%
%TO.N,Net-(D18-A)*%
X49500000Y-119050000D03*
%TD*%
D24*
%TO.P,D20,1,K*%
%TO.N,ROW3*%
X145228240Y-138514222D03*
%TO.P,D20,2,A*%
%TO.N,Net-(D20-A)*%
X145771760Y-136485778D03*
%TD*%
D23*
%TO.P,SW22,1,1*%
%TO.N,COL3*%
X75015000Y-115610000D03*
%TO.P,SW22,2,2*%
%TO.N,Net-(D22-A)*%
X87942000Y-113070000D03*
%TD*%
D22*
%TO.P,D1,1,K*%
%TO.N,ROW0*%
X144750000Y-75050000D03*
%TO.P,D1,2,A*%
%TO.N,Net-(D1-A)*%
X144750000Y-72950000D03*
%TD*%
D23*
%TO.P,rSW18,1,1*%
%TO.N,Net-(rD18-A)*%
X304165000Y-112560000D03*
%TO.P,rSW18,2,2*%
%TO.N,rCOL5*%
X317092000Y-110020000D03*
%TD*%
D22*
%TO.P,rD11,1,K*%
%TO.N,rROW1*%
X286700000Y-100100000D03*
%TO.P,rD11,2,A*%
%TO.N,Net-(rD11-A)*%
X286700000Y-98000000D03*
%TD*%
D23*
%TO.P,rSW1,1,1*%
%TO.N,Net-(rD1-A)*%
X208915000Y-66460000D03*
%TO.P,rSW1,2,2*%
%TO.N,rCOL0*%
X221842000Y-63920000D03*
%TD*%
D22*
%TO.P,rD7,1,K*%
%TO.N,rROW1*%
X210500000Y-94100000D03*
%TO.P,rD7,2,A*%
%TO.N,Net-(rD7-A)*%
X210500000Y-92000000D03*
%TD*%
D23*
%TO.P,rSW10,1,1*%
%TO.N,Net-(rD10-A)*%
X266065000Y-77510000D03*
%TO.P,rSW10,2,2*%
%TO.N,rCOL3*%
X278992000Y-74970000D03*
%TD*%
D22*
%TO.P,rD8,1,K*%
%TO.N,rROW1*%
X229550000Y-92100000D03*
%TO.P,rD8,2,A*%
%TO.N,Net-(rD8-A)*%
X229550000Y-90000000D03*
%TD*%
%TO.P,D21,1,K*%
%TO.N,ROW3*%
X107050000Y-120050000D03*
%TO.P,D21,2,A*%
%TO.N,Net-(D21-A)*%
X107050000Y-117950000D03*
%TD*%
D23*
%TO.P,SW3,1,1*%
%TO.N,COL2*%
X94065000Y-54460000D03*
%TO.P,SW3,2,2*%
%TO.N,Net-(D3-A)*%
X106992000Y-51920000D03*
%TD*%
D22*
%TO.P,D22,1,K*%
%TO.N,ROW3*%
X88050000Y-124050000D03*
%TO.P,D22,2,A*%
%TO.N,Net-(D22-A)*%
X88050000Y-121950000D03*
%TD*%
%TO.P,D14,1,K*%
%TO.N,ROW2*%
X125700000Y-111150000D03*
%TO.P,D14,2,A*%
%TO.N,Net-(D14-A)*%
X125700000Y-109050000D03*
%TD*%
D23*
%TO.P,SW9,1,1*%
%TO.N,COL2*%
X94065000Y-73510000D03*
%TO.P,SW9,2,2*%
%TO.N,Net-(D9-A)*%
X106992000Y-70970000D03*
%TD*%
D22*
%TO.P,D13,1,K*%
%TO.N,ROW2*%
X144750000Y-113150000D03*
%TO.P,D13,2,A*%
%TO.N,Net-(D13-A)*%
X144750000Y-111050000D03*
%TD*%
D25*
%TO.P,rSW19,1,1*%
%TO.N,Net-(rD19-A)*%
X186494419Y-138661324D03*
%TO.P,rSW19,2,2*%
%TO.N,rCOL0*%
X197270710Y-131083034D03*
%TD*%
D23*
%TO.P,SW6,1,1*%
%TO.N,COL5*%
X36915000Y-74460000D03*
%TO.P,SW6,2,2*%
%TO.N,Net-(D6-A)*%
X49842000Y-71920000D03*
%TD*%
D26*
%TO.P,rSW20,1,1*%
%TO.N,Net-(rD20-A)*%
X206499015Y-130480281D03*
%TO.P,rSW20,2,2*%
%TO.N,rCOL1*%
X218328138Y-124681076D03*
%TD*%
D27*
%TO.P,D19,1,K*%
%TO.N,ROW3*%
X164072927Y-145459223D03*
%TO.P,D19,2,A*%
%TO.N,Net-(D19-A)*%
X164927073Y-143540777D03*
%TD*%
D22*
%TO.P,rD21,1,K*%
%TO.N,rROW3*%
X286700000Y-138000000D03*
%TO.P,rD21,2,A*%
%TO.N,Net-(rD21-A)*%
X286700000Y-135900000D03*
%TD*%
D23*
%TO.P,SW5,1,1*%
%TO.N,COL4*%
X55965000Y-72460000D03*
%TO.P,SW5,2,2*%
%TO.N,Net-(D5-A)*%
X68892000Y-69920000D03*
%TD*%
D22*
%TO.P,rD4,1,K*%
%TO.N,rROW0*%
X267650000Y-67050000D03*
%TO.P,rD4,2,A*%
%TO.N,Net-(rD4-A)*%
X267650000Y-64950000D03*
%TD*%
D23*
%TO.P,SW23,1,1*%
%TO.N,COL4*%
X55965000Y-129610000D03*
%TO.P,SW23,2,2*%
%TO.N,Net-(D23-A)*%
X68892000Y-127070000D03*
%TD*%
%TO.P,SW18,1,1*%
%TO.N,COL5*%
X36915000Y-112560000D03*
%TO.P,SW18,2,2*%
%TO.N,Net-(D18-A)*%
X49842000Y-110020000D03*
%TD*%
%TO.P,rSW12,1,1*%
%TO.N,Net-(rD12-A)*%
X304165000Y-93510000D03*
%TO.P,rSW12,2,2*%
%TO.N,rCOL5*%
X317092000Y-90970000D03*
%TD*%
%TO.P,SW12,1,1*%
%TO.N,COL5*%
X36915000Y-93510000D03*
%TO.P,SW12,2,2*%
%TO.N,Net-(D12-A)*%
X49842000Y-90970000D03*
%TD*%
D22*
%TO.P,D3,1,K*%
%TO.N,ROW0*%
X106650000Y-63050000D03*
%TO.P,D3,2,A*%
%TO.N,Net-(D3-A)*%
X106650000Y-60950000D03*
%TD*%
%TO.P,rD9,1,K*%
%TO.N,rROW1*%
X248600000Y-82100000D03*
%TO.P,rD9,2,A*%
%TO.N,Net-(rD9-A)*%
X248600000Y-80000000D03*
%TD*%
D23*
%TO.P,rSW6,1,1*%
%TO.N,Net-(rD6-A)*%
X304165000Y-74460000D03*
%TO.P,rSW6,2,2*%
%TO.N,rCOL5*%
X317092000Y-71920000D03*
%TD*%
%TO.P,SW8,1,1*%
%TO.N,COL1*%
X113115000Y-83510000D03*
%TO.P,SW8,2,2*%
%TO.N,Net-(D8-A)*%
X126042000Y-80970000D03*
%TD*%
%TO.P,rSW16,1,1*%
%TO.N,Net-(rD16-A)*%
X266065000Y-96560000D03*
%TO.P,rSW16,2,2*%
%TO.N,rCOL3*%
X278992000Y-94020000D03*
%TD*%
%TO.P,SW7,1,1*%
%TO.N,COL0*%
X132165000Y-85510000D03*
%TO.P,SW7,2,2*%
%TO.N,Net-(D7-A)*%
X145092000Y-82970000D03*
%TD*%
D22*
%TO.P,D10,1,K*%
%TO.N,ROW1*%
X87600000Y-86100000D03*
%TO.P,D10,2,A*%
%TO.N,Net-(D10-A)*%
X87600000Y-84000000D03*
%TD*%
D23*
%TO.P,SW11,1,1*%
%TO.N,COL4*%
X55965000Y-91510000D03*
%TO.P,SW11,2,2*%
%TO.N,Net-(D11-A)*%
X68892000Y-88970000D03*
%TD*%
D22*
%TO.P,rD14,1,K*%
%TO.N,rROW2*%
X229550000Y-111150000D03*
%TO.P,rD14,2,A*%
%TO.N,Net-(rD14-A)*%
X229550000Y-109050000D03*
%TD*%
%TO.P,rD5,1,K*%
%TO.N,rROW0*%
X286700000Y-81050000D03*
%TO.P,rD5,2,A*%
%TO.N,Net-(rD5-A)*%
X286700000Y-78950000D03*
%TD*%
D28*
%TO.P,rD20,1,K*%
%TO.N,rROW3*%
X210285982Y-138285982D03*
%TO.P,rD20,2,A*%
%TO.N,Net-(rD20-A)*%
X209742462Y-136257538D03*
%TD*%
D22*
%TO.P,rD6,1,K*%
%TO.N,rROW0*%
X305750000Y-83050000D03*
%TO.P,rD6,2,A*%
%TO.N,Net-(rD6-A)*%
X305750000Y-80950000D03*
%TD*%
D23*
%TO.P,SW14,1,1*%
%TO.N,COL1*%
X113115000Y-102560000D03*
%TO.P,SW14,2,2*%
%TO.N,Net-(D14-A)*%
X126042000Y-100020000D03*
%TD*%
D22*
%TO.P,D2,1,K*%
%TO.N,ROW0*%
X125700000Y-73050000D03*
%TO.P,D2,2,A*%
%TO.N,Net-(D2-A)*%
X125700000Y-70950000D03*
%TD*%
D23*
%TO.P,SW13,1,1*%
%TO.N,COL0*%
X132165000Y-104560000D03*
%TO.P,SW13,2,2*%
%TO.N,Net-(D13-A)*%
X145092000Y-102020000D03*
%TD*%
D22*
%TO.P,D17,1,K*%
%TO.N,ROW2*%
X68550000Y-119150000D03*
%TO.P,D17,2,A*%
%TO.N,Net-(D17-A)*%
X68550000Y-117050000D03*
%TD*%
%TO.P,D11,1,K*%
%TO.N,ROW1*%
X68550000Y-100100000D03*
%TO.P,D11,2,A*%
%TO.N,Net-(D11-A)*%
X68550000Y-98000000D03*
%TD*%
%TO.P,rD10,1,K*%
%TO.N,rROW1*%
X267650000Y-86100000D03*
%TO.P,rD10,2,A*%
%TO.N,Net-(rD10-A)*%
X267650000Y-84000000D03*
%TD*%
%TO.P,D4,1,K*%
%TO.N,ROW0*%
X87600000Y-67050000D03*
%TO.P,D4,2,A*%
%TO.N,Net-(D4-A)*%
X87600000Y-64950000D03*
%TD*%
D23*
%TO.P,rSW7,1,1*%
%TO.N,Net-(rD7-A)*%
X208915000Y-85510000D03*
%TO.P,rSW7,2,2*%
%TO.N,rCOL0*%
X221842000Y-82970000D03*
%TD*%
D22*
%TO.P,rD17,1,K*%
%TO.N,rROW2*%
X286700000Y-119150000D03*
%TO.P,rD17,2,A*%
%TO.N,Net-(rD17-A)*%
X286700000Y-117050000D03*
%TD*%
D23*
%TO.P,SW17,1,1*%
%TO.N,COL4*%
X55965000Y-110560000D03*
%TO.P,SW17,2,2*%
%TO.N,Net-(D17-A)*%
X68892000Y-108020000D03*
%TD*%
%TO.P,SW4,1,1*%
%TO.N,COL3*%
X75015000Y-58460000D03*
%TO.P,SW4,2,2*%
%TO.N,Net-(D4-A)*%
X87942000Y-55920000D03*
%TD*%
D22*
%TO.P,D5,1,K*%
%TO.N,ROW0*%
X68550000Y-81050000D03*
%TO.P,D5,2,A*%
%TO.N,Net-(D5-A)*%
X68550000Y-78950000D03*
%TD*%
D29*
%TO.P,rD19,1,K*%
%TO.N,rROW3*%
X191467850Y-145687463D03*
%TO.P,rD19,2,A*%
%TO.N,Net-(rD19-A)*%
X190613704Y-143769017D03*
%TD*%
D22*
%TO.P,D6,1,K*%
%TO.N,ROW0*%
X49500000Y-83050000D03*
%TO.P,D6,2,A*%
%TO.N,Net-(D6-A)*%
X49500000Y-80950000D03*
%TD*%
D23*
%TO.P,SW2,1,1*%
%TO.N,COL1*%
X113115000Y-64460000D03*
%TO.P,SW2,2,2*%
%TO.N,Net-(D2-A)*%
X126042000Y-61920000D03*
%TD*%
%TO.P,rSW3,1,1*%
%TO.N,Net-(rD3-A)*%
X247015000Y-54460000D03*
%TO.P,rSW3,2,2*%
%TO.N,rCOL2*%
X259942000Y-51920000D03*
%TD*%
D30*
%TO.P,SW20,1,1*%
%TO.N,COL1*%
X135063816Y-126812815D03*
%TO.P,SW20,2,2*%
%TO.N,Net-(D20-A)*%
X148207739Y-127705118D03*
%TD*%
D22*
%TO.P,rD2,1,K*%
%TO.N,rROW0*%
X229550000Y-73050000D03*
%TO.P,rD2,2,A*%
%TO.N,Net-(rD2-A)*%
X229550000Y-70950000D03*
%TD*%
D23*
%TO.P,rSW9,1,1*%
%TO.N,Net-(rD9-A)*%
X247015000Y-73510000D03*
%TO.P,rSW9,2,2*%
%TO.N,rCOL2*%
X259942000Y-70970000D03*
%TD*%
%TO.P,rSW17,1,1*%
%TO.N,Net-(rD17-A)*%
X285115000Y-110560000D03*
%TO.P,rSW17,2,2*%
%TO.N,rCOL4*%
X298042000Y-108020000D03*
%TD*%
D22*
%TO.P,rD18,1,K*%
%TO.N,rROW2*%
X305750000Y-121150000D03*
%TO.P,rD18,2,A*%
%TO.N,Net-(rD18-A)*%
X305750000Y-119050000D03*
%TD*%
%TO.P,D8,1,K*%
%TO.N,ROW1*%
X125700000Y-92100000D03*
%TO.P,D8,2,A*%
%TO.N,Net-(D8-A)*%
X125700000Y-90000000D03*
%TD*%
%TO.P,D12,1,K*%
%TO.N,ROW1*%
X49500000Y-102100000D03*
%TO.P,D12,2,A*%
%TO.N,Net-(D12-A)*%
X49500000Y-100000000D03*
%TD*%
%TO.P,rD12,1,K*%
%TO.N,rROW1*%
X305750000Y-102100000D03*
%TO.P,rD12,2,A*%
%TO.N,Net-(rD12-A)*%
X305750000Y-100000000D03*
%TD*%
D31*
%TO.P,SW19,1,1*%
%TO.N,COL0*%
X155810642Y-132897865D03*
%TO.P,SW19,2,2*%
%TO.N,Net-(D19-A)*%
X168653155Y-135835345D03*
%TD*%
D23*
%TO.P,SW1,1,1*%
%TO.N,COL0*%
X132165000Y-66460000D03*
%TO.P,SW1,2,2*%
%TO.N,Net-(D1-A)*%
X145092000Y-63920000D03*
%TD*%
%TO.P,rSW11,1,1*%
%TO.N,Net-(rD11-A)*%
X285115000Y-91510000D03*
%TO.P,rSW11,2,2*%
%TO.N,rCOL4*%
X298042000Y-88970000D03*
%TD*%
D32*
%TO.N,rROW0*%
X302000000Y-82000000D03*
%TO.N,rROW1*%
X290000000Y-99000000D03*
%TO.N,rROW2*%
X280000000Y-116000000D03*
%TO.N,rROW3*%
X282000000Y-138000000D03*
%TO.N,rBAT-*%
X281000000Y-130000000D03*
%TO.N,rCOL0*%
X219000000Y-110000000D03*
X222000000Y-93000000D03*
X222000000Y-76000000D03*
X222000000Y-95000000D03*
X219000000Y-112000000D03*
X222000000Y-74000000D03*
%TO.N,rCOL1*%
X237000000Y-110000000D03*
X242000000Y-71000000D03*
X242000000Y-68000000D03*
X237000000Y-112000000D03*
X242000000Y-87000000D03*
X242000000Y-90000000D03*
%TO.N,rCOL2*%
X261000000Y-68000000D03*
X261000000Y-66000000D03*
X261000000Y-83000000D03*
X261000000Y-100000000D03*
X261000000Y-102000000D03*
X261000000Y-81000000D03*
%TO.N,rCOL3*%
X279000000Y-73000000D03*
X278000000Y-92000000D03*
X279000000Y-71000000D03*
X280000000Y-90000000D03*
%TO.N,rCOL4*%
X299000000Y-99000000D03*
X298000000Y-84000000D03*
X298000000Y-64797548D03*
X298000000Y-82000000D03*
X299000000Y-101000000D03*
X298000000Y-66000000D03*
%TO.N,BAT-*%
X125000000Y-44000000D03*
X127000000Y-46000000D03*
X148000000Y-57000000D03*
%TO.N,ROW0*%
X71000000Y-81000000D03*
%TO.N,ROW1*%
X72000000Y-100000000D03*
%TO.N,ROW2*%
X73000000Y-119000000D03*
%TO.N,ROW3*%
X86000000Y-124000000D03*
%TO.N,COL4*%
X56000000Y-103000000D03*
X56000000Y-120000000D03*
X56000000Y-122500000D03*
X56000000Y-82000000D03*
X56000000Y-70500000D03*
X56000000Y-68500000D03*
X56000000Y-84000000D03*
X56000000Y-100500000D03*
%TO.N,COL3*%
X75000000Y-73000000D03*
X75000000Y-94500000D03*
X75000000Y-111500000D03*
X75000000Y-92500000D03*
X75000000Y-113500000D03*
X75000000Y-75500000D03*
%TO.N,COL2*%
X94000000Y-81000000D03*
X68500000Y-57500000D03*
X94000000Y-100000000D03*
X94000000Y-102000000D03*
X94000000Y-62000000D03*
X94000000Y-83000000D03*
X62000000Y-60000000D03*
X94000000Y-64000000D03*
%TO.N,COL1*%
X113000000Y-90000000D03*
X113000000Y-68000000D03*
X113000000Y-106000000D03*
X113000000Y-87000000D03*
X113000000Y-108500000D03*
X113000000Y-70500000D03*
%TO.N,COL0*%
X132000000Y-93000000D03*
X132000000Y-112000000D03*
X67000000Y-57000000D03*
X132000000Y-72000000D03*
X132000000Y-74000000D03*
X61500000Y-57500000D03*
X132000000Y-91000000D03*
X132000000Y-110000000D03*
%TO.N,REB*%
X66000000Y-54000000D03*
X58750735Y-55750735D03*
%TO.N,KEYEX1*%
X148200000Y-59785786D03*
X150000000Y-91000000D03*
%TO.N,rRE0A*%
X192000000Y-101000000D03*
X194000000Y-101000000D03*
%TO.N,rVCC*%
X276000000Y-111000000D03*
X272000000Y-108000000D03*
X281000000Y-111000000D03*
%TO.N,rDATA*%
X203000000Y-100000000D03*
X228000000Y-58000000D03*
%TD*%
D33*
%TO.N,Net-(rD1-A)*%
X208915000Y-71365000D02*
X210500000Y-72950000D01*
X208915000Y-66460000D02*
X208915000Y-71365000D01*
%TO.N,rROW0*%
X302000000Y-82000000D02*
X303050000Y-83050000D01*
X286700000Y-81050000D02*
X286175000Y-80525000D01*
X286175000Y-80525000D02*
X286175000Y-79175000D01*
X238600000Y-73050000D02*
X229550000Y-73050000D01*
X248600000Y-63050000D02*
X238600000Y-73050000D01*
X252600000Y-67050000D02*
X248600000Y-63050000D01*
X286175000Y-79175000D02*
X274050000Y-67050000D01*
X225950000Y-73050000D02*
X223950000Y-75050000D01*
X288700000Y-83050000D02*
X286700000Y-81050000D01*
X303050000Y-83050000D02*
X305750000Y-83050000D01*
X229550000Y-73050000D02*
X225950000Y-73050000D01*
X305750000Y-83050000D02*
X288700000Y-83050000D01*
X267650000Y-67050000D02*
X252600000Y-67050000D01*
X223950000Y-75050000D02*
X210500000Y-75050000D01*
X274050000Y-67050000D02*
X267650000Y-67050000D01*
%TO.N,rROW1*%
X248600000Y-82100000D02*
X238600000Y-92100000D01*
X286175000Y-98175000D02*
X274100000Y-86100000D01*
X226100000Y-94100000D02*
X210500000Y-94100000D01*
X229550000Y-92100000D02*
X228100000Y-92100000D01*
X267650000Y-86100000D02*
X266100000Y-86100000D01*
X287000000Y-100100000D02*
X286175000Y-99275000D01*
X303750000Y-100100000D02*
X287000000Y-100100000D01*
X266100000Y-86100000D02*
X262100000Y-82100000D01*
X228100000Y-92100000D02*
X226100000Y-94100000D01*
X262100000Y-82100000D02*
X248600000Y-82100000D01*
X274100000Y-86100000D02*
X267650000Y-86100000D01*
X286175000Y-99275000D02*
X286175000Y-98175000D01*
X290000000Y-99000000D02*
X288900000Y-100100000D01*
X288900000Y-100100000D02*
X286700000Y-100100000D01*
X287000000Y-100100000D02*
X286700000Y-100100000D01*
X305750000Y-102100000D02*
X303750000Y-100100000D01*
X238600000Y-92100000D02*
X229550000Y-92100000D01*
%TO.N,Net-(rD2-A)*%
X227965000Y-64460000D02*
X227965000Y-69365000D01*
X227965000Y-69365000D02*
X229550000Y-70950000D01*
%TO.N,rROW2*%
X288700000Y-121150000D02*
X286700000Y-119150000D01*
X281650000Y-119150000D02*
X267650000Y-105150000D01*
X280000000Y-116000000D02*
X283150000Y-119150000D01*
X263150000Y-101150000D02*
X248600000Y-101150000D01*
X283150000Y-119150000D02*
X286700000Y-119150000D01*
X267650000Y-105150000D02*
X267150000Y-105150000D01*
X229550000Y-111150000D02*
X212500000Y-111150000D01*
X267150000Y-105150000D02*
X263150000Y-101150000D01*
X212500000Y-111150000D02*
X210500000Y-113150000D01*
X305750000Y-121150000D02*
X288700000Y-121150000D01*
X248600000Y-101150000D02*
X238600000Y-111150000D01*
X286700000Y-119150000D02*
X281650000Y-119150000D01*
X238600000Y-111150000D02*
X229550000Y-111150000D01*
%TO.N,Net-(rD3-A)*%
X247015000Y-59365000D02*
X248600000Y-60950000D01*
X247015000Y-54460000D02*
X247015000Y-59365000D01*
%TO.N,Net-(rD4-A)*%
X266065000Y-58460000D02*
X266065000Y-63365000D01*
X266065000Y-63365000D02*
X267650000Y-64950000D01*
%TO.N,rROW3*%
X282000000Y-133300000D02*
X286700000Y-138000000D01*
X210285982Y-138285982D02*
X213714018Y-138285982D01*
X210285982Y-138285982D02*
X198869331Y-138285982D01*
X222000000Y-130000000D02*
X222000000Y-115000000D01*
X273000000Y-113000000D02*
X280000000Y-120000000D01*
X282000000Y-138000000D02*
X286700000Y-138000000D01*
X222000000Y-115000000D02*
X224000000Y-113000000D01*
X198869331Y-138285982D02*
X191467850Y-145687463D01*
X279897548Y-124897548D02*
X282000000Y-127000000D01*
X213714018Y-138285982D02*
X222000000Y-130000000D01*
X224000000Y-113000000D02*
X273000000Y-113000000D01*
X279897548Y-120549020D02*
X279897548Y-124897548D01*
X280000000Y-120000000D02*
X280000000Y-120446568D01*
X280000000Y-120446568D02*
X279897548Y-120549020D01*
X282000000Y-127000000D02*
X282000000Y-133300000D01*
%TO.N,Net-(rD5-A)*%
X285115000Y-72460000D02*
X285115000Y-77365000D01*
X285115000Y-77365000D02*
X286700000Y-78950000D01*
%TO.N,Net-(rD6-A)*%
X304165000Y-74460000D02*
X304165000Y-79365000D01*
X304165000Y-79365000D02*
X305750000Y-80950000D01*
%TO.N,Net-(rD7-A)*%
X208915000Y-85510000D02*
X208915000Y-90415000D01*
X208915000Y-90415000D02*
X210500000Y-92000000D01*
%TO.N,Net-(rD8-A)*%
X227965000Y-88415000D02*
X229550000Y-90000000D01*
X227965000Y-83510000D02*
X227965000Y-88415000D01*
%TO.N,Net-(rD9-A)*%
X247015000Y-78415000D02*
X248600000Y-80000000D01*
X247015000Y-73510000D02*
X247015000Y-78415000D01*
%TO.N,Net-(rD10-A)*%
X266065000Y-82415000D02*
X267650000Y-84000000D01*
X266065000Y-77510000D02*
X266065000Y-82415000D01*
%TO.N,Net-(rD11-A)*%
X285115000Y-96415000D02*
X286700000Y-98000000D01*
X285115000Y-91510000D02*
X285115000Y-96415000D01*
%TO.N,Net-(rD12-A)*%
X304165000Y-93510000D02*
X304165000Y-98415000D01*
X304165000Y-98415000D02*
X305750000Y-100000000D01*
%TO.N,Net-(rD13-A)*%
X208915000Y-109465000D02*
X210500000Y-111050000D01*
X208915000Y-104560000D02*
X208915000Y-109465000D01*
%TO.N,Net-(rD14-A)*%
X227965000Y-102560000D02*
X227965000Y-107465000D01*
X227965000Y-107465000D02*
X229550000Y-109050000D01*
%TO.N,Net-(rD15-A)*%
X247015000Y-97465000D02*
X248600000Y-99050000D01*
X247015000Y-92560000D02*
X247015000Y-97465000D01*
%TO.N,Net-(rD16-A)*%
X266065000Y-101465000D02*
X267650000Y-103050000D01*
X266065000Y-96560000D02*
X266065000Y-101465000D01*
%TO.N,Net-(rD17-A)*%
X285115000Y-115465000D02*
X286700000Y-117050000D01*
X285115000Y-110560000D02*
X285115000Y-115465000D01*
%TO.N,Net-(rD18-A)*%
X304165000Y-117465000D02*
X305750000Y-119050000D01*
X304165000Y-112560000D02*
X304165000Y-117465000D01*
%TO.N,Net-(rD19-A)*%
X186494419Y-139649732D02*
X190613704Y-143769017D01*
X186494419Y-138661324D02*
X186494419Y-139649732D01*
%TO.N,Net-(rD20-A)*%
X206499015Y-130480281D02*
X206499015Y-133014091D01*
X206499015Y-133014091D02*
X209742462Y-136257538D01*
%TO.N,rBAT-*%
X279880000Y-129880000D02*
X276150000Y-129880000D01*
X281000000Y-130000000D02*
X280000000Y-130000000D01*
X280000000Y-130000000D02*
X279880000Y-129880000D01*
%TO.N,rCOL0*%
X222000000Y-95000000D02*
X222000000Y-96000000D01*
X221842000Y-63920000D02*
X222450000Y-64528000D01*
X221842000Y-77158000D02*
X221842000Y-82970000D01*
X219000000Y-112000000D02*
X199916966Y-131083034D01*
X222000000Y-96000000D02*
X221842000Y-96158000D01*
X222380000Y-83508000D02*
X222380000Y-92620000D01*
X224761224Y-63920000D02*
X221842000Y-63920000D01*
X222450000Y-73550000D02*
X222000000Y-74000000D01*
X222000000Y-76000000D02*
X222000000Y-77000000D01*
X222450000Y-64528000D02*
X222450000Y-73550000D01*
X219000000Y-104862000D02*
X219000000Y-110000000D01*
X221842000Y-82970000D02*
X222380000Y-83508000D01*
X221842000Y-102020000D02*
X219000000Y-104862000D01*
X199916966Y-131083034D02*
X197270710Y-131083034D01*
X222380000Y-92620000D02*
X222000000Y-93000000D01*
X298730000Y-46380000D02*
X296353700Y-44003700D01*
X222000000Y-77000000D02*
X221842000Y-77158000D01*
X244677524Y-44003700D02*
X224761224Y-63920000D01*
X296353700Y-44003700D02*
X244677524Y-44003700D01*
X221842000Y-96158000D02*
X221842000Y-102020000D01*
%TO.N,rCOL1*%
X240892000Y-61920000D02*
X242000000Y-63028000D01*
X296190000Y-46380000D02*
X294213700Y-44403700D01*
X241922000Y-82000000D02*
X242000000Y-82000000D01*
X253946300Y-44403700D02*
X240892000Y-57458000D01*
X242000000Y-82000000D02*
X242000000Y-87000000D01*
X242000000Y-92000000D02*
X240892000Y-93108000D01*
X240892000Y-73108000D02*
X240892000Y-80970000D01*
X237450000Y-109550000D02*
X237000000Y-110000000D01*
X237000000Y-112000000D02*
X223000000Y-112000000D01*
X240892000Y-93108000D02*
X240892000Y-100020000D01*
X223000000Y-112000000D02*
X218328138Y-116671862D01*
X240892000Y-100020000D02*
X237450000Y-103462000D01*
X237450000Y-103462000D02*
X237450000Y-109550000D01*
X294213700Y-44403700D02*
X253946300Y-44403700D01*
X242000000Y-71000000D02*
X242000000Y-72000000D01*
X242000000Y-90000000D02*
X242000000Y-92000000D01*
X240892000Y-80970000D02*
X241922000Y-82000000D01*
X242000000Y-63028000D02*
X242000000Y-68000000D01*
X240892000Y-57458000D02*
X240892000Y-61920000D01*
X218328138Y-116671862D02*
X218328138Y-124681076D01*
X242000000Y-72000000D02*
X240892000Y-73108000D01*
%TO.N,rCOL2*%
X261000000Y-69912000D02*
X259942000Y-70970000D01*
X261000000Y-52978000D02*
X261000000Y-66000000D01*
X261000000Y-102000000D02*
X262689824Y-102000000D01*
X259942000Y-50470000D02*
X259942000Y-51920000D01*
X281087372Y-120397548D02*
X286397548Y-120397548D01*
X262689824Y-102000000D02*
X281087372Y-120397548D01*
X261000000Y-72028000D02*
X261000000Y-81000000D01*
X261000000Y-68000000D02*
X261000000Y-69912000D01*
X261000000Y-91078000D02*
X261000000Y-100000000D01*
X296192000Y-125220000D02*
X298042000Y-127070000D01*
X293650000Y-46380000D02*
X292073700Y-44803700D01*
X265608300Y-44803700D02*
X259942000Y-50470000D01*
X292073700Y-44803700D02*
X265608300Y-44803700D01*
X259942000Y-85058000D02*
X259942000Y-90020000D01*
X259942000Y-90020000D02*
X261000000Y-91078000D01*
X261000000Y-83000000D02*
X261000000Y-84000000D01*
X261000000Y-84000000D02*
X259942000Y-85058000D01*
X259942000Y-51920000D02*
X261000000Y-52978000D01*
X286397548Y-120397548D02*
X291220000Y-125220000D01*
X259942000Y-70970000D02*
X261000000Y-72028000D01*
X291220000Y-125220000D02*
X296192000Y-125220000D01*
%TO.N,rCOL3*%
X278992000Y-51008000D02*
X278992000Y-55920000D01*
X291110000Y-46380000D02*
X289933700Y-45203700D01*
X278000000Y-92000000D02*
X278000000Y-93028000D01*
X280000000Y-75978000D02*
X280000000Y-90000000D01*
X289933700Y-45203700D02*
X284796300Y-45203700D01*
X278992000Y-55920000D02*
X279530000Y-56458000D01*
X279530000Y-56458000D02*
X279530000Y-70470000D01*
X278000000Y-93028000D02*
X278992000Y-94020000D01*
X279000000Y-74962000D02*
X278992000Y-74970000D01*
X278992000Y-74970000D02*
X280000000Y-75978000D01*
X279000000Y-73000000D02*
X279000000Y-74962000D01*
X284796300Y-45203700D02*
X278992000Y-51008000D01*
X279530000Y-70470000D02*
X279000000Y-71000000D01*
%TO.N,rCOL4*%
X298000000Y-84000000D02*
X298042000Y-84042000D01*
X282000000Y-52950000D02*
X282000000Y-64997548D01*
X298042000Y-101958000D02*
X298042000Y-108020000D01*
X299000000Y-89928000D02*
X299000000Y-99000000D01*
X298042000Y-67042000D02*
X298042000Y-69920000D01*
X298042000Y-84042000D02*
X298042000Y-88970000D01*
X298580000Y-81420000D02*
X298000000Y-82000000D01*
X298000000Y-67000000D02*
X298042000Y-67042000D01*
X297800000Y-64997548D02*
X298000000Y-64797548D01*
X298000000Y-66000000D02*
X298000000Y-67000000D01*
X298042000Y-69920000D02*
X298580000Y-70458000D01*
X288570000Y-46380000D02*
X282000000Y-52950000D01*
X298580000Y-70458000D02*
X298580000Y-81420000D01*
X299122000Y-71000000D02*
X298042000Y-69920000D01*
X299000000Y-101000000D02*
X298042000Y-101958000D01*
X298042000Y-88970000D02*
X299000000Y-89928000D01*
X282000000Y-64997548D02*
X297800000Y-64997548D01*
%TO.N,rBAT+*%
X218500000Y-46000000D02*
X216000000Y-48500000D01*
X234590000Y-48500000D02*
X232090000Y-46000000D01*
X232090000Y-46000000D02*
X218500000Y-46000000D01*
%TO.N,BAT+*%
X122460000Y-48500000D02*
X124460000Y-50500000D01*
X124460000Y-50500000D02*
X139000000Y-50500000D01*
%TO.N,BAT-*%
X127540000Y-48500000D02*
X139000000Y-48500000D01*
X147500000Y-57000000D02*
X148000000Y-57000000D01*
X139000000Y-48500000D02*
X147500000Y-57000000D01*
X127000000Y-46000000D02*
X125000000Y-44000000D01*
%TO.N,ROW0*%
X106500000Y-63050000D02*
X116500000Y-73050000D01*
X66550000Y-83050000D02*
X68550000Y-81050000D01*
X106500000Y-63050000D02*
X106650000Y-63050000D01*
X68550000Y-80975000D02*
X82475000Y-67050000D01*
X49500000Y-83050000D02*
X66550000Y-83050000D01*
X82475000Y-67050000D02*
X87500000Y-67050000D01*
X70950000Y-81050000D02*
X68550000Y-81050000D01*
X68550000Y-81050000D02*
X68550000Y-80975000D01*
X71000000Y-81000000D02*
X70950000Y-81050000D01*
X142750000Y-73050000D02*
X144750000Y-75050000D01*
X87500000Y-67050000D02*
X87600000Y-67050000D01*
X125700000Y-73050000D02*
X142750000Y-73050000D01*
X91500000Y-63050000D02*
X106500000Y-63050000D01*
X87500000Y-67050000D02*
X91500000Y-63050000D01*
X116500000Y-73050000D02*
X125700000Y-73050000D01*
%TO.N,Net-(D1-A)*%
X145630000Y-64458000D02*
X145630000Y-72070000D01*
X145092000Y-63920000D02*
X145630000Y-64458000D01*
X145630000Y-72070000D02*
X144750000Y-72950000D01*
%TO.N,Net-(D2-A)*%
X126580000Y-62458000D02*
X126580000Y-70070000D01*
X126042000Y-61920000D02*
X126580000Y-62458000D01*
X126580000Y-70070000D02*
X125700000Y-70950000D01*
%TO.N,Net-(D3-A)*%
X107530000Y-52458000D02*
X107530000Y-60070000D01*
X107530000Y-60070000D02*
X106650000Y-60950000D01*
X106992000Y-51920000D02*
X107530000Y-52458000D01*
%TO.N,Net-(D4-A)*%
X88480000Y-64070000D02*
X87600000Y-64950000D01*
X87942000Y-55920000D02*
X88480000Y-56458000D01*
X88480000Y-56458000D02*
X88480000Y-64070000D01*
%TO.N,Net-(D5-A)*%
X68892000Y-69920000D02*
X69430000Y-70458000D01*
X69430000Y-70458000D02*
X69430000Y-78070000D01*
X69430000Y-78070000D02*
X68550000Y-78950000D01*
%TO.N,Net-(D6-A)*%
X50380000Y-72458000D02*
X50380000Y-80070000D01*
X49842000Y-71920000D02*
X50380000Y-72458000D01*
X50380000Y-80070000D02*
X49500000Y-80950000D01*
%TO.N,Net-(D7-A)*%
X145092000Y-82970000D02*
X145630000Y-83508000D01*
X145630000Y-83508000D02*
X145630000Y-91120000D01*
X145630000Y-91120000D02*
X144750000Y-92000000D01*
%TO.N,ROW1*%
X49500000Y-102100000D02*
X66550000Y-102100000D01*
X87600000Y-86100000D02*
X88900000Y-86100000D01*
X72000000Y-100000000D02*
X71000000Y-100000000D01*
X66550000Y-102100000D02*
X68550000Y-100100000D01*
X82475000Y-86100000D02*
X87600000Y-86100000D01*
X88900000Y-86100000D02*
X92900000Y-82100000D01*
X92900000Y-82100000D02*
X106650000Y-82100000D01*
X106650000Y-82100000D02*
X116650000Y-92100000D01*
X116650000Y-92100000D02*
X125700000Y-92100000D01*
X68550000Y-100100000D02*
X68550000Y-100025000D01*
X142750000Y-92100000D02*
X144750000Y-94100000D01*
X68550000Y-100025000D02*
X82475000Y-86100000D01*
X71000000Y-100000000D02*
X70900000Y-100100000D01*
X125700000Y-92100000D02*
X142750000Y-92100000D01*
X70900000Y-100100000D02*
X68550000Y-100100000D01*
%TO.N,Net-(D8-A)*%
X126580000Y-89120000D02*
X125700000Y-90000000D01*
X126042000Y-80970000D02*
X126580000Y-81508000D01*
X126580000Y-81508000D02*
X126580000Y-89120000D01*
%TO.N,Net-(D9-A)*%
X106992000Y-70970000D02*
X107530000Y-71508000D01*
X107530000Y-71508000D02*
X107530000Y-79120000D01*
X107530000Y-79120000D02*
X106650000Y-80000000D01*
%TO.N,Net-(D10-A)*%
X88480000Y-75508000D02*
X88480000Y-83120000D01*
X88480000Y-83120000D02*
X87600000Y-84000000D01*
X87942000Y-74970000D02*
X88480000Y-75508000D01*
%TO.N,Net-(D11-A)*%
X68892000Y-88970000D02*
X69430000Y-89508000D01*
X69430000Y-97120000D02*
X68550000Y-98000000D01*
X69430000Y-89508000D02*
X69430000Y-97120000D01*
%TO.N,Net-(D12-A)*%
X49842000Y-90970000D02*
X50380000Y-91508000D01*
X50380000Y-91508000D02*
X50380000Y-99120000D01*
X50380000Y-99120000D02*
X49500000Y-100000000D01*
%TO.N,Net-(D13-A)*%
X145630000Y-102558000D02*
X145630000Y-110170000D01*
X145092000Y-102020000D02*
X145630000Y-102558000D01*
X145630000Y-110170000D02*
X144750000Y-111050000D01*
%TO.N,ROW2*%
X87600000Y-105150000D02*
X91600000Y-101150000D01*
X116650000Y-111150000D02*
X125700000Y-111150000D01*
X68550000Y-119075000D02*
X82475000Y-105150000D01*
X106650000Y-101150000D02*
X116650000Y-111150000D01*
X73000000Y-119000000D02*
X72850000Y-119150000D01*
X142750000Y-111150000D02*
X144750000Y-113150000D01*
X66550000Y-121150000D02*
X68550000Y-119150000D01*
X68550000Y-119150000D02*
X68550000Y-119075000D01*
X125700000Y-111150000D02*
X142750000Y-111150000D01*
X82475000Y-105150000D02*
X87600000Y-105150000D01*
X91600000Y-101150000D02*
X106650000Y-101150000D01*
X49500000Y-121150000D02*
X66550000Y-121150000D01*
X72850000Y-119150000D02*
X68550000Y-119150000D01*
%TO.N,Net-(D14-A)*%
X126042000Y-100020000D02*
X126580000Y-100558000D01*
X126580000Y-108170000D02*
X125700000Y-109050000D01*
X126580000Y-100558000D02*
X126580000Y-108170000D01*
%TO.N,Net-(D15-A)*%
X106992000Y-90020000D02*
X107530000Y-90558000D01*
X107530000Y-90558000D02*
X107530000Y-98170000D01*
X107530000Y-98170000D02*
X106650000Y-99050000D01*
%TO.N,Net-(D16-A)*%
X87942000Y-94020000D02*
X88480000Y-94558000D01*
X88480000Y-94558000D02*
X88480000Y-102170000D01*
X88480000Y-102170000D02*
X87600000Y-103050000D01*
%TO.N,Net-(D17-A)*%
X69430000Y-116170000D02*
X68550000Y-117050000D01*
X68892000Y-108020000D02*
X69430000Y-108558000D01*
X69430000Y-108558000D02*
X69430000Y-116170000D01*
%TO.N,Net-(D18-A)*%
X50380000Y-110558000D02*
X50380000Y-118170000D01*
X50380000Y-118170000D02*
X49500000Y-119050000D01*
X49842000Y-110020000D02*
X50380000Y-110558000D01*
%TO.N,Net-(D19-A)*%
X168653155Y-139814695D02*
X164927073Y-143540777D01*
X168653155Y-135835345D02*
X168653155Y-139814695D01*
%TO.N,ROW3*%
X134000000Y-130000000D02*
X133934314Y-130000000D01*
X71000000Y-127000000D02*
X85100000Y-127000000D01*
X103050000Y-124050000D02*
X107050000Y-120050000D01*
X71000000Y-135550000D02*
X71000000Y-127000000D01*
X140862750Y-136862750D02*
X134000000Y-130000000D01*
X86000000Y-124000000D02*
X86050000Y-124050000D01*
X145228240Y-138514222D02*
X140862750Y-138514222D01*
X123967157Y-120032843D02*
X123950000Y-120050000D01*
X123950000Y-120050000D02*
X107050000Y-120050000D01*
X133934314Y-130000000D02*
X123967157Y-120032843D01*
X85100000Y-127000000D02*
X88050000Y-124050000D01*
X157127926Y-138514222D02*
X145228240Y-138514222D01*
X68550000Y-138000000D02*
X71000000Y-135550000D01*
X140862750Y-138514222D02*
X140862750Y-136862750D01*
X164072927Y-145459223D02*
X157127926Y-138514222D01*
X86050000Y-124050000D02*
X88050000Y-124050000D01*
X88050000Y-124050000D02*
X103050000Y-124050000D01*
%TO.N,Net-(D20-A)*%
X148207739Y-127705118D02*
X148207739Y-134049799D01*
X148207739Y-134049799D02*
X145771760Y-136485778D01*
%TO.N,Net-(D21-A)*%
X107530000Y-117470000D02*
X107050000Y-117950000D01*
X106992000Y-109070000D02*
X107530000Y-109608000D01*
X107530000Y-109608000D02*
X107530000Y-117470000D01*
%TO.N,Net-(D22-A)*%
X88480000Y-113608000D02*
X88480000Y-121520000D01*
X88480000Y-121520000D02*
X88050000Y-121950000D01*
X87942000Y-113070000D02*
X88480000Y-113608000D01*
%TO.N,Net-(PowerSW1-B)*%
X121500000Y-45000000D02*
X125000000Y-48500000D01*
X42410000Y-45000000D02*
X121500000Y-45000000D01*
X41030000Y-46380000D02*
X42410000Y-45000000D01*
%TO.N,COL5*%
X36915000Y-74460000D02*
X36915000Y-93510000D01*
X54398319Y-70101681D02*
X47101681Y-70101681D01*
X55000000Y-69500000D02*
X54398319Y-70101681D01*
X68970000Y-61620000D02*
X61090000Y-69500000D01*
X61090000Y-69500000D02*
X55000000Y-69500000D01*
X47101681Y-70101681D02*
X46500000Y-69500000D01*
X46500000Y-69500000D02*
X41875000Y-69500000D01*
X41875000Y-69500000D02*
X36915000Y-74460000D01*
X36915000Y-93510000D02*
X36915000Y-112560000D01*
%TO.N,COL4*%
X66430000Y-61620000D02*
X67606300Y-60443700D01*
X55965000Y-119965000D02*
X56000000Y-120000000D01*
X55965000Y-72460000D02*
X55965000Y-81965000D01*
X55965000Y-81965000D02*
X56000000Y-82000000D01*
X59550000Y-68500000D02*
X56000000Y-68500000D01*
X55965000Y-110560000D02*
X55965000Y-119965000D01*
X55965000Y-122535000D02*
X55965000Y-129610000D01*
X56000000Y-72425000D02*
X55965000Y-72460000D01*
X55965000Y-84035000D02*
X55965000Y-91510000D01*
X55965000Y-91510000D02*
X55965000Y-100465000D01*
X67606300Y-60443700D02*
X59550000Y-68500000D01*
X56000000Y-84000000D02*
X55965000Y-84035000D01*
X56000000Y-103000000D02*
X55965000Y-103035000D01*
X56000000Y-70500000D02*
X56000000Y-72425000D01*
X56000000Y-122500000D02*
X55965000Y-122535000D01*
X55965000Y-100465000D02*
X56000000Y-100500000D01*
X55965000Y-103035000D02*
X55965000Y-110560000D01*
%TO.N,COL3*%
X75000000Y-115595000D02*
X75015000Y-115610000D01*
X63890000Y-61620000D02*
X67050000Y-58460000D01*
X75015000Y-92485000D02*
X75000000Y-92500000D01*
X75000000Y-113500000D02*
X75000000Y-115595000D01*
X67050000Y-58460000D02*
X75015000Y-58460000D01*
X75000000Y-75500000D02*
X75015000Y-75515000D01*
X75000000Y-96545000D02*
X75015000Y-96560000D01*
X75015000Y-111485000D02*
X75000000Y-111500000D01*
X75015000Y-58460000D02*
X75015000Y-72985000D01*
X75015000Y-75515000D02*
X75015000Y-77510000D01*
X75000000Y-94500000D02*
X75000000Y-96545000D01*
X75015000Y-72985000D02*
X75000000Y-73000000D01*
X75015000Y-96560000D02*
X75015000Y-111485000D01*
X75015000Y-77510000D02*
X75015000Y-92485000D01*
%TO.N,COL2*%
X61350000Y-60650000D02*
X62000000Y-60000000D01*
X94065000Y-83065000D02*
X94065000Y-92560000D01*
X94065000Y-99935000D02*
X94000000Y-100000000D01*
X94065000Y-65065000D02*
X94065000Y-73510000D01*
X94000000Y-65000000D02*
X94065000Y-65065000D01*
X94000000Y-64000000D02*
X94000000Y-65000000D01*
X94601681Y-102601681D02*
X94601681Y-111073319D01*
X93675000Y-54070000D02*
X94065000Y-54460000D01*
X94065000Y-54460000D02*
X94065000Y-61935000D01*
X68500000Y-57500000D02*
X71930000Y-54070000D01*
X94065000Y-92560000D02*
X94065000Y-99935000D01*
X61350000Y-61620000D02*
X61350000Y-60650000D01*
X94065000Y-73510000D02*
X94065000Y-80935000D01*
X94000000Y-83000000D02*
X94065000Y-83065000D01*
X71930000Y-54070000D02*
X93675000Y-54070000D01*
X94601681Y-111073319D02*
X94065000Y-111610000D01*
X94065000Y-80935000D02*
X94000000Y-81000000D01*
X94000000Y-102000000D02*
X94601681Y-102601681D01*
X94065000Y-61935000D02*
X94000000Y-62000000D01*
%TO.N,COL1*%
X113115000Y-86885000D02*
X113000000Y-87000000D01*
X91790627Y-53609373D02*
X95400000Y-50000000D01*
X67283700Y-57716300D02*
X71390627Y-53609373D01*
X113000000Y-71500000D02*
X113115000Y-71615000D01*
X58810000Y-61620000D02*
X62713700Y-57716300D01*
X113000000Y-108500000D02*
X131312815Y-126812815D01*
X113115000Y-90115000D02*
X113115000Y-102560000D01*
X95400000Y-50000000D02*
X108197000Y-50000000D01*
X113115000Y-105885000D02*
X113000000Y-106000000D01*
X113115000Y-83510000D02*
X113115000Y-86885000D01*
X131312815Y-126812815D02*
X135063816Y-126812815D01*
X71390627Y-53609373D02*
X91790627Y-53609373D01*
X113115000Y-64460000D02*
X113115000Y-67885000D01*
X113115000Y-102560000D02*
X113115000Y-105885000D01*
X113000000Y-90000000D02*
X113115000Y-90115000D01*
X113115000Y-67885000D02*
X113000000Y-68000000D01*
X108197000Y-50000000D02*
X113115000Y-54918000D01*
X113115000Y-71615000D02*
X113115000Y-83510000D01*
X62713700Y-57716300D02*
X67283700Y-57716300D01*
X113000000Y-70500000D02*
X113000000Y-71500000D01*
X113115000Y-54918000D02*
X113115000Y-64460000D01*
%TO.N,COL0*%
X125382468Y-56397548D02*
X130587372Y-56397548D01*
X132000000Y-76000000D02*
X132165000Y-76165000D01*
X132165000Y-109835000D02*
X132000000Y-110000000D01*
X118584920Y-49600000D02*
X125382468Y-56397548D01*
X132165000Y-91165000D02*
X132000000Y-91000000D01*
X132000000Y-112000000D02*
X136895922Y-112000000D01*
X95234314Y-49600000D02*
X118584920Y-49600000D01*
X132165000Y-91700000D02*
X132165000Y-91165000D01*
X132165000Y-94165000D02*
X132165000Y-104560000D01*
X91917157Y-52917157D02*
X95234314Y-49600000D01*
X67000000Y-57000000D02*
X71082843Y-52917157D01*
X130587372Y-56397548D02*
X132165000Y-57975176D01*
X56270000Y-61620000D02*
X60390000Y-57500000D01*
X132165000Y-76165000D02*
X132165000Y-85510000D01*
X151450526Y-128537749D02*
X155810642Y-132897865D01*
X132165000Y-85510000D02*
X132165000Y-91700000D01*
X132000000Y-93000000D02*
X132000000Y-94000000D01*
X132165000Y-57975176D02*
X132165000Y-66460000D01*
X132000000Y-94000000D02*
X132165000Y-94165000D01*
X71082843Y-52917157D02*
X91917157Y-52917157D01*
X132165000Y-71835000D02*
X132000000Y-72000000D01*
X132000000Y-74000000D02*
X132000000Y-76000000D01*
X132165000Y-66460000D02*
X132165000Y-71835000D01*
X136895922Y-112000000D02*
X151450526Y-126554604D01*
X132165000Y-104560000D02*
X132165000Y-109835000D01*
X60390000Y-57500000D02*
X61500000Y-57500000D01*
X151450526Y-126554604D02*
X151450526Y-128537749D01*
%TO.N,rCOL5*%
X317630000Y-90432000D02*
X317092000Y-90970000D01*
X317092000Y-71920000D02*
X317630000Y-72458000D01*
X310569548Y-65397548D02*
X317092000Y-71920000D01*
X286030000Y-46380000D02*
X281000000Y-51410000D01*
X281602452Y-65397548D02*
X310569548Y-65397548D01*
X281000000Y-66000000D02*
X281602452Y-65397548D01*
X317092000Y-90970000D02*
X317630000Y-91508000D01*
X281000000Y-51410000D02*
X281000000Y-66000000D01*
X317630000Y-72458000D02*
X317630000Y-90432000D01*
X317630000Y-109482000D02*
X317092000Y-110020000D01*
X317630000Y-91508000D02*
X317630000Y-109482000D01*
%TO.N,REB*%
X51190000Y-61620000D02*
X57059265Y-55750735D01*
X73436766Y-46997548D02*
X117568138Y-46997548D01*
X66000000Y-54000000D02*
X66434314Y-54000000D01*
X57059265Y-55750735D02*
X58750735Y-55750735D01*
X117568138Y-46997548D02*
X126168138Y-55597548D01*
X126168138Y-55597548D02*
X142597548Y-55597548D01*
X66434314Y-54000000D02*
X73436766Y-46997548D01*
X148000000Y-104000000D02*
X161400000Y-104000000D01*
X148000000Y-61000000D02*
X148000000Y-104000000D01*
X142597548Y-55597548D02*
X148000000Y-61000000D01*
X161400000Y-104000000D02*
X163500000Y-106100000D01*
%TO.N,KEYEX1*%
X67000000Y-52000000D02*
X72802452Y-46197548D01*
X50650000Y-52000000D02*
X67000000Y-52000000D01*
X72802452Y-46197548D02*
X118197548Y-46197548D01*
X147917157Y-59785786D02*
X148200000Y-59785786D01*
X126000000Y-54000000D02*
X142131371Y-54000000D01*
X142131371Y-54000000D02*
X147917157Y-59785786D01*
X150600000Y-91600000D02*
X158500000Y-91600000D01*
X118197548Y-46197548D02*
X126000000Y-54000000D01*
X150000000Y-91000000D02*
X150600000Y-91600000D01*
X41030000Y-61620000D02*
X50650000Y-52000000D01*
%TO.N,RE0A*%
X117402452Y-47397548D02*
X126000000Y-55995096D01*
X53730000Y-61620000D02*
X59986300Y-55363700D01*
X126000000Y-55997548D02*
X141997548Y-55997548D01*
X65636300Y-55363700D02*
X73602452Y-47397548D01*
X147000000Y-106000000D02*
X148000000Y-106000000D01*
X73602452Y-47397548D02*
X117402452Y-47397548D01*
X141997548Y-55997548D02*
X147000000Y-61000000D01*
X59986300Y-55363700D02*
X65636300Y-55363700D01*
X148000000Y-106000000D02*
X148100000Y-106100000D01*
X148100000Y-106100000D02*
X158500000Y-106100000D01*
X147000000Y-61000000D02*
X147000000Y-106000000D01*
X126000000Y-55995096D02*
X126000000Y-55997548D01*
%TO.N,DATA*%
X168750000Y-109511522D02*
X168750000Y-120150000D01*
X117733824Y-46597548D02*
X126068138Y-54931862D01*
X149000000Y-103000000D02*
X162238478Y-103000000D01*
X73271080Y-46597548D02*
X117733824Y-46597548D01*
X162238478Y-103000000D02*
X168750000Y-109511522D01*
X66823700Y-52823700D02*
X66934314Y-52934314D01*
X148400000Y-60834314D02*
X148400000Y-102400000D01*
X142497548Y-54931862D02*
X148400000Y-60834314D01*
X126068138Y-54931862D02*
X142497548Y-54931862D01*
X66934314Y-52934314D02*
X73271080Y-46597548D01*
X43570000Y-61620000D02*
X52366300Y-52823700D01*
X52366300Y-52823700D02*
X66823700Y-52823700D01*
X148400000Y-102400000D02*
X149000000Y-103000000D01*
%TO.N,rKEYEX1*%
X207100000Y-52000000D02*
X207100000Y-89900000D01*
X207100000Y-89900000D02*
X207000000Y-90000000D01*
X311000000Y-43100000D02*
X216000000Y-43100000D01*
X311000000Y-43410000D02*
X311000000Y-43100000D01*
X313970000Y-46380000D02*
X311000000Y-43410000D01*
X216000000Y-43100000D02*
X207100000Y-52000000D01*
X192100000Y-90000000D02*
X190500000Y-91600000D01*
X207000000Y-90000000D02*
X192100000Y-90000000D01*
%TO.N,rRE0A*%
X194000000Y-101000000D02*
X192000000Y-101000000D01*
%TO.N,rVCC*%
X281000000Y-111000000D02*
X276000000Y-111000000D01*
X273000000Y-108000000D02*
X272000000Y-108000000D01*
X276000000Y-111000000D02*
X273000000Y-108000000D01*
%TO.N,Net-(rD21-A)*%
X285115000Y-129610000D02*
X285115000Y-134315000D01*
X285115000Y-134315000D02*
X286700000Y-135900000D01*
%TO.N,rDATA*%
X228000000Y-56795096D02*
X228000000Y-58000000D01*
X311430000Y-46380000D02*
X311430000Y-44430000D01*
X241191396Y-43603700D02*
X228000000Y-56795096D01*
X203000000Y-110000000D02*
X192650000Y-110000000D01*
X311000000Y-44000000D02*
X310603700Y-43603700D01*
X310603700Y-43603700D02*
X241191396Y-43603700D01*
X192650000Y-110000000D02*
X186750000Y-115900000D01*
X311430000Y-44430000D02*
X311000000Y-44000000D01*
X203000000Y-100000000D02*
X203000000Y-110000000D01*
%TO.N,Net-(D23-A)*%
X69430000Y-135020000D02*
X68550000Y-135900000D01*
X68892000Y-127070000D02*
X69430000Y-127608000D01*
X69430000Y-127608000D02*
X69430000Y-135020000D01*
%TD*%
M02*
