M48
; DRILL file {KiCad 8.0.3} date 2025-01-04T16:23:11+0900
; FORMAT={-:-/ absolute / metric / decimal}
; #@! TF.CreationDate,2025-01-04T16:23:11+09:00
; #@! TF.GenerationSoftware,Kicad,Pcbnew,8.0.3
; #@! TF.FileFunction,NonPlated,1,2,NPTH
FMAT,2
METRIC
; #@! TA.AperFunction,NonPlated,NPTH,ComponentDrill
T1C0.500
; #@! TA.AperFunction,NonPlated,NPTH,ComponentDrill
T2C1.200
; #@! TA.AperFunction,NonPlated,NPTH,ComponentDrill
T3C1.500
; #@! TA.AperFunction,NonPlated,NPTH,ComponentDrill
T4C1.900
; #@! TA.AperFunction,NonPlated,NPTH,ComponentDrill
T5C3.000
; #@! TA.AperFunction,NonPlated,NPTH,ComponentDrill
T6C4.100
%
G90
G05
T1
X141.0Y-42.5
X142.0Y-42.5
X143.0Y-42.5
X144.0Y-42.5
X145.0Y-42.5
X210.0Y-42.5
X211.0Y-42.5
X212.0Y-42.5
X213.0Y-42.5
X214.0Y-42.5
T2
X163.55Y-118.0
X170.55Y-118.0
X184.95Y-118.05
X191.95Y-118.05
T4
X38.92Y-77.0
X38.92Y-96.05
X38.92Y-115.1
X49.08Y-77.0
X49.08Y-96.05
X49.08Y-115.1
X57.97Y-75.0
X57.97Y-94.05
X57.97Y-113.1
X57.97Y-132.15
X68.13Y-75.0
X68.13Y-94.05
X68.13Y-113.1
X68.13Y-132.15
X77.02Y-61.0
X77.02Y-80.05
X77.02Y-99.1
X77.02Y-118.15
X87.18Y-61.0
X87.18Y-80.05
X87.18Y-99.1
X87.18Y-118.15
X96.07Y-57.0
X96.07Y-76.05
X96.07Y-95.1
X96.07Y-114.15
X106.23Y-57.0
X106.23Y-76.05
X106.23Y-95.1
X106.23Y-114.15
X115.12Y-67.0
X115.12Y-86.05
X115.12Y-105.1
X125.28Y-67.0
X125.28Y-86.05
X125.28Y-105.1
X134.17Y-69.0
X134.17Y-88.05
X134.17Y-107.1
X136.343Y-129.785
X144.33Y-69.0
X144.33Y-88.05
X144.33Y-107.1
X146.157Y-132.415
X156.609Y-136.034
X165.891Y-140.166
X189.359Y-140.166
X198.641Y-136.034
X209.093Y-132.415
X210.92Y-69.0
X210.92Y-88.05
X210.92Y-107.1
X218.907Y-129.785
X221.08Y-69.0
X221.08Y-88.05
X221.08Y-107.1
X229.97Y-67.0
X229.97Y-86.05
X229.97Y-105.1
X240.13Y-67.0
X240.13Y-86.05
X240.13Y-105.1
X249.02Y-57.0
X249.02Y-76.05
X249.02Y-95.1
X259.18Y-57.0
X259.18Y-76.05
X259.18Y-95.1
X268.07Y-61.0
X268.07Y-80.05
X268.07Y-99.1
X278.23Y-61.0
X278.23Y-80.05
X278.23Y-99.1
X287.12Y-75.0
X287.12Y-94.05
X287.12Y-113.1
X287.12Y-132.15
X297.28Y-75.0
X297.28Y-94.05
X297.28Y-113.1
X297.28Y-132.15
X306.17Y-77.0
X306.17Y-96.05
X306.17Y-115.1
X316.33Y-77.0
X316.33Y-96.05
X316.33Y-115.1
T5
X40.19Y-74.46
X40.19Y-93.51
X40.19Y-112.56
X46.54Y-71.92
X46.54Y-90.97
X46.54Y-110.02
X59.24Y-72.46
X59.24Y-91.51
X59.24Y-110.56
X59.24Y-129.61
X65.59Y-69.92
X65.59Y-88.97
X65.59Y-108.02
X65.59Y-127.07
X78.29Y-58.46
X78.29Y-77.51
X78.29Y-96.56
X78.29Y-115.61
X84.64Y-55.92
X84.64Y-74.97
X84.64Y-94.02
X84.64Y-113.07
X97.34Y-54.46
X97.34Y-73.51
X97.34Y-92.56
X97.34Y-111.61
X103.69Y-51.92
X103.69Y-70.97
X103.69Y-90.02
X103.69Y-109.07
X116.39Y-64.46
X116.39Y-83.51
X116.39Y-102.56
X122.74Y-61.92
X122.74Y-80.97
X122.74Y-100.02
X135.44Y-66.46
X135.44Y-85.51
X135.44Y-104.56
X138.227Y-127.66
X141.79Y-63.92
X141.79Y-82.97
X141.79Y-102.02
X145.018Y-126.85
X158.803Y-134.23
X165.637Y-134.492
X189.486Y-137.329
X194.254Y-132.426
X209.662Y-129.633
X212.19Y-66.46
X212.19Y-85.51
X212.19Y-104.56
X215.139Y-125.536
X218.54Y-63.92
X218.54Y-82.97
X218.54Y-102.02
X231.24Y-64.46
X231.24Y-83.51
X231.24Y-102.56
X237.59Y-61.92
X237.59Y-80.97
X237.59Y-100.02
X250.29Y-54.46
X250.29Y-73.51
X250.29Y-92.56
X256.64Y-51.92
X256.64Y-70.97
X256.64Y-90.02
X269.34Y-58.46
X269.34Y-77.51
X269.34Y-96.56
X275.69Y-55.92
X275.69Y-74.97
X275.69Y-94.02
X288.39Y-72.46
X288.39Y-91.51
X288.39Y-110.56
X288.39Y-129.61
X294.74Y-69.92
X294.74Y-88.97
X294.74Y-108.02
X294.74Y-127.07
X307.44Y-74.46
X307.44Y-93.51
X307.44Y-112.56
X313.79Y-71.92
X313.79Y-90.97
X313.79Y-110.02
T6
X44.0Y-77.0
X44.0Y-96.05
X44.0Y-115.1
X63.05Y-75.0
X63.05Y-94.05
X63.05Y-113.1
X63.05Y-132.15
X82.1Y-61.0
X82.1Y-80.05
X82.1Y-99.1
X82.1Y-118.15
X101.15Y-57.0
X101.15Y-76.05
X101.15Y-95.1
X101.15Y-114.15
X120.2Y-67.0
X120.2Y-86.05
X120.2Y-105.1
X139.25Y-69.0
X139.25Y-88.05
X139.25Y-107.1
X141.25Y-131.1
X161.25Y-138.1
X194.0Y-138.1
X214.0Y-131.1
X216.0Y-69.0
X216.0Y-88.05
X216.0Y-107.1
X235.05Y-67.0
X235.05Y-86.05
X235.05Y-105.1
X254.1Y-57.0
X254.1Y-76.05
X254.1Y-95.1
X273.15Y-61.0
X273.15Y-80.05
X273.15Y-99.1
X292.2Y-75.0
X292.2Y-94.05
X292.2Y-113.1
X292.2Y-132.15
X311.25Y-77.0
X311.25Y-96.05
X311.25Y-115.1
T3
G00X155.4Y-99.25
M15
G01X155.4Y-97.95
M16
G05
G00X166.6Y-99.25
M15
G01X166.6Y-97.95
M16
G05
G00X187.4Y-99.25
M15
G01X187.4Y-97.95
M16
G05
G00X198.6Y-99.25
M15
G01X198.6Y-97.95
M16
G05
M30
