%TF.GenerationSoftware,KiCad,Pcbnew,8.0.3*%
%TF.CreationDate,2024-12-15T23:05:39+09:00*%
%TF.ProjectId,manjaro_mx,6d616e6a-6172-46f5-9f6d-782e6b696361,rev?*%
%TF.SameCoordinates,Original*%
%TF.FileFunction,Profile,NP*%
%FSLAX46Y46*%
G04 Gerber Fmt 4.6, Leading zero omitted, Abs format (unit mm)*
G04 Created by KiCad (PCBNEW 8.0.3) date 2024-12-15 23:05:39*
%MOMM*%
%LPD*%
G01*
G04 APERTURE LIST*
%TA.AperFunction,Profile*%
%ADD10C,0.050000*%
%TD*%
G04 APERTURE END LIST*
D10*
X231000000Y-114000000D02*
X231000000Y-136000000D01*
X194500000Y-149000000D02*
X187500000Y-132000000D01*
X247500000Y-52000000D02*
X247500000Y-48000000D01*
X61750000Y-80000000D02*
G75*
G02*
X57750000Y-80000000I-2000000J0D01*
G01*
X57750000Y-80000000D02*
G75*
G02*
X61750000Y-80000000I2000000J0D01*
G01*
X119750000Y-52000000D02*
X119750000Y-48000000D01*
X288000000Y-122000000D02*
X288000000Y-139000000D01*
X119750000Y-52000000D02*
X179750000Y-52000000D01*
X309250000Y-80000000D02*
G75*
G02*
X305250000Y-80000000I-2000000J0D01*
G01*
X305250000Y-80000000D02*
G75*
G02*
X309250000Y-80000000I2000000J0D01*
G01*
X40750000Y-122000000D02*
X40750000Y-63000000D01*
X233250000Y-69000000D02*
G75*
G02*
X229250000Y-69000000I-2000000J0D01*
G01*
X229250000Y-69000000D02*
G75*
G02*
X233250000Y-69000000I2000000J0D01*
G01*
X179750000Y-52000000D02*
X179750000Y-132000000D01*
X288500000Y-63000000D02*
X326500000Y-63000000D01*
X233250000Y-92000000D02*
G75*
G02*
X229250000Y-92000000I-2000000J0D01*
G01*
X229250000Y-92000000D02*
G75*
G02*
X233250000Y-92000000I2000000J0D01*
G01*
X119750000Y-48000000D02*
X78750000Y-48000000D01*
X178000000Y-112000000D02*
G75*
G02*
X174000000Y-112000000I-2000000J0D01*
G01*
X174000000Y-112000000D02*
G75*
G02*
X178000000Y-112000000I2000000J0D01*
G01*
X326500000Y-63000000D02*
X326500000Y-122000000D01*
X212500000Y-138000000D02*
G75*
G02*
X208500000Y-138000000I-2000000J0D01*
G01*
X208500000Y-138000000D02*
G75*
G02*
X212500000Y-138000000I2000000J0D01*
G01*
X40750000Y-63000000D02*
X78750000Y-63000000D01*
X288500000Y-48000000D02*
X288500000Y-63000000D01*
X187500000Y-132000000D02*
X187500000Y-52000000D01*
X141750000Y-119000000D02*
G75*
G02*
X137750000Y-119000000I-2000000J0D01*
G01*
X137750000Y-119000000D02*
G75*
G02*
X141750000Y-119000000I2000000J0D01*
G01*
X309250000Y-103000000D02*
G75*
G02*
X305250000Y-103000000I-2000000J0D01*
G01*
X305250000Y-103000000D02*
G75*
G02*
X309250000Y-103000000I2000000J0D01*
G01*
X137750000Y-92000000D02*
G75*
G02*
X133750000Y-92000000I-2000000J0D01*
G01*
X133750000Y-92000000D02*
G75*
G02*
X137750000Y-92000000I2000000J0D01*
G01*
X193500000Y-60500000D02*
X199500000Y-60500000D01*
X199500000Y-66000000D01*
X193500000Y-66000000D01*
X193500000Y-60500000D01*
X95350000Y-110000000D02*
G75*
G02*
X91350000Y-110000000I-2000000J0D01*
G01*
X91350000Y-110000000D02*
G75*
G02*
X95350000Y-110000000I2000000J0D01*
G01*
X137750000Y-69000000D02*
G75*
G02*
X133750000Y-69000000I-2000000J0D01*
G01*
X133750000Y-69000000D02*
G75*
G02*
X137750000Y-69000000I2000000J0D01*
G01*
X326500000Y-122000000D02*
X288000000Y-122000000D01*
X187500000Y-52000000D02*
X247500000Y-52000000D01*
X279000000Y-139000000D02*
X279000000Y-114000000D01*
X61750000Y-103000000D02*
G75*
G02*
X57750000Y-103000000I-2000000J0D01*
G01*
X57750000Y-103000000D02*
G75*
G02*
X61750000Y-103000000I2000000J0D01*
G01*
X80750000Y-122000000D02*
X96750000Y-136000000D01*
X275650000Y-110000000D02*
G75*
G02*
X271650000Y-110000000I-2000000J0D01*
G01*
X271650000Y-110000000D02*
G75*
G02*
X275650000Y-110000000I2000000J0D01*
G01*
X40750000Y-122000000D02*
X80750000Y-122000000D01*
X279000000Y-114000000D02*
X231000000Y-114000000D01*
X78750000Y-48000000D02*
X78750000Y-63000000D01*
X135750000Y-136000000D02*
X172750000Y-149000000D01*
X209500000Y-81000000D02*
G75*
G02*
X205500000Y-81000000I-2000000J0D01*
G01*
X205500000Y-81000000D02*
G75*
G02*
X209500000Y-81000000I2000000J0D01*
G01*
X96750000Y-136000000D02*
X135750000Y-136000000D01*
X172750000Y-149000000D02*
X179750000Y-132000000D01*
X231000000Y-136000000D02*
X194500000Y-149000000D01*
X247500000Y-48000000D02*
X288500000Y-48000000D01*
X158250000Y-138000000D02*
G75*
G02*
X154250000Y-138000000I-2000000J0D01*
G01*
X154250000Y-138000000D02*
G75*
G02*
X158250000Y-138000000I2000000J0D01*
G01*
X288000000Y-139000000D02*
X279000000Y-139000000D01*
X161000000Y-60500000D02*
X167000000Y-60500000D01*
X167000000Y-66000000D01*
X161000000Y-66000000D01*
X161000000Y-60500000D01*
X193000000Y-112000000D02*
G75*
G02*
X189000000Y-112000000I-2000000J0D01*
G01*
X189000000Y-112000000D02*
G75*
G02*
X193000000Y-112000000I2000000J0D01*
G01*
X229250000Y-119000000D02*
G75*
G02*
X225250000Y-119000000I-2000000J0D01*
G01*
X225250000Y-119000000D02*
G75*
G02*
X229250000Y-119000000I2000000J0D01*
G01*
X161500000Y-81000000D02*
G75*
G02*
X157500000Y-81000000I-2000000J0D01*
G01*
X157500000Y-81000000D02*
G75*
G02*
X161500000Y-81000000I2000000J0D01*
G01*
M02*
