%TF.GenerationSoftware,KiCad,Pcbnew,8.0.3*%
%TF.CreationDate,2024-12-16T00:17:53+09:00*%
%TF.ProjectId,manjaro_mx,6d616e6a-6172-46f5-9f6d-782e6b696361,rev?*%
%TF.SameCoordinates,Original*%
%TF.FileFunction,Soldermask,Bot*%
%TF.FilePolarity,Negative*%
%FSLAX46Y46*%
G04 Gerber Fmt 4.6, Leading zero omitted, Abs format (unit mm)*
G04 Created by KiCad (PCBNEW 8.0.3) date 2024-12-16 00:17:53*
%MOMM*%
%LPD*%
G01*
G04 APERTURE LIST*
G04 Aperture macros list*
%AMRoundRect*
0 Rectangle with rounded corners*
0 $1 Rounding radius*
0 $2 $3 $4 $5 $6 $7 $8 $9 X,Y pos of 4 corners*
0 Add a 4 corners polygon primitive as box body*
4,1,4,$2,$3,$4,$5,$6,$7,$8,$9,$2,$3,0*
0 Add four circle primitives for the rounded corners*
1,1,$1+$1,$2,$3*
1,1,$1+$1,$4,$5*
1,1,$1+$1,$6,$7*
1,1,$1+$1,$8,$9*
0 Add four rect primitives between the rounded corners*
20,1,$1+$1,$2,$3,$4,$5,0*
20,1,$1+$1,$4,$5,$6,$7,0*
20,1,$1+$1,$6,$7,$8,$9,0*
20,1,$1+$1,$8,$9,$2,$3,0*%
%AMRotRect*
0 Rectangle, with rotation*
0 The origin of the aperture is its center*
0 $1 length*
0 $2 width*
0 $3 Rotation angle, in degrees counterclockwise*
0 Add horizontal line*
21,1,$1,$2,0,0,$3*%
G04 Aperture macros list end*
%ADD10C,1.900000*%
%ADD11C,3.000000*%
%ADD12C,4.100000*%
%ADD13RotRect,2.550000X2.500000X15.000000*%
%ADD14O,2.300000X1.500000*%
%ADD15C,1.200000*%
%ADD16RoundRect,0.250000X-0.350000X-0.625000X0.350000X-0.625000X0.350000X0.625000X-0.350000X0.625000X0*%
%ADD17O,1.200000X1.750000*%
%ADD18R,1.700000X1.700000*%
%ADD19O,1.700000X1.700000*%
%ADD20C,1.524000*%
%ADD21RoundRect,0.150000X-0.150000X-0.200000X0.150000X-0.200000X0.150000X0.200000X-0.150000X0.200000X0*%
%ADD22R,1.500000X1.500000*%
%ADD23C,1.600000*%
%ADD24R,2.550000X2.500000*%
%ADD25RoundRect,0.150000X-0.056195X-0.243602X0.218124X-0.122156X0.056195X0.243602X-0.218124X0.122156X0*%
%ADD26RoundRect,0.150000X-0.196653X-0.154362X0.093125X-0.232008X0.196653X0.154362X-0.093125X0.232008X0*%
%ADD27RoundRect,0.150000X-0.218124X-0.122156X0.056195X-0.243602X0.218124X0.122156X-0.056195X0.243602X0*%
%ADD28RotRect,2.550000X2.500000X24.001000*%
%ADD29RoundRect,0.150000X-0.093125X-0.232008X0.196653X-0.154362X0.093125X0.232008X-0.196653X0.154362X0*%
%ADD30RotRect,2.550000X2.500000X345.000000*%
%ADD31RotRect,2.550000X2.500000X336.000000*%
G04 APERTURE END LIST*
D10*
%TO.C,rSW17*%
X224456903Y-128285199D03*
D11*
X220688651Y-124035696D03*
D12*
X219550000Y-129600000D03*
D11*
X215212422Y-128132649D03*
D10*
X214643097Y-130914801D03*
D13*
X212049015Y-128980281D03*
X223878138Y-123181076D03*
%TD*%
D14*
%TO.C,J1*%
X166250000Y-100800000D03*
X167750000Y-105100000D03*
X171750000Y-105100000D03*
X174750000Y-105100000D03*
D15*
X169550000Y-102950000D03*
X176550000Y-102950000D03*
%TD*%
D16*
%TO.C,BT1*%
X165000000Y-80000000D03*
D17*
X167000000Y-80000000D03*
%TD*%
D18*
%TO.C,rJ3*%
X281150000Y-123475000D03*
D19*
X281150000Y-126015000D03*
X281150000Y-128555000D03*
X281150000Y-131095000D03*
X281150000Y-133635000D03*
X281150000Y-136175000D03*
%TD*%
D20*
%TO.C,rU1*%
X192230000Y-56880000D03*
X192230000Y-59420000D03*
X192230000Y-61960000D03*
X192230000Y-64500000D03*
X192230000Y-67040000D03*
X192230000Y-69580000D03*
X192230000Y-72120000D03*
X207470000Y-72120000D03*
X207470000Y-69580000D03*
X207470000Y-67040000D03*
X207470000Y-64500000D03*
X207470000Y-61960000D03*
X207470000Y-59420000D03*
X207470000Y-56880000D03*
%TD*%
%TO.C,U1*%
X159630000Y-56880000D03*
X159630000Y-59420000D03*
X159630000Y-61960000D03*
X159630000Y-64500000D03*
X159630000Y-67040000D03*
X159630000Y-69580000D03*
X159630000Y-72120000D03*
X174870000Y-72120000D03*
X174870000Y-69580000D03*
X174870000Y-67040000D03*
X174870000Y-64500000D03*
X174870000Y-61960000D03*
X174870000Y-59420000D03*
X174870000Y-56880000D03*
%TD*%
D16*
%TO.C,rBT1*%
X199750000Y-80000000D03*
D17*
X201750000Y-80000000D03*
%TD*%
D21*
%TO.C,D7*%
X145950000Y-95450000D03*
X144550000Y-95450000D03*
%TD*%
D22*
%TO.C,PowerSW1*%
X173250000Y-82500000D03*
D23*
X173250000Y-79960000D03*
X173250000Y-85040000D03*
%TD*%
D10*
%TO.C,rSW13*%
X264680000Y-95600000D03*
D11*
X262140000Y-90520000D03*
D12*
X259600000Y-95600000D03*
D11*
X255790000Y-93060000D03*
D10*
X254520000Y-95600000D03*
D24*
X252515000Y-93060000D03*
X265442000Y-90520000D03*
%TD*%
D21*
%TO.C,D9*%
X107950000Y-85450000D03*
X106550000Y-85450000D03*
%TD*%
D10*
%TO.C,rSW2*%
X245630000Y-66500000D03*
D11*
X243090000Y-61420000D03*
D12*
X240550000Y-66500000D03*
D11*
X236740000Y-63960000D03*
D10*
X235470000Y-66500000D03*
D24*
X233465000Y-63960000D03*
X246392000Y-61420000D03*
%TD*%
D10*
%TO.C,rSW5*%
X302780000Y-74500000D03*
D11*
X300240000Y-69420000D03*
D12*
X297700000Y-74500000D03*
D11*
X293890000Y-71960000D03*
D10*
X292620000Y-74500000D03*
D24*
X290615000Y-71960000D03*
X303542000Y-69420000D03*
%TD*%
D21*
%TO.C,D16*%
X88950000Y-108450000D03*
X87550000Y-108450000D03*
%TD*%
D10*
%TO.C,rSW14*%
X283730000Y-99600000D03*
D11*
X281190000Y-94520000D03*
D12*
X278650000Y-99600000D03*
D11*
X274840000Y-97060000D03*
D10*
X273570000Y-99600000D03*
D24*
X271565000Y-97060000D03*
X284492000Y-94520000D03*
%TD*%
D21*
%TO.C,rD1*%
X222350000Y-76400000D03*
X220950000Y-76400000D03*
%TD*%
D10*
%TO.C,rSW15*%
X302780000Y-112600000D03*
D11*
X300240000Y-107520000D03*
D12*
X297700000Y-112600000D03*
D11*
X293890000Y-110060000D03*
D10*
X292620000Y-112600000D03*
D24*
X290615000Y-110060000D03*
X303542000Y-107520000D03*
%TD*%
D21*
%TO.C,rD3*%
X260550000Y-66400000D03*
X259150000Y-66400000D03*
%TD*%
%TO.C,rD15*%
X298550000Y-120000000D03*
X297150000Y-120000000D03*
%TD*%
%TO.C,rD13*%
X260550000Y-104500000D03*
X259150000Y-104500000D03*
%TD*%
D10*
%TO.C,rSW8*%
X264680000Y-76550000D03*
D11*
X262140000Y-71470000D03*
D12*
X259600000Y-76550000D03*
D11*
X255790000Y-74010000D03*
D10*
X254520000Y-76550000D03*
D24*
X252515000Y-74010000D03*
X265442000Y-71470000D03*
%TD*%
D21*
%TO.C,D15*%
X107950000Y-104500000D03*
X106550000Y-104500000D03*
%TD*%
D10*
%TO.C,SW15*%
X112480000Y-95600000D03*
D11*
X109940000Y-90520000D03*
D12*
X107400000Y-95600000D03*
D11*
X103590000Y-93060000D03*
D10*
X102320000Y-95600000D03*
D24*
X100315000Y-93060000D03*
X113242000Y-90520000D03*
%TD*%
D10*
%TO.C,SW10*%
X93430000Y-80550000D03*
D11*
X90890000Y-75470000D03*
D12*
X88350000Y-80550000D03*
D11*
X84540000Y-78010000D03*
D10*
X83270000Y-80550000D03*
D24*
X81265000Y-78010000D03*
X94192000Y-75470000D03*
%TD*%
D10*
%TO.C,SW21*%
X130530000Y-125600000D03*
D11*
X127990000Y-120520000D03*
D12*
X125450000Y-125600000D03*
D11*
X121640000Y-123060000D03*
D10*
X120370000Y-125600000D03*
D24*
X118365000Y-123060000D03*
X131292000Y-120520000D03*
%TD*%
D25*
%TO.C,rD16*%
X203640077Y-142216624D03*
X202359923Y-142783376D03*
%TD*%
D10*
%TO.C,SW16*%
X93430000Y-99600000D03*
D11*
X90890000Y-94520000D03*
D12*
X88350000Y-99600000D03*
D11*
X84540000Y-97060000D03*
D10*
X83270000Y-99600000D03*
D24*
X81265000Y-97060000D03*
X94192000Y-94520000D03*
%TD*%
D10*
%TO.C,rSW4*%
X283730000Y-61500000D03*
D11*
X281190000Y-56420000D03*
D12*
X278650000Y-61500000D03*
D11*
X274840000Y-58960000D03*
D10*
X273570000Y-61500000D03*
D24*
X271565000Y-58960000D03*
X284492000Y-56420000D03*
%TD*%
D21*
%TO.C,D18*%
X50950000Y-119500000D03*
X49550000Y-119500000D03*
%TD*%
D26*
%TO.C,D20*%
X146102296Y-137362346D03*
X144750000Y-137000000D03*
%TD*%
D10*
%TO.C,SW22*%
X111480000Y-125600000D03*
D11*
X108940000Y-120520000D03*
D12*
X106400000Y-125600000D03*
D11*
X102590000Y-123060000D03*
D10*
X101320000Y-125600000D03*
D24*
X99315000Y-123060000D03*
X112242000Y-120520000D03*
%TD*%
D21*
%TO.C,D1*%
X145950000Y-76400000D03*
X144550000Y-76400000D03*
%TD*%
D10*
%TO.C,rSW18*%
X321830000Y-112600000D03*
D11*
X319290000Y-107520000D03*
D12*
X316750000Y-112600000D03*
D11*
X312940000Y-110060000D03*
D10*
X311670000Y-112600000D03*
D24*
X309665000Y-110060000D03*
X322592000Y-107520000D03*
%TD*%
D21*
%TO.C,rD11*%
X222350000Y-114500000D03*
X220950000Y-114500000D03*
%TD*%
D10*
%TO.C,rSW1*%
X226580000Y-67500000D03*
D11*
X224040000Y-62420000D03*
D12*
X221500000Y-67500000D03*
D11*
X217690000Y-64960000D03*
D10*
X216420000Y-67500000D03*
D24*
X214415000Y-64960000D03*
X227342000Y-62420000D03*
%TD*%
D21*
%TO.C,rD7*%
X241550000Y-94450000D03*
X240150000Y-94450000D03*
%TD*%
D10*
%TO.C,rSW10*%
X302780000Y-93550000D03*
D11*
X300240000Y-88470000D03*
D12*
X297700000Y-93550000D03*
D11*
X293890000Y-91010000D03*
D10*
X292620000Y-93550000D03*
D24*
X290615000Y-91010000D03*
X303542000Y-88470000D03*
%TD*%
D21*
%TO.C,rD8*%
X260550000Y-85450000D03*
X259150000Y-85450000D03*
%TD*%
%TO.C,D21*%
X125950000Y-134500000D03*
X124550000Y-134500000D03*
%TD*%
D10*
%TO.C,SW3*%
X112480000Y-57500000D03*
D11*
X109940000Y-52420000D03*
D12*
X107400000Y-57500000D03*
D11*
X103590000Y-54960000D03*
D10*
X102320000Y-57500000D03*
D24*
X100315000Y-54960000D03*
X113242000Y-52420000D03*
%TD*%
D21*
%TO.C,D22*%
X106900000Y-134500000D03*
X105500000Y-134500000D03*
%TD*%
%TO.C,D14*%
X126950000Y-113500000D03*
X125550000Y-113500000D03*
%TD*%
D10*
%TO.C,SW9*%
X112480000Y-76550000D03*
D11*
X109940000Y-71470000D03*
D12*
X107400000Y-76550000D03*
D11*
X103590000Y-74010000D03*
D10*
X102320000Y-76550000D03*
D24*
X100315000Y-74010000D03*
X113242000Y-71470000D03*
%TD*%
D21*
%TO.C,D13*%
X145950000Y-114500000D03*
X144550000Y-114500000D03*
%TD*%
D10*
%TO.C,rSW19*%
X321830000Y-93550000D03*
D11*
X319290000Y-88470000D03*
D12*
X316750000Y-93550000D03*
D11*
X312940000Y-91010000D03*
D10*
X311670000Y-93550000D03*
D24*
X309665000Y-91010000D03*
X322592000Y-88470000D03*
%TD*%
D10*
%TO.C,SW6*%
X55330000Y-74500000D03*
D11*
X52790000Y-69420000D03*
D12*
X50250000Y-74500000D03*
D11*
X46440000Y-71960000D03*
D10*
X45170000Y-74500000D03*
D24*
X43165000Y-71960000D03*
X56092000Y-69420000D03*
%TD*%
D10*
%TO.C,rSW20*%
X321830000Y-74500000D03*
D11*
X319290000Y-69420000D03*
D12*
X316750000Y-74500000D03*
D11*
X312940000Y-71960000D03*
D10*
X311670000Y-74500000D03*
D24*
X309665000Y-71960000D03*
X322592000Y-69420000D03*
%TD*%
D27*
%TO.C,D19*%
X164750000Y-144000000D03*
X163469846Y-143433248D03*
%TD*%
D10*
%TO.C,SW5*%
X74380000Y-74500000D03*
D11*
X71840000Y-69420000D03*
D12*
X69300000Y-74500000D03*
D11*
X65490000Y-71960000D03*
D10*
X64220000Y-74500000D03*
D24*
X62215000Y-71960000D03*
X75142000Y-69420000D03*
%TD*%
D21*
%TO.C,rD4*%
X279550000Y-70350000D03*
X278150000Y-70350000D03*
%TD*%
D22*
%TO.C,rPowerSW1*%
X193500000Y-82500000D03*
D23*
X193500000Y-79960000D03*
X193500000Y-85040000D03*
%TD*%
D10*
%TO.C,SW18*%
X55330000Y-112600000D03*
D11*
X52790000Y-107520000D03*
D12*
X50250000Y-112600000D03*
D11*
X46440000Y-110060000D03*
D10*
X45170000Y-112600000D03*
D24*
X43165000Y-110060000D03*
X56092000Y-107520000D03*
%TD*%
D10*
%TO.C,rSW12*%
X245630000Y-104600000D03*
D11*
X243090000Y-99520000D03*
D12*
X240550000Y-104600000D03*
D11*
X236740000Y-102060000D03*
D10*
X235470000Y-104600000D03*
D24*
X233465000Y-102060000D03*
X246392000Y-99520000D03*
%TD*%
D10*
%TO.C,SW12*%
X55330000Y-93550000D03*
D11*
X52790000Y-88470000D03*
D12*
X50250000Y-93550000D03*
D11*
X46440000Y-91010000D03*
D10*
X45170000Y-93550000D03*
D24*
X43165000Y-91010000D03*
X56092000Y-88470000D03*
%TD*%
D21*
%TO.C,D3*%
X107950000Y-66400000D03*
X106550000Y-66400000D03*
%TD*%
%TO.C,rD9*%
X279550000Y-89400000D03*
X278150000Y-89400000D03*
%TD*%
D10*
%TO.C,rSW6*%
X226580000Y-86550000D03*
D11*
X224040000Y-81470000D03*
D12*
X221500000Y-86550000D03*
D11*
X217690000Y-84010000D03*
D10*
X216420000Y-86550000D03*
D24*
X214415000Y-84010000D03*
X227342000Y-81470000D03*
%TD*%
D10*
%TO.C,SW8*%
X131530000Y-85550000D03*
D11*
X128990000Y-80470000D03*
D12*
X126450000Y-85550000D03*
D11*
X122640000Y-83010000D03*
D10*
X121370000Y-85550000D03*
D24*
X119365000Y-83010000D03*
X132292000Y-80470000D03*
%TD*%
D10*
%TO.C,rSW16*%
X204190775Y-134533697D03*
D11*
X199804084Y-130926074D03*
D12*
X199550000Y-136600000D03*
D11*
X195036267Y-135829340D03*
D10*
X194909225Y-138666303D03*
D28*
X192044429Y-137161455D03*
X202820588Y-129582977D03*
%TD*%
D10*
%TO.C,SW7*%
X150580000Y-86550000D03*
D11*
X148040000Y-81470000D03*
D12*
X145500000Y-86550000D03*
D11*
X141690000Y-84010000D03*
D10*
X140420000Y-86550000D03*
D24*
X138415000Y-84010000D03*
X151342000Y-81470000D03*
%TD*%
D21*
%TO.C,D10*%
X88950000Y-89400000D03*
X87550000Y-89400000D03*
%TD*%
D10*
%TO.C,SW11*%
X74380000Y-93550000D03*
D11*
X71840000Y-88470000D03*
D12*
X69300000Y-93550000D03*
D11*
X65490000Y-91010000D03*
D10*
X64220000Y-93550000D03*
D24*
X62215000Y-91010000D03*
X75142000Y-88470000D03*
%TD*%
D21*
%TO.C,rD14*%
X279550000Y-108450000D03*
X278150000Y-108450000D03*
%TD*%
%TO.C,rD5*%
X298550000Y-83400000D03*
X297150000Y-83400000D03*
%TD*%
%TO.C,rD20*%
X317550000Y-83500000D03*
X316150000Y-83500000D03*
%TD*%
%TO.C,rD6*%
X222350000Y-95450000D03*
X220950000Y-95450000D03*
%TD*%
D10*
%TO.C,SW14*%
X131530000Y-104600000D03*
D11*
X128990000Y-99520000D03*
D12*
X126450000Y-104600000D03*
D11*
X122640000Y-102060000D03*
D10*
X121370000Y-104600000D03*
D24*
X119365000Y-102060000D03*
X132292000Y-99520000D03*
%TD*%
D21*
%TO.C,D2*%
X126950000Y-75400000D03*
X125550000Y-75400000D03*
%TD*%
D10*
%TO.C,SW13*%
X150580000Y-105600000D03*
D11*
X148040000Y-100520000D03*
D12*
X145500000Y-105600000D03*
D11*
X141690000Y-103060000D03*
D10*
X140420000Y-105600000D03*
D24*
X138415000Y-103060000D03*
X151342000Y-100520000D03*
%TD*%
D21*
%TO.C,D17*%
X69950000Y-119500000D03*
X68550000Y-119500000D03*
%TD*%
%TO.C,D11*%
X69950000Y-102450000D03*
X68550000Y-102450000D03*
%TD*%
%TO.C,rD10*%
X298550000Y-102450000D03*
X297150000Y-102450000D03*
%TD*%
%TO.C,D4*%
X88950000Y-70350000D03*
X87550000Y-70350000D03*
%TD*%
D10*
%TO.C,rSW7*%
X245630000Y-85550000D03*
D11*
X243090000Y-80470000D03*
D12*
X240550000Y-85550000D03*
D11*
X236740000Y-83010000D03*
D10*
X235470000Y-85550000D03*
D24*
X233465000Y-83010000D03*
X246392000Y-80470000D03*
%TD*%
D29*
%TO.C,rD17*%
X222500000Y-136000000D03*
X221147704Y-136362346D03*
%TD*%
D10*
%TO.C,SW17*%
X74380000Y-112600000D03*
D11*
X71840000Y-107520000D03*
D12*
X69300000Y-112600000D03*
D11*
X65490000Y-110060000D03*
D10*
X64220000Y-112600000D03*
D24*
X62215000Y-110060000D03*
X75142000Y-107520000D03*
%TD*%
D10*
%TO.C,SW4*%
X93430000Y-61500000D03*
D11*
X90890000Y-56420000D03*
D12*
X88350000Y-61500000D03*
D11*
X84540000Y-58960000D03*
D10*
X83270000Y-61500000D03*
D24*
X81265000Y-58960000D03*
X94192000Y-56420000D03*
%TD*%
D21*
%TO.C,D5*%
X69950000Y-83400000D03*
X68550000Y-83400000D03*
%TD*%
%TO.C,rD19*%
X317550000Y-102550000D03*
X316150000Y-102550000D03*
%TD*%
%TO.C,D6*%
X50950000Y-83400000D03*
X49550000Y-83400000D03*
%TD*%
D10*
%TO.C,SW2*%
X131530000Y-66500000D03*
D11*
X128990000Y-61420000D03*
D12*
X126450000Y-66500000D03*
D11*
X122640000Y-63960000D03*
D10*
X121370000Y-66500000D03*
D24*
X119365000Y-63960000D03*
X132292000Y-61420000D03*
%TD*%
D10*
%TO.C,rSW3*%
X264680000Y-57500000D03*
D11*
X262140000Y-52420000D03*
D12*
X259600000Y-57500000D03*
D11*
X255790000Y-54960000D03*
D10*
X254520000Y-57500000D03*
D24*
X252515000Y-54960000D03*
X265442000Y-52420000D03*
%TD*%
D10*
%TO.C,SW20*%
X152356903Y-130914801D03*
D11*
X151218252Y-125350497D03*
D12*
X147450000Y-129600000D03*
D11*
X144427223Y-126160448D03*
D10*
X142543097Y-128285199D03*
D30*
X141263816Y-125312815D03*
X154407739Y-126205118D03*
%TD*%
D21*
%TO.C,rD2*%
X241550000Y-75400000D03*
X240150000Y-75400000D03*
%TD*%
D10*
%TO.C,rSW9*%
X283730000Y-80550000D03*
D11*
X281190000Y-75470000D03*
D12*
X278650000Y-80550000D03*
D11*
X274840000Y-78010000D03*
D10*
X273570000Y-80550000D03*
D24*
X271565000Y-78010000D03*
X284492000Y-75470000D03*
%TD*%
D21*
%TO.C,rD18*%
X317550000Y-120000000D03*
X316150000Y-120000000D03*
%TD*%
%TO.C,D8*%
X126950000Y-94450000D03*
X125550000Y-94450000D03*
%TD*%
%TO.C,D12*%
X50950000Y-102450000D03*
X49550000Y-102450000D03*
%TD*%
%TO.C,rD12*%
X241550000Y-112500000D03*
X240150000Y-112500000D03*
%TD*%
D10*
%TO.C,SW19*%
X172090811Y-138666222D03*
D11*
X171836628Y-132992300D03*
D12*
X167450000Y-136600000D03*
D11*
X165002503Y-132729928D03*
D10*
X162809189Y-134533778D03*
D31*
X162010642Y-131397865D03*
X174853155Y-134335345D03*
%TD*%
D10*
%TO.C,SW1*%
X150580000Y-67500000D03*
D11*
X148040000Y-62420000D03*
D12*
X145500000Y-67500000D03*
D11*
X141690000Y-64960000D03*
D10*
X140420000Y-67500000D03*
D24*
X138415000Y-64960000D03*
X151342000Y-62420000D03*
%TD*%
D10*
%TO.C,rSW11*%
X226580000Y-105600000D03*
D11*
X224040000Y-100520000D03*
D12*
X221500000Y-105600000D03*
D11*
X217690000Y-103060000D03*
D10*
X216420000Y-105600000D03*
D24*
X214415000Y-103060000D03*
X227342000Y-100520000D03*
%TD*%
M02*
