%TF.GenerationSoftware,KiCad,Pcbnew,8.0.3*%
%TF.CreationDate,2024-12-16T20:24:47+09:00*%
%TF.ProjectId,manjaro_mx,6d616e6a-6172-46f5-9f6d-782e6b696361,rev?*%
%TF.SameCoordinates,Original*%
%TF.FileFunction,Drillmap*%
%TF.FilePolarity,Positive*%
%FSLAX45Y45*%
G04 Gerber Fmt 4.5, Leading zero omitted, Abs format (unit mm)*
G04 Created by KiCad (PCBNEW 8.0.3) date 2024-12-16 20:24:47*
%MOMM*%
%LPD*%
G01*
G04 APERTURE LIST*
%ADD10C,0.050000*%
%ADD11C,0.200000*%
%ADD12C,0.120000*%
%ADD13C,0.190000*%
%ADD14C,0.300000*%
%ADD15C,0.410000*%
G04 APERTURE END LIST*
D10*
X23100000Y-11400000D02*
X23100000Y-13600000D01*
X19450000Y-14900000D02*
X18750000Y-13200000D01*
X24750000Y-5200000D02*
X24750000Y-4800000D01*
X6175000Y-8000000D02*
G75*
G02*
X5775000Y-8000000I-200000J0D01*
G01*
X5775000Y-8000000D02*
G75*
G02*
X6175000Y-8000000I200000J0D01*
G01*
X11975000Y-5200000D02*
X11975000Y-4800000D01*
X28800000Y-12200000D02*
X28800000Y-13900000D01*
X11975000Y-5200000D02*
X17975000Y-5200000D01*
X30925000Y-8000000D02*
G75*
G02*
X30525000Y-8000000I-200000J0D01*
G01*
X30525000Y-8000000D02*
G75*
G02*
X30925000Y-8000000I200000J0D01*
G01*
X4075000Y-12200000D02*
X4075000Y-6300000D01*
X23325000Y-6900000D02*
G75*
G02*
X22925000Y-6900000I-200000J0D01*
G01*
X22925000Y-6900000D02*
G75*
G02*
X23325000Y-6900000I200000J0D01*
G01*
X17975000Y-5200000D02*
X17975000Y-13200000D01*
X28850000Y-6300000D02*
X32650000Y-6300000D01*
X23325000Y-9200000D02*
G75*
G02*
X22925000Y-9200000I-200000J0D01*
G01*
X22925000Y-9200000D02*
G75*
G02*
X23325000Y-9200000I200000J0D01*
G01*
X11975000Y-4800000D02*
X7875000Y-4800000D01*
X17800000Y-11200000D02*
G75*
G02*
X17400000Y-11200000I-200000J0D01*
G01*
X17400000Y-11200000D02*
G75*
G02*
X17800000Y-11200000I200000J0D01*
G01*
X32650000Y-6300000D02*
X32650000Y-12200000D01*
X21250000Y-13800000D02*
G75*
G02*
X20850000Y-13800000I-200000J0D01*
G01*
X20850000Y-13800000D02*
G75*
G02*
X21250000Y-13800000I200000J0D01*
G01*
X4075000Y-6300000D02*
X7875000Y-6300000D01*
X28850000Y-4800000D02*
X28850000Y-6300000D01*
X18750000Y-13200000D02*
X18750000Y-5200000D01*
X14175000Y-11900000D02*
G75*
G02*
X13775000Y-11900000I-200000J0D01*
G01*
X13775000Y-11900000D02*
G75*
G02*
X14175000Y-11900000I200000J0D01*
G01*
X30925000Y-10300000D02*
G75*
G02*
X30525000Y-10300000I-200000J0D01*
G01*
X30525000Y-10300000D02*
G75*
G02*
X30925000Y-10300000I200000J0D01*
G01*
X13775000Y-9200000D02*
G75*
G02*
X13375000Y-9200000I-200000J0D01*
G01*
X13375000Y-9200000D02*
G75*
G02*
X13775000Y-9200000I200000J0D01*
G01*
X19350000Y-6050000D02*
X19950000Y-6050000D01*
X19950000Y-6600000D01*
X19350000Y-6600000D01*
X19350000Y-6050000D01*
X9535000Y-11000000D02*
G75*
G02*
X9135000Y-11000000I-200000J0D01*
G01*
X9135000Y-11000000D02*
G75*
G02*
X9535000Y-11000000I200000J0D01*
G01*
X13775000Y-6900000D02*
G75*
G02*
X13375000Y-6900000I-200000J0D01*
G01*
X13375000Y-6900000D02*
G75*
G02*
X13775000Y-6900000I200000J0D01*
G01*
X32650000Y-12200000D02*
X28800000Y-12200000D01*
X18750000Y-5200000D02*
X24750000Y-5200000D01*
X27900000Y-13900000D02*
X27900000Y-11400000D01*
X6175000Y-10300000D02*
G75*
G02*
X5775000Y-10300000I-200000J0D01*
G01*
X5775000Y-10300000D02*
G75*
G02*
X6175000Y-10300000I200000J0D01*
G01*
X8075000Y-12200000D02*
X9675000Y-13600000D01*
X27565000Y-11000000D02*
G75*
G02*
X27165000Y-11000000I-200000J0D01*
G01*
X27165000Y-11000000D02*
G75*
G02*
X27565000Y-11000000I200000J0D01*
G01*
X4075000Y-12200000D02*
X8075000Y-12200000D01*
X27900000Y-11400000D02*
X23100000Y-11400000D01*
X7875000Y-4800000D02*
X7875000Y-6300000D01*
X13575000Y-13600000D02*
X17275000Y-14900000D01*
X20950000Y-8100000D02*
G75*
G02*
X20550000Y-8100000I-200000J0D01*
G01*
X20550000Y-8100000D02*
G75*
G02*
X20950000Y-8100000I200000J0D01*
G01*
X9675000Y-13600000D02*
X13575000Y-13600000D01*
X17275000Y-14900000D02*
X17975000Y-13200000D01*
X23100000Y-13600000D02*
X19450000Y-14900000D01*
X24750000Y-4800000D02*
X28850000Y-4800000D01*
X15825000Y-13800000D02*
G75*
G02*
X15425000Y-13800000I-200000J0D01*
G01*
X15425000Y-13800000D02*
G75*
G02*
X15825000Y-13800000I200000J0D01*
G01*
X28800000Y-13900000D02*
X27900000Y-13900000D01*
X16100000Y-6050000D02*
X16700000Y-6050000D01*
X16700000Y-6600000D01*
X16100000Y-6600000D01*
X16100000Y-6050000D01*
X19300000Y-11200000D02*
G75*
G02*
X18900000Y-11200000I-200000J0D01*
G01*
X18900000Y-11200000D02*
G75*
G02*
X19300000Y-11200000I200000J0D01*
G01*
X22925000Y-11900000D02*
G75*
G02*
X22525000Y-11900000I-200000J0D01*
G01*
X22525000Y-11900000D02*
G75*
G02*
X22925000Y-11900000I200000J0D01*
G01*
X16150000Y-8100000D02*
G75*
G02*
X15750000Y-8100000I-200000J0D01*
G01*
X15750000Y-8100000D02*
G75*
G02*
X16150000Y-8100000I200000J0D01*
G01*
D11*
D12*
X16895000Y-10235000D02*
X17015000Y-10355000D01*
X17015000Y-10235000D02*
X16895000Y-10355000D01*
X17595000Y-10235000D02*
X17715000Y-10355000D01*
X17715000Y-10235000D02*
X17595000Y-10355000D01*
D13*
X4612000Y-7450000D02*
G75*
G02*
X4422000Y-7450000I-95000J0D01*
G01*
X4422000Y-7450000D02*
G75*
G02*
X4612000Y-7450000I95000J0D01*
G01*
X4612000Y-9355000D02*
G75*
G02*
X4422000Y-9355000I-95000J0D01*
G01*
X4422000Y-9355000D02*
G75*
G02*
X4612000Y-9355000I95000J0D01*
G01*
X4612000Y-11260000D02*
G75*
G02*
X4422000Y-11260000I-95000J0D01*
G01*
X4422000Y-11260000D02*
G75*
G02*
X4612000Y-11260000I95000J0D01*
G01*
X5628000Y-7450000D02*
G75*
G02*
X5438000Y-7450000I-95000J0D01*
G01*
X5438000Y-7450000D02*
G75*
G02*
X5628000Y-7450000I95000J0D01*
G01*
X5628000Y-9355000D02*
G75*
G02*
X5438000Y-9355000I-95000J0D01*
G01*
X5438000Y-9355000D02*
G75*
G02*
X5628000Y-9355000I95000J0D01*
G01*
X5628000Y-11260000D02*
G75*
G02*
X5438000Y-11260000I-95000J0D01*
G01*
X5438000Y-11260000D02*
G75*
G02*
X5628000Y-11260000I95000J0D01*
G01*
X6517000Y-7450000D02*
G75*
G02*
X6327000Y-7450000I-95000J0D01*
G01*
X6327000Y-7450000D02*
G75*
G02*
X6517000Y-7450000I95000J0D01*
G01*
X6517000Y-9355000D02*
G75*
G02*
X6327000Y-9355000I-95000J0D01*
G01*
X6327000Y-9355000D02*
G75*
G02*
X6517000Y-9355000I95000J0D01*
G01*
X6517000Y-11260000D02*
G75*
G02*
X6327000Y-11260000I-95000J0D01*
G01*
X6327000Y-11260000D02*
G75*
G02*
X6517000Y-11260000I95000J0D01*
G01*
X7533000Y-7450000D02*
G75*
G02*
X7343000Y-7450000I-95000J0D01*
G01*
X7343000Y-7450000D02*
G75*
G02*
X7533000Y-7450000I95000J0D01*
G01*
X7533000Y-9355000D02*
G75*
G02*
X7343000Y-9355000I-95000J0D01*
G01*
X7343000Y-9355000D02*
G75*
G02*
X7533000Y-9355000I95000J0D01*
G01*
X7533000Y-11260000D02*
G75*
G02*
X7343000Y-11260000I-95000J0D01*
G01*
X7343000Y-11260000D02*
G75*
G02*
X7533000Y-11260000I95000J0D01*
G01*
X8422000Y-6150000D02*
G75*
G02*
X8232000Y-6150000I-95000J0D01*
G01*
X8232000Y-6150000D02*
G75*
G02*
X8422000Y-6150000I95000J0D01*
G01*
X8422000Y-8055000D02*
G75*
G02*
X8232000Y-8055000I-95000J0D01*
G01*
X8232000Y-8055000D02*
G75*
G02*
X8422000Y-8055000I95000J0D01*
G01*
X8422000Y-9960000D02*
G75*
G02*
X8232000Y-9960000I-95000J0D01*
G01*
X8232000Y-9960000D02*
G75*
G02*
X8422000Y-9960000I95000J0D01*
G01*
X9438000Y-6150000D02*
G75*
G02*
X9248000Y-6150000I-95000J0D01*
G01*
X9248000Y-6150000D02*
G75*
G02*
X9438000Y-6150000I95000J0D01*
G01*
X9438000Y-8055000D02*
G75*
G02*
X9248000Y-8055000I-95000J0D01*
G01*
X9248000Y-8055000D02*
G75*
G02*
X9438000Y-8055000I95000J0D01*
G01*
X9438000Y-9960000D02*
G75*
G02*
X9248000Y-9960000I-95000J0D01*
G01*
X9248000Y-9960000D02*
G75*
G02*
X9438000Y-9960000I95000J0D01*
G01*
X10227000Y-12560000D02*
G75*
G02*
X10037000Y-12560000I-95000J0D01*
G01*
X10037000Y-12560000D02*
G75*
G02*
X10227000Y-12560000I95000J0D01*
G01*
X10327000Y-5750000D02*
G75*
G02*
X10137000Y-5750000I-95000J0D01*
G01*
X10137000Y-5750000D02*
G75*
G02*
X10327000Y-5750000I95000J0D01*
G01*
X10327000Y-7655000D02*
G75*
G02*
X10137000Y-7655000I-95000J0D01*
G01*
X10137000Y-7655000D02*
G75*
G02*
X10327000Y-7655000I95000J0D01*
G01*
X10327000Y-9560000D02*
G75*
G02*
X10137000Y-9560000I-95000J0D01*
G01*
X10137000Y-9560000D02*
G75*
G02*
X10327000Y-9560000I95000J0D01*
G01*
X11243000Y-12560000D02*
G75*
G02*
X11053000Y-12560000I-95000J0D01*
G01*
X11053000Y-12560000D02*
G75*
G02*
X11243000Y-12560000I95000J0D01*
G01*
X11343000Y-5750000D02*
G75*
G02*
X11153000Y-5750000I-95000J0D01*
G01*
X11153000Y-5750000D02*
G75*
G02*
X11343000Y-5750000I95000J0D01*
G01*
X11343000Y-7655000D02*
G75*
G02*
X11153000Y-7655000I-95000J0D01*
G01*
X11153000Y-7655000D02*
G75*
G02*
X11343000Y-7655000I95000J0D01*
G01*
X11343000Y-9560000D02*
G75*
G02*
X11153000Y-9560000I-95000J0D01*
G01*
X11153000Y-9560000D02*
G75*
G02*
X11343000Y-9560000I95000J0D01*
G01*
X12132000Y-12560000D02*
G75*
G02*
X11942000Y-12560000I-95000J0D01*
G01*
X11942000Y-12560000D02*
G75*
G02*
X12132000Y-12560000I95000J0D01*
G01*
X12232000Y-6650000D02*
G75*
G02*
X12042000Y-6650000I-95000J0D01*
G01*
X12042000Y-6650000D02*
G75*
G02*
X12232000Y-6650000I95000J0D01*
G01*
X12232000Y-8555000D02*
G75*
G02*
X12042000Y-8555000I-95000J0D01*
G01*
X12042000Y-8555000D02*
G75*
G02*
X12232000Y-8555000I95000J0D01*
G01*
X12232000Y-10460000D02*
G75*
G02*
X12042000Y-10460000I-95000J0D01*
G01*
X12042000Y-10460000D02*
G75*
G02*
X12232000Y-10460000I95000J0D01*
G01*
X13148000Y-12560000D02*
G75*
G02*
X12958000Y-12560000I-95000J0D01*
G01*
X12958000Y-12560000D02*
G75*
G02*
X13148000Y-12560000I95000J0D01*
G01*
X13248000Y-6650000D02*
G75*
G02*
X13058000Y-6650000I-95000J0D01*
G01*
X13058000Y-6650000D02*
G75*
G02*
X13248000Y-6650000I95000J0D01*
G01*
X13248000Y-8555000D02*
G75*
G02*
X13058000Y-8555000I-95000J0D01*
G01*
X13058000Y-8555000D02*
G75*
G02*
X13248000Y-8555000I95000J0D01*
G01*
X13248000Y-10460000D02*
G75*
G02*
X13058000Y-10460000I-95000J0D01*
G01*
X13058000Y-10460000D02*
G75*
G02*
X13248000Y-10460000I95000J0D01*
G01*
X14137000Y-6750000D02*
G75*
G02*
X13947000Y-6750000I-95000J0D01*
G01*
X13947000Y-6750000D02*
G75*
G02*
X14137000Y-6750000I95000J0D01*
G01*
X14137000Y-8655000D02*
G75*
G02*
X13947000Y-8655000I-95000J0D01*
G01*
X13947000Y-8655000D02*
G75*
G02*
X14137000Y-8655000I95000J0D01*
G01*
X14137000Y-10560000D02*
G75*
G02*
X13947000Y-10560000I-95000J0D01*
G01*
X13947000Y-10560000D02*
G75*
G02*
X14137000Y-10560000I95000J0D01*
G01*
X14349310Y-12828520D02*
G75*
G02*
X14159310Y-12828520I-95000J0D01*
G01*
X14159310Y-12828520D02*
G75*
G02*
X14349310Y-12828520I95000J0D01*
G01*
X15153000Y-6750000D02*
G75*
G02*
X14963000Y-6750000I-95000J0D01*
G01*
X14963000Y-6750000D02*
G75*
G02*
X15153000Y-6750000I95000J0D01*
G01*
X15153000Y-8655000D02*
G75*
G02*
X14963000Y-8655000I-95000J0D01*
G01*
X14963000Y-8655000D02*
G75*
G02*
X15153000Y-8655000I95000J0D01*
G01*
X15153000Y-10560000D02*
G75*
G02*
X14963000Y-10560000I-95000J0D01*
G01*
X14963000Y-10560000D02*
G75*
G02*
X15153000Y-10560000I95000J0D01*
G01*
X15330690Y-13091480D02*
G75*
G02*
X15140690Y-13091480I-95000J0D01*
G01*
X15140690Y-13091480D02*
G75*
G02*
X15330690Y-13091480I95000J0D01*
G01*
X16375919Y-13453378D02*
G75*
G02*
X16185919Y-13453378I-95000J0D01*
G01*
X16185919Y-13453378D02*
G75*
G02*
X16375919Y-13453378I95000J0D01*
G01*
X17304081Y-13866622D02*
G75*
G02*
X17114081Y-13866622I-95000J0D01*
G01*
X17114081Y-13866622D02*
G75*
G02*
X17304081Y-13866622I95000J0D01*
G01*
X19585923Y-13866630D02*
G75*
G02*
X19395923Y-13866630I-95000J0D01*
G01*
X19395923Y-13866630D02*
G75*
G02*
X19585923Y-13866630I95000J0D01*
G01*
X20514078Y-13453370D02*
G75*
G02*
X20324078Y-13453370I-95000J0D01*
G01*
X20324078Y-13453370D02*
G75*
G02*
X20514078Y-13453370I95000J0D01*
G01*
X21559310Y-13091480D02*
G75*
G02*
X21369310Y-13091480I-95000J0D01*
G01*
X21369310Y-13091480D02*
G75*
G02*
X21559310Y-13091480I95000J0D01*
G01*
X21737000Y-6750000D02*
G75*
G02*
X21547000Y-6750000I-95000J0D01*
G01*
X21547000Y-6750000D02*
G75*
G02*
X21737000Y-6750000I95000J0D01*
G01*
X21737000Y-8655000D02*
G75*
G02*
X21547000Y-8655000I-95000J0D01*
G01*
X21547000Y-8655000D02*
G75*
G02*
X21737000Y-8655000I95000J0D01*
G01*
X21737000Y-10560000D02*
G75*
G02*
X21547000Y-10560000I-95000J0D01*
G01*
X21547000Y-10560000D02*
G75*
G02*
X21737000Y-10560000I95000J0D01*
G01*
X22540690Y-12828520D02*
G75*
G02*
X22350690Y-12828520I-95000J0D01*
G01*
X22350690Y-12828520D02*
G75*
G02*
X22540690Y-12828520I95000J0D01*
G01*
X22753000Y-6750000D02*
G75*
G02*
X22563000Y-6750000I-95000J0D01*
G01*
X22563000Y-6750000D02*
G75*
G02*
X22753000Y-6750000I95000J0D01*
G01*
X22753000Y-8655000D02*
G75*
G02*
X22563000Y-8655000I-95000J0D01*
G01*
X22563000Y-8655000D02*
G75*
G02*
X22753000Y-8655000I95000J0D01*
G01*
X22753000Y-10560000D02*
G75*
G02*
X22563000Y-10560000I-95000J0D01*
G01*
X22563000Y-10560000D02*
G75*
G02*
X22753000Y-10560000I95000J0D01*
G01*
X23642000Y-6650000D02*
G75*
G02*
X23452000Y-6650000I-95000J0D01*
G01*
X23452000Y-6650000D02*
G75*
G02*
X23642000Y-6650000I95000J0D01*
G01*
X23642000Y-8555000D02*
G75*
G02*
X23452000Y-8555000I-95000J0D01*
G01*
X23452000Y-8555000D02*
G75*
G02*
X23642000Y-8555000I95000J0D01*
G01*
X23642000Y-10460000D02*
G75*
G02*
X23452000Y-10460000I-95000J0D01*
G01*
X23452000Y-10460000D02*
G75*
G02*
X23642000Y-10460000I95000J0D01*
G01*
X24658000Y-6650000D02*
G75*
G02*
X24468000Y-6650000I-95000J0D01*
G01*
X24468000Y-6650000D02*
G75*
G02*
X24658000Y-6650000I95000J0D01*
G01*
X24658000Y-8555000D02*
G75*
G02*
X24468000Y-8555000I-95000J0D01*
G01*
X24468000Y-8555000D02*
G75*
G02*
X24658000Y-8555000I95000J0D01*
G01*
X24658000Y-10460000D02*
G75*
G02*
X24468000Y-10460000I-95000J0D01*
G01*
X24468000Y-10460000D02*
G75*
G02*
X24658000Y-10460000I95000J0D01*
G01*
X25547000Y-5750000D02*
G75*
G02*
X25357000Y-5750000I-95000J0D01*
G01*
X25357000Y-5750000D02*
G75*
G02*
X25547000Y-5750000I95000J0D01*
G01*
X25547000Y-7655000D02*
G75*
G02*
X25357000Y-7655000I-95000J0D01*
G01*
X25357000Y-7655000D02*
G75*
G02*
X25547000Y-7655000I95000J0D01*
G01*
X25547000Y-9560000D02*
G75*
G02*
X25357000Y-9560000I-95000J0D01*
G01*
X25357000Y-9560000D02*
G75*
G02*
X25547000Y-9560000I95000J0D01*
G01*
X26563000Y-5750000D02*
G75*
G02*
X26373000Y-5750000I-95000J0D01*
G01*
X26373000Y-5750000D02*
G75*
G02*
X26563000Y-5750000I95000J0D01*
G01*
X26563000Y-7655000D02*
G75*
G02*
X26373000Y-7655000I-95000J0D01*
G01*
X26373000Y-7655000D02*
G75*
G02*
X26563000Y-7655000I95000J0D01*
G01*
X26563000Y-9560000D02*
G75*
G02*
X26373000Y-9560000I-95000J0D01*
G01*
X26373000Y-9560000D02*
G75*
G02*
X26563000Y-9560000I95000J0D01*
G01*
X27452000Y-6150000D02*
G75*
G02*
X27262000Y-6150000I-95000J0D01*
G01*
X27262000Y-6150000D02*
G75*
G02*
X27452000Y-6150000I95000J0D01*
G01*
X27452000Y-8055000D02*
G75*
G02*
X27262000Y-8055000I-95000J0D01*
G01*
X27262000Y-8055000D02*
G75*
G02*
X27452000Y-8055000I95000J0D01*
G01*
X27452000Y-9960000D02*
G75*
G02*
X27262000Y-9960000I-95000J0D01*
G01*
X27262000Y-9960000D02*
G75*
G02*
X27452000Y-9960000I95000J0D01*
G01*
X28468000Y-6150000D02*
G75*
G02*
X28278000Y-6150000I-95000J0D01*
G01*
X28278000Y-6150000D02*
G75*
G02*
X28468000Y-6150000I95000J0D01*
G01*
X28468000Y-8055000D02*
G75*
G02*
X28278000Y-8055000I-95000J0D01*
G01*
X28278000Y-8055000D02*
G75*
G02*
X28468000Y-8055000I95000J0D01*
G01*
X28468000Y-9960000D02*
G75*
G02*
X28278000Y-9960000I-95000J0D01*
G01*
X28278000Y-9960000D02*
G75*
G02*
X28468000Y-9960000I95000J0D01*
G01*
X29357000Y-7450000D02*
G75*
G02*
X29167000Y-7450000I-95000J0D01*
G01*
X29167000Y-7450000D02*
G75*
G02*
X29357000Y-7450000I95000J0D01*
G01*
X29357000Y-9355000D02*
G75*
G02*
X29167000Y-9355000I-95000J0D01*
G01*
X29167000Y-9355000D02*
G75*
G02*
X29357000Y-9355000I95000J0D01*
G01*
X29357000Y-11260000D02*
G75*
G02*
X29167000Y-11260000I-95000J0D01*
G01*
X29167000Y-11260000D02*
G75*
G02*
X29357000Y-11260000I95000J0D01*
G01*
X30373000Y-7450000D02*
G75*
G02*
X30183000Y-7450000I-95000J0D01*
G01*
X30183000Y-7450000D02*
G75*
G02*
X30373000Y-7450000I95000J0D01*
G01*
X30373000Y-9355000D02*
G75*
G02*
X30183000Y-9355000I-95000J0D01*
G01*
X30183000Y-9355000D02*
G75*
G02*
X30373000Y-9355000I95000J0D01*
G01*
X30373000Y-11260000D02*
G75*
G02*
X30183000Y-11260000I-95000J0D01*
G01*
X30183000Y-11260000D02*
G75*
G02*
X30373000Y-11260000I95000J0D01*
G01*
X31262000Y-7450000D02*
G75*
G02*
X31072000Y-7450000I-95000J0D01*
G01*
X31072000Y-7450000D02*
G75*
G02*
X31262000Y-7450000I95000J0D01*
G01*
X31262000Y-9355000D02*
G75*
G02*
X31072000Y-9355000I-95000J0D01*
G01*
X31072000Y-9355000D02*
G75*
G02*
X31262000Y-9355000I95000J0D01*
G01*
X31262000Y-11260000D02*
G75*
G02*
X31072000Y-11260000I-95000J0D01*
G01*
X31072000Y-11260000D02*
G75*
G02*
X31262000Y-11260000I95000J0D01*
G01*
X32278000Y-7450000D02*
G75*
G02*
X32088000Y-7450000I-95000J0D01*
G01*
X32088000Y-7450000D02*
G75*
G02*
X32278000Y-7450000I95000J0D01*
G01*
X32278000Y-9355000D02*
G75*
G02*
X32088000Y-9355000I-95000J0D01*
G01*
X32088000Y-9355000D02*
G75*
G02*
X32278000Y-9355000I95000J0D01*
G01*
X32278000Y-11260000D02*
G75*
G02*
X32088000Y-11260000I-95000J0D01*
G01*
X32088000Y-11260000D02*
G75*
G02*
X32278000Y-11260000I95000J0D01*
G01*
D14*
X4644000Y-7046000D02*
X4644000Y-7346000D01*
X4494000Y-7196000D02*
X4794000Y-7196000D01*
X4644000Y-8951000D02*
X4644000Y-9251000D01*
X4494000Y-9101000D02*
X4794000Y-9101000D01*
X4644000Y-10856000D02*
X4644000Y-11156000D01*
X4494000Y-11006000D02*
X4794000Y-11006000D01*
X5279000Y-6792000D02*
X5279000Y-7092000D01*
X5129000Y-6942000D02*
X5429000Y-6942000D01*
X5279000Y-8697000D02*
X5279000Y-8997000D01*
X5129000Y-8847000D02*
X5429000Y-8847000D01*
X5279000Y-10602000D02*
X5279000Y-10902000D01*
X5129000Y-10752000D02*
X5429000Y-10752000D01*
X6549000Y-7046000D02*
X6549000Y-7346000D01*
X6399000Y-7196000D02*
X6699000Y-7196000D01*
X6549000Y-8951000D02*
X6549000Y-9251000D01*
X6399000Y-9101000D02*
X6699000Y-9101000D01*
X6549000Y-10856000D02*
X6549000Y-11156000D01*
X6399000Y-11006000D02*
X6699000Y-11006000D01*
X7184000Y-6792000D02*
X7184000Y-7092000D01*
X7034000Y-6942000D02*
X7334000Y-6942000D01*
X7184000Y-8697000D02*
X7184000Y-8997000D01*
X7034000Y-8847000D02*
X7334000Y-8847000D01*
X7184000Y-10602000D02*
X7184000Y-10902000D01*
X7034000Y-10752000D02*
X7334000Y-10752000D01*
X8454000Y-5746000D02*
X8454000Y-6046000D01*
X8304000Y-5896000D02*
X8604000Y-5896000D01*
X8454000Y-7651000D02*
X8454000Y-7951000D01*
X8304000Y-7801000D02*
X8604000Y-7801000D01*
X8454000Y-9556000D02*
X8454000Y-9856000D01*
X8304000Y-9706000D02*
X8604000Y-9706000D01*
X9089000Y-5492000D02*
X9089000Y-5792000D01*
X8939000Y-5642000D02*
X9239000Y-5642000D01*
X9089000Y-7397000D02*
X9089000Y-7697000D01*
X8939000Y-7547000D02*
X9239000Y-7547000D01*
X9089000Y-9302000D02*
X9089000Y-9602000D01*
X8939000Y-9452000D02*
X9239000Y-9452000D01*
X10259000Y-12156000D02*
X10259000Y-12456000D01*
X10109000Y-12306000D02*
X10409000Y-12306000D01*
X10359000Y-5346000D02*
X10359000Y-5646000D01*
X10209000Y-5496000D02*
X10509000Y-5496000D01*
X10359000Y-7251000D02*
X10359000Y-7551000D01*
X10209000Y-7401000D02*
X10509000Y-7401000D01*
X10359000Y-9156000D02*
X10359000Y-9456000D01*
X10209000Y-9306000D02*
X10509000Y-9306000D01*
X10894000Y-11902000D02*
X10894000Y-12202000D01*
X10744000Y-12052000D02*
X11044000Y-12052000D01*
X10994000Y-5092000D02*
X10994000Y-5392000D01*
X10844000Y-5242000D02*
X11144000Y-5242000D01*
X10994000Y-6997000D02*
X10994000Y-7297000D01*
X10844000Y-7147000D02*
X11144000Y-7147000D01*
X10994000Y-8902000D02*
X10994000Y-9202000D01*
X10844000Y-9052000D02*
X11144000Y-9052000D01*
X12164000Y-12156000D02*
X12164000Y-12456000D01*
X12014000Y-12306000D02*
X12314000Y-12306000D01*
X12264000Y-6246000D02*
X12264000Y-6546000D01*
X12114000Y-6396000D02*
X12414000Y-6396000D01*
X12264000Y-8151000D02*
X12264000Y-8451000D01*
X12114000Y-8301000D02*
X12414000Y-8301000D01*
X12264000Y-10056000D02*
X12264000Y-10356000D01*
X12114000Y-10206000D02*
X12414000Y-10206000D01*
X12799000Y-11902000D02*
X12799000Y-12202000D01*
X12649000Y-12052000D02*
X12949000Y-12052000D01*
X12899000Y-5992000D02*
X12899000Y-6292000D01*
X12749000Y-6142000D02*
X13049000Y-6142000D01*
X12899000Y-7897000D02*
X12899000Y-8197000D01*
X12749000Y-8047000D02*
X13049000Y-8047000D01*
X12899000Y-9802000D02*
X12899000Y-10102000D01*
X12749000Y-9952000D02*
X13049000Y-9952000D01*
X14169000Y-6346000D02*
X14169000Y-6646000D01*
X14019000Y-6496000D02*
X14319000Y-6496000D01*
X14169000Y-8251000D02*
X14169000Y-8551000D01*
X14019000Y-8401000D02*
X14319000Y-8401000D01*
X14169000Y-10156000D02*
X14169000Y-10456000D01*
X14019000Y-10306000D02*
X14319000Y-10306000D01*
X14442722Y-12466045D02*
X14442722Y-12766045D01*
X14292722Y-12616045D02*
X14592722Y-12616045D01*
X14804000Y-6092000D02*
X14804000Y-6392000D01*
X14654000Y-6242000D02*
X14954000Y-6242000D01*
X14804000Y-7997000D02*
X14804000Y-8297000D01*
X14654000Y-8147000D02*
X14954000Y-8147000D01*
X14804000Y-9902000D02*
X14804000Y-10202000D01*
X14654000Y-10052000D02*
X14954000Y-10052000D01*
X15121825Y-12385050D02*
X15121825Y-12685050D01*
X14971825Y-12535050D02*
X15271825Y-12535050D01*
X16500250Y-13122993D02*
X16500250Y-13422993D01*
X16350250Y-13272993D02*
X16650250Y-13272993D01*
X17183663Y-13149230D02*
X17183663Y-13449230D01*
X17033663Y-13299230D02*
X17333663Y-13299230D01*
X19503627Y-13432934D02*
X19503627Y-13732934D01*
X19353627Y-13582934D02*
X19653627Y-13582934D01*
X19980408Y-12942607D02*
X19980408Y-13242607D01*
X19830408Y-13092607D02*
X20130408Y-13092607D01*
X21521242Y-12663265D02*
X21521242Y-12963265D01*
X21371242Y-12813265D02*
X21671242Y-12813265D01*
X21769000Y-6346000D02*
X21769000Y-6646000D01*
X21619000Y-6496000D02*
X21919000Y-6496000D01*
X21769000Y-8251000D02*
X21769000Y-8551000D01*
X21619000Y-8401000D02*
X21919000Y-8401000D01*
X21769000Y-10156000D02*
X21769000Y-10456000D01*
X21619000Y-10306000D02*
X21919000Y-10306000D01*
X22068865Y-12253570D02*
X22068865Y-12553570D01*
X21918865Y-12403570D02*
X22218865Y-12403570D01*
X22404000Y-6092000D02*
X22404000Y-6392000D01*
X22254000Y-6242000D02*
X22554000Y-6242000D01*
X22404000Y-7997000D02*
X22404000Y-8297000D01*
X22254000Y-8147000D02*
X22554000Y-8147000D01*
X22404000Y-9902000D02*
X22404000Y-10202000D01*
X22254000Y-10052000D02*
X22554000Y-10052000D01*
X23674000Y-6246000D02*
X23674000Y-6546000D01*
X23524000Y-6396000D02*
X23824000Y-6396000D01*
X23674000Y-8151000D02*
X23674000Y-8451000D01*
X23524000Y-8301000D02*
X23824000Y-8301000D01*
X23674000Y-10056000D02*
X23674000Y-10356000D01*
X23524000Y-10206000D02*
X23824000Y-10206000D01*
X24309000Y-5992000D02*
X24309000Y-6292000D01*
X24159000Y-6142000D02*
X24459000Y-6142000D01*
X24309000Y-7897000D02*
X24309000Y-8197000D01*
X24159000Y-8047000D02*
X24459000Y-8047000D01*
X24309000Y-9802000D02*
X24309000Y-10102000D01*
X24159000Y-9952000D02*
X24459000Y-9952000D01*
X25579000Y-5346000D02*
X25579000Y-5646000D01*
X25429000Y-5496000D02*
X25729000Y-5496000D01*
X25579000Y-7251000D02*
X25579000Y-7551000D01*
X25429000Y-7401000D02*
X25729000Y-7401000D01*
X25579000Y-9156000D02*
X25579000Y-9456000D01*
X25429000Y-9306000D02*
X25729000Y-9306000D01*
X26214000Y-5092000D02*
X26214000Y-5392000D01*
X26064000Y-5242000D02*
X26364000Y-5242000D01*
X26214000Y-6997000D02*
X26214000Y-7297000D01*
X26064000Y-7147000D02*
X26364000Y-7147000D01*
X26214000Y-8902000D02*
X26214000Y-9202000D01*
X26064000Y-9052000D02*
X26364000Y-9052000D01*
X27484000Y-5746000D02*
X27484000Y-6046000D01*
X27334000Y-5896000D02*
X27634000Y-5896000D01*
X27484000Y-7651000D02*
X27484000Y-7951000D01*
X27334000Y-7801000D02*
X27634000Y-7801000D01*
X27484000Y-9556000D02*
X27484000Y-9856000D01*
X27334000Y-9706000D02*
X27634000Y-9706000D01*
X28119000Y-5492000D02*
X28119000Y-5792000D01*
X27969000Y-5642000D02*
X28269000Y-5642000D01*
X28119000Y-7397000D02*
X28119000Y-7697000D01*
X27969000Y-7547000D02*
X28269000Y-7547000D01*
X28119000Y-9302000D02*
X28119000Y-9602000D01*
X27969000Y-9452000D02*
X28269000Y-9452000D01*
X29389000Y-7046000D02*
X29389000Y-7346000D01*
X29239000Y-7196000D02*
X29539000Y-7196000D01*
X29389000Y-8951000D02*
X29389000Y-9251000D01*
X29239000Y-9101000D02*
X29539000Y-9101000D01*
X29389000Y-10856000D02*
X29389000Y-11156000D01*
X29239000Y-11006000D02*
X29539000Y-11006000D01*
X30024000Y-6792000D02*
X30024000Y-7092000D01*
X29874000Y-6942000D02*
X30174000Y-6942000D01*
X30024000Y-8697000D02*
X30024000Y-8997000D01*
X29874000Y-8847000D02*
X30174000Y-8847000D01*
X30024000Y-10602000D02*
X30024000Y-10902000D01*
X29874000Y-10752000D02*
X30174000Y-10752000D01*
X31294000Y-7046000D02*
X31294000Y-7346000D01*
X31144000Y-7196000D02*
X31444000Y-7196000D01*
X31294000Y-8951000D02*
X31294000Y-9251000D01*
X31144000Y-9101000D02*
X31444000Y-9101000D01*
X31294000Y-10856000D02*
X31294000Y-11156000D01*
X31144000Y-11006000D02*
X31444000Y-11006000D01*
X31929000Y-6792000D02*
X31929000Y-7092000D01*
X31779000Y-6942000D02*
X32079000Y-6942000D01*
X31929000Y-8697000D02*
X31929000Y-8997000D01*
X31779000Y-8847000D02*
X32079000Y-8847000D01*
X31929000Y-10602000D02*
X31929000Y-10902000D01*
X31779000Y-10752000D02*
X32079000Y-10752000D01*
D15*
X5169958Y-7594958D02*
X5169958Y-7305042D01*
X4880042Y-7305042D01*
X4880042Y-7594958D01*
X5169958Y-7594958D01*
X5169958Y-9499958D02*
X5169958Y-9210042D01*
X4880042Y-9210042D01*
X4880042Y-9499958D01*
X5169958Y-9499958D01*
X5169958Y-11404958D02*
X5169958Y-11115042D01*
X4880042Y-11115042D01*
X4880042Y-11404958D01*
X5169958Y-11404958D01*
X7074958Y-7594958D02*
X7074958Y-7305042D01*
X6785042Y-7305042D01*
X6785042Y-7594958D01*
X7074958Y-7594958D01*
X7074958Y-9499958D02*
X7074958Y-9210042D01*
X6785042Y-9210042D01*
X6785042Y-9499958D01*
X7074958Y-9499958D01*
X7074958Y-11404958D02*
X7074958Y-11115042D01*
X6785042Y-11115042D01*
X6785042Y-11404958D01*
X7074958Y-11404958D01*
X8979958Y-6294958D02*
X8979958Y-6005042D01*
X8690042Y-6005042D01*
X8690042Y-6294958D01*
X8979958Y-6294958D01*
X8979958Y-8199958D02*
X8979958Y-7910042D01*
X8690042Y-7910042D01*
X8690042Y-8199958D01*
X8979958Y-8199958D01*
X8979958Y-10104958D02*
X8979958Y-9815042D01*
X8690042Y-9815042D01*
X8690042Y-10104958D01*
X8979958Y-10104958D01*
X10784958Y-12704958D02*
X10784958Y-12415042D01*
X10495042Y-12415042D01*
X10495042Y-12704958D01*
X10784958Y-12704958D01*
X10884958Y-5894958D02*
X10884958Y-5605042D01*
X10595042Y-5605042D01*
X10595042Y-5894958D01*
X10884958Y-5894958D01*
X10884958Y-7799958D02*
X10884958Y-7510042D01*
X10595042Y-7510042D01*
X10595042Y-7799958D01*
X10884958Y-7799958D01*
X10884958Y-9704958D02*
X10884958Y-9415042D01*
X10595042Y-9415042D01*
X10595042Y-9704958D01*
X10884958Y-9704958D01*
X12689958Y-12704958D02*
X12689958Y-12415042D01*
X12400042Y-12415042D01*
X12400042Y-12704958D01*
X12689958Y-12704958D01*
X12789958Y-6794958D02*
X12789958Y-6505042D01*
X12500042Y-6505042D01*
X12500042Y-6794958D01*
X12789958Y-6794958D01*
X12789958Y-8699958D02*
X12789958Y-8410042D01*
X12500042Y-8410042D01*
X12500042Y-8699958D01*
X12789958Y-8699958D01*
X12789958Y-10604958D02*
X12789958Y-10315042D01*
X12500042Y-10315042D01*
X12500042Y-10604958D01*
X12789958Y-10604958D01*
X14694958Y-6894958D02*
X14694958Y-6605042D01*
X14405042Y-6605042D01*
X14405042Y-6894958D01*
X14694958Y-6894958D01*
X14694958Y-8799958D02*
X14694958Y-8510042D01*
X14405042Y-8510042D01*
X14405042Y-8799958D01*
X14694958Y-8799958D01*
X14694958Y-10704958D02*
X14694958Y-10415042D01*
X14405042Y-10415042D01*
X14405042Y-10704958D01*
X14694958Y-10704958D01*
X14889958Y-13104958D02*
X14889958Y-12815042D01*
X14600042Y-12815042D01*
X14600042Y-13104958D01*
X14889958Y-13104958D01*
X16889958Y-13804958D02*
X16889958Y-13515042D01*
X16600042Y-13515042D01*
X16600042Y-13804958D01*
X16889958Y-13804958D01*
X20099958Y-13804958D02*
X20099958Y-13515042D01*
X19810042Y-13515042D01*
X19810042Y-13804958D01*
X20099958Y-13804958D01*
X22099958Y-13104958D02*
X22099958Y-12815042D01*
X21810042Y-12815042D01*
X21810042Y-13104958D01*
X22099958Y-13104958D01*
X22294958Y-6894958D02*
X22294958Y-6605042D01*
X22005042Y-6605042D01*
X22005042Y-6894958D01*
X22294958Y-6894958D01*
X22294958Y-8799958D02*
X22294958Y-8510042D01*
X22005042Y-8510042D01*
X22005042Y-8799958D01*
X22294958Y-8799958D01*
X22294958Y-10704958D02*
X22294958Y-10415042D01*
X22005042Y-10415042D01*
X22005042Y-10704958D01*
X22294958Y-10704958D01*
X24199958Y-6794958D02*
X24199958Y-6505042D01*
X23910042Y-6505042D01*
X23910042Y-6794958D01*
X24199958Y-6794958D01*
X24199958Y-8699958D02*
X24199958Y-8410042D01*
X23910042Y-8410042D01*
X23910042Y-8699958D01*
X24199958Y-8699958D01*
X24199958Y-10604958D02*
X24199958Y-10315042D01*
X23910042Y-10315042D01*
X23910042Y-10604958D01*
X24199958Y-10604958D01*
X26104958Y-5894958D02*
X26104958Y-5605042D01*
X25815042Y-5605042D01*
X25815042Y-5894958D01*
X26104958Y-5894958D01*
X26104958Y-7799958D02*
X26104958Y-7510042D01*
X25815042Y-7510042D01*
X25815042Y-7799958D01*
X26104958Y-7799958D01*
X26104958Y-9704958D02*
X26104958Y-9415042D01*
X25815042Y-9415042D01*
X25815042Y-9704958D01*
X26104958Y-9704958D01*
X28009958Y-6294958D02*
X28009958Y-6005042D01*
X27720042Y-6005042D01*
X27720042Y-6294958D01*
X28009958Y-6294958D01*
X28009958Y-8199958D02*
X28009958Y-7910042D01*
X27720042Y-7910042D01*
X27720042Y-8199958D01*
X28009958Y-8199958D01*
X28009958Y-10104958D02*
X28009958Y-9815042D01*
X27720042Y-9815042D01*
X27720042Y-10104958D01*
X28009958Y-10104958D01*
X29914958Y-7594958D02*
X29914958Y-7305042D01*
X29625042Y-7305042D01*
X29625042Y-7594958D01*
X29914958Y-7594958D01*
X29914958Y-9499958D02*
X29914958Y-9210042D01*
X29625042Y-9210042D01*
X29625042Y-9499958D01*
X29914958Y-9499958D01*
X29914958Y-11404958D02*
X29914958Y-11115042D01*
X29625042Y-11115042D01*
X29625042Y-11404958D01*
X29914958Y-11404958D01*
X31819958Y-7594958D02*
X31819958Y-7305042D01*
X31530042Y-7305042D01*
X31530042Y-7594958D01*
X31819958Y-7594958D01*
X31819958Y-9499958D02*
X31819958Y-9210042D01*
X31530042Y-9210042D01*
X31530042Y-9499958D01*
X31819958Y-9499958D01*
X31819958Y-11404958D02*
X31819958Y-11115042D01*
X31530042Y-11115042D01*
X31530042Y-11404958D01*
X31819958Y-11404958D01*
D11*
X4333277Y-15213984D02*
X4333277Y-15013984D01*
X4333277Y-15013984D02*
X4380896Y-15013984D01*
X4380896Y-15013984D02*
X4409467Y-15023508D01*
X4409467Y-15023508D02*
X4428515Y-15042555D01*
X4428515Y-15042555D02*
X4438039Y-15061603D01*
X4438039Y-15061603D02*
X4447563Y-15099698D01*
X4447563Y-15099698D02*
X4447563Y-15128269D01*
X4447563Y-15128269D02*
X4438039Y-15166365D01*
X4438039Y-15166365D02*
X4428515Y-15185412D01*
X4428515Y-15185412D02*
X4409467Y-15204460D01*
X4409467Y-15204460D02*
X4380896Y-15213984D01*
X4380896Y-15213984D02*
X4333277Y-15213984D01*
X4533277Y-15213984D02*
X4533277Y-15080650D01*
X4533277Y-15118746D02*
X4542801Y-15099698D01*
X4542801Y-15099698D02*
X4552324Y-15090174D01*
X4552324Y-15090174D02*
X4571372Y-15080650D01*
X4571372Y-15080650D02*
X4590420Y-15080650D01*
X4657086Y-15213984D02*
X4657086Y-15080650D01*
X4657086Y-15013984D02*
X4647563Y-15023508D01*
X4647563Y-15023508D02*
X4657086Y-15033031D01*
X4657086Y-15033031D02*
X4666610Y-15023508D01*
X4666610Y-15023508D02*
X4657086Y-15013984D01*
X4657086Y-15013984D02*
X4657086Y-15033031D01*
X4780896Y-15213984D02*
X4761848Y-15204460D01*
X4761848Y-15204460D02*
X4752324Y-15185412D01*
X4752324Y-15185412D02*
X4752324Y-15013984D01*
X4885658Y-15213984D02*
X4866610Y-15204460D01*
X4866610Y-15204460D02*
X4857086Y-15185412D01*
X4857086Y-15185412D02*
X4857086Y-15013984D01*
X5114229Y-15213984D02*
X5114229Y-15013984D01*
X5114229Y-15013984D02*
X5180896Y-15156841D01*
X5180896Y-15156841D02*
X5247563Y-15013984D01*
X5247563Y-15013984D02*
X5247563Y-15213984D01*
X5428515Y-15213984D02*
X5428515Y-15109222D01*
X5428515Y-15109222D02*
X5418991Y-15090174D01*
X5418991Y-15090174D02*
X5399944Y-15080650D01*
X5399944Y-15080650D02*
X5361848Y-15080650D01*
X5361848Y-15080650D02*
X5342801Y-15090174D01*
X5428515Y-15204460D02*
X5409467Y-15213984D01*
X5409467Y-15213984D02*
X5361848Y-15213984D01*
X5361848Y-15213984D02*
X5342801Y-15204460D01*
X5342801Y-15204460D02*
X5333277Y-15185412D01*
X5333277Y-15185412D02*
X5333277Y-15166365D01*
X5333277Y-15166365D02*
X5342801Y-15147317D01*
X5342801Y-15147317D02*
X5361848Y-15137793D01*
X5361848Y-15137793D02*
X5409467Y-15137793D01*
X5409467Y-15137793D02*
X5428515Y-15128269D01*
X5523753Y-15080650D02*
X5523753Y-15280650D01*
X5523753Y-15090174D02*
X5542801Y-15080650D01*
X5542801Y-15080650D02*
X5580896Y-15080650D01*
X5580896Y-15080650D02*
X5599943Y-15090174D01*
X5599943Y-15090174D02*
X5609467Y-15099698D01*
X5609467Y-15099698D02*
X5618991Y-15118746D01*
X5618991Y-15118746D02*
X5618991Y-15175888D01*
X5618991Y-15175888D02*
X5609467Y-15194936D01*
X5609467Y-15194936D02*
X5599943Y-15204460D01*
X5599943Y-15204460D02*
X5580896Y-15213984D01*
X5580896Y-15213984D02*
X5542801Y-15213984D01*
X5542801Y-15213984D02*
X5523753Y-15204460D01*
X5704705Y-15194936D02*
X5714229Y-15204460D01*
X5714229Y-15204460D02*
X5704705Y-15213984D01*
X5704705Y-15213984D02*
X5695182Y-15204460D01*
X5695182Y-15204460D02*
X5704705Y-15194936D01*
X5704705Y-15194936D02*
X5704705Y-15213984D01*
X5704705Y-15090174D02*
X5714229Y-15099698D01*
X5714229Y-15099698D02*
X5704705Y-15109222D01*
X5704705Y-15109222D02*
X5695182Y-15099698D01*
X5695182Y-15099698D02*
X5704705Y-15090174D01*
X5704705Y-15090174D02*
X5704705Y-15109222D01*
D12*
X3952500Y-15482500D02*
X4072500Y-15602500D01*
X4072500Y-15482500D02*
X3952500Y-15602500D01*
D11*
X4438039Y-15633984D02*
X4323753Y-15633984D01*
X4380896Y-15633984D02*
X4380896Y-15433984D01*
X4380896Y-15433984D02*
X4361848Y-15462555D01*
X4361848Y-15462555D02*
X4342801Y-15481603D01*
X4342801Y-15481603D02*
X4323753Y-15491127D01*
X4523753Y-15614936D02*
X4533277Y-15624460D01*
X4533277Y-15624460D02*
X4523753Y-15633984D01*
X4523753Y-15633984D02*
X4514229Y-15624460D01*
X4514229Y-15624460D02*
X4523753Y-15614936D01*
X4523753Y-15614936D02*
X4523753Y-15633984D01*
X4609467Y-15453031D02*
X4618991Y-15443508D01*
X4618991Y-15443508D02*
X4638039Y-15433984D01*
X4638039Y-15433984D02*
X4685658Y-15433984D01*
X4685658Y-15433984D02*
X4704705Y-15443508D01*
X4704705Y-15443508D02*
X4714229Y-15453031D01*
X4714229Y-15453031D02*
X4723753Y-15472079D01*
X4723753Y-15472079D02*
X4723753Y-15491127D01*
X4723753Y-15491127D02*
X4714229Y-15519698D01*
X4714229Y-15519698D02*
X4599944Y-15633984D01*
X4599944Y-15633984D02*
X4723753Y-15633984D01*
X4847563Y-15433984D02*
X4866610Y-15433984D01*
X4866610Y-15433984D02*
X4885658Y-15443508D01*
X4885658Y-15443508D02*
X4895182Y-15453031D01*
X4895182Y-15453031D02*
X4904705Y-15472079D01*
X4904705Y-15472079D02*
X4914229Y-15510174D01*
X4914229Y-15510174D02*
X4914229Y-15557793D01*
X4914229Y-15557793D02*
X4904705Y-15595888D01*
X4904705Y-15595888D02*
X4895182Y-15614936D01*
X4895182Y-15614936D02*
X4885658Y-15624460D01*
X4885658Y-15624460D02*
X4866610Y-15633984D01*
X4866610Y-15633984D02*
X4847563Y-15633984D01*
X4847563Y-15633984D02*
X4828515Y-15624460D01*
X4828515Y-15624460D02*
X4818991Y-15614936D01*
X4818991Y-15614936D02*
X4809467Y-15595888D01*
X4809467Y-15595888D02*
X4799944Y-15557793D01*
X4799944Y-15557793D02*
X4799944Y-15510174D01*
X4799944Y-15510174D02*
X4809467Y-15472079D01*
X4809467Y-15472079D02*
X4818991Y-15453031D01*
X4818991Y-15453031D02*
X4828515Y-15443508D01*
X4828515Y-15443508D02*
X4847563Y-15433984D01*
X5038039Y-15433984D02*
X5057086Y-15433984D01*
X5057086Y-15433984D02*
X5076134Y-15443508D01*
X5076134Y-15443508D02*
X5085658Y-15453031D01*
X5085658Y-15453031D02*
X5095182Y-15472079D01*
X5095182Y-15472079D02*
X5104705Y-15510174D01*
X5104705Y-15510174D02*
X5104705Y-15557793D01*
X5104705Y-15557793D02*
X5095182Y-15595888D01*
X5095182Y-15595888D02*
X5085658Y-15614936D01*
X5085658Y-15614936D02*
X5076134Y-15624460D01*
X5076134Y-15624460D02*
X5057086Y-15633984D01*
X5057086Y-15633984D02*
X5038039Y-15633984D01*
X5038039Y-15633984D02*
X5018991Y-15624460D01*
X5018991Y-15624460D02*
X5009467Y-15614936D01*
X5009467Y-15614936D02*
X4999944Y-15595888D01*
X4999944Y-15595888D02*
X4990420Y-15557793D01*
X4990420Y-15557793D02*
X4990420Y-15510174D01*
X4990420Y-15510174D02*
X4999944Y-15472079D01*
X4999944Y-15472079D02*
X5009467Y-15453031D01*
X5009467Y-15453031D02*
X5018991Y-15443508D01*
X5018991Y-15443508D02*
X5038039Y-15433984D01*
X5190420Y-15633984D02*
X5190420Y-15500650D01*
X5190420Y-15519698D02*
X5199944Y-15510174D01*
X5199944Y-15510174D02*
X5218991Y-15500650D01*
X5218991Y-15500650D02*
X5247563Y-15500650D01*
X5247563Y-15500650D02*
X5266610Y-15510174D01*
X5266610Y-15510174D02*
X5276134Y-15529222D01*
X5276134Y-15529222D02*
X5276134Y-15633984D01*
X5276134Y-15529222D02*
X5285658Y-15510174D01*
X5285658Y-15510174D02*
X5304705Y-15500650D01*
X5304705Y-15500650D02*
X5333277Y-15500650D01*
X5333277Y-15500650D02*
X5352325Y-15510174D01*
X5352325Y-15510174D02*
X5361848Y-15529222D01*
X5361848Y-15529222D02*
X5361848Y-15633984D01*
X5457086Y-15633984D02*
X5457086Y-15500650D01*
X5457086Y-15519698D02*
X5466610Y-15510174D01*
X5466610Y-15510174D02*
X5485658Y-15500650D01*
X5485658Y-15500650D02*
X5514229Y-15500650D01*
X5514229Y-15500650D02*
X5533277Y-15510174D01*
X5533277Y-15510174D02*
X5542801Y-15529222D01*
X5542801Y-15529222D02*
X5542801Y-15633984D01*
X5542801Y-15529222D02*
X5552325Y-15510174D01*
X5552325Y-15510174D02*
X5571372Y-15500650D01*
X5571372Y-15500650D02*
X5599943Y-15500650D01*
X5599943Y-15500650D02*
X5618991Y-15510174D01*
X5618991Y-15510174D02*
X5628515Y-15529222D01*
X5628515Y-15529222D02*
X5628515Y-15633984D01*
X6018991Y-15424460D02*
X5847563Y-15681603D01*
X6276134Y-15433984D02*
X6295182Y-15433984D01*
X6295182Y-15433984D02*
X6314229Y-15443508D01*
X6314229Y-15443508D02*
X6323753Y-15453031D01*
X6323753Y-15453031D02*
X6333277Y-15472079D01*
X6333277Y-15472079D02*
X6342801Y-15510174D01*
X6342801Y-15510174D02*
X6342801Y-15557793D01*
X6342801Y-15557793D02*
X6333277Y-15595888D01*
X6333277Y-15595888D02*
X6323753Y-15614936D01*
X6323753Y-15614936D02*
X6314229Y-15624460D01*
X6314229Y-15624460D02*
X6295182Y-15633984D01*
X6295182Y-15633984D02*
X6276134Y-15633984D01*
X6276134Y-15633984D02*
X6257086Y-15624460D01*
X6257086Y-15624460D02*
X6247563Y-15614936D01*
X6247563Y-15614936D02*
X6238039Y-15595888D01*
X6238039Y-15595888D02*
X6228515Y-15557793D01*
X6228515Y-15557793D02*
X6228515Y-15510174D01*
X6228515Y-15510174D02*
X6238039Y-15472079D01*
X6238039Y-15472079D02*
X6247563Y-15453031D01*
X6247563Y-15453031D02*
X6257086Y-15443508D01*
X6257086Y-15443508D02*
X6276134Y-15433984D01*
X6428515Y-15614936D02*
X6438039Y-15624460D01*
X6438039Y-15624460D02*
X6428515Y-15633984D01*
X6428515Y-15633984D02*
X6418991Y-15624460D01*
X6418991Y-15624460D02*
X6428515Y-15614936D01*
X6428515Y-15614936D02*
X6428515Y-15633984D01*
X6561848Y-15433984D02*
X6580896Y-15433984D01*
X6580896Y-15433984D02*
X6599944Y-15443508D01*
X6599944Y-15443508D02*
X6609467Y-15453031D01*
X6609467Y-15453031D02*
X6618991Y-15472079D01*
X6618991Y-15472079D02*
X6628515Y-15510174D01*
X6628515Y-15510174D02*
X6628515Y-15557793D01*
X6628515Y-15557793D02*
X6618991Y-15595888D01*
X6618991Y-15595888D02*
X6609467Y-15614936D01*
X6609467Y-15614936D02*
X6599944Y-15624460D01*
X6599944Y-15624460D02*
X6580896Y-15633984D01*
X6580896Y-15633984D02*
X6561848Y-15633984D01*
X6561848Y-15633984D02*
X6542801Y-15624460D01*
X6542801Y-15624460D02*
X6533277Y-15614936D01*
X6533277Y-15614936D02*
X6523753Y-15595888D01*
X6523753Y-15595888D02*
X6514229Y-15557793D01*
X6514229Y-15557793D02*
X6514229Y-15510174D01*
X6514229Y-15510174D02*
X6523753Y-15472079D01*
X6523753Y-15472079D02*
X6533277Y-15453031D01*
X6533277Y-15453031D02*
X6542801Y-15443508D01*
X6542801Y-15443508D02*
X6561848Y-15433984D01*
X6799944Y-15500650D02*
X6799944Y-15633984D01*
X6752325Y-15424460D02*
X6704706Y-15567317D01*
X6704706Y-15567317D02*
X6828515Y-15567317D01*
X6885658Y-15433984D02*
X7018991Y-15433984D01*
X7018991Y-15433984D02*
X6933277Y-15633984D01*
X7085658Y-15453031D02*
X7095182Y-15443508D01*
X7095182Y-15443508D02*
X7114229Y-15433984D01*
X7114229Y-15433984D02*
X7161848Y-15433984D01*
X7161848Y-15433984D02*
X7180896Y-15443508D01*
X7180896Y-15443508D02*
X7190420Y-15453031D01*
X7190420Y-15453031D02*
X7199944Y-15472079D01*
X7199944Y-15472079D02*
X7199944Y-15491127D01*
X7199944Y-15491127D02*
X7190420Y-15519698D01*
X7190420Y-15519698D02*
X7076134Y-15633984D01*
X7076134Y-15633984D02*
X7199944Y-15633984D01*
X7276134Y-15433984D02*
X7276134Y-15472079D01*
X7352325Y-15433984D02*
X7352325Y-15472079D01*
X7647563Y-15710174D02*
X7638039Y-15700650D01*
X7638039Y-15700650D02*
X7618991Y-15672079D01*
X7618991Y-15672079D02*
X7609468Y-15653031D01*
X7609468Y-15653031D02*
X7599944Y-15624460D01*
X7599944Y-15624460D02*
X7590420Y-15576841D01*
X7590420Y-15576841D02*
X7590420Y-15538746D01*
X7590420Y-15538746D02*
X7599944Y-15491127D01*
X7599944Y-15491127D02*
X7609468Y-15462555D01*
X7609468Y-15462555D02*
X7618991Y-15443508D01*
X7618991Y-15443508D02*
X7638039Y-15414936D01*
X7638039Y-15414936D02*
X7647563Y-15405412D01*
X7714229Y-15453031D02*
X7723753Y-15443508D01*
X7723753Y-15443508D02*
X7742801Y-15433984D01*
X7742801Y-15433984D02*
X7790420Y-15433984D01*
X7790420Y-15433984D02*
X7809468Y-15443508D01*
X7809468Y-15443508D02*
X7818991Y-15453031D01*
X7818991Y-15453031D02*
X7828515Y-15472079D01*
X7828515Y-15472079D02*
X7828515Y-15491127D01*
X7828515Y-15491127D02*
X7818991Y-15519698D01*
X7818991Y-15519698D02*
X7704706Y-15633984D01*
X7704706Y-15633984D02*
X7828515Y-15633984D01*
X8066610Y-15633984D02*
X8066610Y-15433984D01*
X8152325Y-15633984D02*
X8152325Y-15529222D01*
X8152325Y-15529222D02*
X8142801Y-15510174D01*
X8142801Y-15510174D02*
X8123753Y-15500650D01*
X8123753Y-15500650D02*
X8095182Y-15500650D01*
X8095182Y-15500650D02*
X8076134Y-15510174D01*
X8076134Y-15510174D02*
X8066610Y-15519698D01*
X8276134Y-15633984D02*
X8257087Y-15624460D01*
X8257087Y-15624460D02*
X8247563Y-15614936D01*
X8247563Y-15614936D02*
X8238039Y-15595888D01*
X8238039Y-15595888D02*
X8238039Y-15538746D01*
X8238039Y-15538746D02*
X8247563Y-15519698D01*
X8247563Y-15519698D02*
X8257087Y-15510174D01*
X8257087Y-15510174D02*
X8276134Y-15500650D01*
X8276134Y-15500650D02*
X8304706Y-15500650D01*
X8304706Y-15500650D02*
X8323753Y-15510174D01*
X8323753Y-15510174D02*
X8333277Y-15519698D01*
X8333277Y-15519698D02*
X8342801Y-15538746D01*
X8342801Y-15538746D02*
X8342801Y-15595888D01*
X8342801Y-15595888D02*
X8333277Y-15614936D01*
X8333277Y-15614936D02*
X8323753Y-15624460D01*
X8323753Y-15624460D02*
X8304706Y-15633984D01*
X8304706Y-15633984D02*
X8276134Y-15633984D01*
X8457087Y-15633984D02*
X8438039Y-15624460D01*
X8438039Y-15624460D02*
X8428515Y-15605412D01*
X8428515Y-15605412D02*
X8428515Y-15433984D01*
X8609468Y-15624460D02*
X8590420Y-15633984D01*
X8590420Y-15633984D02*
X8552325Y-15633984D01*
X8552325Y-15633984D02*
X8533277Y-15624460D01*
X8533277Y-15624460D02*
X8523753Y-15605412D01*
X8523753Y-15605412D02*
X8523753Y-15529222D01*
X8523753Y-15529222D02*
X8533277Y-15510174D01*
X8533277Y-15510174D02*
X8552325Y-15500650D01*
X8552325Y-15500650D02*
X8590420Y-15500650D01*
X8590420Y-15500650D02*
X8609468Y-15510174D01*
X8609468Y-15510174D02*
X8618992Y-15529222D01*
X8618992Y-15529222D02*
X8618992Y-15548269D01*
X8618992Y-15548269D02*
X8523753Y-15567317D01*
X8695182Y-15624460D02*
X8714230Y-15633984D01*
X8714230Y-15633984D02*
X8752325Y-15633984D01*
X8752325Y-15633984D02*
X8771373Y-15624460D01*
X8771373Y-15624460D02*
X8780896Y-15605412D01*
X8780896Y-15605412D02*
X8780896Y-15595888D01*
X8780896Y-15595888D02*
X8771373Y-15576841D01*
X8771373Y-15576841D02*
X8752325Y-15567317D01*
X8752325Y-15567317D02*
X8723753Y-15567317D01*
X8723753Y-15567317D02*
X8704706Y-15557793D01*
X8704706Y-15557793D02*
X8695182Y-15538746D01*
X8695182Y-15538746D02*
X8695182Y-15529222D01*
X8695182Y-15529222D02*
X8704706Y-15510174D01*
X8704706Y-15510174D02*
X8723753Y-15500650D01*
X8723753Y-15500650D02*
X8752325Y-15500650D01*
X8752325Y-15500650D02*
X8771373Y-15510174D01*
X8847563Y-15710174D02*
X8857087Y-15700650D01*
X8857087Y-15700650D02*
X8876134Y-15672079D01*
X8876134Y-15672079D02*
X8885658Y-15653031D01*
X8885658Y-15653031D02*
X8895182Y-15624460D01*
X8895182Y-15624460D02*
X8904706Y-15576841D01*
X8904706Y-15576841D02*
X8904706Y-15538746D01*
X8904706Y-15538746D02*
X8895182Y-15491127D01*
X8895182Y-15491127D02*
X8885658Y-15462555D01*
X8885658Y-15462555D02*
X8876134Y-15443508D01*
X8876134Y-15443508D02*
X8857087Y-15414936D01*
X8857087Y-15414936D02*
X8847563Y-15405412D01*
X9209468Y-15710174D02*
X9199944Y-15700650D01*
X9199944Y-15700650D02*
X9180896Y-15672079D01*
X9180896Y-15672079D02*
X9171373Y-15653031D01*
X9171373Y-15653031D02*
X9161849Y-15624460D01*
X9161849Y-15624460D02*
X9152325Y-15576841D01*
X9152325Y-15576841D02*
X9152325Y-15538746D01*
X9152325Y-15538746D02*
X9161849Y-15491127D01*
X9161849Y-15491127D02*
X9171373Y-15462555D01*
X9171373Y-15462555D02*
X9180896Y-15443508D01*
X9180896Y-15443508D02*
X9199944Y-15414936D01*
X9199944Y-15414936D02*
X9209468Y-15405412D01*
X9285658Y-15500650D02*
X9285658Y-15633984D01*
X9285658Y-15519698D02*
X9295182Y-15510174D01*
X9295182Y-15510174D02*
X9314230Y-15500650D01*
X9314230Y-15500650D02*
X9342801Y-15500650D01*
X9342801Y-15500650D02*
X9361849Y-15510174D01*
X9361849Y-15510174D02*
X9371373Y-15529222D01*
X9371373Y-15529222D02*
X9371373Y-15633984D01*
X9495182Y-15633984D02*
X9476134Y-15624460D01*
X9476134Y-15624460D02*
X9466611Y-15614936D01*
X9466611Y-15614936D02*
X9457087Y-15595888D01*
X9457087Y-15595888D02*
X9457087Y-15538746D01*
X9457087Y-15538746D02*
X9466611Y-15519698D01*
X9466611Y-15519698D02*
X9476134Y-15510174D01*
X9476134Y-15510174D02*
X9495182Y-15500650D01*
X9495182Y-15500650D02*
X9523754Y-15500650D01*
X9523754Y-15500650D02*
X9542801Y-15510174D01*
X9542801Y-15510174D02*
X9552325Y-15519698D01*
X9552325Y-15519698D02*
X9561849Y-15538746D01*
X9561849Y-15538746D02*
X9561849Y-15595888D01*
X9561849Y-15595888D02*
X9552325Y-15614936D01*
X9552325Y-15614936D02*
X9542801Y-15624460D01*
X9542801Y-15624460D02*
X9523754Y-15633984D01*
X9523754Y-15633984D02*
X9495182Y-15633984D01*
X9618992Y-15500650D02*
X9695182Y-15500650D01*
X9647563Y-15433984D02*
X9647563Y-15605412D01*
X9647563Y-15605412D02*
X9657087Y-15624460D01*
X9657087Y-15624460D02*
X9676134Y-15633984D01*
X9676134Y-15633984D02*
X9695182Y-15633984D01*
X9914230Y-15500650D02*
X9914230Y-15700650D01*
X9914230Y-15510174D02*
X9933277Y-15500650D01*
X9933277Y-15500650D02*
X9971373Y-15500650D01*
X9971373Y-15500650D02*
X9990420Y-15510174D01*
X9990420Y-15510174D02*
X9999944Y-15519698D01*
X9999944Y-15519698D02*
X10009468Y-15538746D01*
X10009468Y-15538746D02*
X10009468Y-15595888D01*
X10009468Y-15595888D02*
X9999944Y-15614936D01*
X9999944Y-15614936D02*
X9990420Y-15624460D01*
X9990420Y-15624460D02*
X9971373Y-15633984D01*
X9971373Y-15633984D02*
X9933277Y-15633984D01*
X9933277Y-15633984D02*
X9914230Y-15624460D01*
X10123754Y-15633984D02*
X10104706Y-15624460D01*
X10104706Y-15624460D02*
X10095182Y-15605412D01*
X10095182Y-15605412D02*
X10095182Y-15433984D01*
X10285658Y-15633984D02*
X10285658Y-15529222D01*
X10285658Y-15529222D02*
X10276135Y-15510174D01*
X10276135Y-15510174D02*
X10257087Y-15500650D01*
X10257087Y-15500650D02*
X10218992Y-15500650D01*
X10218992Y-15500650D02*
X10199944Y-15510174D01*
X10285658Y-15624460D02*
X10266611Y-15633984D01*
X10266611Y-15633984D02*
X10218992Y-15633984D01*
X10218992Y-15633984D02*
X10199944Y-15624460D01*
X10199944Y-15624460D02*
X10190420Y-15605412D01*
X10190420Y-15605412D02*
X10190420Y-15586365D01*
X10190420Y-15586365D02*
X10199944Y-15567317D01*
X10199944Y-15567317D02*
X10218992Y-15557793D01*
X10218992Y-15557793D02*
X10266611Y-15557793D01*
X10266611Y-15557793D02*
X10285658Y-15548269D01*
X10352325Y-15500650D02*
X10428515Y-15500650D01*
X10380896Y-15433984D02*
X10380896Y-15605412D01*
X10380896Y-15605412D02*
X10390420Y-15624460D01*
X10390420Y-15624460D02*
X10409468Y-15633984D01*
X10409468Y-15633984D02*
X10428515Y-15633984D01*
X10571373Y-15624460D02*
X10552325Y-15633984D01*
X10552325Y-15633984D02*
X10514230Y-15633984D01*
X10514230Y-15633984D02*
X10495182Y-15624460D01*
X10495182Y-15624460D02*
X10485658Y-15605412D01*
X10485658Y-15605412D02*
X10485658Y-15529222D01*
X10485658Y-15529222D02*
X10495182Y-15510174D01*
X10495182Y-15510174D02*
X10514230Y-15500650D01*
X10514230Y-15500650D02*
X10552325Y-15500650D01*
X10552325Y-15500650D02*
X10571373Y-15510174D01*
X10571373Y-15510174D02*
X10580896Y-15529222D01*
X10580896Y-15529222D02*
X10580896Y-15548269D01*
X10580896Y-15548269D02*
X10485658Y-15567317D01*
X10752325Y-15633984D02*
X10752325Y-15433984D01*
X10752325Y-15624460D02*
X10733277Y-15633984D01*
X10733277Y-15633984D02*
X10695182Y-15633984D01*
X10695182Y-15633984D02*
X10676135Y-15624460D01*
X10676135Y-15624460D02*
X10666611Y-15614936D01*
X10666611Y-15614936D02*
X10657087Y-15595888D01*
X10657087Y-15595888D02*
X10657087Y-15538746D01*
X10657087Y-15538746D02*
X10666611Y-15519698D01*
X10666611Y-15519698D02*
X10676135Y-15510174D01*
X10676135Y-15510174D02*
X10695182Y-15500650D01*
X10695182Y-15500650D02*
X10733277Y-15500650D01*
X10733277Y-15500650D02*
X10752325Y-15510174D01*
X10828516Y-15710174D02*
X10838039Y-15700650D01*
X10838039Y-15700650D02*
X10857087Y-15672079D01*
X10857087Y-15672079D02*
X10866611Y-15653031D01*
X10866611Y-15653031D02*
X10876135Y-15624460D01*
X10876135Y-15624460D02*
X10885658Y-15576841D01*
X10885658Y-15576841D02*
X10885658Y-15538746D01*
X10885658Y-15538746D02*
X10876135Y-15491127D01*
X10876135Y-15491127D02*
X10866611Y-15462555D01*
X10866611Y-15462555D02*
X10857087Y-15443508D01*
X10857087Y-15443508D02*
X10838039Y-15414936D01*
X10838039Y-15414936D02*
X10828516Y-15405412D01*
D13*
X4072500Y-15806500D02*
G75*
G02*
X3882500Y-15806500I-95000J0D01*
G01*
X3882500Y-15806500D02*
G75*
G02*
X4072500Y-15806500I95000J0D01*
G01*
D11*
X4438039Y-15897984D02*
X4323753Y-15897984D01*
X4380896Y-15897984D02*
X4380896Y-15697984D01*
X4380896Y-15697984D02*
X4361848Y-15726555D01*
X4361848Y-15726555D02*
X4342801Y-15745603D01*
X4342801Y-15745603D02*
X4323753Y-15755127D01*
X4523753Y-15878936D02*
X4533277Y-15888460D01*
X4533277Y-15888460D02*
X4523753Y-15897984D01*
X4523753Y-15897984D02*
X4514229Y-15888460D01*
X4514229Y-15888460D02*
X4523753Y-15878936D01*
X4523753Y-15878936D02*
X4523753Y-15897984D01*
X4628515Y-15897984D02*
X4666610Y-15897984D01*
X4666610Y-15897984D02*
X4685658Y-15888460D01*
X4685658Y-15888460D02*
X4695182Y-15878936D01*
X4695182Y-15878936D02*
X4714229Y-15850365D01*
X4714229Y-15850365D02*
X4723753Y-15812269D01*
X4723753Y-15812269D02*
X4723753Y-15736079D01*
X4723753Y-15736079D02*
X4714229Y-15717031D01*
X4714229Y-15717031D02*
X4704705Y-15707508D01*
X4704705Y-15707508D02*
X4685658Y-15697984D01*
X4685658Y-15697984D02*
X4647563Y-15697984D01*
X4647563Y-15697984D02*
X4628515Y-15707508D01*
X4628515Y-15707508D02*
X4618991Y-15717031D01*
X4618991Y-15717031D02*
X4609467Y-15736079D01*
X4609467Y-15736079D02*
X4609467Y-15783698D01*
X4609467Y-15783698D02*
X4618991Y-15802746D01*
X4618991Y-15802746D02*
X4628515Y-15812269D01*
X4628515Y-15812269D02*
X4647563Y-15821793D01*
X4647563Y-15821793D02*
X4685658Y-15821793D01*
X4685658Y-15821793D02*
X4704705Y-15812269D01*
X4704705Y-15812269D02*
X4714229Y-15802746D01*
X4714229Y-15802746D02*
X4723753Y-15783698D01*
X4847563Y-15697984D02*
X4866610Y-15697984D01*
X4866610Y-15697984D02*
X4885658Y-15707508D01*
X4885658Y-15707508D02*
X4895182Y-15717031D01*
X4895182Y-15717031D02*
X4904705Y-15736079D01*
X4904705Y-15736079D02*
X4914229Y-15774174D01*
X4914229Y-15774174D02*
X4914229Y-15821793D01*
X4914229Y-15821793D02*
X4904705Y-15859888D01*
X4904705Y-15859888D02*
X4895182Y-15878936D01*
X4895182Y-15878936D02*
X4885658Y-15888460D01*
X4885658Y-15888460D02*
X4866610Y-15897984D01*
X4866610Y-15897984D02*
X4847563Y-15897984D01*
X4847563Y-15897984D02*
X4828515Y-15888460D01*
X4828515Y-15888460D02*
X4818991Y-15878936D01*
X4818991Y-15878936D02*
X4809467Y-15859888D01*
X4809467Y-15859888D02*
X4799944Y-15821793D01*
X4799944Y-15821793D02*
X4799944Y-15774174D01*
X4799944Y-15774174D02*
X4809467Y-15736079D01*
X4809467Y-15736079D02*
X4818991Y-15717031D01*
X4818991Y-15717031D02*
X4828515Y-15707508D01*
X4828515Y-15707508D02*
X4847563Y-15697984D01*
X5038039Y-15697984D02*
X5057086Y-15697984D01*
X5057086Y-15697984D02*
X5076134Y-15707508D01*
X5076134Y-15707508D02*
X5085658Y-15717031D01*
X5085658Y-15717031D02*
X5095182Y-15736079D01*
X5095182Y-15736079D02*
X5104705Y-15774174D01*
X5104705Y-15774174D02*
X5104705Y-15821793D01*
X5104705Y-15821793D02*
X5095182Y-15859888D01*
X5095182Y-15859888D02*
X5085658Y-15878936D01*
X5085658Y-15878936D02*
X5076134Y-15888460D01*
X5076134Y-15888460D02*
X5057086Y-15897984D01*
X5057086Y-15897984D02*
X5038039Y-15897984D01*
X5038039Y-15897984D02*
X5018991Y-15888460D01*
X5018991Y-15888460D02*
X5009467Y-15878936D01*
X5009467Y-15878936D02*
X4999944Y-15859888D01*
X4999944Y-15859888D02*
X4990420Y-15821793D01*
X4990420Y-15821793D02*
X4990420Y-15774174D01*
X4990420Y-15774174D02*
X4999944Y-15736079D01*
X4999944Y-15736079D02*
X5009467Y-15717031D01*
X5009467Y-15717031D02*
X5018991Y-15707508D01*
X5018991Y-15707508D02*
X5038039Y-15697984D01*
X5190420Y-15897984D02*
X5190420Y-15764650D01*
X5190420Y-15783698D02*
X5199944Y-15774174D01*
X5199944Y-15774174D02*
X5218991Y-15764650D01*
X5218991Y-15764650D02*
X5247563Y-15764650D01*
X5247563Y-15764650D02*
X5266610Y-15774174D01*
X5266610Y-15774174D02*
X5276134Y-15793222D01*
X5276134Y-15793222D02*
X5276134Y-15897984D01*
X5276134Y-15793222D02*
X5285658Y-15774174D01*
X5285658Y-15774174D02*
X5304705Y-15764650D01*
X5304705Y-15764650D02*
X5333277Y-15764650D01*
X5333277Y-15764650D02*
X5352325Y-15774174D01*
X5352325Y-15774174D02*
X5361848Y-15793222D01*
X5361848Y-15793222D02*
X5361848Y-15897984D01*
X5457086Y-15897984D02*
X5457086Y-15764650D01*
X5457086Y-15783698D02*
X5466610Y-15774174D01*
X5466610Y-15774174D02*
X5485658Y-15764650D01*
X5485658Y-15764650D02*
X5514229Y-15764650D01*
X5514229Y-15764650D02*
X5533277Y-15774174D01*
X5533277Y-15774174D02*
X5542801Y-15793222D01*
X5542801Y-15793222D02*
X5542801Y-15897984D01*
X5542801Y-15793222D02*
X5552325Y-15774174D01*
X5552325Y-15774174D02*
X5571372Y-15764650D01*
X5571372Y-15764650D02*
X5599943Y-15764650D01*
X5599943Y-15764650D02*
X5618991Y-15774174D01*
X5618991Y-15774174D02*
X5628515Y-15793222D01*
X5628515Y-15793222D02*
X5628515Y-15897984D01*
X6018991Y-15688460D02*
X5847563Y-15945603D01*
X6276134Y-15697984D02*
X6295182Y-15697984D01*
X6295182Y-15697984D02*
X6314229Y-15707508D01*
X6314229Y-15707508D02*
X6323753Y-15717031D01*
X6323753Y-15717031D02*
X6333277Y-15736079D01*
X6333277Y-15736079D02*
X6342801Y-15774174D01*
X6342801Y-15774174D02*
X6342801Y-15821793D01*
X6342801Y-15821793D02*
X6333277Y-15859888D01*
X6333277Y-15859888D02*
X6323753Y-15878936D01*
X6323753Y-15878936D02*
X6314229Y-15888460D01*
X6314229Y-15888460D02*
X6295182Y-15897984D01*
X6295182Y-15897984D02*
X6276134Y-15897984D01*
X6276134Y-15897984D02*
X6257086Y-15888460D01*
X6257086Y-15888460D02*
X6247563Y-15878936D01*
X6247563Y-15878936D02*
X6238039Y-15859888D01*
X6238039Y-15859888D02*
X6228515Y-15821793D01*
X6228515Y-15821793D02*
X6228515Y-15774174D01*
X6228515Y-15774174D02*
X6238039Y-15736079D01*
X6238039Y-15736079D02*
X6247563Y-15717031D01*
X6247563Y-15717031D02*
X6257086Y-15707508D01*
X6257086Y-15707508D02*
X6276134Y-15697984D01*
X6428515Y-15878936D02*
X6438039Y-15888460D01*
X6438039Y-15888460D02*
X6428515Y-15897984D01*
X6428515Y-15897984D02*
X6418991Y-15888460D01*
X6418991Y-15888460D02*
X6428515Y-15878936D01*
X6428515Y-15878936D02*
X6428515Y-15897984D01*
X6561848Y-15697984D02*
X6580896Y-15697984D01*
X6580896Y-15697984D02*
X6599944Y-15707508D01*
X6599944Y-15707508D02*
X6609467Y-15717031D01*
X6609467Y-15717031D02*
X6618991Y-15736079D01*
X6618991Y-15736079D02*
X6628515Y-15774174D01*
X6628515Y-15774174D02*
X6628515Y-15821793D01*
X6628515Y-15821793D02*
X6618991Y-15859888D01*
X6618991Y-15859888D02*
X6609467Y-15878936D01*
X6609467Y-15878936D02*
X6599944Y-15888460D01*
X6599944Y-15888460D02*
X6580896Y-15897984D01*
X6580896Y-15897984D02*
X6561848Y-15897984D01*
X6561848Y-15897984D02*
X6542801Y-15888460D01*
X6542801Y-15888460D02*
X6533277Y-15878936D01*
X6533277Y-15878936D02*
X6523753Y-15859888D01*
X6523753Y-15859888D02*
X6514229Y-15821793D01*
X6514229Y-15821793D02*
X6514229Y-15774174D01*
X6514229Y-15774174D02*
X6523753Y-15736079D01*
X6523753Y-15736079D02*
X6533277Y-15717031D01*
X6533277Y-15717031D02*
X6542801Y-15707508D01*
X6542801Y-15707508D02*
X6561848Y-15697984D01*
X6695182Y-15697984D02*
X6828515Y-15697984D01*
X6828515Y-15697984D02*
X6742801Y-15897984D01*
X6990420Y-15764650D02*
X6990420Y-15897984D01*
X6942801Y-15688460D02*
X6895182Y-15831317D01*
X6895182Y-15831317D02*
X7018991Y-15831317D01*
X7123753Y-15783698D02*
X7104706Y-15774174D01*
X7104706Y-15774174D02*
X7095182Y-15764650D01*
X7095182Y-15764650D02*
X7085658Y-15745603D01*
X7085658Y-15745603D02*
X7085658Y-15736079D01*
X7085658Y-15736079D02*
X7095182Y-15717031D01*
X7095182Y-15717031D02*
X7104706Y-15707508D01*
X7104706Y-15707508D02*
X7123753Y-15697984D01*
X7123753Y-15697984D02*
X7161848Y-15697984D01*
X7161848Y-15697984D02*
X7180896Y-15707508D01*
X7180896Y-15707508D02*
X7190420Y-15717031D01*
X7190420Y-15717031D02*
X7199944Y-15736079D01*
X7199944Y-15736079D02*
X7199944Y-15745603D01*
X7199944Y-15745603D02*
X7190420Y-15764650D01*
X7190420Y-15764650D02*
X7180896Y-15774174D01*
X7180896Y-15774174D02*
X7161848Y-15783698D01*
X7161848Y-15783698D02*
X7123753Y-15783698D01*
X7123753Y-15783698D02*
X7104706Y-15793222D01*
X7104706Y-15793222D02*
X7095182Y-15802746D01*
X7095182Y-15802746D02*
X7085658Y-15821793D01*
X7085658Y-15821793D02*
X7085658Y-15859888D01*
X7085658Y-15859888D02*
X7095182Y-15878936D01*
X7095182Y-15878936D02*
X7104706Y-15888460D01*
X7104706Y-15888460D02*
X7123753Y-15897984D01*
X7123753Y-15897984D02*
X7161848Y-15897984D01*
X7161848Y-15897984D02*
X7180896Y-15888460D01*
X7180896Y-15888460D02*
X7190420Y-15878936D01*
X7190420Y-15878936D02*
X7199944Y-15859888D01*
X7199944Y-15859888D02*
X7199944Y-15821793D01*
X7199944Y-15821793D02*
X7190420Y-15802746D01*
X7190420Y-15802746D02*
X7180896Y-15793222D01*
X7180896Y-15793222D02*
X7161848Y-15783698D01*
X7276134Y-15697984D02*
X7276134Y-15736079D01*
X7352325Y-15697984D02*
X7352325Y-15736079D01*
X7647563Y-15974174D02*
X7638039Y-15964650D01*
X7638039Y-15964650D02*
X7618991Y-15936079D01*
X7618991Y-15936079D02*
X7609468Y-15917031D01*
X7609468Y-15917031D02*
X7599944Y-15888460D01*
X7599944Y-15888460D02*
X7590420Y-15840841D01*
X7590420Y-15840841D02*
X7590420Y-15802746D01*
X7590420Y-15802746D02*
X7599944Y-15755127D01*
X7599944Y-15755127D02*
X7609468Y-15726555D01*
X7609468Y-15726555D02*
X7618991Y-15707508D01*
X7618991Y-15707508D02*
X7638039Y-15678936D01*
X7638039Y-15678936D02*
X7647563Y-15669412D01*
X7752325Y-15783698D02*
X7733277Y-15774174D01*
X7733277Y-15774174D02*
X7723753Y-15764650D01*
X7723753Y-15764650D02*
X7714229Y-15745603D01*
X7714229Y-15745603D02*
X7714229Y-15736079D01*
X7714229Y-15736079D02*
X7723753Y-15717031D01*
X7723753Y-15717031D02*
X7733277Y-15707508D01*
X7733277Y-15707508D02*
X7752325Y-15697984D01*
X7752325Y-15697984D02*
X7790420Y-15697984D01*
X7790420Y-15697984D02*
X7809468Y-15707508D01*
X7809468Y-15707508D02*
X7818991Y-15717031D01*
X7818991Y-15717031D02*
X7828515Y-15736079D01*
X7828515Y-15736079D02*
X7828515Y-15745603D01*
X7828515Y-15745603D02*
X7818991Y-15764650D01*
X7818991Y-15764650D02*
X7809468Y-15774174D01*
X7809468Y-15774174D02*
X7790420Y-15783698D01*
X7790420Y-15783698D02*
X7752325Y-15783698D01*
X7752325Y-15783698D02*
X7733277Y-15793222D01*
X7733277Y-15793222D02*
X7723753Y-15802746D01*
X7723753Y-15802746D02*
X7714229Y-15821793D01*
X7714229Y-15821793D02*
X7714229Y-15859888D01*
X7714229Y-15859888D02*
X7723753Y-15878936D01*
X7723753Y-15878936D02*
X7733277Y-15888460D01*
X7733277Y-15888460D02*
X7752325Y-15897984D01*
X7752325Y-15897984D02*
X7790420Y-15897984D01*
X7790420Y-15897984D02*
X7809468Y-15888460D01*
X7809468Y-15888460D02*
X7818991Y-15878936D01*
X7818991Y-15878936D02*
X7828515Y-15859888D01*
X7828515Y-15859888D02*
X7828515Y-15821793D01*
X7828515Y-15821793D02*
X7818991Y-15802746D01*
X7818991Y-15802746D02*
X7809468Y-15793222D01*
X7809468Y-15793222D02*
X7790420Y-15783698D01*
X7999944Y-15764650D02*
X7999944Y-15897984D01*
X7952325Y-15688460D02*
X7904706Y-15831317D01*
X7904706Y-15831317D02*
X8028515Y-15831317D01*
X8257087Y-15897984D02*
X8257087Y-15697984D01*
X8342801Y-15897984D02*
X8342801Y-15793222D01*
X8342801Y-15793222D02*
X8333277Y-15774174D01*
X8333277Y-15774174D02*
X8314230Y-15764650D01*
X8314230Y-15764650D02*
X8285658Y-15764650D01*
X8285658Y-15764650D02*
X8266610Y-15774174D01*
X8266610Y-15774174D02*
X8257087Y-15783698D01*
X8466611Y-15897984D02*
X8447563Y-15888460D01*
X8447563Y-15888460D02*
X8438039Y-15878936D01*
X8438039Y-15878936D02*
X8428515Y-15859888D01*
X8428515Y-15859888D02*
X8428515Y-15802746D01*
X8428515Y-15802746D02*
X8438039Y-15783698D01*
X8438039Y-15783698D02*
X8447563Y-15774174D01*
X8447563Y-15774174D02*
X8466611Y-15764650D01*
X8466611Y-15764650D02*
X8495182Y-15764650D01*
X8495182Y-15764650D02*
X8514230Y-15774174D01*
X8514230Y-15774174D02*
X8523753Y-15783698D01*
X8523753Y-15783698D02*
X8533277Y-15802746D01*
X8533277Y-15802746D02*
X8533277Y-15859888D01*
X8533277Y-15859888D02*
X8523753Y-15878936D01*
X8523753Y-15878936D02*
X8514230Y-15888460D01*
X8514230Y-15888460D02*
X8495182Y-15897984D01*
X8495182Y-15897984D02*
X8466611Y-15897984D01*
X8647563Y-15897984D02*
X8628515Y-15888460D01*
X8628515Y-15888460D02*
X8618992Y-15869412D01*
X8618992Y-15869412D02*
X8618992Y-15697984D01*
X8799944Y-15888460D02*
X8780896Y-15897984D01*
X8780896Y-15897984D02*
X8742801Y-15897984D01*
X8742801Y-15897984D02*
X8723753Y-15888460D01*
X8723753Y-15888460D02*
X8714230Y-15869412D01*
X8714230Y-15869412D02*
X8714230Y-15793222D01*
X8714230Y-15793222D02*
X8723753Y-15774174D01*
X8723753Y-15774174D02*
X8742801Y-15764650D01*
X8742801Y-15764650D02*
X8780896Y-15764650D01*
X8780896Y-15764650D02*
X8799944Y-15774174D01*
X8799944Y-15774174D02*
X8809468Y-15793222D01*
X8809468Y-15793222D02*
X8809468Y-15812269D01*
X8809468Y-15812269D02*
X8714230Y-15831317D01*
X8885658Y-15888460D02*
X8904706Y-15897984D01*
X8904706Y-15897984D02*
X8942801Y-15897984D01*
X8942801Y-15897984D02*
X8961849Y-15888460D01*
X8961849Y-15888460D02*
X8971373Y-15869412D01*
X8971373Y-15869412D02*
X8971373Y-15859888D01*
X8971373Y-15859888D02*
X8961849Y-15840841D01*
X8961849Y-15840841D02*
X8942801Y-15831317D01*
X8942801Y-15831317D02*
X8914230Y-15831317D01*
X8914230Y-15831317D02*
X8895182Y-15821793D01*
X8895182Y-15821793D02*
X8885658Y-15802746D01*
X8885658Y-15802746D02*
X8885658Y-15793222D01*
X8885658Y-15793222D02*
X8895182Y-15774174D01*
X8895182Y-15774174D02*
X8914230Y-15764650D01*
X8914230Y-15764650D02*
X8942801Y-15764650D01*
X8942801Y-15764650D02*
X8961849Y-15774174D01*
X9038039Y-15974174D02*
X9047563Y-15964650D01*
X9047563Y-15964650D02*
X9066611Y-15936079D01*
X9066611Y-15936079D02*
X9076134Y-15917031D01*
X9076134Y-15917031D02*
X9085658Y-15888460D01*
X9085658Y-15888460D02*
X9095182Y-15840841D01*
X9095182Y-15840841D02*
X9095182Y-15802746D01*
X9095182Y-15802746D02*
X9085658Y-15755127D01*
X9085658Y-15755127D02*
X9076134Y-15726555D01*
X9076134Y-15726555D02*
X9066611Y-15707508D01*
X9066611Y-15707508D02*
X9047563Y-15678936D01*
X9047563Y-15678936D02*
X9038039Y-15669412D01*
X9399944Y-15974174D02*
X9390420Y-15964650D01*
X9390420Y-15964650D02*
X9371373Y-15936079D01*
X9371373Y-15936079D02*
X9361849Y-15917031D01*
X9361849Y-15917031D02*
X9352325Y-15888460D01*
X9352325Y-15888460D02*
X9342801Y-15840841D01*
X9342801Y-15840841D02*
X9342801Y-15802746D01*
X9342801Y-15802746D02*
X9352325Y-15755127D01*
X9352325Y-15755127D02*
X9361849Y-15726555D01*
X9361849Y-15726555D02*
X9371373Y-15707508D01*
X9371373Y-15707508D02*
X9390420Y-15678936D01*
X9390420Y-15678936D02*
X9399944Y-15669412D01*
X9476134Y-15764650D02*
X9476134Y-15897984D01*
X9476134Y-15783698D02*
X9485658Y-15774174D01*
X9485658Y-15774174D02*
X9504706Y-15764650D01*
X9504706Y-15764650D02*
X9533277Y-15764650D01*
X9533277Y-15764650D02*
X9552325Y-15774174D01*
X9552325Y-15774174D02*
X9561849Y-15793222D01*
X9561849Y-15793222D02*
X9561849Y-15897984D01*
X9685658Y-15897984D02*
X9666611Y-15888460D01*
X9666611Y-15888460D02*
X9657087Y-15878936D01*
X9657087Y-15878936D02*
X9647563Y-15859888D01*
X9647563Y-15859888D02*
X9647563Y-15802746D01*
X9647563Y-15802746D02*
X9657087Y-15783698D01*
X9657087Y-15783698D02*
X9666611Y-15774174D01*
X9666611Y-15774174D02*
X9685658Y-15764650D01*
X9685658Y-15764650D02*
X9714230Y-15764650D01*
X9714230Y-15764650D02*
X9733277Y-15774174D01*
X9733277Y-15774174D02*
X9742801Y-15783698D01*
X9742801Y-15783698D02*
X9752325Y-15802746D01*
X9752325Y-15802746D02*
X9752325Y-15859888D01*
X9752325Y-15859888D02*
X9742801Y-15878936D01*
X9742801Y-15878936D02*
X9733277Y-15888460D01*
X9733277Y-15888460D02*
X9714230Y-15897984D01*
X9714230Y-15897984D02*
X9685658Y-15897984D01*
X9809468Y-15764650D02*
X9885658Y-15764650D01*
X9838039Y-15697984D02*
X9838039Y-15869412D01*
X9838039Y-15869412D02*
X9847563Y-15888460D01*
X9847563Y-15888460D02*
X9866611Y-15897984D01*
X9866611Y-15897984D02*
X9885658Y-15897984D01*
X10104706Y-15764650D02*
X10104706Y-15964650D01*
X10104706Y-15774174D02*
X10123754Y-15764650D01*
X10123754Y-15764650D02*
X10161849Y-15764650D01*
X10161849Y-15764650D02*
X10180896Y-15774174D01*
X10180896Y-15774174D02*
X10190420Y-15783698D01*
X10190420Y-15783698D02*
X10199944Y-15802746D01*
X10199944Y-15802746D02*
X10199944Y-15859888D01*
X10199944Y-15859888D02*
X10190420Y-15878936D01*
X10190420Y-15878936D02*
X10180896Y-15888460D01*
X10180896Y-15888460D02*
X10161849Y-15897984D01*
X10161849Y-15897984D02*
X10123754Y-15897984D01*
X10123754Y-15897984D02*
X10104706Y-15888460D01*
X10314230Y-15897984D02*
X10295182Y-15888460D01*
X10295182Y-15888460D02*
X10285658Y-15869412D01*
X10285658Y-15869412D02*
X10285658Y-15697984D01*
X10476135Y-15897984D02*
X10476135Y-15793222D01*
X10476135Y-15793222D02*
X10466611Y-15774174D01*
X10466611Y-15774174D02*
X10447563Y-15764650D01*
X10447563Y-15764650D02*
X10409468Y-15764650D01*
X10409468Y-15764650D02*
X10390420Y-15774174D01*
X10476135Y-15888460D02*
X10457087Y-15897984D01*
X10457087Y-15897984D02*
X10409468Y-15897984D01*
X10409468Y-15897984D02*
X10390420Y-15888460D01*
X10390420Y-15888460D02*
X10380896Y-15869412D01*
X10380896Y-15869412D02*
X10380896Y-15850365D01*
X10380896Y-15850365D02*
X10390420Y-15831317D01*
X10390420Y-15831317D02*
X10409468Y-15821793D01*
X10409468Y-15821793D02*
X10457087Y-15821793D01*
X10457087Y-15821793D02*
X10476135Y-15812269D01*
X10542801Y-15764650D02*
X10618992Y-15764650D01*
X10571373Y-15697984D02*
X10571373Y-15869412D01*
X10571373Y-15869412D02*
X10580896Y-15888460D01*
X10580896Y-15888460D02*
X10599944Y-15897984D01*
X10599944Y-15897984D02*
X10618992Y-15897984D01*
X10761849Y-15888460D02*
X10742801Y-15897984D01*
X10742801Y-15897984D02*
X10704706Y-15897984D01*
X10704706Y-15897984D02*
X10685658Y-15888460D01*
X10685658Y-15888460D02*
X10676135Y-15869412D01*
X10676135Y-15869412D02*
X10676135Y-15793222D01*
X10676135Y-15793222D02*
X10685658Y-15774174D01*
X10685658Y-15774174D02*
X10704706Y-15764650D01*
X10704706Y-15764650D02*
X10742801Y-15764650D01*
X10742801Y-15764650D02*
X10761849Y-15774174D01*
X10761849Y-15774174D02*
X10771373Y-15793222D01*
X10771373Y-15793222D02*
X10771373Y-15812269D01*
X10771373Y-15812269D02*
X10676135Y-15831317D01*
X10942801Y-15897984D02*
X10942801Y-15697984D01*
X10942801Y-15888460D02*
X10923754Y-15897984D01*
X10923754Y-15897984D02*
X10885658Y-15897984D01*
X10885658Y-15897984D02*
X10866611Y-15888460D01*
X10866611Y-15888460D02*
X10857087Y-15878936D01*
X10857087Y-15878936D02*
X10847563Y-15859888D01*
X10847563Y-15859888D02*
X10847563Y-15802746D01*
X10847563Y-15802746D02*
X10857087Y-15783698D01*
X10857087Y-15783698D02*
X10866611Y-15774174D01*
X10866611Y-15774174D02*
X10885658Y-15764650D01*
X10885658Y-15764650D02*
X10923754Y-15764650D01*
X10923754Y-15764650D02*
X10942801Y-15774174D01*
X11018992Y-15974174D02*
X11028516Y-15964650D01*
X11028516Y-15964650D02*
X11047563Y-15936079D01*
X11047563Y-15936079D02*
X11057087Y-15917031D01*
X11057087Y-15917031D02*
X11066611Y-15888460D01*
X11066611Y-15888460D02*
X11076135Y-15840841D01*
X11076135Y-15840841D02*
X11076135Y-15802746D01*
X11076135Y-15802746D02*
X11066611Y-15755127D01*
X11066611Y-15755127D02*
X11057087Y-15726555D01*
X11057087Y-15726555D02*
X11047563Y-15707508D01*
X11047563Y-15707508D02*
X11028516Y-15678936D01*
X11028516Y-15678936D02*
X11018992Y-15669412D01*
X3972500Y-16016500D02*
X3972500Y-16216500D01*
X3872500Y-16116500D02*
X4072500Y-16116500D01*
X4314229Y-16007984D02*
X4438039Y-16007984D01*
X4438039Y-16007984D02*
X4371372Y-16084174D01*
X4371372Y-16084174D02*
X4399944Y-16084174D01*
X4399944Y-16084174D02*
X4418991Y-16093698D01*
X4418991Y-16093698D02*
X4428515Y-16103222D01*
X4428515Y-16103222D02*
X4438039Y-16122269D01*
X4438039Y-16122269D02*
X4438039Y-16169888D01*
X4438039Y-16169888D02*
X4428515Y-16188936D01*
X4428515Y-16188936D02*
X4418991Y-16198460D01*
X4418991Y-16198460D02*
X4399944Y-16207984D01*
X4399944Y-16207984D02*
X4342801Y-16207984D01*
X4342801Y-16207984D02*
X4323753Y-16198460D01*
X4323753Y-16198460D02*
X4314229Y-16188936D01*
X4523753Y-16188936D02*
X4533277Y-16198460D01*
X4533277Y-16198460D02*
X4523753Y-16207984D01*
X4523753Y-16207984D02*
X4514229Y-16198460D01*
X4514229Y-16198460D02*
X4523753Y-16188936D01*
X4523753Y-16188936D02*
X4523753Y-16207984D01*
X4657086Y-16007984D02*
X4676134Y-16007984D01*
X4676134Y-16007984D02*
X4695182Y-16017508D01*
X4695182Y-16017508D02*
X4704705Y-16027031D01*
X4704705Y-16027031D02*
X4714229Y-16046079D01*
X4714229Y-16046079D02*
X4723753Y-16084174D01*
X4723753Y-16084174D02*
X4723753Y-16131793D01*
X4723753Y-16131793D02*
X4714229Y-16169888D01*
X4714229Y-16169888D02*
X4704705Y-16188936D01*
X4704705Y-16188936D02*
X4695182Y-16198460D01*
X4695182Y-16198460D02*
X4676134Y-16207984D01*
X4676134Y-16207984D02*
X4657086Y-16207984D01*
X4657086Y-16207984D02*
X4638039Y-16198460D01*
X4638039Y-16198460D02*
X4628515Y-16188936D01*
X4628515Y-16188936D02*
X4618991Y-16169888D01*
X4618991Y-16169888D02*
X4609467Y-16131793D01*
X4609467Y-16131793D02*
X4609467Y-16084174D01*
X4609467Y-16084174D02*
X4618991Y-16046079D01*
X4618991Y-16046079D02*
X4628515Y-16027031D01*
X4628515Y-16027031D02*
X4638039Y-16017508D01*
X4638039Y-16017508D02*
X4657086Y-16007984D01*
X4847563Y-16007984D02*
X4866610Y-16007984D01*
X4866610Y-16007984D02*
X4885658Y-16017508D01*
X4885658Y-16017508D02*
X4895182Y-16027031D01*
X4895182Y-16027031D02*
X4904705Y-16046079D01*
X4904705Y-16046079D02*
X4914229Y-16084174D01*
X4914229Y-16084174D02*
X4914229Y-16131793D01*
X4914229Y-16131793D02*
X4904705Y-16169888D01*
X4904705Y-16169888D02*
X4895182Y-16188936D01*
X4895182Y-16188936D02*
X4885658Y-16198460D01*
X4885658Y-16198460D02*
X4866610Y-16207984D01*
X4866610Y-16207984D02*
X4847563Y-16207984D01*
X4847563Y-16207984D02*
X4828515Y-16198460D01*
X4828515Y-16198460D02*
X4818991Y-16188936D01*
X4818991Y-16188936D02*
X4809467Y-16169888D01*
X4809467Y-16169888D02*
X4799944Y-16131793D01*
X4799944Y-16131793D02*
X4799944Y-16084174D01*
X4799944Y-16084174D02*
X4809467Y-16046079D01*
X4809467Y-16046079D02*
X4818991Y-16027031D01*
X4818991Y-16027031D02*
X4828515Y-16017508D01*
X4828515Y-16017508D02*
X4847563Y-16007984D01*
X5038039Y-16007984D02*
X5057086Y-16007984D01*
X5057086Y-16007984D02*
X5076134Y-16017508D01*
X5076134Y-16017508D02*
X5085658Y-16027031D01*
X5085658Y-16027031D02*
X5095182Y-16046079D01*
X5095182Y-16046079D02*
X5104705Y-16084174D01*
X5104705Y-16084174D02*
X5104705Y-16131793D01*
X5104705Y-16131793D02*
X5095182Y-16169888D01*
X5095182Y-16169888D02*
X5085658Y-16188936D01*
X5085658Y-16188936D02*
X5076134Y-16198460D01*
X5076134Y-16198460D02*
X5057086Y-16207984D01*
X5057086Y-16207984D02*
X5038039Y-16207984D01*
X5038039Y-16207984D02*
X5018991Y-16198460D01*
X5018991Y-16198460D02*
X5009467Y-16188936D01*
X5009467Y-16188936D02*
X4999944Y-16169888D01*
X4999944Y-16169888D02*
X4990420Y-16131793D01*
X4990420Y-16131793D02*
X4990420Y-16084174D01*
X4990420Y-16084174D02*
X4999944Y-16046079D01*
X4999944Y-16046079D02*
X5009467Y-16027031D01*
X5009467Y-16027031D02*
X5018991Y-16017508D01*
X5018991Y-16017508D02*
X5038039Y-16007984D01*
X5190420Y-16207984D02*
X5190420Y-16074650D01*
X5190420Y-16093698D02*
X5199944Y-16084174D01*
X5199944Y-16084174D02*
X5218991Y-16074650D01*
X5218991Y-16074650D02*
X5247563Y-16074650D01*
X5247563Y-16074650D02*
X5266610Y-16084174D01*
X5266610Y-16084174D02*
X5276134Y-16103222D01*
X5276134Y-16103222D02*
X5276134Y-16207984D01*
X5276134Y-16103222D02*
X5285658Y-16084174D01*
X5285658Y-16084174D02*
X5304705Y-16074650D01*
X5304705Y-16074650D02*
X5333277Y-16074650D01*
X5333277Y-16074650D02*
X5352325Y-16084174D01*
X5352325Y-16084174D02*
X5361848Y-16103222D01*
X5361848Y-16103222D02*
X5361848Y-16207984D01*
X5457086Y-16207984D02*
X5457086Y-16074650D01*
X5457086Y-16093698D02*
X5466610Y-16084174D01*
X5466610Y-16084174D02*
X5485658Y-16074650D01*
X5485658Y-16074650D02*
X5514229Y-16074650D01*
X5514229Y-16074650D02*
X5533277Y-16084174D01*
X5533277Y-16084174D02*
X5542801Y-16103222D01*
X5542801Y-16103222D02*
X5542801Y-16207984D01*
X5542801Y-16103222D02*
X5552325Y-16084174D01*
X5552325Y-16084174D02*
X5571372Y-16074650D01*
X5571372Y-16074650D02*
X5599943Y-16074650D01*
X5599943Y-16074650D02*
X5618991Y-16084174D01*
X5618991Y-16084174D02*
X5628515Y-16103222D01*
X5628515Y-16103222D02*
X5628515Y-16207984D01*
X6018991Y-15998460D02*
X5847563Y-16255603D01*
X6276134Y-16007984D02*
X6295182Y-16007984D01*
X6295182Y-16007984D02*
X6314229Y-16017508D01*
X6314229Y-16017508D02*
X6323753Y-16027031D01*
X6323753Y-16027031D02*
X6333277Y-16046079D01*
X6333277Y-16046079D02*
X6342801Y-16084174D01*
X6342801Y-16084174D02*
X6342801Y-16131793D01*
X6342801Y-16131793D02*
X6333277Y-16169888D01*
X6333277Y-16169888D02*
X6323753Y-16188936D01*
X6323753Y-16188936D02*
X6314229Y-16198460D01*
X6314229Y-16198460D02*
X6295182Y-16207984D01*
X6295182Y-16207984D02*
X6276134Y-16207984D01*
X6276134Y-16207984D02*
X6257086Y-16198460D01*
X6257086Y-16198460D02*
X6247563Y-16188936D01*
X6247563Y-16188936D02*
X6238039Y-16169888D01*
X6238039Y-16169888D02*
X6228515Y-16131793D01*
X6228515Y-16131793D02*
X6228515Y-16084174D01*
X6228515Y-16084174D02*
X6238039Y-16046079D01*
X6238039Y-16046079D02*
X6247563Y-16027031D01*
X6247563Y-16027031D02*
X6257086Y-16017508D01*
X6257086Y-16017508D02*
X6276134Y-16007984D01*
X6428515Y-16188936D02*
X6438039Y-16198460D01*
X6438039Y-16198460D02*
X6428515Y-16207984D01*
X6428515Y-16207984D02*
X6418991Y-16198460D01*
X6418991Y-16198460D02*
X6428515Y-16188936D01*
X6428515Y-16188936D02*
X6428515Y-16207984D01*
X6628515Y-16207984D02*
X6514229Y-16207984D01*
X6571372Y-16207984D02*
X6571372Y-16007984D01*
X6571372Y-16007984D02*
X6552325Y-16036555D01*
X6552325Y-16036555D02*
X6533277Y-16055603D01*
X6533277Y-16055603D02*
X6514229Y-16065127D01*
X6818991Y-16207984D02*
X6704706Y-16207984D01*
X6761848Y-16207984D02*
X6761848Y-16007984D01*
X6761848Y-16007984D02*
X6742801Y-16036555D01*
X6742801Y-16036555D02*
X6723753Y-16055603D01*
X6723753Y-16055603D02*
X6704706Y-16065127D01*
X6933277Y-16093698D02*
X6914229Y-16084174D01*
X6914229Y-16084174D02*
X6904706Y-16074650D01*
X6904706Y-16074650D02*
X6895182Y-16055603D01*
X6895182Y-16055603D02*
X6895182Y-16046079D01*
X6895182Y-16046079D02*
X6904706Y-16027031D01*
X6904706Y-16027031D02*
X6914229Y-16017508D01*
X6914229Y-16017508D02*
X6933277Y-16007984D01*
X6933277Y-16007984D02*
X6971372Y-16007984D01*
X6971372Y-16007984D02*
X6990420Y-16017508D01*
X6990420Y-16017508D02*
X6999944Y-16027031D01*
X6999944Y-16027031D02*
X7009467Y-16046079D01*
X7009467Y-16046079D02*
X7009467Y-16055603D01*
X7009467Y-16055603D02*
X6999944Y-16074650D01*
X6999944Y-16074650D02*
X6990420Y-16084174D01*
X6990420Y-16084174D02*
X6971372Y-16093698D01*
X6971372Y-16093698D02*
X6933277Y-16093698D01*
X6933277Y-16093698D02*
X6914229Y-16103222D01*
X6914229Y-16103222D02*
X6904706Y-16112746D01*
X6904706Y-16112746D02*
X6895182Y-16131793D01*
X6895182Y-16131793D02*
X6895182Y-16169888D01*
X6895182Y-16169888D02*
X6904706Y-16188936D01*
X6904706Y-16188936D02*
X6914229Y-16198460D01*
X6914229Y-16198460D02*
X6933277Y-16207984D01*
X6933277Y-16207984D02*
X6971372Y-16207984D01*
X6971372Y-16207984D02*
X6990420Y-16198460D01*
X6990420Y-16198460D02*
X6999944Y-16188936D01*
X6999944Y-16188936D02*
X7009467Y-16169888D01*
X7009467Y-16169888D02*
X7009467Y-16131793D01*
X7009467Y-16131793D02*
X6999944Y-16112746D01*
X6999944Y-16112746D02*
X6990420Y-16103222D01*
X6990420Y-16103222D02*
X6971372Y-16093698D01*
X7199944Y-16207984D02*
X7085658Y-16207984D01*
X7142801Y-16207984D02*
X7142801Y-16007984D01*
X7142801Y-16007984D02*
X7123753Y-16036555D01*
X7123753Y-16036555D02*
X7104706Y-16055603D01*
X7104706Y-16055603D02*
X7085658Y-16065127D01*
X7276134Y-16007984D02*
X7276134Y-16046079D01*
X7352325Y-16007984D02*
X7352325Y-16046079D01*
X7647563Y-16284174D02*
X7638039Y-16274650D01*
X7638039Y-16274650D02*
X7618991Y-16246079D01*
X7618991Y-16246079D02*
X7609468Y-16227031D01*
X7609468Y-16227031D02*
X7599944Y-16198460D01*
X7599944Y-16198460D02*
X7590420Y-16150841D01*
X7590420Y-16150841D02*
X7590420Y-16112746D01*
X7590420Y-16112746D02*
X7599944Y-16065127D01*
X7599944Y-16065127D02*
X7609468Y-16036555D01*
X7609468Y-16036555D02*
X7618991Y-16017508D01*
X7618991Y-16017508D02*
X7638039Y-15988936D01*
X7638039Y-15988936D02*
X7647563Y-15979412D01*
X7752325Y-16093698D02*
X7733277Y-16084174D01*
X7733277Y-16084174D02*
X7723753Y-16074650D01*
X7723753Y-16074650D02*
X7714229Y-16055603D01*
X7714229Y-16055603D02*
X7714229Y-16046079D01*
X7714229Y-16046079D02*
X7723753Y-16027031D01*
X7723753Y-16027031D02*
X7733277Y-16017508D01*
X7733277Y-16017508D02*
X7752325Y-16007984D01*
X7752325Y-16007984D02*
X7790420Y-16007984D01*
X7790420Y-16007984D02*
X7809468Y-16017508D01*
X7809468Y-16017508D02*
X7818991Y-16027031D01*
X7818991Y-16027031D02*
X7828515Y-16046079D01*
X7828515Y-16046079D02*
X7828515Y-16055603D01*
X7828515Y-16055603D02*
X7818991Y-16074650D01*
X7818991Y-16074650D02*
X7809468Y-16084174D01*
X7809468Y-16084174D02*
X7790420Y-16093698D01*
X7790420Y-16093698D02*
X7752325Y-16093698D01*
X7752325Y-16093698D02*
X7733277Y-16103222D01*
X7733277Y-16103222D02*
X7723753Y-16112746D01*
X7723753Y-16112746D02*
X7714229Y-16131793D01*
X7714229Y-16131793D02*
X7714229Y-16169888D01*
X7714229Y-16169888D02*
X7723753Y-16188936D01*
X7723753Y-16188936D02*
X7733277Y-16198460D01*
X7733277Y-16198460D02*
X7752325Y-16207984D01*
X7752325Y-16207984D02*
X7790420Y-16207984D01*
X7790420Y-16207984D02*
X7809468Y-16198460D01*
X7809468Y-16198460D02*
X7818991Y-16188936D01*
X7818991Y-16188936D02*
X7828515Y-16169888D01*
X7828515Y-16169888D02*
X7828515Y-16131793D01*
X7828515Y-16131793D02*
X7818991Y-16112746D01*
X7818991Y-16112746D02*
X7809468Y-16103222D01*
X7809468Y-16103222D02*
X7790420Y-16093698D01*
X7999944Y-16074650D02*
X7999944Y-16207984D01*
X7952325Y-15998460D02*
X7904706Y-16141317D01*
X7904706Y-16141317D02*
X8028515Y-16141317D01*
X8257087Y-16207984D02*
X8257087Y-16007984D01*
X8342801Y-16207984D02*
X8342801Y-16103222D01*
X8342801Y-16103222D02*
X8333277Y-16084174D01*
X8333277Y-16084174D02*
X8314230Y-16074650D01*
X8314230Y-16074650D02*
X8285658Y-16074650D01*
X8285658Y-16074650D02*
X8266610Y-16084174D01*
X8266610Y-16084174D02*
X8257087Y-16093698D01*
X8466611Y-16207984D02*
X8447563Y-16198460D01*
X8447563Y-16198460D02*
X8438039Y-16188936D01*
X8438039Y-16188936D02*
X8428515Y-16169888D01*
X8428515Y-16169888D02*
X8428515Y-16112746D01*
X8428515Y-16112746D02*
X8438039Y-16093698D01*
X8438039Y-16093698D02*
X8447563Y-16084174D01*
X8447563Y-16084174D02*
X8466611Y-16074650D01*
X8466611Y-16074650D02*
X8495182Y-16074650D01*
X8495182Y-16074650D02*
X8514230Y-16084174D01*
X8514230Y-16084174D02*
X8523753Y-16093698D01*
X8523753Y-16093698D02*
X8533277Y-16112746D01*
X8533277Y-16112746D02*
X8533277Y-16169888D01*
X8533277Y-16169888D02*
X8523753Y-16188936D01*
X8523753Y-16188936D02*
X8514230Y-16198460D01*
X8514230Y-16198460D02*
X8495182Y-16207984D01*
X8495182Y-16207984D02*
X8466611Y-16207984D01*
X8647563Y-16207984D02*
X8628515Y-16198460D01*
X8628515Y-16198460D02*
X8618992Y-16179412D01*
X8618992Y-16179412D02*
X8618992Y-16007984D01*
X8799944Y-16198460D02*
X8780896Y-16207984D01*
X8780896Y-16207984D02*
X8742801Y-16207984D01*
X8742801Y-16207984D02*
X8723753Y-16198460D01*
X8723753Y-16198460D02*
X8714230Y-16179412D01*
X8714230Y-16179412D02*
X8714230Y-16103222D01*
X8714230Y-16103222D02*
X8723753Y-16084174D01*
X8723753Y-16084174D02*
X8742801Y-16074650D01*
X8742801Y-16074650D02*
X8780896Y-16074650D01*
X8780896Y-16074650D02*
X8799944Y-16084174D01*
X8799944Y-16084174D02*
X8809468Y-16103222D01*
X8809468Y-16103222D02*
X8809468Y-16122269D01*
X8809468Y-16122269D02*
X8714230Y-16141317D01*
X8885658Y-16198460D02*
X8904706Y-16207984D01*
X8904706Y-16207984D02*
X8942801Y-16207984D01*
X8942801Y-16207984D02*
X8961849Y-16198460D01*
X8961849Y-16198460D02*
X8971373Y-16179412D01*
X8971373Y-16179412D02*
X8971373Y-16169888D01*
X8971373Y-16169888D02*
X8961849Y-16150841D01*
X8961849Y-16150841D02*
X8942801Y-16141317D01*
X8942801Y-16141317D02*
X8914230Y-16141317D01*
X8914230Y-16141317D02*
X8895182Y-16131793D01*
X8895182Y-16131793D02*
X8885658Y-16112746D01*
X8885658Y-16112746D02*
X8885658Y-16103222D01*
X8885658Y-16103222D02*
X8895182Y-16084174D01*
X8895182Y-16084174D02*
X8914230Y-16074650D01*
X8914230Y-16074650D02*
X8942801Y-16074650D01*
X8942801Y-16074650D02*
X8961849Y-16084174D01*
X9038039Y-16284174D02*
X9047563Y-16274650D01*
X9047563Y-16274650D02*
X9066611Y-16246079D01*
X9066611Y-16246079D02*
X9076134Y-16227031D01*
X9076134Y-16227031D02*
X9085658Y-16198460D01*
X9085658Y-16198460D02*
X9095182Y-16150841D01*
X9095182Y-16150841D02*
X9095182Y-16112746D01*
X9095182Y-16112746D02*
X9085658Y-16065127D01*
X9085658Y-16065127D02*
X9076134Y-16036555D01*
X9076134Y-16036555D02*
X9066611Y-16017508D01*
X9066611Y-16017508D02*
X9047563Y-15988936D01*
X9047563Y-15988936D02*
X9038039Y-15979412D01*
X9399944Y-16284174D02*
X9390420Y-16274650D01*
X9390420Y-16274650D02*
X9371373Y-16246079D01*
X9371373Y-16246079D02*
X9361849Y-16227031D01*
X9361849Y-16227031D02*
X9352325Y-16198460D01*
X9352325Y-16198460D02*
X9342801Y-16150841D01*
X9342801Y-16150841D02*
X9342801Y-16112746D01*
X9342801Y-16112746D02*
X9352325Y-16065127D01*
X9352325Y-16065127D02*
X9361849Y-16036555D01*
X9361849Y-16036555D02*
X9371373Y-16017508D01*
X9371373Y-16017508D02*
X9390420Y-15988936D01*
X9390420Y-15988936D02*
X9399944Y-15979412D01*
X9476134Y-16074650D02*
X9476134Y-16207984D01*
X9476134Y-16093698D02*
X9485658Y-16084174D01*
X9485658Y-16084174D02*
X9504706Y-16074650D01*
X9504706Y-16074650D02*
X9533277Y-16074650D01*
X9533277Y-16074650D02*
X9552325Y-16084174D01*
X9552325Y-16084174D02*
X9561849Y-16103222D01*
X9561849Y-16103222D02*
X9561849Y-16207984D01*
X9685658Y-16207984D02*
X9666611Y-16198460D01*
X9666611Y-16198460D02*
X9657087Y-16188936D01*
X9657087Y-16188936D02*
X9647563Y-16169888D01*
X9647563Y-16169888D02*
X9647563Y-16112746D01*
X9647563Y-16112746D02*
X9657087Y-16093698D01*
X9657087Y-16093698D02*
X9666611Y-16084174D01*
X9666611Y-16084174D02*
X9685658Y-16074650D01*
X9685658Y-16074650D02*
X9714230Y-16074650D01*
X9714230Y-16074650D02*
X9733277Y-16084174D01*
X9733277Y-16084174D02*
X9742801Y-16093698D01*
X9742801Y-16093698D02*
X9752325Y-16112746D01*
X9752325Y-16112746D02*
X9752325Y-16169888D01*
X9752325Y-16169888D02*
X9742801Y-16188936D01*
X9742801Y-16188936D02*
X9733277Y-16198460D01*
X9733277Y-16198460D02*
X9714230Y-16207984D01*
X9714230Y-16207984D02*
X9685658Y-16207984D01*
X9809468Y-16074650D02*
X9885658Y-16074650D01*
X9838039Y-16007984D02*
X9838039Y-16179412D01*
X9838039Y-16179412D02*
X9847563Y-16198460D01*
X9847563Y-16198460D02*
X9866611Y-16207984D01*
X9866611Y-16207984D02*
X9885658Y-16207984D01*
X10104706Y-16074650D02*
X10104706Y-16274650D01*
X10104706Y-16084174D02*
X10123754Y-16074650D01*
X10123754Y-16074650D02*
X10161849Y-16074650D01*
X10161849Y-16074650D02*
X10180896Y-16084174D01*
X10180896Y-16084174D02*
X10190420Y-16093698D01*
X10190420Y-16093698D02*
X10199944Y-16112746D01*
X10199944Y-16112746D02*
X10199944Y-16169888D01*
X10199944Y-16169888D02*
X10190420Y-16188936D01*
X10190420Y-16188936D02*
X10180896Y-16198460D01*
X10180896Y-16198460D02*
X10161849Y-16207984D01*
X10161849Y-16207984D02*
X10123754Y-16207984D01*
X10123754Y-16207984D02*
X10104706Y-16198460D01*
X10314230Y-16207984D02*
X10295182Y-16198460D01*
X10295182Y-16198460D02*
X10285658Y-16179412D01*
X10285658Y-16179412D02*
X10285658Y-16007984D01*
X10476135Y-16207984D02*
X10476135Y-16103222D01*
X10476135Y-16103222D02*
X10466611Y-16084174D01*
X10466611Y-16084174D02*
X10447563Y-16074650D01*
X10447563Y-16074650D02*
X10409468Y-16074650D01*
X10409468Y-16074650D02*
X10390420Y-16084174D01*
X10476135Y-16198460D02*
X10457087Y-16207984D01*
X10457087Y-16207984D02*
X10409468Y-16207984D01*
X10409468Y-16207984D02*
X10390420Y-16198460D01*
X10390420Y-16198460D02*
X10380896Y-16179412D01*
X10380896Y-16179412D02*
X10380896Y-16160365D01*
X10380896Y-16160365D02*
X10390420Y-16141317D01*
X10390420Y-16141317D02*
X10409468Y-16131793D01*
X10409468Y-16131793D02*
X10457087Y-16131793D01*
X10457087Y-16131793D02*
X10476135Y-16122269D01*
X10542801Y-16074650D02*
X10618992Y-16074650D01*
X10571373Y-16007984D02*
X10571373Y-16179412D01*
X10571373Y-16179412D02*
X10580896Y-16198460D01*
X10580896Y-16198460D02*
X10599944Y-16207984D01*
X10599944Y-16207984D02*
X10618992Y-16207984D01*
X10761849Y-16198460D02*
X10742801Y-16207984D01*
X10742801Y-16207984D02*
X10704706Y-16207984D01*
X10704706Y-16207984D02*
X10685658Y-16198460D01*
X10685658Y-16198460D02*
X10676135Y-16179412D01*
X10676135Y-16179412D02*
X10676135Y-16103222D01*
X10676135Y-16103222D02*
X10685658Y-16084174D01*
X10685658Y-16084174D02*
X10704706Y-16074650D01*
X10704706Y-16074650D02*
X10742801Y-16074650D01*
X10742801Y-16074650D02*
X10761849Y-16084174D01*
X10761849Y-16084174D02*
X10771373Y-16103222D01*
X10771373Y-16103222D02*
X10771373Y-16122269D01*
X10771373Y-16122269D02*
X10676135Y-16141317D01*
X10942801Y-16207984D02*
X10942801Y-16007984D01*
X10942801Y-16198460D02*
X10923754Y-16207984D01*
X10923754Y-16207984D02*
X10885658Y-16207984D01*
X10885658Y-16207984D02*
X10866611Y-16198460D01*
X10866611Y-16198460D02*
X10857087Y-16188936D01*
X10857087Y-16188936D02*
X10847563Y-16169888D01*
X10847563Y-16169888D02*
X10847563Y-16112746D01*
X10847563Y-16112746D02*
X10857087Y-16093698D01*
X10857087Y-16093698D02*
X10866611Y-16084174D01*
X10866611Y-16084174D02*
X10885658Y-16074650D01*
X10885658Y-16074650D02*
X10923754Y-16074650D01*
X10923754Y-16074650D02*
X10942801Y-16084174D01*
X11018992Y-16284174D02*
X11028516Y-16274650D01*
X11028516Y-16274650D02*
X11047563Y-16246079D01*
X11047563Y-16246079D02*
X11057087Y-16227031D01*
X11057087Y-16227031D02*
X11066611Y-16198460D01*
X11066611Y-16198460D02*
X11076135Y-16150841D01*
X11076135Y-16150841D02*
X11076135Y-16112746D01*
X11076135Y-16112746D02*
X11066611Y-16065127D01*
X11066611Y-16065127D02*
X11057087Y-16036555D01*
X11057087Y-16036555D02*
X11047563Y-16017508D01*
X11047563Y-16017508D02*
X11028516Y-15988936D01*
X11028516Y-15988936D02*
X11018992Y-15979412D01*
X4043211Y-16507211D02*
X4043211Y-16365789D01*
X3901789Y-16365789D01*
X3901789Y-16507211D01*
X4043211Y-16507211D01*
X4418991Y-16394650D02*
X4418991Y-16527984D01*
X4371372Y-16318460D02*
X4323753Y-16461317D01*
X4323753Y-16461317D02*
X4447563Y-16461317D01*
X4523753Y-16508936D02*
X4533277Y-16518460D01*
X4533277Y-16518460D02*
X4523753Y-16527984D01*
X4523753Y-16527984D02*
X4514229Y-16518460D01*
X4514229Y-16518460D02*
X4523753Y-16508936D01*
X4523753Y-16508936D02*
X4523753Y-16527984D01*
X4723753Y-16527984D02*
X4609467Y-16527984D01*
X4666610Y-16527984D02*
X4666610Y-16327984D01*
X4666610Y-16327984D02*
X4647563Y-16356555D01*
X4647563Y-16356555D02*
X4628515Y-16375603D01*
X4628515Y-16375603D02*
X4609467Y-16385127D01*
X4847563Y-16327984D02*
X4866610Y-16327984D01*
X4866610Y-16327984D02*
X4885658Y-16337508D01*
X4885658Y-16337508D02*
X4895182Y-16347031D01*
X4895182Y-16347031D02*
X4904705Y-16366079D01*
X4904705Y-16366079D02*
X4914229Y-16404174D01*
X4914229Y-16404174D02*
X4914229Y-16451793D01*
X4914229Y-16451793D02*
X4904705Y-16489888D01*
X4904705Y-16489888D02*
X4895182Y-16508936D01*
X4895182Y-16508936D02*
X4885658Y-16518460D01*
X4885658Y-16518460D02*
X4866610Y-16527984D01*
X4866610Y-16527984D02*
X4847563Y-16527984D01*
X4847563Y-16527984D02*
X4828515Y-16518460D01*
X4828515Y-16518460D02*
X4818991Y-16508936D01*
X4818991Y-16508936D02*
X4809467Y-16489888D01*
X4809467Y-16489888D02*
X4799944Y-16451793D01*
X4799944Y-16451793D02*
X4799944Y-16404174D01*
X4799944Y-16404174D02*
X4809467Y-16366079D01*
X4809467Y-16366079D02*
X4818991Y-16347031D01*
X4818991Y-16347031D02*
X4828515Y-16337508D01*
X4828515Y-16337508D02*
X4847563Y-16327984D01*
X5038039Y-16327984D02*
X5057086Y-16327984D01*
X5057086Y-16327984D02*
X5076134Y-16337508D01*
X5076134Y-16337508D02*
X5085658Y-16347031D01*
X5085658Y-16347031D02*
X5095182Y-16366079D01*
X5095182Y-16366079D02*
X5104705Y-16404174D01*
X5104705Y-16404174D02*
X5104705Y-16451793D01*
X5104705Y-16451793D02*
X5095182Y-16489888D01*
X5095182Y-16489888D02*
X5085658Y-16508936D01*
X5085658Y-16508936D02*
X5076134Y-16518460D01*
X5076134Y-16518460D02*
X5057086Y-16527984D01*
X5057086Y-16527984D02*
X5038039Y-16527984D01*
X5038039Y-16527984D02*
X5018991Y-16518460D01*
X5018991Y-16518460D02*
X5009467Y-16508936D01*
X5009467Y-16508936D02*
X4999944Y-16489888D01*
X4999944Y-16489888D02*
X4990420Y-16451793D01*
X4990420Y-16451793D02*
X4990420Y-16404174D01*
X4990420Y-16404174D02*
X4999944Y-16366079D01*
X4999944Y-16366079D02*
X5009467Y-16347031D01*
X5009467Y-16347031D02*
X5018991Y-16337508D01*
X5018991Y-16337508D02*
X5038039Y-16327984D01*
X5190420Y-16527984D02*
X5190420Y-16394650D01*
X5190420Y-16413698D02*
X5199944Y-16404174D01*
X5199944Y-16404174D02*
X5218991Y-16394650D01*
X5218991Y-16394650D02*
X5247563Y-16394650D01*
X5247563Y-16394650D02*
X5266610Y-16404174D01*
X5266610Y-16404174D02*
X5276134Y-16423222D01*
X5276134Y-16423222D02*
X5276134Y-16527984D01*
X5276134Y-16423222D02*
X5285658Y-16404174D01*
X5285658Y-16404174D02*
X5304705Y-16394650D01*
X5304705Y-16394650D02*
X5333277Y-16394650D01*
X5333277Y-16394650D02*
X5352325Y-16404174D01*
X5352325Y-16404174D02*
X5361848Y-16423222D01*
X5361848Y-16423222D02*
X5361848Y-16527984D01*
X5457086Y-16527984D02*
X5457086Y-16394650D01*
X5457086Y-16413698D02*
X5466610Y-16404174D01*
X5466610Y-16404174D02*
X5485658Y-16394650D01*
X5485658Y-16394650D02*
X5514229Y-16394650D01*
X5514229Y-16394650D02*
X5533277Y-16404174D01*
X5533277Y-16404174D02*
X5542801Y-16423222D01*
X5542801Y-16423222D02*
X5542801Y-16527984D01*
X5542801Y-16423222D02*
X5552325Y-16404174D01*
X5552325Y-16404174D02*
X5571372Y-16394650D01*
X5571372Y-16394650D02*
X5599943Y-16394650D01*
X5599943Y-16394650D02*
X5618991Y-16404174D01*
X5618991Y-16404174D02*
X5628515Y-16423222D01*
X5628515Y-16423222D02*
X5628515Y-16527984D01*
X6018991Y-16318460D02*
X5847563Y-16575603D01*
X6276134Y-16327984D02*
X6295182Y-16327984D01*
X6295182Y-16327984D02*
X6314229Y-16337508D01*
X6314229Y-16337508D02*
X6323753Y-16347031D01*
X6323753Y-16347031D02*
X6333277Y-16366079D01*
X6333277Y-16366079D02*
X6342801Y-16404174D01*
X6342801Y-16404174D02*
X6342801Y-16451793D01*
X6342801Y-16451793D02*
X6333277Y-16489888D01*
X6333277Y-16489888D02*
X6323753Y-16508936D01*
X6323753Y-16508936D02*
X6314229Y-16518460D01*
X6314229Y-16518460D02*
X6295182Y-16527984D01*
X6295182Y-16527984D02*
X6276134Y-16527984D01*
X6276134Y-16527984D02*
X6257086Y-16518460D01*
X6257086Y-16518460D02*
X6247563Y-16508936D01*
X6247563Y-16508936D02*
X6238039Y-16489888D01*
X6238039Y-16489888D02*
X6228515Y-16451793D01*
X6228515Y-16451793D02*
X6228515Y-16404174D01*
X6228515Y-16404174D02*
X6238039Y-16366079D01*
X6238039Y-16366079D02*
X6247563Y-16347031D01*
X6247563Y-16347031D02*
X6257086Y-16337508D01*
X6257086Y-16337508D02*
X6276134Y-16327984D01*
X6428515Y-16508936D02*
X6438039Y-16518460D01*
X6438039Y-16518460D02*
X6428515Y-16527984D01*
X6428515Y-16527984D02*
X6418991Y-16518460D01*
X6418991Y-16518460D02*
X6428515Y-16508936D01*
X6428515Y-16508936D02*
X6428515Y-16527984D01*
X6628515Y-16527984D02*
X6514229Y-16527984D01*
X6571372Y-16527984D02*
X6571372Y-16327984D01*
X6571372Y-16327984D02*
X6552325Y-16356555D01*
X6552325Y-16356555D02*
X6533277Y-16375603D01*
X6533277Y-16375603D02*
X6514229Y-16385127D01*
X6799944Y-16327984D02*
X6761848Y-16327984D01*
X6761848Y-16327984D02*
X6742801Y-16337508D01*
X6742801Y-16337508D02*
X6733277Y-16347031D01*
X6733277Y-16347031D02*
X6714229Y-16375603D01*
X6714229Y-16375603D02*
X6704706Y-16413698D01*
X6704706Y-16413698D02*
X6704706Y-16489888D01*
X6704706Y-16489888D02*
X6714229Y-16508936D01*
X6714229Y-16508936D02*
X6723753Y-16518460D01*
X6723753Y-16518460D02*
X6742801Y-16527984D01*
X6742801Y-16527984D02*
X6780896Y-16527984D01*
X6780896Y-16527984D02*
X6799944Y-16518460D01*
X6799944Y-16518460D02*
X6809467Y-16508936D01*
X6809467Y-16508936D02*
X6818991Y-16489888D01*
X6818991Y-16489888D02*
X6818991Y-16442269D01*
X6818991Y-16442269D02*
X6809467Y-16423222D01*
X6809467Y-16423222D02*
X6799944Y-16413698D01*
X6799944Y-16413698D02*
X6780896Y-16404174D01*
X6780896Y-16404174D02*
X6742801Y-16404174D01*
X6742801Y-16404174D02*
X6723753Y-16413698D01*
X6723753Y-16413698D02*
X6714229Y-16423222D01*
X6714229Y-16423222D02*
X6704706Y-16442269D01*
X7009467Y-16527984D02*
X6895182Y-16527984D01*
X6952325Y-16527984D02*
X6952325Y-16327984D01*
X6952325Y-16327984D02*
X6933277Y-16356555D01*
X6933277Y-16356555D02*
X6914229Y-16375603D01*
X6914229Y-16375603D02*
X6895182Y-16385127D01*
X7180896Y-16394650D02*
X7180896Y-16527984D01*
X7133277Y-16318460D02*
X7085658Y-16461317D01*
X7085658Y-16461317D02*
X7209467Y-16461317D01*
X7276134Y-16327984D02*
X7276134Y-16366079D01*
X7352325Y-16327984D02*
X7352325Y-16366079D01*
X7647563Y-16604174D02*
X7638039Y-16594650D01*
X7638039Y-16594650D02*
X7618991Y-16566079D01*
X7618991Y-16566079D02*
X7609468Y-16547031D01*
X7609468Y-16547031D02*
X7599944Y-16518460D01*
X7599944Y-16518460D02*
X7590420Y-16470841D01*
X7590420Y-16470841D02*
X7590420Y-16432746D01*
X7590420Y-16432746D02*
X7599944Y-16385127D01*
X7599944Y-16385127D02*
X7609468Y-16356555D01*
X7609468Y-16356555D02*
X7618991Y-16337508D01*
X7618991Y-16337508D02*
X7638039Y-16308936D01*
X7638039Y-16308936D02*
X7647563Y-16299412D01*
X7809468Y-16394650D02*
X7809468Y-16527984D01*
X7761848Y-16318460D02*
X7714229Y-16461317D01*
X7714229Y-16461317D02*
X7838039Y-16461317D01*
X7904706Y-16347031D02*
X7914229Y-16337508D01*
X7914229Y-16337508D02*
X7933277Y-16327984D01*
X7933277Y-16327984D02*
X7980896Y-16327984D01*
X7980896Y-16327984D02*
X7999944Y-16337508D01*
X7999944Y-16337508D02*
X8009468Y-16347031D01*
X8009468Y-16347031D02*
X8018991Y-16366079D01*
X8018991Y-16366079D02*
X8018991Y-16385127D01*
X8018991Y-16385127D02*
X8009468Y-16413698D01*
X8009468Y-16413698D02*
X7895182Y-16527984D01*
X7895182Y-16527984D02*
X8018991Y-16527984D01*
X8257087Y-16527984D02*
X8257087Y-16327984D01*
X8342801Y-16527984D02*
X8342801Y-16423222D01*
X8342801Y-16423222D02*
X8333277Y-16404174D01*
X8333277Y-16404174D02*
X8314230Y-16394650D01*
X8314230Y-16394650D02*
X8285658Y-16394650D01*
X8285658Y-16394650D02*
X8266610Y-16404174D01*
X8266610Y-16404174D02*
X8257087Y-16413698D01*
X8466611Y-16527984D02*
X8447563Y-16518460D01*
X8447563Y-16518460D02*
X8438039Y-16508936D01*
X8438039Y-16508936D02*
X8428515Y-16489888D01*
X8428515Y-16489888D02*
X8428515Y-16432746D01*
X8428515Y-16432746D02*
X8438039Y-16413698D01*
X8438039Y-16413698D02*
X8447563Y-16404174D01*
X8447563Y-16404174D02*
X8466611Y-16394650D01*
X8466611Y-16394650D02*
X8495182Y-16394650D01*
X8495182Y-16394650D02*
X8514230Y-16404174D01*
X8514230Y-16404174D02*
X8523753Y-16413698D01*
X8523753Y-16413698D02*
X8533277Y-16432746D01*
X8533277Y-16432746D02*
X8533277Y-16489888D01*
X8533277Y-16489888D02*
X8523753Y-16508936D01*
X8523753Y-16508936D02*
X8514230Y-16518460D01*
X8514230Y-16518460D02*
X8495182Y-16527984D01*
X8495182Y-16527984D02*
X8466611Y-16527984D01*
X8647563Y-16527984D02*
X8628515Y-16518460D01*
X8628515Y-16518460D02*
X8618992Y-16499412D01*
X8618992Y-16499412D02*
X8618992Y-16327984D01*
X8799944Y-16518460D02*
X8780896Y-16527984D01*
X8780896Y-16527984D02*
X8742801Y-16527984D01*
X8742801Y-16527984D02*
X8723753Y-16518460D01*
X8723753Y-16518460D02*
X8714230Y-16499412D01*
X8714230Y-16499412D02*
X8714230Y-16423222D01*
X8714230Y-16423222D02*
X8723753Y-16404174D01*
X8723753Y-16404174D02*
X8742801Y-16394650D01*
X8742801Y-16394650D02*
X8780896Y-16394650D01*
X8780896Y-16394650D02*
X8799944Y-16404174D01*
X8799944Y-16404174D02*
X8809468Y-16423222D01*
X8809468Y-16423222D02*
X8809468Y-16442269D01*
X8809468Y-16442269D02*
X8714230Y-16461317D01*
X8885658Y-16518460D02*
X8904706Y-16527984D01*
X8904706Y-16527984D02*
X8942801Y-16527984D01*
X8942801Y-16527984D02*
X8961849Y-16518460D01*
X8961849Y-16518460D02*
X8971373Y-16499412D01*
X8971373Y-16499412D02*
X8971373Y-16489888D01*
X8971373Y-16489888D02*
X8961849Y-16470841D01*
X8961849Y-16470841D02*
X8942801Y-16461317D01*
X8942801Y-16461317D02*
X8914230Y-16461317D01*
X8914230Y-16461317D02*
X8895182Y-16451793D01*
X8895182Y-16451793D02*
X8885658Y-16432746D01*
X8885658Y-16432746D02*
X8885658Y-16423222D01*
X8885658Y-16423222D02*
X8895182Y-16404174D01*
X8895182Y-16404174D02*
X8914230Y-16394650D01*
X8914230Y-16394650D02*
X8942801Y-16394650D01*
X8942801Y-16394650D02*
X8961849Y-16404174D01*
X9038039Y-16604174D02*
X9047563Y-16594650D01*
X9047563Y-16594650D02*
X9066611Y-16566079D01*
X9066611Y-16566079D02*
X9076134Y-16547031D01*
X9076134Y-16547031D02*
X9085658Y-16518460D01*
X9085658Y-16518460D02*
X9095182Y-16470841D01*
X9095182Y-16470841D02*
X9095182Y-16432746D01*
X9095182Y-16432746D02*
X9085658Y-16385127D01*
X9085658Y-16385127D02*
X9076134Y-16356555D01*
X9076134Y-16356555D02*
X9066611Y-16337508D01*
X9066611Y-16337508D02*
X9047563Y-16308936D01*
X9047563Y-16308936D02*
X9038039Y-16299412D01*
X9399944Y-16604174D02*
X9390420Y-16594650D01*
X9390420Y-16594650D02*
X9371373Y-16566079D01*
X9371373Y-16566079D02*
X9361849Y-16547031D01*
X9361849Y-16547031D02*
X9352325Y-16518460D01*
X9352325Y-16518460D02*
X9342801Y-16470841D01*
X9342801Y-16470841D02*
X9342801Y-16432746D01*
X9342801Y-16432746D02*
X9352325Y-16385127D01*
X9352325Y-16385127D02*
X9361849Y-16356555D01*
X9361849Y-16356555D02*
X9371373Y-16337508D01*
X9371373Y-16337508D02*
X9390420Y-16308936D01*
X9390420Y-16308936D02*
X9399944Y-16299412D01*
X9476134Y-16394650D02*
X9476134Y-16527984D01*
X9476134Y-16413698D02*
X9485658Y-16404174D01*
X9485658Y-16404174D02*
X9504706Y-16394650D01*
X9504706Y-16394650D02*
X9533277Y-16394650D01*
X9533277Y-16394650D02*
X9552325Y-16404174D01*
X9552325Y-16404174D02*
X9561849Y-16423222D01*
X9561849Y-16423222D02*
X9561849Y-16527984D01*
X9685658Y-16527984D02*
X9666611Y-16518460D01*
X9666611Y-16518460D02*
X9657087Y-16508936D01*
X9657087Y-16508936D02*
X9647563Y-16489888D01*
X9647563Y-16489888D02*
X9647563Y-16432746D01*
X9647563Y-16432746D02*
X9657087Y-16413698D01*
X9657087Y-16413698D02*
X9666611Y-16404174D01*
X9666611Y-16404174D02*
X9685658Y-16394650D01*
X9685658Y-16394650D02*
X9714230Y-16394650D01*
X9714230Y-16394650D02*
X9733277Y-16404174D01*
X9733277Y-16404174D02*
X9742801Y-16413698D01*
X9742801Y-16413698D02*
X9752325Y-16432746D01*
X9752325Y-16432746D02*
X9752325Y-16489888D01*
X9752325Y-16489888D02*
X9742801Y-16508936D01*
X9742801Y-16508936D02*
X9733277Y-16518460D01*
X9733277Y-16518460D02*
X9714230Y-16527984D01*
X9714230Y-16527984D02*
X9685658Y-16527984D01*
X9809468Y-16394650D02*
X9885658Y-16394650D01*
X9838039Y-16327984D02*
X9838039Y-16499412D01*
X9838039Y-16499412D02*
X9847563Y-16518460D01*
X9847563Y-16518460D02*
X9866611Y-16527984D01*
X9866611Y-16527984D02*
X9885658Y-16527984D01*
X10104706Y-16394650D02*
X10104706Y-16594650D01*
X10104706Y-16404174D02*
X10123754Y-16394650D01*
X10123754Y-16394650D02*
X10161849Y-16394650D01*
X10161849Y-16394650D02*
X10180896Y-16404174D01*
X10180896Y-16404174D02*
X10190420Y-16413698D01*
X10190420Y-16413698D02*
X10199944Y-16432746D01*
X10199944Y-16432746D02*
X10199944Y-16489888D01*
X10199944Y-16489888D02*
X10190420Y-16508936D01*
X10190420Y-16508936D02*
X10180896Y-16518460D01*
X10180896Y-16518460D02*
X10161849Y-16527984D01*
X10161849Y-16527984D02*
X10123754Y-16527984D01*
X10123754Y-16527984D02*
X10104706Y-16518460D01*
X10314230Y-16527984D02*
X10295182Y-16518460D01*
X10295182Y-16518460D02*
X10285658Y-16499412D01*
X10285658Y-16499412D02*
X10285658Y-16327984D01*
X10476135Y-16527984D02*
X10476135Y-16423222D01*
X10476135Y-16423222D02*
X10466611Y-16404174D01*
X10466611Y-16404174D02*
X10447563Y-16394650D01*
X10447563Y-16394650D02*
X10409468Y-16394650D01*
X10409468Y-16394650D02*
X10390420Y-16404174D01*
X10476135Y-16518460D02*
X10457087Y-16527984D01*
X10457087Y-16527984D02*
X10409468Y-16527984D01*
X10409468Y-16527984D02*
X10390420Y-16518460D01*
X10390420Y-16518460D02*
X10380896Y-16499412D01*
X10380896Y-16499412D02*
X10380896Y-16480365D01*
X10380896Y-16480365D02*
X10390420Y-16461317D01*
X10390420Y-16461317D02*
X10409468Y-16451793D01*
X10409468Y-16451793D02*
X10457087Y-16451793D01*
X10457087Y-16451793D02*
X10476135Y-16442269D01*
X10542801Y-16394650D02*
X10618992Y-16394650D01*
X10571373Y-16327984D02*
X10571373Y-16499412D01*
X10571373Y-16499412D02*
X10580896Y-16518460D01*
X10580896Y-16518460D02*
X10599944Y-16527984D01*
X10599944Y-16527984D02*
X10618992Y-16527984D01*
X10761849Y-16518460D02*
X10742801Y-16527984D01*
X10742801Y-16527984D02*
X10704706Y-16527984D01*
X10704706Y-16527984D02*
X10685658Y-16518460D01*
X10685658Y-16518460D02*
X10676135Y-16499412D01*
X10676135Y-16499412D02*
X10676135Y-16423222D01*
X10676135Y-16423222D02*
X10685658Y-16404174D01*
X10685658Y-16404174D02*
X10704706Y-16394650D01*
X10704706Y-16394650D02*
X10742801Y-16394650D01*
X10742801Y-16394650D02*
X10761849Y-16404174D01*
X10761849Y-16404174D02*
X10771373Y-16423222D01*
X10771373Y-16423222D02*
X10771373Y-16442269D01*
X10771373Y-16442269D02*
X10676135Y-16461317D01*
X10942801Y-16527984D02*
X10942801Y-16327984D01*
X10942801Y-16518460D02*
X10923754Y-16527984D01*
X10923754Y-16527984D02*
X10885658Y-16527984D01*
X10885658Y-16527984D02*
X10866611Y-16518460D01*
X10866611Y-16518460D02*
X10857087Y-16508936D01*
X10857087Y-16508936D02*
X10847563Y-16489888D01*
X10847563Y-16489888D02*
X10847563Y-16432746D01*
X10847563Y-16432746D02*
X10857087Y-16413698D01*
X10857087Y-16413698D02*
X10866611Y-16404174D01*
X10866611Y-16404174D02*
X10885658Y-16394650D01*
X10885658Y-16394650D02*
X10923754Y-16394650D01*
X10923754Y-16394650D02*
X10942801Y-16404174D01*
X11018992Y-16604174D02*
X11028516Y-16594650D01*
X11028516Y-16594650D02*
X11047563Y-16566079D01*
X11047563Y-16566079D02*
X11057087Y-16547031D01*
X11057087Y-16547031D02*
X11066611Y-16518460D01*
X11066611Y-16518460D02*
X11076135Y-16470841D01*
X11076135Y-16470841D02*
X11076135Y-16432746D01*
X11076135Y-16432746D02*
X11066611Y-16385127D01*
X11066611Y-16385127D02*
X11057087Y-16356555D01*
X11057087Y-16356555D02*
X11047563Y-16337508D01*
X11047563Y-16337508D02*
X11028516Y-16308936D01*
X11028516Y-16308936D02*
X11018992Y-16299412D01*
M02*
