%TF.GenerationSoftware,KiCad,Pcbnew,8.0.3*%
%TF.CreationDate,2024-12-15T23:05:39+09:00*%
%TF.ProjectId,manjaro_mx,6d616e6a-6172-46f5-9f6d-782e6b696361,rev?*%
%TF.SameCoordinates,Original*%
%TF.FileFunction,Paste,Bot*%
%TF.FilePolarity,Positive*%
%FSLAX46Y46*%
G04 Gerber Fmt 4.6, Leading zero omitted, Abs format (unit mm)*
G04 Created by KiCad (PCBNEW 8.0.3) date 2024-12-15 23:05:39*
%MOMM*%
%LPD*%
G01*
G04 APERTURE LIST*
G04 Aperture macros list*
%AMRoundRect*
0 Rectangle with rounded corners*
0 $1 Rounding radius*
0 $2 $3 $4 $5 $6 $7 $8 $9 X,Y pos of 4 corners*
0 Add a 4 corners polygon primitive as box body*
4,1,4,$2,$3,$4,$5,$6,$7,$8,$9,$2,$3,0*
0 Add four circle primitives for the rounded corners*
1,1,$1+$1,$2,$3*
1,1,$1+$1,$4,$5*
1,1,$1+$1,$6,$7*
1,1,$1+$1,$8,$9*
0 Add four rect primitives between the rounded corners*
20,1,$1+$1,$2,$3,$4,$5,0*
20,1,$1+$1,$4,$5,$6,$7,0*
20,1,$1+$1,$6,$7,$8,$9,0*
20,1,$1+$1,$8,$9,$2,$3,0*%
%AMRotRect*
0 Rectangle, with rotation*
0 The origin of the aperture is its center*
0 $1 length*
0 $2 width*
0 $3 Rotation angle, in degrees counterclockwise*
0 Add horizontal line*
21,1,$1,$2,0,0,$3*%
G04 Aperture macros list end*
%ADD10RoundRect,0.150000X-0.150000X-0.200000X0.150000X-0.200000X0.150000X0.200000X-0.150000X0.200000X0*%
%ADD11R,2.550000X2.500000*%
%ADD12RoundRect,0.150000X-0.056195X-0.243602X0.218124X-0.122156X0.056195X0.243602X-0.218124X0.122156X0*%
%ADD13RoundRect,0.150000X-0.196653X-0.154362X0.093125X-0.232008X0.196653X0.154362X-0.093125X0.232008X0*%
%ADD14RoundRect,0.150000X-0.218124X-0.122156X0.056195X-0.243602X0.218124X0.122156X-0.056195X0.243602X0*%
%ADD15RotRect,2.550000X2.500000X24.001000*%
%ADD16RoundRect,0.150000X-0.093125X-0.232008X0.196653X-0.154362X0.093125X0.232008X-0.196653X0.154362X0*%
%ADD17RotRect,2.550000X2.500000X345.000000*%
%ADD18RotRect,2.550000X2.500000X15.000000*%
%ADD19RotRect,2.550000X2.500000X336.000000*%
G04 APERTURE END LIST*
D10*
%TO.C,D7*%
X145950000Y-95450000D03*
X144550000Y-95450000D03*
%TD*%
D11*
%TO.C,rSW13*%
X265442000Y-90520000D03*
X252515000Y-93060000D03*
%TD*%
D10*
%TO.C,D9*%
X107950000Y-85450000D03*
X106550000Y-85450000D03*
%TD*%
D11*
%TO.C,rSW2*%
X246392000Y-61420000D03*
X233465000Y-63960000D03*
%TD*%
%TO.C,rSW5*%
X303542000Y-69420000D03*
X290615000Y-71960000D03*
%TD*%
D10*
%TO.C,D16*%
X88950000Y-108450000D03*
X87550000Y-108450000D03*
%TD*%
D11*
%TO.C,rSW14*%
X284492000Y-94520000D03*
X271565000Y-97060000D03*
%TD*%
D10*
%TO.C,rD1*%
X222350000Y-76400000D03*
X220950000Y-76400000D03*
%TD*%
D11*
%TO.C,rSW15*%
X303542000Y-107520000D03*
X290615000Y-110060000D03*
%TD*%
D10*
%TO.C,rD3*%
X260550000Y-66400000D03*
X259150000Y-66400000D03*
%TD*%
%TO.C,rD15*%
X298550000Y-120000000D03*
X297150000Y-120000000D03*
%TD*%
%TO.C,rD13*%
X260550000Y-104500000D03*
X259150000Y-104500000D03*
%TD*%
D11*
%TO.C,rSW8*%
X265442000Y-71470000D03*
X252515000Y-74010000D03*
%TD*%
D10*
%TO.C,D15*%
X107950000Y-104500000D03*
X106550000Y-104500000D03*
%TD*%
D11*
%TO.C,SW15*%
X113242000Y-90520000D03*
X100315000Y-93060000D03*
%TD*%
%TO.C,SW10*%
X94192000Y-75470000D03*
X81265000Y-78010000D03*
%TD*%
%TO.C,SW21*%
X131292000Y-120520000D03*
X118365000Y-123060000D03*
%TD*%
D12*
%TO.C,rD16*%
X203640077Y-142216624D03*
X202359923Y-142783376D03*
%TD*%
D11*
%TO.C,SW16*%
X94192000Y-94520000D03*
X81265000Y-97060000D03*
%TD*%
%TO.C,rSW4*%
X284492000Y-56420000D03*
X271565000Y-58960000D03*
%TD*%
D10*
%TO.C,D18*%
X50950000Y-119500000D03*
X49550000Y-119500000D03*
%TD*%
D13*
%TO.C,D20*%
X146102296Y-137362346D03*
X144750000Y-137000000D03*
%TD*%
D11*
%TO.C,SW22*%
X112242000Y-120520000D03*
X99315000Y-123060000D03*
%TD*%
D10*
%TO.C,D1*%
X145950000Y-76400000D03*
X144550000Y-76400000D03*
%TD*%
D11*
%TO.C,rSW18*%
X322592000Y-107520000D03*
X309665000Y-110060000D03*
%TD*%
D10*
%TO.C,rD11*%
X222350000Y-114500000D03*
X220950000Y-114500000D03*
%TD*%
D11*
%TO.C,rSW1*%
X227342000Y-62420000D03*
X214415000Y-64960000D03*
%TD*%
D10*
%TO.C,rD7*%
X241550000Y-94450000D03*
X240150000Y-94450000D03*
%TD*%
D11*
%TO.C,rSW10*%
X303542000Y-88470000D03*
X290615000Y-91010000D03*
%TD*%
D10*
%TO.C,rD8*%
X260550000Y-85450000D03*
X259150000Y-85450000D03*
%TD*%
%TO.C,D21*%
X125950000Y-134500000D03*
X124550000Y-134500000D03*
%TD*%
D11*
%TO.C,SW3*%
X113242000Y-52420000D03*
X100315000Y-54960000D03*
%TD*%
D10*
%TO.C,D22*%
X106900000Y-134500000D03*
X105500000Y-134500000D03*
%TD*%
%TO.C,D14*%
X126950000Y-113500000D03*
X125550000Y-113500000D03*
%TD*%
D11*
%TO.C,SW9*%
X113242000Y-71470000D03*
X100315000Y-74010000D03*
%TD*%
D10*
%TO.C,D13*%
X145950000Y-114500000D03*
X144550000Y-114500000D03*
%TD*%
D11*
%TO.C,rSW19*%
X322592000Y-88470000D03*
X309665000Y-91010000D03*
%TD*%
%TO.C,SW6*%
X56092000Y-69420000D03*
X43165000Y-71960000D03*
%TD*%
%TO.C,rSW20*%
X322592000Y-69420000D03*
X309665000Y-71960000D03*
%TD*%
D14*
%TO.C,D19*%
X164750000Y-144000000D03*
X163469846Y-143433248D03*
%TD*%
D11*
%TO.C,SW5*%
X75142000Y-69420000D03*
X62215000Y-71960000D03*
%TD*%
D10*
%TO.C,rD4*%
X279550000Y-70350000D03*
X278150000Y-70350000D03*
%TD*%
D11*
%TO.C,SW18*%
X56092000Y-107520000D03*
X43165000Y-110060000D03*
%TD*%
%TO.C,rSW12*%
X246392000Y-99520000D03*
X233465000Y-102060000D03*
%TD*%
%TO.C,SW12*%
X56092000Y-88470000D03*
X43165000Y-91010000D03*
%TD*%
D10*
%TO.C,D3*%
X107950000Y-66400000D03*
X106550000Y-66400000D03*
%TD*%
%TO.C,rD9*%
X279550000Y-89400000D03*
X278150000Y-89400000D03*
%TD*%
D11*
%TO.C,rSW6*%
X227342000Y-81470000D03*
X214415000Y-84010000D03*
%TD*%
%TO.C,SW8*%
X132292000Y-80470000D03*
X119365000Y-83010000D03*
%TD*%
D15*
%TO.C,rSW16*%
X202820588Y-129582977D03*
X192044429Y-137161455D03*
%TD*%
D11*
%TO.C,SW7*%
X151342000Y-81470000D03*
X138415000Y-84010000D03*
%TD*%
D10*
%TO.C,D10*%
X88950000Y-89400000D03*
X87550000Y-89400000D03*
%TD*%
D11*
%TO.C,SW11*%
X75142000Y-88470000D03*
X62215000Y-91010000D03*
%TD*%
D10*
%TO.C,rD14*%
X279550000Y-108450000D03*
X278150000Y-108450000D03*
%TD*%
%TO.C,rD5*%
X298550000Y-83400000D03*
X297150000Y-83400000D03*
%TD*%
%TO.C,rD20*%
X317550000Y-83500000D03*
X316150000Y-83500000D03*
%TD*%
%TO.C,rD6*%
X222350000Y-95450000D03*
X220950000Y-95450000D03*
%TD*%
D11*
%TO.C,SW14*%
X132292000Y-99520000D03*
X119365000Y-102060000D03*
%TD*%
D10*
%TO.C,D2*%
X126950000Y-75400000D03*
X125550000Y-75400000D03*
%TD*%
D11*
%TO.C,SW13*%
X151342000Y-100520000D03*
X138415000Y-103060000D03*
%TD*%
D10*
%TO.C,D17*%
X69950000Y-119500000D03*
X68550000Y-119500000D03*
%TD*%
%TO.C,D11*%
X69950000Y-102450000D03*
X68550000Y-102450000D03*
%TD*%
%TO.C,rD10*%
X298550000Y-102450000D03*
X297150000Y-102450000D03*
%TD*%
%TO.C,D4*%
X88950000Y-70350000D03*
X87550000Y-70350000D03*
%TD*%
D11*
%TO.C,rSW7*%
X246392000Y-80470000D03*
X233465000Y-83010000D03*
%TD*%
D16*
%TO.C,rD17*%
X222500000Y-136000000D03*
X221147704Y-136362346D03*
%TD*%
D11*
%TO.C,SW17*%
X75142000Y-107520000D03*
X62215000Y-110060000D03*
%TD*%
%TO.C,SW4*%
X94192000Y-56420000D03*
X81265000Y-58960000D03*
%TD*%
D10*
%TO.C,D5*%
X69950000Y-83400000D03*
X68550000Y-83400000D03*
%TD*%
%TO.C,rD19*%
X317550000Y-102550000D03*
X316150000Y-102550000D03*
%TD*%
%TO.C,D6*%
X50950000Y-83400000D03*
X49550000Y-83400000D03*
%TD*%
D11*
%TO.C,SW2*%
X132292000Y-61420000D03*
X119365000Y-63960000D03*
%TD*%
%TO.C,rSW3*%
X265442000Y-52420000D03*
X252515000Y-54960000D03*
%TD*%
D17*
%TO.C,SW20*%
X154407739Y-126205118D03*
X141263816Y-125312815D03*
%TD*%
D10*
%TO.C,rD2*%
X241550000Y-75400000D03*
X240150000Y-75400000D03*
%TD*%
D11*
%TO.C,rSW9*%
X284492000Y-75470000D03*
X271565000Y-78010000D03*
%TD*%
D18*
%TO.C,rSW17*%
X223878138Y-123181076D03*
X212049015Y-128980281D03*
%TD*%
D10*
%TO.C,rD18*%
X317550000Y-120000000D03*
X316150000Y-120000000D03*
%TD*%
%TO.C,D8*%
X126950000Y-94450000D03*
X125550000Y-94450000D03*
%TD*%
%TO.C,D12*%
X50950000Y-102450000D03*
X49550000Y-102450000D03*
%TD*%
%TO.C,rD12*%
X241550000Y-112500000D03*
X240150000Y-112500000D03*
%TD*%
D19*
%TO.C,SW19*%
X174853155Y-134335345D03*
X162010642Y-131397865D03*
%TD*%
D11*
%TO.C,SW1*%
X151342000Y-62420000D03*
X138415000Y-64960000D03*
%TD*%
%TO.C,rSW11*%
X227342000Y-100520000D03*
X214415000Y-103060000D03*
%TD*%
M02*
