M48
; DRILL file {KiCad 8.0.3} date 2024-12-16T20:24:45+0900
; FORMAT={-:-/ absolute / metric / decimal}
; #@! TF.CreationDate,2024-12-16T20:24:45+09:00
; #@! TF.GenerationSoftware,Kicad,Pcbnew,8.0.3
; #@! TF.FileFunction,Plated,1,2,PTH
FMAT,2
METRIC
; #@! TA.AperFunction,Plated,PTH,ViaDrill
T1C0.100
; #@! TA.AperFunction,Plated,PTH,ViaDrill
T2C0.300
; #@! TA.AperFunction,Plated,PTH,ComponentDrill
T3C0.750
; #@! TA.AperFunction,Plated,PTH,ComponentDrill
T4C0.800
; #@! TA.AperFunction,Plated,PTH,ComponentDrill
T5C0.889
; #@! TA.AperFunction,Plated,PTH,ComponentDrill
T6C1.000
%
G90
G05
T1
X199.0Y-109.0
X268.5Y-106.0
T2
X59.75Y-100.0
X60.75Y-86.0
X63.75Y-86.0
X63.75Y-102.0
X79.75Y-66.5
X79.75Y-72.0
X79.75Y-90.0
X79.75Y-114.0
X80.665Y-65.0
X83.75Y-72.0
X83.75Y-90.0
X83.75Y-114.0
X97.75Y-68.0
X97.75Y-86.0
X97.75Y-106.0
X101.75Y-68.0
X101.75Y-86.0
X101.75Y-106.0
X116.75Y-52.5
X117.75Y-53.5
X117.75Y-70.0
X117.75Y-88.0
X117.75Y-112.0
X121.75Y-72.0
X121.75Y-90.0
X121.75Y-114.0
X122.75Y-132.0
X125.75Y-132.0
X135.75Y-74.0
X135.75Y-113.0
X136.75Y-95.0
X139.75Y-75.0
X139.75Y-96.0
X139.75Y-113.0
X143.75Y-134.0
X147.75Y-135.0
X163.75Y-140.0
X164.0Y-105.0
X166.75Y-142.0
X168.75Y-133.0
X169.75Y-143.0
X173.0Y-63.0
X173.0Y-71.0
X191.0Y-54.5
X194.5Y-74.0
X195.0Y-55.0
X198.5Y-74.0
X199.0Y-68.0
X199.5Y-107.5
X200.5Y-65.0
X202.0Y-76.0
X207.5Y-135.0
X208.5Y-78.0
X210.5Y-120.0
X210.5Y-126.0
X211.0Y-53.1
X211.0Y-57.0
X212.5Y-79.0
X219.5Y-135.0
X226.5Y-75.0
X226.5Y-96.0
X226.5Y-113.0
X229.5Y-96.0
X230.5Y-75.0
X232.0Y-107.0
X234.5Y-112.0
X235.0Y-107.0
X237.0Y-111.0
X238.5Y-112.0
X244.5Y-72.0
X244.5Y-92.0
X248.5Y-72.0
X248.5Y-92.0
X264.5Y-66.0
X264.5Y-86.0
X264.5Y-106.0
X268.5Y-66.0
X268.5Y-86.0
X274.0Y-104.0
X277.0Y-104.0
X282.5Y-72.0
X282.5Y-90.0
X284.0Y-132.0
X285.0Y-127.0
X286.0Y-90.0
X286.5Y-72.0
X288.0Y-97.0
X291.0Y-116.0
X292.0Y-118.0
X294.0Y-116.0
X299.0Y-118.0
X311.0Y-118.0
X315.0Y-105.0
X315.0Y-118.0
X320.0Y-105.0
X322.0Y-97.0
T3
X165.0Y-80.0
X167.0Y-80.0
X199.75Y-80.0
X201.75Y-80.0
T4
X173.25Y-79.96
X173.25Y-82.5
X173.25Y-85.04
X193.5Y-79.96
X193.5Y-82.5
X193.5Y-85.04
T5
X159.63Y-56.88
X159.63Y-59.42
X159.63Y-61.96
X159.63Y-64.5
X159.63Y-67.04
X159.63Y-69.58
X159.63Y-72.12
X174.87Y-56.88
X174.87Y-59.42
X174.87Y-61.96
X174.87Y-64.5
X174.87Y-67.04
X174.87Y-69.58
X174.87Y-72.12
X192.23Y-56.88
X192.23Y-59.42
X192.23Y-61.96
X192.23Y-64.5
X192.23Y-67.04
X192.23Y-69.58
X192.23Y-72.12
X207.47Y-56.88
X207.47Y-59.42
X207.47Y-61.96
X207.47Y-64.5
X207.47Y-67.04
X207.47Y-69.58
X207.47Y-72.12
T6
X281.15Y-123.475
X281.15Y-126.015
X281.15Y-128.555
X281.15Y-131.095
X281.15Y-133.635
X281.15Y-136.175
T6
G00X166.5Y-100.8
M15
G01X166.0Y-100.8
M16
G05
G00X168.0Y-105.1
M15
G01X167.5Y-105.1
M16
G05
G00X172.0Y-105.1
M15
G01X171.5Y-105.1
M16
G05
G00X175.0Y-105.1
M15
G01X174.5Y-105.1
M16
G05
M30
