M48
; DRILL file {KiCad 8.0.3} date 2024-12-16T20:24:45+0900
; FORMAT={-:-/ absolute / metric / decimal}
; #@! TF.CreationDate,2024-12-16T20:24:45+09:00
; #@! TF.GenerationSoftware,Kicad,Pcbnew,8.0.3
; #@! TF.FileFunction,NonPlated,1,2,NPTH
FMAT,2
METRIC
; #@! TA.AperFunction,NonPlated,NPTH,ComponentDrill
T1C1.200
; #@! TA.AperFunction,NonPlated,NPTH,ComponentDrill
T2C1.900
; #@! TA.AperFunction,NonPlated,NPTH,ComponentDrill
T3C3.000
; #@! TA.AperFunction,NonPlated,NPTH,ComponentDrill
T4C4.100
%
G90
G05
T1
X169.55Y-102.95
X176.55Y-102.95
T2
X45.17Y-74.5
X45.17Y-93.55
X45.17Y-112.6
X55.33Y-74.5
X55.33Y-93.55
X55.33Y-112.6
X64.22Y-74.5
X64.22Y-93.55
X64.22Y-112.6
X74.38Y-74.5
X74.38Y-93.55
X74.38Y-112.6
X83.27Y-61.5
X83.27Y-80.55
X83.27Y-99.6
X93.43Y-61.5
X93.43Y-80.55
X93.43Y-99.6
X101.32Y-125.6
X102.32Y-57.5
X102.32Y-76.55
X102.32Y-95.6
X111.48Y-125.6
X112.48Y-57.5
X112.48Y-76.55
X112.48Y-95.6
X120.37Y-125.6
X121.37Y-66.5
X121.37Y-85.55
X121.37Y-104.6
X130.53Y-125.6
X131.53Y-66.5
X131.53Y-85.55
X131.53Y-104.6
X140.42Y-67.5
X140.42Y-86.55
X140.42Y-105.6
X142.543Y-128.285
X150.58Y-67.5
X150.58Y-86.55
X150.58Y-105.6
X152.357Y-130.915
X162.809Y-134.534
X172.091Y-138.666
X194.909Y-138.666
X204.191Y-134.534
X214.643Y-130.915
X216.42Y-67.5
X216.42Y-86.55
X216.42Y-105.6
X224.457Y-128.285
X226.58Y-67.5
X226.58Y-86.55
X226.58Y-105.6
X235.47Y-66.5
X235.47Y-85.55
X235.47Y-104.6
X245.63Y-66.5
X245.63Y-85.55
X245.63Y-104.6
X254.52Y-57.5
X254.52Y-76.55
X254.52Y-95.6
X264.68Y-57.5
X264.68Y-76.55
X264.68Y-95.6
X273.57Y-61.5
X273.57Y-80.55
X273.57Y-99.6
X283.73Y-61.5
X283.73Y-80.55
X283.73Y-99.6
X292.62Y-74.5
X292.62Y-93.55
X292.62Y-112.6
X302.78Y-74.5
X302.78Y-93.55
X302.78Y-112.6
X311.67Y-74.5
X311.67Y-93.55
X311.67Y-112.6
X321.83Y-74.5
X321.83Y-93.55
X321.83Y-112.6
T3
X46.44Y-71.96
X46.44Y-91.01
X46.44Y-110.06
X52.79Y-69.42
X52.79Y-88.47
X52.79Y-107.52
X65.49Y-71.96
X65.49Y-91.01
X65.49Y-110.06
X71.84Y-69.42
X71.84Y-88.47
X71.84Y-107.52
X84.54Y-58.96
X84.54Y-78.01
X84.54Y-97.06
X90.89Y-56.42
X90.89Y-75.47
X90.89Y-94.52
X102.59Y-123.06
X103.59Y-54.96
X103.59Y-74.01
X103.59Y-93.06
X108.94Y-120.52
X109.94Y-52.42
X109.94Y-71.47
X109.94Y-90.52
X121.64Y-123.06
X122.64Y-63.96
X122.64Y-83.01
X122.64Y-102.06
X127.99Y-120.52
X128.99Y-61.42
X128.99Y-80.47
X128.99Y-99.52
X141.69Y-64.96
X141.69Y-84.01
X141.69Y-103.06
X144.427Y-126.16
X148.04Y-62.42
X148.04Y-81.47
X148.04Y-100.52
X151.218Y-125.35
X165.003Y-132.73
X171.837Y-132.992
X195.036Y-135.829
X199.804Y-130.926
X215.212Y-128.133
X217.69Y-64.96
X217.69Y-84.01
X217.69Y-103.06
X220.689Y-124.036
X224.04Y-62.42
X224.04Y-81.47
X224.04Y-100.52
X236.74Y-63.96
X236.74Y-83.01
X236.74Y-102.06
X243.09Y-61.42
X243.09Y-80.47
X243.09Y-99.52
X255.79Y-54.96
X255.79Y-74.01
X255.79Y-93.06
X262.14Y-52.42
X262.14Y-71.47
X262.14Y-90.52
X274.84Y-58.96
X274.84Y-78.01
X274.84Y-97.06
X281.19Y-56.42
X281.19Y-75.47
X281.19Y-94.52
X293.89Y-71.96
X293.89Y-91.01
X293.89Y-110.06
X300.24Y-69.42
X300.24Y-88.47
X300.24Y-107.52
X312.94Y-71.96
X312.94Y-91.01
X312.94Y-110.06
X319.29Y-69.42
X319.29Y-88.47
X319.29Y-107.52
T4
X50.25Y-74.5
X50.25Y-93.55
X50.25Y-112.6
X69.3Y-74.5
X69.3Y-93.55
X69.3Y-112.6
X88.35Y-61.5
X88.35Y-80.55
X88.35Y-99.6
X106.4Y-125.6
X107.4Y-57.5
X107.4Y-76.55
X107.4Y-95.6
X125.45Y-125.6
X126.45Y-66.5
X126.45Y-85.55
X126.45Y-104.6
X145.5Y-67.5
X145.5Y-86.55
X145.5Y-105.6
X147.45Y-129.6
X167.45Y-136.6
X199.55Y-136.6
X219.55Y-129.6
X221.5Y-67.5
X221.5Y-86.55
X221.5Y-105.6
X240.55Y-66.5
X240.55Y-85.55
X240.55Y-104.6
X259.6Y-57.5
X259.6Y-76.55
X259.6Y-95.6
X278.65Y-61.5
X278.65Y-80.55
X278.65Y-99.6
X297.7Y-74.5
X297.7Y-93.55
X297.7Y-112.6
X316.75Y-74.5
X316.75Y-93.55
X316.75Y-112.6
M30
