%TF.GenerationSoftware,KiCad,Pcbnew,8.0.3*%
%TF.CreationDate,2024-12-15T23:05:39+09:00*%
%TF.ProjectId,manjaro_mx,6d616e6a-6172-46f5-9f6d-782e6b696361,rev?*%
%TF.SameCoordinates,Original*%
%TF.FileFunction,Copper,L2,Bot*%
%TF.FilePolarity,Positive*%
%FSLAX46Y46*%
G04 Gerber Fmt 4.6, Leading zero omitted, Abs format (unit mm)*
G04 Created by KiCad (PCBNEW 8.0.3) date 2024-12-15 23:05:39*
%MOMM*%
%LPD*%
G01*
G04 APERTURE LIST*
G04 Aperture macros list*
%AMRoundRect*
0 Rectangle with rounded corners*
0 $1 Rounding radius*
0 $2 $3 $4 $5 $6 $7 $8 $9 X,Y pos of 4 corners*
0 Add a 4 corners polygon primitive as box body*
4,1,4,$2,$3,$4,$5,$6,$7,$8,$9,$2,$3,0*
0 Add four circle primitives for the rounded corners*
1,1,$1+$1,$2,$3*
1,1,$1+$1,$4,$5*
1,1,$1+$1,$6,$7*
1,1,$1+$1,$8,$9*
0 Add four rect primitives between the rounded corners*
20,1,$1+$1,$2,$3,$4,$5,0*
20,1,$1+$1,$4,$5,$6,$7,0*
20,1,$1+$1,$6,$7,$8,$9,0*
20,1,$1+$1,$8,$9,$2,$3,0*%
%AMRotRect*
0 Rectangle, with rotation*
0 The origin of the aperture is its center*
0 $1 length*
0 $2 width*
0 $3 Rotation angle, in degrees counterclockwise*
0 Add horizontal line*
21,1,$1,$2,0,0,$3*%
G04 Aperture macros list end*
%TA.AperFunction,ComponentPad*%
%ADD10RoundRect,0.250000X-0.350000X-0.625000X0.350000X-0.625000X0.350000X0.625000X-0.350000X0.625000X0*%
%TD*%
%TA.AperFunction,ComponentPad*%
%ADD11O,1.200000X1.750000*%
%TD*%
%TA.AperFunction,ComponentPad*%
%ADD12C,1.524000*%
%TD*%
%TA.AperFunction,SMDPad,CuDef*%
%ADD13RoundRect,0.150000X-0.150000X-0.200000X0.150000X-0.200000X0.150000X0.200000X-0.150000X0.200000X0*%
%TD*%
%TA.AperFunction,ComponentPad*%
%ADD14R,1.500000X1.500000*%
%TD*%
%TA.AperFunction,ComponentPad*%
%ADD15C,1.600000*%
%TD*%
%TA.AperFunction,SMDPad,CuDef*%
%ADD16R,2.550000X2.500000*%
%TD*%
%TA.AperFunction,SMDPad,CuDef*%
%ADD17RoundRect,0.150000X-0.056195X-0.243602X0.218124X-0.122156X0.056195X0.243602X-0.218124X0.122156X0*%
%TD*%
%TA.AperFunction,SMDPad,CuDef*%
%ADD18RoundRect,0.150000X-0.196653X-0.154362X0.093125X-0.232008X0.196653X0.154362X-0.093125X0.232008X0*%
%TD*%
%TA.AperFunction,SMDPad,CuDef*%
%ADD19RoundRect,0.150000X-0.218124X-0.122156X0.056195X-0.243602X0.218124X0.122156X-0.056195X0.243602X0*%
%TD*%
%TA.AperFunction,SMDPad,CuDef*%
%ADD20RotRect,2.550000X2.500000X24.001000*%
%TD*%
%TA.AperFunction,SMDPad,CuDef*%
%ADD21RoundRect,0.150000X-0.093125X-0.232008X0.196653X-0.154362X0.093125X0.232008X-0.196653X0.154362X0*%
%TD*%
%TA.AperFunction,SMDPad,CuDef*%
%ADD22RotRect,2.550000X2.500000X345.000000*%
%TD*%
%TA.AperFunction,SMDPad,CuDef*%
%ADD23RotRect,2.550000X2.500000X15.000000*%
%TD*%
%TA.AperFunction,SMDPad,CuDef*%
%ADD24RotRect,2.550000X2.500000X336.000000*%
%TD*%
%TA.AperFunction,ComponentPad*%
%ADD25R,1.700000X1.700000*%
%TD*%
%TA.AperFunction,ComponentPad*%
%ADD26O,1.700000X1.700000*%
%TD*%
%TA.AperFunction,ViaPad*%
%ADD27C,0.600000*%
%TD*%
%TA.AperFunction,ViaPad*%
%ADD28C,0.300000*%
%TD*%
%TA.AperFunction,Conductor*%
%ADD29C,0.200000*%
%TD*%
G04 APERTURE END LIST*
D10*
%TO.P,BT1,1,+*%
%TO.N,BAT+*%
X165000000Y-80000000D03*
D11*
%TO.P,BT1,2,-*%
%TO.N,BAT-*%
X167000000Y-80000000D03*
%TD*%
D12*
%TO.P,rU1,1,P0.02_AIN0_LOW_A0_D0*%
%TO.N,rROW1*%
X192230000Y-56880000D03*
%TO.P,rU1,2,P0.03_AIN1_LOW_A1_D1*%
%TO.N,rCOL4*%
X192230000Y-59420000D03*
%TO.P,rU1,3,P0.28_AIN4_LOW_A2_D2*%
%TO.N,rCOL3*%
X192230000Y-61960000D03*
%TO.P,rU1,4,P0.29_AIN5_LOW_A3_D3*%
%TO.N,rCOL2*%
X192230000Y-64500000D03*
%TO.P,rU1,5,P0.04_AIN2_A4_D4*%
%TO.N,rCOL1*%
X192230000Y-67040000D03*
%TO.P,rU1,6,P0.05_AIN3_A5_D5*%
%TO.N,rCOL0*%
X192230000Y-69580000D03*
%TO.P,rU1,7,P1.11_TX_D6*%
%TO.N,rROW0*%
X192230000Y-72120000D03*
%TO.P,rU1,8,P1.12_RX_D7*%
%TO.N,rROW3*%
X207470000Y-72120000D03*
%TO.P,rU1,9,P1.13_SCK_D8*%
%TO.N,SCLK*%
X207470000Y-69580000D03*
%TO.P,rU1,10,P1.14_MISO_D9*%
%TO.N,rROW2*%
X207470000Y-67040000D03*
%TO.P,rU1,11,P1.15_MOSI_D10*%
%TO.N,SDIO*%
X207470000Y-64500000D03*
%TO.P,rU1,12,3V3*%
%TO.N,3V3*%
X207470000Y-61960000D03*
%TO.P,rU1,13,GND*%
%TO.N,rBAT-*%
X207470000Y-59420000D03*
%TO.P,rU1,14,VBUS*%
%TO.N,unconnected-(rU1-VBUS-Pad14)*%
X207470000Y-56880000D03*
%TD*%
%TO.P,U1,1,P0.02_AIN0_LOW_A0_D0*%
%TO.N,COL5*%
X159630000Y-56880000D03*
%TO.P,U1,2,P0.03_AIN1_LOW_A1_D1*%
%TO.N,COL4*%
X159630000Y-59420000D03*
%TO.P,U1,3,P0.28_AIN4_LOW_A2_D2*%
%TO.N,COL3*%
X159630000Y-61960000D03*
%TO.P,U1,4,P0.29_AIN5_LOW_A3_D3*%
%TO.N,COL2*%
X159630000Y-64500000D03*
%TO.P,U1,5,P0.04_AIN2_A4_D4*%
%TO.N,COL1*%
X159630000Y-67040000D03*
%TO.P,U1,6,P0.05_AIN3_A5_D5*%
%TO.N,COL0*%
X159630000Y-69580000D03*
%TO.P,U1,7,P1.11_TX_D6*%
%TO.N,ROW0*%
X159630000Y-72120000D03*
%TO.P,U1,8,P1.12_RX_D7*%
%TO.N,unconnected-(U1-P1.12_RX_D7-Pad8)*%
X174870000Y-72120000D03*
%TO.P,U1,9,P1.13_SCK_D8*%
%TO.N,ROW3*%
X174870000Y-69580000D03*
%TO.P,U1,10,P1.14_MISO_D9*%
%TO.N,ROW2*%
X174870000Y-67040000D03*
%TO.P,U1,11,P1.15_MOSI_D10*%
%TO.N,ROW1*%
X174870000Y-64500000D03*
%TO.P,U1,12,3V3*%
%TO.N,unconnected-(U1-3V3-Pad12)_0*%
X174870000Y-61960000D03*
%TO.P,U1,13,GND*%
%TO.N,BAT-*%
X174870000Y-59420000D03*
%TO.P,U1,14,VBUS*%
%TO.N,unconnected-(U1-VBUS-Pad14)*%
X174870000Y-56880000D03*
%TD*%
D10*
%TO.P,rBT1,1,+*%
%TO.N,rBAT+*%
X199750000Y-80000000D03*
D11*
%TO.P,rBT1,2,-*%
%TO.N,rBAT-*%
X201750000Y-80000000D03*
%TD*%
D13*
%TO.P,D7,1,K*%
%TO.N,ROW1*%
X145950000Y-95450000D03*
%TO.P,D7,2,A*%
%TO.N,Net-(D7-A)*%
X144550000Y-95450000D03*
%TD*%
D14*
%TO.P,PowerSW1,1,B*%
%TO.N,Net-(PowerSW1-B)*%
X173250000Y-82500000D03*
D15*
%TO.P,PowerSW1,2,C*%
%TO.N,BAT-*%
X173250000Y-79960000D03*
%TO.P,PowerSW1,3,A*%
%TO.N,BAT+*%
X173250000Y-85040000D03*
%TD*%
D16*
%TO.P,rSW13,2,2*%
%TO.N,rCOL2*%
X265442000Y-90520000D03*
%TO.P,rSW13,1,1*%
%TO.N,Net-(rD13-A)*%
X252515000Y-93060000D03*
%TD*%
D13*
%TO.P,D9,1,K*%
%TO.N,ROW1*%
X107950000Y-85450000D03*
%TO.P,D9,2,A*%
%TO.N,Net-(D9-A)*%
X106550000Y-85450000D03*
%TD*%
D16*
%TO.P,rSW2,2,2*%
%TO.N,rCOL1*%
X246392000Y-61420000D03*
%TO.P,rSW2,1,1*%
%TO.N,Net-(rD2-A)*%
X233465000Y-63960000D03*
%TD*%
%TO.P,rSW5,2,2*%
%TO.N,rCOL4*%
X303542000Y-69420000D03*
%TO.P,rSW5,1,1*%
%TO.N,Net-(rD5-A)*%
X290615000Y-71960000D03*
%TD*%
D13*
%TO.P,D16,1,K*%
%TO.N,ROW2*%
X88950000Y-108450000D03*
%TO.P,D16,2,A*%
%TO.N,Net-(D16-A)*%
X87550000Y-108450000D03*
%TD*%
D16*
%TO.P,rSW14,2,2*%
%TO.N,rCOL3*%
X284492000Y-94520000D03*
%TO.P,rSW14,1,1*%
%TO.N,Net-(rD14-A)*%
X271565000Y-97060000D03*
%TD*%
D13*
%TO.P,rD1,1,K*%
%TO.N,rROW0*%
X222350000Y-76400000D03*
%TO.P,rD1,2,A*%
%TO.N,Net-(rD1-A)*%
X220950000Y-76400000D03*
%TD*%
D16*
%TO.P,rSW15,2,2*%
%TO.N,rCOL4*%
X303542000Y-107520000D03*
%TO.P,rSW15,1,1*%
%TO.N,Net-(rD15-A)*%
X290615000Y-110060000D03*
%TD*%
D13*
%TO.P,rD3,1,K*%
%TO.N,rROW0*%
X260550000Y-66400000D03*
%TO.P,rD3,2,A*%
%TO.N,Net-(rD3-A)*%
X259150000Y-66400000D03*
%TD*%
%TO.P,rD15,1,K*%
%TO.N,rROW2*%
X298550000Y-120000000D03*
%TO.P,rD15,2,A*%
%TO.N,Net-(rD15-A)*%
X297150000Y-120000000D03*
%TD*%
%TO.P,rD13,1,K*%
%TO.N,rROW2*%
X260550000Y-104500000D03*
%TO.P,rD13,2,A*%
%TO.N,Net-(rD13-A)*%
X259150000Y-104500000D03*
%TD*%
D16*
%TO.P,rSW8,2,2*%
%TO.N,rCOL2*%
X265442000Y-71470000D03*
%TO.P,rSW8,1,1*%
%TO.N,Net-(rD8-A)*%
X252515000Y-74010000D03*
%TD*%
D13*
%TO.P,D15,1,K*%
%TO.N,ROW2*%
X107950000Y-104500000D03*
%TO.P,D15,2,A*%
%TO.N,Net-(D15-A)*%
X106550000Y-104500000D03*
%TD*%
D16*
%TO.P,SW15,2,2*%
%TO.N,Net-(D15-A)*%
X113242000Y-90520000D03*
%TO.P,SW15,1,1*%
%TO.N,COL2*%
X100315000Y-93060000D03*
%TD*%
%TO.P,SW10,2,2*%
%TO.N,Net-(D10-A)*%
X94192000Y-75470000D03*
%TO.P,SW10,1,1*%
%TO.N,COL3*%
X81265000Y-78010000D03*
%TD*%
%TO.P,SW21,2,2*%
%TO.N,Net-(D21-A)*%
X131292000Y-120520000D03*
%TO.P,SW21,1,1*%
%TO.N,COL2*%
X118365000Y-123060000D03*
%TD*%
D17*
%TO.P,rD16,1,K*%
%TO.N,rROW3*%
X203640077Y-142216624D03*
%TO.P,rD16,2,A*%
%TO.N,Net-(rD16-A)*%
X202359923Y-142783376D03*
%TD*%
D16*
%TO.P,SW16,2,2*%
%TO.N,Net-(D16-A)*%
X94192000Y-94520000D03*
%TO.P,SW16,1,1*%
%TO.N,COL3*%
X81265000Y-97060000D03*
%TD*%
%TO.P,rSW4,2,2*%
%TO.N,rCOL3*%
X284492000Y-56420000D03*
%TO.P,rSW4,1,1*%
%TO.N,Net-(rD4-A)*%
X271565000Y-58960000D03*
%TD*%
D13*
%TO.P,D18,1,K*%
%TO.N,ROW2*%
X50950000Y-119500000D03*
%TO.P,D18,2,A*%
%TO.N,Net-(D18-A)*%
X49550000Y-119500000D03*
%TD*%
D18*
%TO.P,D20,1,K*%
%TO.N,ROW3*%
X146102296Y-137362346D03*
%TO.P,D20,2,A*%
%TO.N,Net-(D20-A)*%
X144750000Y-137000000D03*
%TD*%
D16*
%TO.P,SW22,2,2*%
%TO.N,Net-(D22-A)*%
X112242000Y-120520000D03*
%TO.P,SW22,1,1*%
%TO.N,COL3*%
X99315000Y-123060000D03*
%TD*%
D13*
%TO.P,D1,1,K*%
%TO.N,ROW0*%
X145950000Y-76400000D03*
%TO.P,D1,2,A*%
%TO.N,Net-(D1-A)*%
X144550000Y-76400000D03*
%TD*%
D16*
%TO.P,rSW18,2,2*%
%TO.N,rCOL2*%
X322592000Y-107520000D03*
%TO.P,rSW18,1,1*%
%TO.N,Net-(rD18-A)*%
X309665000Y-110060000D03*
%TD*%
D13*
%TO.P,rD11,1,K*%
%TO.N,rROW2*%
X222350000Y-114500000D03*
%TO.P,rD11,2,A*%
%TO.N,Net-(rD11-A)*%
X220950000Y-114500000D03*
%TD*%
D16*
%TO.P,rSW1,2,2*%
%TO.N,rCOL0*%
X227342000Y-62420000D03*
%TO.P,rSW1,1,1*%
%TO.N,Net-(rD1-A)*%
X214415000Y-64960000D03*
%TD*%
D13*
%TO.P,rD7,1,K*%
%TO.N,rROW1*%
X241550000Y-94450000D03*
%TO.P,rD7,2,A*%
%TO.N,Net-(rD7-A)*%
X240150000Y-94450000D03*
%TD*%
D16*
%TO.P,rSW10,2,2*%
%TO.N,rCOL4*%
X303542000Y-88470000D03*
%TO.P,rSW10,1,1*%
%TO.N,Net-(rD10-A)*%
X290615000Y-91010000D03*
%TD*%
D13*
%TO.P,rD8,1,K*%
%TO.N,rROW1*%
X260550000Y-85450000D03*
%TO.P,rD8,2,A*%
%TO.N,Net-(rD8-A)*%
X259150000Y-85450000D03*
%TD*%
%TO.P,D21,1,K*%
%TO.N,ROW3*%
X125950000Y-134500000D03*
%TO.P,D21,2,A*%
%TO.N,Net-(D21-A)*%
X124550000Y-134500000D03*
%TD*%
D16*
%TO.P,SW3,2,2*%
%TO.N,Net-(D3-A)*%
X113242000Y-52420000D03*
%TO.P,SW3,1,1*%
%TO.N,COL2*%
X100315000Y-54960000D03*
%TD*%
D13*
%TO.P,D22,1,K*%
%TO.N,ROW3*%
X106900000Y-134500000D03*
%TO.P,D22,2,A*%
%TO.N,Net-(D22-A)*%
X105500000Y-134500000D03*
%TD*%
%TO.P,D14,1,K*%
%TO.N,ROW2*%
X126950000Y-113500000D03*
%TO.P,D14,2,A*%
%TO.N,Net-(D14-A)*%
X125550000Y-113500000D03*
%TD*%
D16*
%TO.P,SW9,2,2*%
%TO.N,Net-(D9-A)*%
X113242000Y-71470000D03*
%TO.P,SW9,1,1*%
%TO.N,COL2*%
X100315000Y-74010000D03*
%TD*%
D13*
%TO.P,D13,1,K*%
%TO.N,ROW2*%
X145950000Y-114500000D03*
%TO.P,D13,2,A*%
%TO.N,Net-(D13-A)*%
X144550000Y-114500000D03*
%TD*%
D16*
%TO.P,rSW19,2,2*%
%TO.N,rCOL3*%
X322592000Y-88470000D03*
%TO.P,rSW19,1,1*%
%TO.N,Net-(rD19-A)*%
X309665000Y-91010000D03*
%TD*%
%TO.P,SW6,2,2*%
%TO.N,Net-(D6-A)*%
X56092000Y-69420000D03*
%TO.P,SW6,1,1*%
%TO.N,COL5*%
X43165000Y-71960000D03*
%TD*%
%TO.P,rSW20,2,2*%
%TO.N,rCOL4*%
X322592000Y-69420000D03*
%TO.P,rSW20,1,1*%
%TO.N,Net-(rD20-A)*%
X309665000Y-71960000D03*
%TD*%
D19*
%TO.P,D19,1,K*%
%TO.N,ROW3*%
X164750000Y-144000000D03*
%TO.P,D19,2,A*%
%TO.N,Net-(D19-A)*%
X163469846Y-143433248D03*
%TD*%
D16*
%TO.P,SW5,2,2*%
%TO.N,Net-(D5-A)*%
X75142000Y-69420000D03*
%TO.P,SW5,1,1*%
%TO.N,COL4*%
X62215000Y-71960000D03*
%TD*%
D13*
%TO.P,rD4,1,K*%
%TO.N,rROW0*%
X279550000Y-70350000D03*
%TO.P,rD4,2,A*%
%TO.N,Net-(rD4-A)*%
X278150000Y-70350000D03*
%TD*%
D14*
%TO.P,rPowerSW1,1,B*%
%TO.N,Net-(rPowerSW1-B)*%
X193500000Y-82500000D03*
D15*
%TO.P,rPowerSW1,2,C*%
%TO.N,rBAT-*%
X193500000Y-79960000D03*
%TO.P,rPowerSW1,3,A*%
%TO.N,rBAT+*%
X193500000Y-85040000D03*
%TD*%
D16*
%TO.P,SW18,2,2*%
%TO.N,Net-(D18-A)*%
X56092000Y-107520000D03*
%TO.P,SW18,1,1*%
%TO.N,COL5*%
X43165000Y-110060000D03*
%TD*%
%TO.P,rSW12,2,2*%
%TO.N,rCOL1*%
X246392000Y-99520000D03*
%TO.P,rSW12,1,1*%
%TO.N,Net-(rD12-A)*%
X233465000Y-102060000D03*
%TD*%
%TO.P,SW12,2,2*%
%TO.N,Net-(D12-A)*%
X56092000Y-88470000D03*
%TO.P,SW12,1,1*%
%TO.N,COL5*%
X43165000Y-91010000D03*
%TD*%
D13*
%TO.P,D3,1,K*%
%TO.N,ROW0*%
X107950000Y-66400000D03*
%TO.P,D3,2,A*%
%TO.N,Net-(D3-A)*%
X106550000Y-66400000D03*
%TD*%
%TO.P,rD9,1,K*%
%TO.N,rROW1*%
X279550000Y-89400000D03*
%TO.P,rD9,2,A*%
%TO.N,Net-(rD9-A)*%
X278150000Y-89400000D03*
%TD*%
D16*
%TO.P,rSW6,2,2*%
%TO.N,rCOL0*%
X227342000Y-81470000D03*
%TO.P,rSW6,1,1*%
%TO.N,Net-(rD6-A)*%
X214415000Y-84010000D03*
%TD*%
%TO.P,SW8,2,2*%
%TO.N,Net-(D8-A)*%
X132292000Y-80470000D03*
%TO.P,SW8,1,1*%
%TO.N,COL1*%
X119365000Y-83010000D03*
%TD*%
D20*
%TO.P,rSW16,2,2*%
%TO.N,rCOL0*%
X202820588Y-129582977D03*
%TO.P,rSW16,1,1*%
%TO.N,Net-(rD16-A)*%
X192044429Y-137161455D03*
%TD*%
D16*
%TO.P,SW7,2,2*%
%TO.N,Net-(D7-A)*%
X151342000Y-81470000D03*
%TO.P,SW7,1,1*%
%TO.N,COL0*%
X138415000Y-84010000D03*
%TD*%
D13*
%TO.P,D10,1,K*%
%TO.N,ROW1*%
X88950000Y-89400000D03*
%TO.P,D10,2,A*%
%TO.N,Net-(D10-A)*%
X87550000Y-89400000D03*
%TD*%
D16*
%TO.P,SW11,2,2*%
%TO.N,Net-(D11-A)*%
X75142000Y-88470000D03*
%TO.P,SW11,1,1*%
%TO.N,COL4*%
X62215000Y-91010000D03*
%TD*%
D13*
%TO.P,rD14,1,K*%
%TO.N,rROW2*%
X279550000Y-108450000D03*
%TO.P,rD14,2,A*%
%TO.N,Net-(rD14-A)*%
X278150000Y-108450000D03*
%TD*%
%TO.P,rD5,1,K*%
%TO.N,rROW0*%
X298550000Y-83400000D03*
%TO.P,rD5,2,A*%
%TO.N,Net-(rD5-A)*%
X297150000Y-83400000D03*
%TD*%
%TO.P,rD20,1,K*%
%TO.N,rROW3*%
X317550000Y-83500000D03*
%TO.P,rD20,2,A*%
%TO.N,Net-(rD20-A)*%
X316150000Y-83500000D03*
%TD*%
%TO.P,rD6,1,K*%
%TO.N,rROW1*%
X222350000Y-95450000D03*
%TO.P,rD6,2,A*%
%TO.N,Net-(rD6-A)*%
X220950000Y-95450000D03*
%TD*%
D16*
%TO.P,SW14,2,2*%
%TO.N,Net-(D14-A)*%
X132292000Y-99520000D03*
%TO.P,SW14,1,1*%
%TO.N,COL1*%
X119365000Y-102060000D03*
%TD*%
D13*
%TO.P,D2,1,K*%
%TO.N,ROW0*%
X126950000Y-75400000D03*
%TO.P,D2,2,A*%
%TO.N,Net-(D2-A)*%
X125550000Y-75400000D03*
%TD*%
D16*
%TO.P,SW13,2,2*%
%TO.N,Net-(D13-A)*%
X151342000Y-100520000D03*
%TO.P,SW13,1,1*%
%TO.N,COL0*%
X138415000Y-103060000D03*
%TD*%
D13*
%TO.P,D17,1,K*%
%TO.N,ROW2*%
X69950000Y-119500000D03*
%TO.P,D17,2,A*%
%TO.N,Net-(D17-A)*%
X68550000Y-119500000D03*
%TD*%
%TO.P,D11,1,K*%
%TO.N,ROW1*%
X69950000Y-102450000D03*
%TO.P,D11,2,A*%
%TO.N,Net-(D11-A)*%
X68550000Y-102450000D03*
%TD*%
%TO.P,rD10,1,K*%
%TO.N,rROW1*%
X298550000Y-102450000D03*
%TO.P,rD10,2,A*%
%TO.N,Net-(rD10-A)*%
X297150000Y-102450000D03*
%TD*%
%TO.P,D4,1,K*%
%TO.N,ROW0*%
X88950000Y-70350000D03*
%TO.P,D4,2,A*%
%TO.N,Net-(D4-A)*%
X87550000Y-70350000D03*
%TD*%
D16*
%TO.P,rSW7,2,2*%
%TO.N,rCOL1*%
X246392000Y-80470000D03*
%TO.P,rSW7,1,1*%
%TO.N,Net-(rD7-A)*%
X233465000Y-83010000D03*
%TD*%
D21*
%TO.P,rD17,1,K*%
%TO.N,rROW3*%
X222500000Y-136000000D03*
%TO.P,rD17,2,A*%
%TO.N,Net-(rD17-A)*%
X221147704Y-136362346D03*
%TD*%
D16*
%TO.P,SW17,2,2*%
%TO.N,Net-(D17-A)*%
X75142000Y-107520000D03*
%TO.P,SW17,1,1*%
%TO.N,COL4*%
X62215000Y-110060000D03*
%TD*%
%TO.P,SW4,2,2*%
%TO.N,Net-(D4-A)*%
X94192000Y-56420000D03*
%TO.P,SW4,1,1*%
%TO.N,COL3*%
X81265000Y-58960000D03*
%TD*%
D13*
%TO.P,D5,1,K*%
%TO.N,ROW0*%
X69950000Y-83400000D03*
%TO.P,D5,2,A*%
%TO.N,Net-(D5-A)*%
X68550000Y-83400000D03*
%TD*%
%TO.P,rD19,1,K*%
%TO.N,rROW3*%
X317550000Y-102550000D03*
%TO.P,rD19,2,A*%
%TO.N,Net-(rD19-A)*%
X316150000Y-102550000D03*
%TD*%
%TO.P,D6,1,K*%
%TO.N,ROW0*%
X50950000Y-83400000D03*
%TO.P,D6,2,A*%
%TO.N,Net-(D6-A)*%
X49550000Y-83400000D03*
%TD*%
D16*
%TO.P,SW2,2,2*%
%TO.N,Net-(D2-A)*%
X132292000Y-61420000D03*
%TO.P,SW2,1,1*%
%TO.N,COL1*%
X119365000Y-63960000D03*
%TD*%
%TO.P,rSW3,2,2*%
%TO.N,rCOL2*%
X265442000Y-52420000D03*
%TO.P,rSW3,1,1*%
%TO.N,Net-(rD3-A)*%
X252515000Y-54960000D03*
%TD*%
D22*
%TO.P,SW20,2,2*%
%TO.N,Net-(D20-A)*%
X154407739Y-126205118D03*
%TO.P,SW20,1,1*%
%TO.N,COL1*%
X141263816Y-125312815D03*
%TD*%
D13*
%TO.P,rD2,1,K*%
%TO.N,rROW0*%
X241550000Y-75400000D03*
%TO.P,rD2,2,A*%
%TO.N,Net-(rD2-A)*%
X240150000Y-75400000D03*
%TD*%
D16*
%TO.P,rSW9,2,2*%
%TO.N,rCOL3*%
X284492000Y-75470000D03*
%TO.P,rSW9,1,1*%
%TO.N,Net-(rD9-A)*%
X271565000Y-78010000D03*
%TD*%
D23*
%TO.P,rSW17,2,2*%
%TO.N,rCOL1*%
X223878138Y-123181076D03*
%TO.P,rSW17,1,1*%
%TO.N,Net-(rD17-A)*%
X212049015Y-128980281D03*
%TD*%
D13*
%TO.P,rD18,1,K*%
%TO.N,rROW3*%
X317550000Y-120000000D03*
%TO.P,rD18,2,A*%
%TO.N,Net-(rD18-A)*%
X316150000Y-120000000D03*
%TD*%
%TO.P,D8,1,K*%
%TO.N,ROW1*%
X126950000Y-94450000D03*
%TO.P,D8,2,A*%
%TO.N,Net-(D8-A)*%
X125550000Y-94450000D03*
%TD*%
%TO.P,D12,1,K*%
%TO.N,ROW1*%
X50950000Y-102450000D03*
%TO.P,D12,2,A*%
%TO.N,Net-(D12-A)*%
X49550000Y-102450000D03*
%TD*%
%TO.P,rD12,1,K*%
%TO.N,rROW2*%
X241550000Y-112500000D03*
%TO.P,rD12,2,A*%
%TO.N,Net-(rD12-A)*%
X240150000Y-112500000D03*
%TD*%
D24*
%TO.P,SW19,2,2*%
%TO.N,Net-(D19-A)*%
X174853155Y-134335345D03*
%TO.P,SW19,1,1*%
%TO.N,COL0*%
X162010642Y-131397865D03*
%TD*%
D16*
%TO.P,SW1,2,2*%
%TO.N,Net-(D1-A)*%
X151342000Y-62420000D03*
%TO.P,SW1,1,1*%
%TO.N,COL0*%
X138415000Y-64960000D03*
%TD*%
%TO.P,rSW11,2,2*%
%TO.N,rCOL0*%
X227342000Y-100520000D03*
%TO.P,rSW11,1,1*%
%TO.N,Net-(rD11-A)*%
X214415000Y-103060000D03*
%TD*%
D25*
%TO.P,rJ3,1,Pin_1*%
%TO.N,3V3*%
X281150000Y-123475000D03*
D26*
%TO.P,rJ3,2,Pin_2*%
%TO.N,rBAT-*%
X281150000Y-126015000D03*
%TO.P,rJ3,3,Pin_3*%
%TO.N,SCLK*%
X281150000Y-128555000D03*
%TO.P,rJ3,4,Pin_4*%
%TO.N,SDIO*%
X281150000Y-131095000D03*
%TO.P,rJ3,5,Pin_5*%
%TO.N,rBAT-*%
X281150000Y-133635000D03*
%TO.P,rJ3,6,Pin_6*%
%TO.N,unconnected-(rJ3-Pin_6-Pad6)*%
X281150000Y-136175000D03*
%TD*%
D27*
%TO.N,SCLK*%
X285000000Y-127000000D03*
%TO.N,SDIO*%
X284000000Y-132000000D03*
%TO.N,rROW0*%
X194500000Y-74000000D03*
X264500000Y-66000000D03*
X248500000Y-72000000D03*
X212500000Y-79000000D03*
X208500000Y-78000000D03*
X198500000Y-74000000D03*
X268500000Y-66000000D03*
X230500000Y-75000000D03*
X286500000Y-72000000D03*
X226500000Y-75000000D03*
X244500000Y-72000000D03*
X282500000Y-72000000D03*
%TO.N,rROW1*%
X229500000Y-96000000D03*
X226500000Y-96000000D03*
X248500000Y-92000000D03*
X244500000Y-92000000D03*
X268500000Y-86000000D03*
X211000000Y-53100000D03*
X282500000Y-90000000D03*
X264500000Y-86000000D03*
X286000000Y-90000000D03*
X211000000Y-57000000D03*
%TO.N,rROW2*%
X226500000Y-113000000D03*
X264500000Y-106000000D03*
X291000000Y-116000000D03*
X277000000Y-104000000D03*
X237000000Y-111000000D03*
D28*
X268500000Y-106000000D03*
D27*
X274000000Y-104000000D03*
X294000000Y-116000000D03*
%TO.N,rROW3*%
X299000000Y-118000000D03*
X207500000Y-135000000D03*
X219500000Y-135000000D03*
X311000000Y-118000000D03*
X210500000Y-126000000D03*
X315000000Y-118000000D03*
X210500000Y-120000000D03*
X292000000Y-118000000D03*
%TO.N,Net-(rD12-A)*%
X234500000Y-112000000D03*
X238500000Y-112000000D03*
%TO.N,rBAT-*%
X202000000Y-76000000D03*
X199500000Y-107500000D03*
%TO.N,rCOL1*%
X232000000Y-107000000D03*
X235000000Y-107000000D03*
%TO.N,rCOL2*%
X320000000Y-105000000D03*
X200500000Y-65000000D03*
X199000000Y-68000000D03*
X315000000Y-105000000D03*
%TO.N,rCOL3*%
X288000000Y-97000000D03*
X322000000Y-97000000D03*
X195000000Y-55000000D03*
X191000000Y-54500000D03*
D28*
%TO.N,3V3*%
X199000000Y-109000000D03*
D27*
%TO.N,BAT-*%
X173000000Y-63000000D03*
X173000000Y-71000000D03*
%TO.N,ROW0*%
X135750000Y-74000000D03*
X79750000Y-72000000D03*
X121750000Y-72000000D03*
X97750000Y-68000000D03*
X139750000Y-75000000D03*
X117750000Y-70000000D03*
X63750000Y-86000000D03*
X83750000Y-72000000D03*
X101750000Y-68000000D03*
X60750000Y-86000000D03*
%TO.N,ROW1*%
X83750000Y-90000000D03*
X139750000Y-96000000D03*
X121750000Y-90000000D03*
X79750000Y-90000000D03*
X63750000Y-102000000D03*
X59750000Y-100000000D03*
X101750000Y-86000000D03*
X136750000Y-95000000D03*
X117750000Y-88000000D03*
X97750000Y-86000000D03*
%TO.N,ROW2*%
X121750000Y-114000000D03*
X117750000Y-112000000D03*
X83750000Y-114000000D03*
X79750000Y-114000000D03*
X135750000Y-113000000D03*
X97750000Y-106000000D03*
X101750000Y-106000000D03*
X139750000Y-113000000D03*
%TO.N,ROW3*%
X163750000Y-140000000D03*
X169750000Y-143000000D03*
X168750000Y-133000000D03*
X122750000Y-132000000D03*
X166750000Y-142000000D03*
X125750000Y-132000000D03*
X147750000Y-135000000D03*
X143750000Y-134000000D03*
%TO.N,COL5*%
X80665000Y-65000000D03*
X116750000Y-52500000D03*
%TO.N,COL4*%
X117750000Y-53500000D03*
X79750000Y-66500000D03*
%TD*%
D29*
%TO.N,rBAT-*%
X280000000Y-132485000D02*
X281150000Y-133635000D01*
X281150000Y-126015000D02*
X280000000Y-127165000D01*
X280000000Y-127165000D02*
X280000000Y-132485000D01*
%TO.N,SCLK*%
X283445000Y-128555000D02*
X281150000Y-128555000D01*
X285000000Y-127000000D02*
X283445000Y-128555000D01*
%TO.N,SDIO*%
X207470000Y-64530000D02*
X207000000Y-65000000D01*
X283095000Y-131095000D02*
X281150000Y-131095000D01*
X284000000Y-132000000D02*
X283095000Y-131095000D01*
%TO.N,Net-(rD1-A)*%
X214415000Y-69865000D02*
X220950000Y-76400000D01*
X214415000Y-64960000D02*
X214415000Y-69865000D01*
%TO.N,rROW0*%
X288500000Y-78000000D02*
X294550000Y-84050000D01*
X212500000Y-79000000D02*
X219750000Y-79000000D01*
X198500000Y-74000000D02*
X204500000Y-74000000D01*
X204500000Y-74000000D02*
X208500000Y-78000000D01*
X219750000Y-79000000D02*
X222350000Y-76400000D01*
X268500000Y-66000000D02*
X274500000Y-72000000D01*
X252500000Y-68000000D02*
X258950000Y-68000000D01*
X222350000Y-76400000D02*
X225100000Y-76400000D01*
X258950000Y-68000000D02*
X260550000Y-66400000D01*
X286500000Y-72000000D02*
X288500000Y-74000000D01*
X288500000Y-74000000D02*
X288500000Y-78000000D01*
X241550000Y-74950000D02*
X244500000Y-72000000D01*
X230500000Y-75000000D02*
X231550000Y-76050000D01*
X260550000Y-66400000D02*
X264100000Y-66400000D01*
X280850000Y-70350000D02*
X282500000Y-72000000D01*
X297900000Y-84050000D02*
X298550000Y-83400000D01*
X279550000Y-70350000D02*
X280850000Y-70350000D01*
X294550000Y-84050000D02*
X297900000Y-84050000D01*
X250500000Y-70000000D02*
X250500000Y-72000000D01*
X274500000Y-72000000D02*
X277900000Y-72000000D01*
X194110000Y-74000000D02*
X194500000Y-74000000D01*
X240900000Y-76050000D02*
X241550000Y-75400000D01*
X264100000Y-66400000D02*
X264500000Y-66000000D01*
X231550000Y-76050000D02*
X240900000Y-76050000D01*
X192230000Y-72120000D02*
X194110000Y-74000000D01*
X277900000Y-72000000D02*
X279550000Y-70350000D01*
X248500000Y-72000000D02*
X250500000Y-72000000D01*
X250500000Y-70000000D02*
X252500000Y-68000000D01*
X225100000Y-76400000D02*
X226500000Y-75000000D01*
X241550000Y-75400000D02*
X241550000Y-74950000D01*
%TO.N,rROW1*%
X192230000Y-56880000D02*
X193300000Y-55810000D01*
X268500000Y-86000000D02*
X270500000Y-86000000D01*
X260550000Y-85450000D02*
X263950000Y-85450000D01*
X248500000Y-92000000D02*
X250500000Y-90000000D01*
X223500000Y-95450000D02*
X222350000Y-95450000D01*
X287000000Y-91000000D02*
X287000000Y-93290552D01*
X296809448Y-103100000D02*
X298465686Y-103100000D01*
X212500000Y-97000000D02*
X220800000Y-97000000D01*
X250500000Y-88000000D02*
X250500000Y-90000000D01*
X193768629Y-53300000D02*
X210800000Y-53300000D01*
X286000000Y-90000000D02*
X287000000Y-91000000D01*
X278900000Y-90050000D02*
X279550000Y-89400000D01*
X224050000Y-96000000D02*
X223500000Y-95450000D01*
X258000000Y-88000000D02*
X260550000Y-85450000D01*
X211000000Y-57000000D02*
X211000000Y-68030000D01*
X281900000Y-89400000D02*
X282500000Y-90000000D01*
X229500000Y-96000000D02*
X240000000Y-96000000D01*
X210800000Y-53300000D02*
X211000000Y-53100000D01*
X211300000Y-68330000D02*
X211300000Y-95800000D01*
X220800000Y-97000000D02*
X222350000Y-95450000D01*
X298550000Y-102450000D02*
X298390000Y-102610000D01*
X193300000Y-55810000D02*
X193300000Y-53768629D01*
X211000000Y-68030000D02*
X211300000Y-68330000D01*
X263950000Y-85450000D02*
X264500000Y-86000000D01*
X211300000Y-95800000D02*
X212500000Y-97000000D01*
X279550000Y-89400000D02*
X281900000Y-89400000D01*
X241550000Y-94450000D02*
X242050000Y-94450000D01*
X193300000Y-53768629D02*
X193768629Y-53300000D01*
X240000000Y-96000000D02*
X241550000Y-94450000D01*
X250500000Y-88000000D02*
X258000000Y-88000000D01*
X287000000Y-93290552D02*
X296809448Y-103100000D01*
X226500000Y-96000000D02*
X224050000Y-96000000D01*
X298465686Y-103100000D02*
X298832843Y-102732843D01*
X270500000Y-86000000D02*
X274550000Y-90050000D01*
X274550000Y-90050000D02*
X278900000Y-90050000D01*
X242050000Y-94450000D02*
X244500000Y-92000000D01*
%TO.N,Net-(rD2-A)*%
X238400000Y-75400000D02*
X240150000Y-75400000D01*
X234000000Y-67000000D02*
X234000000Y-71000000D01*
X233465000Y-66465000D02*
X234000000Y-67000000D01*
X233465000Y-63960000D02*
X233465000Y-66465000D01*
X234000000Y-71000000D02*
X238400000Y-75400000D01*
%TO.N,rROW2*%
X279550000Y-106550000D02*
X279550000Y-108050000D01*
X210900000Y-113400000D02*
X212650000Y-115150000D01*
X279550000Y-108450000D02*
X283450000Y-108450000D01*
X294550000Y-116000000D02*
X298550000Y-120000000D01*
X260550000Y-104500000D02*
X263000000Y-104500000D01*
X252550000Y-112500000D02*
X260550000Y-104500000D01*
X225000000Y-114500000D02*
X226500000Y-113000000D01*
X283450000Y-108450000D02*
X291000000Y-116000000D01*
X207470000Y-67040000D02*
X210900000Y-70470000D01*
X237000000Y-111000000D02*
X240050000Y-111000000D01*
X212650000Y-115150000D02*
X221700000Y-115150000D01*
X263000000Y-104500000D02*
X264500000Y-106000000D01*
X222350000Y-114500000D02*
X225000000Y-114500000D01*
X210900000Y-70470000D02*
X210900000Y-113400000D01*
X272000000Y-106000000D02*
X274000000Y-104000000D01*
X241550000Y-112500000D02*
X252550000Y-112500000D01*
X221700000Y-115150000D02*
X222350000Y-114500000D01*
X294000000Y-116000000D02*
X294550000Y-116000000D01*
X240050000Y-111000000D02*
X241550000Y-112500000D01*
X277000000Y-104000000D02*
X279550000Y-106550000D01*
X279550000Y-108450000D02*
X279550000Y-108799999D01*
X268500000Y-106000000D02*
X272000000Y-106000000D01*
%TO.N,Net-(rD3-A)*%
X252515000Y-59765000D02*
X259150000Y-66400000D01*
X252515000Y-54960000D02*
X252515000Y-59765000D01*
%TO.N,Net-(rD4-A)*%
X271565000Y-58960000D02*
X271565000Y-63765000D01*
X271565000Y-63765000D02*
X278150000Y-70350000D01*
%TO.N,rROW3*%
X230000000Y-128500000D02*
X230000000Y-114700000D01*
X210010000Y-72120000D02*
X207470000Y-72120000D01*
X205490775Y-131009225D02*
X205490775Y-140365926D01*
X317550000Y-120000000D02*
X319150000Y-118400000D01*
X315550000Y-118000000D02*
X317550000Y-120000000D01*
X284804904Y-113400000D02*
X285602452Y-112602452D01*
X291000000Y-118000000D02*
X292000000Y-118000000D01*
X317550000Y-102950000D02*
X317550000Y-102550000D01*
X319150000Y-91150000D02*
X317000000Y-89000000D01*
X315000000Y-118000000D02*
X315550000Y-118000000D01*
X317000000Y-89000000D02*
X317000000Y-84050000D01*
X203678351Y-142178351D02*
X203640077Y-142216624D01*
X203678351Y-142178351D02*
X203678350Y-142178351D01*
X229300000Y-114000000D02*
X229900000Y-113400000D01*
X205490775Y-140365926D02*
X203678351Y-142178351D01*
X203678350Y-142178351D02*
X205321649Y-142178351D01*
X299000000Y-118000000D02*
X311000000Y-118000000D01*
X317440000Y-108440000D02*
X317440000Y-102660000D01*
X210500000Y-72610000D02*
X210500000Y-120000000D01*
X230000000Y-114700000D02*
X229300000Y-114000000D01*
X207500000Y-140000000D02*
X207500000Y-135000000D01*
X229900000Y-113400000D02*
X284804904Y-113400000D01*
X317550000Y-102550000D02*
X319150000Y-100950000D01*
X205321649Y-142178351D02*
X207500000Y-140000000D01*
X210500000Y-126000000D02*
X205490775Y-131009225D01*
X222500000Y-136000000D02*
X230000000Y-128500000D01*
X219500000Y-135000000D02*
X221500000Y-135000000D01*
X210500000Y-72610000D02*
X210010000Y-72120000D01*
X319150000Y-118400000D02*
X319150000Y-110150000D01*
X285602452Y-112602452D02*
X291000000Y-118000000D01*
X319150000Y-100950000D02*
X319150000Y-91150000D01*
X221500000Y-135000000D02*
X222500000Y-136000000D01*
X319150000Y-110150000D02*
X317440000Y-108440000D01*
X317000000Y-84050000D02*
X317550000Y-83500000D01*
X317440000Y-102660000D02*
X317550000Y-102550000D01*
%TO.N,Net-(rD5-A)*%
X290615000Y-71960000D02*
X290615000Y-76865000D01*
X290615000Y-76865000D02*
X297150000Y-83400000D01*
%TO.N,Net-(rD6-A)*%
X214415000Y-84010000D02*
X214415000Y-88915000D01*
X214415000Y-88915000D02*
X220950000Y-95450000D01*
%TO.N,Net-(rD7-A)*%
X233465000Y-87765000D02*
X240150000Y-94450000D01*
X233465000Y-83010000D02*
X233465000Y-87765000D01*
%TO.N,Net-(rD8-A)*%
X252515000Y-74010000D02*
X252515000Y-78815000D01*
X252515000Y-78815000D02*
X259150000Y-85450000D01*
%TO.N,Net-(rD9-A)*%
X271565000Y-78010000D02*
X271565000Y-82815000D01*
X271565000Y-82815000D02*
X278150000Y-89400000D01*
%TO.N,Net-(rD10-A)*%
X297150000Y-100650000D02*
X297150000Y-102450000D01*
X290615000Y-94115000D02*
X297150000Y-100650000D01*
X290615000Y-91010000D02*
X290615000Y-94115000D01*
%TO.N,Net-(rD11-A)*%
X214415000Y-103060000D02*
X214415000Y-107965000D01*
X214415000Y-107965000D02*
X220950000Y-114500000D01*
%TO.N,Net-(rD12-A)*%
X233465000Y-110965000D02*
X234500000Y-112000000D01*
X233465000Y-102060000D02*
X233465000Y-110965000D01*
X238500000Y-112000000D02*
X239650000Y-112000000D01*
X239650000Y-112000000D02*
X240150000Y-112500000D01*
%TO.N,Net-(rD13-A)*%
X252515000Y-97865000D02*
X259150000Y-104500000D01*
X252515000Y-93060000D02*
X252515000Y-97865000D01*
%TO.N,Net-(rD14-A)*%
X271565000Y-100065000D02*
X278150000Y-106650000D01*
X271565000Y-97060000D02*
X271565000Y-100065000D01*
X278150000Y-106650000D02*
X278150000Y-108450000D01*
%TO.N,Net-(rD15-A)*%
X290615000Y-110060000D02*
X290615000Y-114615000D01*
X296000000Y-120000000D02*
X297150000Y-120000000D01*
X290615000Y-114615000D02*
X296000000Y-120000000D01*
%TO.N,Net-(rD16-A)*%
X192901746Y-138018772D02*
X194212460Y-141004286D01*
X200580833Y-141004286D02*
X202359923Y-142783376D01*
X194212460Y-141004286D02*
X200580833Y-141004286D01*
X192044429Y-137161455D02*
X192901746Y-138018772D01*
%TO.N,Net-(rD17-A)*%
X218136985Y-136362346D02*
X221147704Y-136362346D01*
X212049015Y-130274376D02*
X218136985Y-136362346D01*
X212049015Y-128980281D02*
X212049015Y-130274376D01*
%TO.N,Net-(rD18-A)*%
X314650000Y-120000000D02*
X316150000Y-120000000D01*
X309665000Y-110060000D02*
X309665000Y-115015000D01*
X309665000Y-115015000D02*
X314650000Y-120000000D01*
%TO.N,Net-(rD19-A)*%
X309665000Y-91010000D02*
X309665000Y-96065000D01*
X309665000Y-96065000D02*
X316150000Y-102550000D01*
%TO.N,Net-(rD20-A)*%
X309665000Y-77015000D02*
X316150000Y-83500000D01*
X309665000Y-71960000D02*
X309665000Y-77015000D01*
%TO.N,rBAT-*%
X200575000Y-78825000D02*
X194635000Y-78825000D01*
X201750000Y-77250000D02*
X201750000Y-80000000D01*
X198000000Y-106000000D02*
X199500000Y-107500000D01*
X202000000Y-76000000D02*
X202000000Y-77000000D01*
X191000000Y-106000000D02*
X198000000Y-106000000D01*
X202000000Y-77000000D02*
X201750000Y-77250000D01*
X194635000Y-78825000D02*
X193500000Y-79960000D01*
X191000000Y-82460000D02*
X191000000Y-106000000D01*
X201750000Y-80000000D02*
X200575000Y-78825000D01*
X193500000Y-79960000D02*
X191000000Y-82460000D01*
%TO.N,rCOL0*%
X198920000Y-69580000D02*
X202000000Y-66500000D01*
X227342000Y-81470000D02*
X227880000Y-82008000D01*
X227880000Y-99982000D02*
X227342000Y-100520000D01*
X228500000Y-101678000D02*
X228500000Y-114000000D01*
X221422000Y-55500000D02*
X227342000Y-61420000D01*
X228500000Y-114000000D02*
X226500000Y-116000000D01*
X217403565Y-116000000D02*
X205820588Y-127582977D01*
X227342000Y-62420000D02*
X227880000Y-62958000D01*
X227880000Y-82008000D02*
X227880000Y-99982000D01*
X227880000Y-62958000D02*
X227880000Y-80932000D01*
X202000000Y-55500000D02*
X221422000Y-55500000D01*
X227880000Y-80932000D02*
X227342000Y-81470000D01*
X227342000Y-100520000D02*
X228500000Y-101678000D01*
X204820588Y-127582977D02*
X202820588Y-129582977D01*
X205820588Y-127582977D02*
X204820588Y-127582977D01*
X226500000Y-116000000D02*
X217403565Y-116000000D01*
X202000000Y-66500000D02*
X202000000Y-55500000D01*
X192230000Y-69580000D02*
X198920000Y-69580000D01*
%TO.N,rCOL1*%
X246930000Y-81008000D02*
X246930000Y-98982000D01*
X246930000Y-98982000D02*
X246392000Y-99520000D01*
X246392000Y-61892000D02*
X246930000Y-62430000D01*
X246930000Y-105138478D02*
X245068478Y-107000000D01*
X246392000Y-61420000D02*
X246392000Y-61892000D01*
X228900000Y-114165686D02*
X226665686Y-116400000D01*
X246930000Y-100058000D02*
X246930000Y-105138478D01*
X226665686Y-116400000D02*
X224000000Y-116400000D01*
X228900000Y-107100000D02*
X228900000Y-114165686D01*
X224000000Y-117000000D02*
X223878138Y-117121862D01*
X223878138Y-117121862D02*
X223878138Y-123181076D01*
X246392000Y-80470000D02*
X246930000Y-81008000D01*
X224000000Y-116400000D02*
X224000000Y-117000000D01*
X240500000Y-107000000D02*
X235000000Y-107000000D01*
X246392000Y-59420000D02*
X246392000Y-61420000D01*
X201500000Y-55000000D02*
X241972000Y-55000000D01*
X246930000Y-62430000D02*
X246930000Y-79932000D01*
X246930000Y-79932000D02*
X246392000Y-80470000D01*
X192230000Y-67040000D02*
X200460000Y-67040000D01*
X232000000Y-107000000D02*
X229000000Y-107000000D01*
X241972000Y-55000000D02*
X246392000Y-59420000D01*
X223500000Y-122802938D02*
X223878138Y-123181076D01*
X246392000Y-99520000D02*
X246930000Y-100058000D01*
X245068478Y-107000000D02*
X240500000Y-107000000D01*
X201500000Y-66000000D02*
X201500000Y-55000000D01*
X200460000Y-67040000D02*
X201500000Y-66000000D01*
X229000000Y-107000000D02*
X228900000Y-107100000D01*
%TO.N,rCOL2*%
X200500000Y-65000000D02*
X200500000Y-55434315D01*
X247901590Y-54700000D02*
X252000000Y-50601590D01*
X272964113Y-90520000D02*
X280444113Y-98000000D01*
X265442000Y-90520000D02*
X265980000Y-91058000D01*
X263022000Y-50000000D02*
X265442000Y-52420000D01*
X265980000Y-72008000D02*
X265980000Y-89982000D01*
X265980000Y-52958000D02*
X265980000Y-70932000D01*
X265442000Y-90520000D02*
X272964113Y-90520000D01*
X252000000Y-50601590D02*
X252000000Y-50000000D01*
X323130000Y-106982000D02*
X322592000Y-107520000D01*
X306600000Y-110000000D02*
X311600000Y-105000000D01*
X192230000Y-64500000D02*
X191168000Y-65562000D01*
X311600000Y-105000000D02*
X315000000Y-105000000D01*
X242237685Y-54700000D02*
X247901590Y-54700000D01*
X191168000Y-65562000D02*
X191168000Y-67479895D01*
X191168000Y-67479895D02*
X191790105Y-68102000D01*
X322520000Y-107520000D02*
X322592000Y-107520000D01*
X200500000Y-55434315D02*
X201334315Y-54600000D01*
X300103705Y-110000000D02*
X306600000Y-110000000D01*
X191790105Y-68102000D02*
X198898000Y-68102000D01*
X198898000Y-68102000D02*
X199000000Y-68000000D01*
X265442000Y-52420000D02*
X265980000Y-52958000D01*
X265980000Y-70932000D02*
X265442000Y-71470000D01*
X280444113Y-98000000D02*
X288103705Y-98000000D01*
X201334315Y-54600000D02*
X242137685Y-54600000D01*
X252000000Y-50000000D02*
X263022000Y-50000000D01*
X288103705Y-98000000D02*
X300103705Y-110000000D01*
X265980000Y-89982000D02*
X265442000Y-90520000D01*
X242137685Y-54600000D02*
X242237685Y-54700000D01*
X265442000Y-71470000D02*
X265980000Y-72008000D01*
X320000000Y-105000000D02*
X322520000Y-107520000D01*
%TO.N,rCOL3*%
X285520000Y-94520000D02*
X288000000Y-97000000D01*
X285030000Y-93982000D02*
X284492000Y-94520000D01*
X284492000Y-94520000D02*
X285520000Y-94520000D01*
X251834315Y-49600000D02*
X265747000Y-49600000D01*
X284492000Y-56420000D02*
X285030000Y-56958000D01*
X320530000Y-95530000D02*
X320530000Y-90532000D01*
X285030000Y-74932000D02*
X284492000Y-75470000D01*
X284492000Y-75470000D02*
X285030000Y-76008000D01*
X322000000Y-97000000D02*
X320530000Y-95530000D01*
X322592000Y-88470000D02*
X323130000Y-89008000D01*
X285030000Y-56958000D02*
X285030000Y-74932000D01*
X195000000Y-55000000D02*
X195800000Y-54200000D01*
X265747000Y-49600000D02*
X270147000Y-54000000D01*
X251600000Y-49834315D02*
X251834315Y-49600000D01*
X320530000Y-90532000D02*
X322592000Y-88470000D01*
X282072000Y-54000000D02*
X284492000Y-56420000D01*
X192230000Y-61960000D02*
X191000000Y-60730000D01*
X285030000Y-76008000D02*
X285030000Y-93982000D01*
X191000000Y-60730000D02*
X191000000Y-54500000D01*
X251600000Y-50435904D02*
X251600000Y-49834315D01*
X195800000Y-54200000D02*
X247835904Y-54200000D01*
X284492000Y-94520000D02*
X285030000Y-95058000D01*
X247835904Y-54200000D02*
X251600000Y-50435904D01*
X270147000Y-54000000D02*
X282072000Y-54000000D01*
X323130000Y-87932000D02*
X322592000Y-88470000D01*
%TO.N,rCOL4*%
X193700000Y-58000000D02*
X193700000Y-53934315D01*
X304080000Y-87932000D02*
X303542000Y-88470000D01*
X193934315Y-53700000D02*
X247770218Y-53700000D01*
X286500000Y-67000000D02*
X301122000Y-67000000D01*
X304080000Y-106982000D02*
X303542000Y-107520000D01*
X322570000Y-67570000D02*
X322592000Y-67592000D01*
X304080000Y-69958000D02*
X304080000Y-87932000D01*
X303542000Y-69420000D02*
X304080000Y-69958000D01*
X301122000Y-67000000D02*
X303542000Y-69420000D01*
X282237686Y-53600000D02*
X282637686Y-54000000D01*
X192230000Y-59420000D02*
X193650000Y-58000000D01*
X251668629Y-49200000D02*
X265912686Y-49200000D01*
X247770218Y-53700000D02*
X251200000Y-50270218D01*
X305392000Y-67570000D02*
X322570000Y-67570000D01*
X251200000Y-50270218D02*
X251200000Y-49668629D01*
X304080000Y-89008000D02*
X304080000Y-106982000D01*
X192230000Y-59230000D02*
X192000000Y-59000000D01*
X303542000Y-88470000D02*
X304080000Y-89008000D01*
X193700000Y-53934315D02*
X193934315Y-53700000D01*
X282637686Y-54000000D02*
X286500000Y-54000000D01*
X265912686Y-49200000D02*
X270312686Y-53600000D01*
X193650000Y-58000000D02*
X193700000Y-58000000D01*
X286500000Y-54000000D02*
X286500000Y-67000000D01*
X192230000Y-59420000D02*
X192230000Y-59230000D01*
X251200000Y-49668629D02*
X251668629Y-49200000D01*
X303542000Y-69420000D02*
X305392000Y-67570000D01*
X322592000Y-69420000D02*
X323130000Y-69958000D01*
X322592000Y-67592000D02*
X322592000Y-69020000D01*
X270312686Y-53600000D02*
X282237686Y-53600000D01*
%TO.N,rBAT+*%
X194710000Y-85040000D02*
X193500000Y-85040000D01*
X199750000Y-80000000D02*
X194710000Y-85040000D01*
%TO.N,3V3*%
X206040000Y-61960000D02*
X206000000Y-62000000D01*
X196000000Y-73500000D02*
X196000000Y-76000000D01*
X190000000Y-76000000D02*
X190000000Y-107000000D01*
X190000000Y-107000000D02*
X198000000Y-107000000D01*
X206000000Y-73500000D02*
X205900000Y-73400000D01*
X196100000Y-73400000D02*
X196000000Y-73500000D01*
X196000000Y-73430000D02*
X196000000Y-73500000D01*
X198000000Y-107000000D02*
X199000000Y-108000000D01*
X199000000Y-108000000D02*
X199000000Y-109000000D01*
X196000000Y-76000000D02*
X190000000Y-76000000D01*
X206000000Y-62000000D02*
X206000000Y-73500000D01*
X205900000Y-73400000D02*
X196100000Y-73400000D01*
X207470000Y-61960000D02*
X206040000Y-61960000D01*
%TO.N,BAT+*%
X170040000Y-85040000D02*
X173250000Y-85040000D01*
X165000000Y-80000000D02*
X170040000Y-85040000D01*
%TO.N,BAT-*%
X173210000Y-80000000D02*
X173250000Y-79960000D01*
X173580000Y-59420000D02*
X173000000Y-60000000D01*
X173250000Y-71250000D02*
X173250000Y-79960000D01*
X173000000Y-71000000D02*
X173250000Y-71250000D01*
X167000000Y-80000000D02*
X173210000Y-80000000D01*
X174870000Y-59420000D02*
X173580000Y-59420000D01*
X173000000Y-60000000D02*
X173000000Y-63000000D01*
%TO.N,ROW0*%
X149230000Y-72120000D02*
X149230000Y-73120000D01*
X121750000Y-72000000D02*
X121750000Y-76000000D01*
X149230000Y-73120000D02*
X145950000Y-76400000D01*
X145300000Y-77050000D02*
X145950000Y-76400000D01*
X159630000Y-72120000D02*
X159750000Y-72000000D01*
X67350000Y-86000000D02*
X69950000Y-83400000D01*
X54147000Y-83400000D02*
X54747000Y-84000000D01*
X123750000Y-76000000D02*
X123800000Y-76050000D01*
X79750000Y-72000000D02*
X69950000Y-81800000D01*
X126300000Y-76050000D02*
X126950000Y-75400000D01*
X159630000Y-72120000D02*
X149230000Y-72120000D01*
X114150000Y-66400000D02*
X117750000Y-70000000D01*
X54747000Y-84000000D02*
X60750000Y-84000000D01*
X97750000Y-68000000D02*
X94750000Y-68000000D01*
X69950000Y-81800000D02*
X69950000Y-83400000D01*
X106350000Y-68000000D02*
X107950000Y-66400000D01*
X83750000Y-72000000D02*
X87300000Y-72000000D01*
X159750000Y-72000000D02*
X160350000Y-72000000D01*
X139750000Y-75000000D02*
X141800000Y-77050000D01*
X63750000Y-86000000D02*
X67350000Y-86000000D01*
X87300000Y-72000000D02*
X88950000Y-70350000D01*
X121750000Y-76000000D02*
X123750000Y-76000000D01*
X134350000Y-75400000D02*
X135750000Y-74000000D01*
X94750000Y-68000000D02*
X92400000Y-70350000D01*
X141800000Y-77050000D02*
X145300000Y-77050000D01*
X107950000Y-66400000D02*
X114150000Y-66400000D01*
X50950000Y-83400000D02*
X54147000Y-83400000D01*
X101750000Y-68000000D02*
X106350000Y-68000000D01*
X60750000Y-84000000D02*
X60750000Y-86000000D01*
X123800000Y-76050000D02*
X126300000Y-76050000D01*
X126950000Y-75400000D02*
X134350000Y-75400000D01*
X92400000Y-70350000D02*
X88950000Y-70350000D01*
%TO.N,Net-(D1-A)*%
X151342000Y-62420000D02*
X147900000Y-65862000D01*
X147900000Y-65862000D02*
X147900000Y-73050000D01*
X147900000Y-73050000D02*
X144550000Y-76400000D01*
%TO.N,Net-(D2-A)*%
X132292000Y-61420000D02*
X128850000Y-64862000D01*
X128850000Y-64862000D02*
X128850000Y-72100000D01*
X128850000Y-72100000D02*
X125550000Y-75400000D01*
%TO.N,Net-(D3-A)*%
X111180000Y-61770000D02*
X106550000Y-66400000D01*
X111180000Y-54482000D02*
X111180000Y-61770000D01*
X113242000Y-52420000D02*
X111180000Y-54482000D01*
%TO.N,Net-(D4-A)*%
X94192000Y-56420000D02*
X90750000Y-59862000D01*
X90750000Y-67150000D02*
X87550000Y-70350000D01*
X90750000Y-59862000D02*
X90750000Y-67150000D01*
%TO.N,Net-(D5-A)*%
X68550000Y-80200000D02*
X68550000Y-83400000D01*
X75142000Y-69420000D02*
X71700000Y-72862000D01*
X71700000Y-72862000D02*
X71700000Y-77050000D01*
X71700000Y-77050000D02*
X68550000Y-80200000D01*
%TO.N,Net-(D6-A)*%
X52650000Y-80300000D02*
X49550000Y-83400000D01*
X56092000Y-69420000D02*
X52650000Y-72862000D01*
X52650000Y-72862000D02*
X52650000Y-80300000D01*
%TO.N,Net-(D7-A)*%
X144550000Y-94200000D02*
X144550000Y-95450000D01*
X149280000Y-83532000D02*
X149280000Y-89470000D01*
X151342000Y-81470000D02*
X149280000Y-83532000D01*
X149280000Y-89470000D02*
X144550000Y-94200000D01*
%TO.N,ROW1*%
X68400000Y-104000000D02*
X69950000Y-102450000D01*
X172370000Y-67000000D02*
X162500000Y-67000000D01*
X162500000Y-67000000D02*
X161750000Y-67750000D01*
X63750000Y-102000000D02*
X65750000Y-104000000D01*
X88950000Y-89400000D02*
X94350000Y-89400000D01*
X161750000Y-67750000D02*
X161750000Y-72432000D01*
X140850000Y-96100000D02*
X145300000Y-96100000D01*
X155750000Y-78250000D02*
X155750000Y-85650000D01*
X79750000Y-90000000D02*
X79750000Y-92650000D01*
X101850000Y-86100000D02*
X107300000Y-86100000D01*
X83750000Y-90000000D02*
X83800000Y-90050000D01*
X113847000Y-88000000D02*
X117750000Y-88000000D01*
X139750000Y-96000000D02*
X140750000Y-96000000D01*
X126950000Y-94800000D02*
X126950000Y-94450000D01*
X161000000Y-73182000D02*
X160818000Y-73182000D01*
X111297000Y-85450000D02*
X113847000Y-88000000D01*
X160818000Y-73182000D02*
X155750000Y-78250000D01*
X140750000Y-96000000D02*
X140850000Y-96100000D01*
X55300000Y-102450000D02*
X57750000Y-100000000D01*
X155750000Y-85650000D02*
X145950000Y-95450000D01*
X88300000Y-90050000D02*
X88950000Y-89400000D01*
X101750000Y-86000000D02*
X101850000Y-86100000D01*
X161750000Y-72432000D02*
X161000000Y-73182000D01*
X65750000Y-104000000D02*
X68400000Y-104000000D01*
X123750000Y-96000000D02*
X125750000Y-96000000D01*
X83800000Y-90050000D02*
X88300000Y-90050000D01*
X57750000Y-100000000D02*
X59750000Y-100000000D01*
X94350000Y-89400000D02*
X97750000Y-86000000D01*
X121750000Y-90000000D02*
X122090552Y-90000000D01*
X145300000Y-96100000D02*
X145950000Y-95450000D01*
X174870000Y-64500000D02*
X172370000Y-67000000D01*
X122090552Y-90000000D02*
X123750000Y-91659448D01*
X127500000Y-95000000D02*
X136750000Y-95000000D01*
X126950000Y-94450000D02*
X127500000Y-95000000D01*
X107300000Y-86100000D02*
X107950000Y-85450000D01*
X50950000Y-102450000D02*
X55300000Y-102450000D01*
X123750000Y-91659448D02*
X123750000Y-96000000D01*
X79750000Y-92650000D02*
X69950000Y-102450000D01*
X125750000Y-96000000D02*
X126950000Y-94800000D01*
X107950000Y-85450000D02*
X111297000Y-85450000D01*
%TO.N,Net-(D8-A)*%
X128850000Y-91150000D02*
X125550000Y-94450000D01*
X128850000Y-83912000D02*
X128850000Y-91150000D01*
X132292000Y-80470000D02*
X128850000Y-83912000D01*
%TO.N,Net-(D9-A)*%
X109800000Y-74912000D02*
X109800000Y-82200000D01*
X113242000Y-71470000D02*
X109800000Y-74912000D01*
X109800000Y-82200000D02*
X106550000Y-85450000D01*
%TO.N,Net-(D10-A)*%
X90750000Y-78912000D02*
X90750000Y-86200000D01*
X94192000Y-75470000D02*
X90750000Y-78912000D01*
X90750000Y-86200000D02*
X87550000Y-89400000D01*
%TO.N,Net-(D11-A)*%
X71700000Y-91912000D02*
X71700000Y-99300000D01*
X71700000Y-99300000D02*
X68550000Y-102450000D01*
X75142000Y-88470000D02*
X71700000Y-91912000D01*
%TO.N,Net-(D12-A)*%
X52650000Y-99350000D02*
X49550000Y-102450000D01*
X52650000Y-91912000D02*
X52650000Y-99350000D01*
X56092000Y-88470000D02*
X52650000Y-91912000D01*
%TO.N,Net-(D13-A)*%
X149280000Y-109770000D02*
X144550000Y-114500000D01*
X151342000Y-100520000D02*
X149280000Y-102582000D01*
X149280000Y-102582000D02*
X149280000Y-109770000D01*
%TO.N,ROW2*%
X101750000Y-106000000D02*
X106450000Y-106000000D01*
X141900000Y-115150000D02*
X145300000Y-115150000D01*
X74250000Y-119500000D02*
X69950000Y-119500000D01*
X83750000Y-114000000D02*
X88950000Y-108800000D01*
X68890552Y-120150000D02*
X69040552Y-120000000D01*
X161165686Y-73582000D02*
X160983686Y-73582000D01*
X126300000Y-114150000D02*
X127450000Y-113000000D01*
X110250000Y-104500000D02*
X117750000Y-112000000D01*
X50950000Y-119500000D02*
X51600000Y-120150000D01*
X91400000Y-106000000D02*
X97750000Y-106000000D01*
X162500000Y-70684314D02*
X162475000Y-70709314D01*
X123900000Y-114150000D02*
X126300000Y-114150000D01*
X88950000Y-108800000D02*
X88950000Y-108450000D01*
X127450000Y-113000000D02*
X135750000Y-113000000D01*
X146250000Y-114500000D02*
X145950000Y-114500000D01*
X106450000Y-106000000D02*
X107950000Y-104500000D01*
X145300000Y-115150000D02*
X145950000Y-114500000D01*
X69450000Y-120000000D02*
X69950000Y-119500000D01*
X174870000Y-67040000D02*
X173910000Y-68000000D01*
X69040552Y-120000000D02*
X69450000Y-120000000D01*
X162500000Y-68000000D02*
X162500000Y-70684314D01*
X121750000Y-114000000D02*
X123750000Y-114000000D01*
X51600000Y-120150000D02*
X68890552Y-120150000D01*
X173910000Y-68000000D02*
X162500000Y-68000000D01*
X126300000Y-114150000D02*
X126950000Y-113500000D01*
X162475000Y-72272686D02*
X161165686Y-73582000D01*
X156150000Y-78415686D02*
X156150000Y-104300000D01*
X156150000Y-104300000D02*
X145950000Y-114500000D01*
X139750000Y-113000000D02*
X141900000Y-115150000D01*
X123750000Y-114000000D02*
X123900000Y-114150000D01*
X107950000Y-104500000D02*
X110250000Y-104500000D01*
X74250000Y-119500000D02*
X79750000Y-114000000D01*
X88950000Y-108450000D02*
X91400000Y-106000000D01*
X162475000Y-70709314D02*
X162475000Y-72272686D01*
X160983686Y-73582000D02*
X156150000Y-78415686D01*
%TO.N,Net-(D14-A)*%
X128850000Y-102962000D02*
X128850000Y-110200000D01*
X132292000Y-99520000D02*
X128850000Y-102962000D01*
X128850000Y-110200000D02*
X125550000Y-113500000D01*
%TO.N,Net-(D15-A)*%
X111180000Y-99870000D02*
X106550000Y-104500000D01*
X113242000Y-90520000D02*
X111180000Y-92582000D01*
X111180000Y-92582000D02*
X111180000Y-99870000D01*
%TO.N,Net-(D16-A)*%
X92130000Y-103870000D02*
X87550000Y-108450000D01*
X94192000Y-94520000D02*
X92130000Y-96582000D01*
X92130000Y-96582000D02*
X92130000Y-103870000D01*
%TO.N,Net-(D17-A)*%
X75142000Y-107520000D02*
X71700000Y-110962000D01*
X71700000Y-110962000D02*
X71700000Y-118350000D01*
X69700000Y-118350000D02*
X68550000Y-119500000D01*
X71700000Y-118350000D02*
X69700000Y-118350000D01*
%TO.N,Net-(D18-A)*%
X52681000Y-116369000D02*
X49550000Y-119500000D01*
X52650000Y-116338000D02*
X52681000Y-116369000D01*
X52650000Y-110962000D02*
X52650000Y-116338000D01*
X56092000Y-107520000D02*
X52650000Y-110962000D01*
%TO.N,Net-(D19-A)*%
X165750000Y-140000000D02*
X163469846Y-142280154D01*
X174853155Y-134335345D02*
X173109878Y-134335345D01*
X167445223Y-140000000D02*
X165750000Y-140000000D01*
X173109878Y-134335345D02*
X167445223Y-140000000D01*
X163469846Y-142280154D02*
X163469846Y-143433248D01*
%TO.N,ROW3*%
X168750000Y-143000000D02*
X167750000Y-144000000D01*
X164750000Y-144000000D02*
X166750000Y-142000000D01*
X155750000Y-120000000D02*
X168750000Y-133000000D01*
X163750000Y-140000000D02*
X159160188Y-140000000D01*
X143250000Y-134500000D02*
X125950000Y-134500000D01*
X167750000Y-144000000D02*
X164750000Y-144000000D01*
X163500000Y-71813372D02*
X157000000Y-78313372D01*
X153750000Y-141000000D02*
X149750000Y-137000000D01*
X125950000Y-134500000D02*
X125950000Y-132200000D01*
X156897548Y-84897548D02*
X157000000Y-85000000D01*
X163500000Y-70250000D02*
X163500000Y-71813372D01*
X125950000Y-132200000D02*
X125750000Y-132000000D01*
X143750000Y-134000000D02*
X143250000Y-134500000D01*
X107250000Y-134500000D02*
X106900000Y-134500000D01*
X148387654Y-137362346D02*
X146102296Y-137362346D01*
X158160188Y-141000000D02*
X153750000Y-141000000D01*
X157000000Y-79000000D02*
X156897548Y-79102452D01*
X148750000Y-137000000D02*
X148387654Y-137362346D01*
X159160188Y-140000000D02*
X158160188Y-141000000D01*
X154000000Y-120000000D02*
X155750000Y-120000000D01*
X146102296Y-136647704D02*
X147750000Y-135000000D01*
X153000000Y-119000000D02*
X154000000Y-120000000D01*
X146102296Y-137362346D02*
X146102296Y-136647704D01*
X164170000Y-69580000D02*
X163500000Y-70250000D01*
X174870000Y-69580000D02*
X164170000Y-69580000D01*
X157000000Y-105000000D02*
X153000000Y-109000000D01*
X109750000Y-132000000D02*
X107250000Y-134500000D01*
X122750000Y-132000000D02*
X109750000Y-132000000D01*
X149750000Y-137000000D02*
X148750000Y-137000000D01*
X153000000Y-109000000D02*
X153000000Y-119000000D01*
X157000000Y-78313372D02*
X157000000Y-79000000D01*
X157000000Y-85000000D02*
X157000000Y-105000000D01*
X156897548Y-79102452D02*
X156897548Y-84897548D01*
X169750000Y-143000000D02*
X168750000Y-143000000D01*
%TO.N,Net-(D20-A)*%
X144750000Y-135862857D02*
X144750000Y-137000000D01*
X154407739Y-126205118D02*
X144750000Y-135862857D01*
%TO.N,Net-(D21-A)*%
X131292000Y-120520000D02*
X127850000Y-123962000D01*
X127850000Y-123962000D02*
X127850000Y-127900000D01*
X124550000Y-131200000D02*
X124550000Y-134500000D01*
X127850000Y-127900000D02*
X124550000Y-131200000D01*
%TO.N,Net-(D22-A)*%
X108800000Y-123962000D02*
X108800000Y-128950000D01*
X112242000Y-120520000D02*
X108800000Y-123962000D01*
X108800000Y-128950000D02*
X108750000Y-129000000D01*
X108750000Y-129000000D02*
X107750000Y-129000000D01*
X105500000Y-131250000D02*
X105500000Y-134500000D01*
X107750000Y-129000000D02*
X105500000Y-131250000D01*
%TO.N,COL5*%
X43250000Y-64500000D02*
X43165000Y-64415000D01*
X158050000Y-55168628D02*
X158050000Y-52600000D01*
X118750000Y-52500000D02*
X116750000Y-52500000D01*
X79315686Y-64500000D02*
X43250000Y-64500000D01*
X79815686Y-65000000D02*
X79315686Y-64500000D01*
X43165000Y-64415000D02*
X43165000Y-71960000D01*
X158050000Y-52600000D02*
X118850000Y-52600000D01*
X43165000Y-91010000D02*
X43165000Y-110060000D01*
X80665000Y-65000000D02*
X79815686Y-65000000D01*
X43165000Y-71960000D02*
X43165000Y-91010000D01*
X157984314Y-55234314D02*
X158050000Y-55168628D01*
X159630000Y-56880000D02*
X157984314Y-55234314D01*
X118850000Y-52600000D02*
X118750000Y-52500000D01*
%TO.N,COL4*%
X62215000Y-84535000D02*
X62215000Y-91010000D01*
X62215000Y-91010000D02*
X62215000Y-95465000D01*
X79750000Y-65500000D02*
X79250000Y-65000000D01*
X62750000Y-109525000D02*
X62215000Y-110060000D01*
X63750000Y-77000000D02*
X63750000Y-83000000D01*
X62750000Y-96000000D02*
X62750000Y-109525000D01*
X62215000Y-75465000D02*
X63750000Y-77000000D01*
X118250000Y-53500000D02*
X117750000Y-53500000D01*
X62215000Y-71960000D02*
X62215000Y-75465000D01*
X62750000Y-67000000D02*
X62215000Y-67535000D01*
X79750000Y-66500000D02*
X79750000Y-65500000D01*
X159630000Y-59420000D02*
X157584314Y-57374314D01*
X157584314Y-57374314D02*
X157584314Y-53000000D01*
X157584314Y-53000000D02*
X120407264Y-53000000D01*
X119907264Y-53500000D02*
X118250000Y-53500000D01*
X63750000Y-83000000D02*
X62215000Y-84535000D01*
X62215000Y-67535000D02*
X62215000Y-71960000D01*
X79250000Y-65000000D02*
X62750000Y-65000000D01*
X62750000Y-65000000D02*
X62750000Y-67000000D01*
X62215000Y-95465000D02*
X62750000Y-96000000D01*
X120407264Y-53000000D02*
X119907264Y-53500000D01*
%TO.N,COL3*%
X83750000Y-118000000D02*
X86810000Y-121060000D01*
X116250000Y-54500000D02*
X115750000Y-54000000D01*
X81265000Y-78010000D02*
X81265000Y-97060000D01*
X86810000Y-121060000D02*
X97315000Y-121060000D01*
X81265000Y-58960000D02*
X81265000Y-78010000D01*
X119750000Y-54500000D02*
X116250000Y-54500000D01*
X83250000Y-51500000D02*
X81265000Y-53485000D01*
X157184314Y-53400000D02*
X120850000Y-53400000D01*
X81265000Y-117515000D02*
X81750000Y-118000000D01*
X97315000Y-121060000D02*
X99315000Y-123060000D01*
X120850000Y-53400000D02*
X119750000Y-54500000D01*
X94250000Y-51500000D02*
X83250000Y-51500000D01*
X81265000Y-53485000D02*
X81265000Y-58960000D01*
X96750000Y-49000000D02*
X94250000Y-51500000D01*
X159630000Y-61960000D02*
X157184314Y-59514314D01*
X114750000Y-49000000D02*
X96750000Y-49000000D01*
X115750000Y-54000000D02*
X115750000Y-50000000D01*
X81265000Y-97060000D02*
X81265000Y-117515000D01*
X81750000Y-118000000D02*
X83750000Y-118000000D01*
X115750000Y-50000000D02*
X114750000Y-49000000D01*
X157184314Y-59514314D02*
X157184314Y-53400000D01*
%TO.N,COL2*%
X114750000Y-50000000D02*
X100750000Y-50000000D01*
X100315000Y-54960000D02*
X100315000Y-74010000D01*
X113305000Y-114555000D02*
X113305000Y-118000000D01*
X159630000Y-64500000D02*
X156784314Y-61654314D01*
X113305000Y-118000000D02*
X118365000Y-123060000D01*
X115250000Y-55000000D02*
X114817000Y-54567000D01*
X156784314Y-61654314D02*
X156784314Y-54234315D01*
X100315000Y-50435000D02*
X100315000Y-54960000D01*
X100750000Y-114000000D02*
X112750000Y-114000000D01*
X100315000Y-113565000D02*
X100750000Y-114000000D01*
X121184314Y-54000000D02*
X120184314Y-55000000D01*
X100315000Y-74010000D02*
X100315000Y-93060000D01*
X100315000Y-93060000D02*
X100315000Y-113565000D01*
X120184314Y-55000000D02*
X115250000Y-55000000D01*
X156784314Y-54234315D02*
X156549999Y-54000000D01*
X156549999Y-54000000D02*
X121184314Y-54000000D01*
X114817000Y-50067000D02*
X114750000Y-50000000D01*
X100750000Y-50000000D02*
X100315000Y-50435000D01*
X112750000Y-114000000D02*
X113305000Y-114555000D01*
X114817000Y-54567000D02*
X114817000Y-50067000D01*
%TO.N,COL1*%
X156384314Y-54400000D02*
X121350000Y-54400000D01*
X134750000Y-116000000D02*
X136750000Y-118000000D01*
X156384314Y-63794314D02*
X156384314Y-54400000D01*
X121350000Y-54400000D02*
X119365000Y-56385000D01*
X119365000Y-83010000D02*
X119365000Y-102060000D01*
X119365000Y-115615000D02*
X119750000Y-116000000D01*
X119365000Y-56385000D02*
X119365000Y-63960000D01*
X119750000Y-116000000D02*
X134750000Y-116000000D01*
X159630000Y-67040000D02*
X156384314Y-63794314D01*
X119365000Y-63960000D02*
X119365000Y-83010000D01*
X119365000Y-102060000D02*
X119365000Y-115615000D01*
X136750000Y-120798999D02*
X141263816Y-125312815D01*
X136750000Y-118000000D02*
X136750000Y-120798999D01*
%TO.N,COL0*%
X138750000Y-116000000D02*
X147059378Y-116000000D01*
X138415000Y-103060000D02*
X138415000Y-115665000D01*
X138415000Y-115665000D02*
X138750000Y-116000000D01*
X138415000Y-64960000D02*
X138415000Y-84010000D01*
X160010642Y-129397865D02*
X162010642Y-131397865D01*
X147059378Y-116000000D02*
X159010641Y-127951263D01*
X159010641Y-127951263D02*
X159010641Y-129397865D01*
X159010641Y-129397865D02*
X160010642Y-129397865D01*
X138415000Y-84010000D02*
X138415000Y-103060000D01*
X139750000Y-58330000D02*
X138415000Y-59665000D01*
X155984314Y-54800000D02*
X139750000Y-54800000D01*
X155984314Y-65934314D02*
X155984314Y-54800000D01*
X139750000Y-54800000D02*
X139750000Y-58330000D01*
X138415000Y-59665000D02*
X138415000Y-64960000D01*
X159630000Y-69580000D02*
X155984314Y-65934314D01*
%TD*%
M02*
